<?xml version="1.0" encoding="UTF-8"?>
<svg width="502px" height="142px" viewBox="0 0 502 142" version="1.1" xmlns="http://www.w3.org/2000/svg" xmlns:xlink="http://www.w3.org/1999/xlink">
    <!-- Generator: Sketch 52.2 (67145) - http://www.bohemiancoding.com/sketch -->
    <title>Artboard</title>
    <desc>Created with Sketch.</desc>
    <g id="Page-1" stroke="none" stroke-width="1" fill="none" fill-rule="evenodd">
        <g id="Artboard" transform="translate(-1440.000000, -443.000000)">
            <g id="SvgjsG1008" transform="translate(1457.000000, 450.000000)" fill="#2075D7" fill-rule="nonzero">
                <ellipse id="Oval" cx="63.4944095" cy="61.474057" rx="63.4944095" ry="61.474057"></ellipse>
            </g>
            <g id="SvgjsG1009" transform="translate(1487.000000, 484.000000)" fill="#FFFFFF" fill-rule="nonzero">
                <path d="M60.6936657,21.3383717 C57.6357248,21.3383717 55.086762,23.4794628 54.5234928,26.3037962 L49.8653245,23.189482 C49.5599376,22.9842444 49.1351104,23.061043 48.9233755,23.3616167 C48.7116406,23.6635145 48.7890053,24.0753137 49.0998213,24.2818754 L53.8801444,27.4782847 L49.0998213,30.6746939 C48.7890053,30.8812556 48.7116406,31.2930548 48.9233755,31.5936285 C49.0550312,31.7816526 49.2667661,31.8822852 49.4825729,31.8822852 C49.6155858,31.8822852 49.7485988,31.84521 49.8653245,31.7657632 L54.5234928,28.651449 C55.086762,31.4771065 57.6357248,33.6155494 60.6936657,33.6155494 C64.1655756,33.6155494 66.9900652,30.862718 66.9900652,27.4769605 C66.9900652,24.0938513 64.1655756,21.3383717 60.6936657,21.3383717 Z M60.6936657,32.2940844 C57.972329,32.2940844 55.7586132,30.1344557 55.7586132,27.4796088 C55.7586132,24.8234377 57.972329,22.6624849 60.6936657,22.6624849 C63.417717,22.6624849 65.6327901,24.8234377 65.6327901,27.4796088 C65.6327901,30.1344557 63.417717,32.2940844 60.6936657,32.2940844 Z" id="Shape"></path>
                <path d="M60.6936657,42.6724837 C57.6357248,42.6724837 55.086762,44.8122506 54.5234928,47.6365841 L49.8639672,44.523594 C49.557223,44.3170323 49.1351104,44.3925067 48.9220182,44.6957287 C48.7102833,44.9976265 48.787648,45.4094257 49.098464,45.6146632 L54.4406991,49.1831483 C54.6429331,52.3927987 57.3547688,54.9509855 60.6936657,54.9509855 C64.1655756,54.9509855 66.9900652,52.1955059 66.9900652,48.8084243 C66.9900652,45.425315 64.1655756,42.6724837 60.6936657,42.6724837 Z M60.6936657,53.6281964 C57.972329,53.6281964 55.7586132,51.4672436 55.7586132,48.8097484 C55.7586132,46.1549014 57.972329,43.9952728 60.6936657,43.9952728 C63.417717,43.9952728 65.6327901,46.1549014 65.6327901,48.8097484 C65.6327901,51.4672436 63.417717,53.6281964 60.6936657,53.6281964 Z" id="Shape"></path>
                <path d="M18.0969419,23.3616167 C17.8838497,23.061043 17.4617372,22.9842444 17.1536357,23.189482 L12.4954673,26.3024721 C11.9308408,23.4781387 9.38187809,21.3383717 6.32393714,21.3383717 C2.85338454,21.3383717 0.0302521915,24.0925272 0.0302521915,27.4782847 C0.0302521915,30.8640421 2.85338454,33.6181976 6.32393714,33.6181976 C9.38187809,33.6181976 11.9308408,31.4784306 12.4954673,28.6540972 L17.1536357,31.7670873 C17.2703614,31.8465341 17.4047316,31.8836093 17.5363873,31.8836093 C17.752194,31.8836093 17.9652862,31.7829767 18.0969419,31.5949526 C18.3086769,31.2930548 18.2299549,30.8812556 17.9204962,30.676018 L13.1388157,27.4782847 L17.9191389,24.2818754 C18.2285976,24.0753137 18.3073196,23.6635145 18.0969419,23.3616167 Z M6.32393714,32.2940844 C3.60260043,32.2940844 1.38752736,30.1331316 1.38752736,27.4782847 C1.38752736,24.8234377 3.60124315,22.6624849 6.32393714,22.6624849 C9.04663112,22.6624849 11.2603469,24.8221136 11.2603469,27.4782847 C11.2589896,30.1331316 9.04527385,32.2940844 6.32393714,32.2940844 Z" id="Shape"></path>
                <path d="M22.2977086,21.2165533 C22.4293643,21.2165533 22.5637345,21.1794781 22.6804602,21.1013554 L27.3386285,17.9883653 C27.903255,20.8126988 30.4508605,22.9524657 33.5088014,22.9524657 C36.5680997,22.9524657 39.1170624,20.8126988 39.6816889,17.9870412 L44.3398573,21.1013554 C44.4565829,21.1794781 44.5909532,21.2165533 44.7226089,21.2165533 C44.9384156,21.2165533 45.1501505,21.1159207 45.2818062,20.9292207 C45.4935412,20.6273229 45.4161765,20.2155237 45.1053605,20.0089621 L40.3250373,16.8125528 L45.1053605,13.6161435 C45.4161765,13.4095818 45.4935412,12.9977826 45.2818062,12.6958848 C45.0700713,12.393987 44.6479587,12.3185126 44.3398573,12.5237501 L39.6816889,15.6380644 C39.1184197,12.8124068 36.5680997,10.6726398 33.5088014,10.6726398 C30.1712618,10.6726398 27.4580688,13.2295024 27.2558348,16.4378287 L21.9135997,20.0089621 C21.604141,20.2155237 21.525419,20.6273229 21.7371539,20.9292207 C21.8688096,21.1145966 22.0819018,21.2165533 22.2977086,21.2165533 Z M33.5088014,11.9954289 C36.2314954,11.9954289 38.4465685,14.1563817 38.4465685,16.8125528 C38.4465685,19.4673998 36.2314954,21.6283525 33.5088014,21.6283525 C30.7874647,21.6283525 28.5737489,19.4687239 28.5737489,16.8125528 C28.5737489,14.1550576 30.7874647,11.9954289 33.5088014,11.9954289 Z" id="Shape"></path>
                <path d="M49.4839301,10.5481732 C49.6169431,10.5481732 49.7499561,10.511098 49.8666817,10.4329753 L54.5248501,7.31866108 C55.0881193,10.1443187 57.6370821,12.2840856 60.695023,12.2840856 C64.1669329,12.2840856 66.9914225,9.52860602 66.9914225,6.14284856 C66.9914225,2.75709109 64.1669329,0.00293561814 60.695023,0.00293561814 C57.3561261,0.00293561814 54.6442903,2.55979822 54.4420563,5.76812452 L49.1011786,9.33925784 C48.7903625,9.5458195 48.7129979,9.9576187 48.9247328,10.2595165 C49.0550312,10.4475406 49.2667661,10.5481732 49.4839301,10.5481732 Z M60.6936657,1.32837294 C63.417717,1.32837294 65.6327901,3.48800158 65.6327901,6.14417267 C65.6327901,8.80034376 63.417717,10.9612965 60.6936657,10.9612965 C57.972329,10.9612965 55.7586132,8.80034376 55.7586132,6.14417267 C55.7599705,3.48800158 57.972329,1.32837294 60.6936657,1.32837294 Z" id="Shape"></path>
                <path d="M40.3250373,38.1479889 L45.1053605,34.9515796 C45.4161765,34.7450179 45.4935412,34.3332187 45.2818062,34.032645 C45.0700713,33.7320713 44.6479587,33.6539486 44.3398573,33.8605103 L39.6816889,36.9748246 C39.1184197,34.149167 36.5680997,32.0067518 33.5088014,32.0067518 C30.4522178,32.0067518 27.9018977,34.1478429 27.3386285,36.9748246 L22.6804602,33.8605103 C22.3696442,33.6526245 21.9488889,33.7294231 21.7371539,34.032645 C21.525419,34.3345428 21.604141,34.746342 21.9135997,34.9515796 L27.2558348,38.5227129 C27.4580688,41.7310392 30.1699045,44.2865777 33.5088014,44.2865777 C36.5680997,44.2865777 39.1184197,42.1468108 39.6816889,39.3224773 L44.3412145,42.4354674 C44.4579402,42.5149142 44.5923104,42.5519894 44.7239661,42.5519894 C44.9397729,42.5519894 45.1515078,42.4513568 45.2831635,42.2633327 C45.4948984,41.9614349 45.4175338,41.5496357 45.1067177,41.3443981 L40.3250373,38.1479889 Z M33.5088014,42.9611404 C30.7874647,42.9611404 28.5737489,40.8015117 28.5737489,38.1466648 C28.5737489,35.4891695 30.7874647,33.3282168 33.5088014,33.3282168 C36.2314954,33.3282168 38.4465685,35.4891695 38.4465685,38.1466648 C38.4465685,40.8028358 36.2314954,42.9611404 33.5088014,42.9611404 Z" id="Shape"></path>
            </g>
            <text id="Pragra" font-family="Poppins-Regular, Poppins" font-size="96" font-weight="normal" letter-spacing="1.74774194" fill="#6B7073">
                <tspan x="1591" y="544">Pragra</tspan>
            </text>
        </g>
    </g>
</svg>