<svg xmlns="http://www.w3.org/2000/svg" xmlns:xlink="http://www.w3.org/1999/xlink" viewBox="0 0 583.64 323.53"><defs><style>.cls-1{fill:#f9f9f9;}.cls-1,.cls-43,.cls-5,.cls-6{mix-blend-mode:multiply;}.cls-2{isolation:isolate;}.cls-3{clip-path:url(#clip-path);}.cls-4{fill:#dcdcdc;}.cls-5{fill:#f4f4f4;}.cls-13,.cls-6{fill:#010102;opacity:0.1;}.cls-7{fill:#aeaba2;}.cls-8,.cls-9{fill:#3a3637;}.cls-12,.cls-8{opacity:0.15;}.cls-10,.cls-12{fill:#ecebe5;}.cls-11{fill:#42af6f;}.cls-14,.cls-22,.cls-23,.cls-38{fill:none;stroke-miterlimit:10;}.cls-14,.cls-22{stroke:#42af6f;}.cls-14,.cls-22,.cls-38{stroke-linecap:round;}.cls-14{stroke-width:2px;}.cls-15{fill:#a6a59d;}.cls-16{fill:#d5d6cc;}.cls-17{fill:#818180;}.cls-18{fill:#c5c5c5;}.cls-19{fill:#f3f3f3;}.cls-20{fill:#2b6cb0;}.cls-21{fill:#fff;}.cls-23{stroke:#aeaeae;}.cls-23,.cls-38{stroke-width:3px;}.cls-24{fill:#545454;}.cls-25{fill:#5a5a5a;}.cls-26{fill:#5f5f5f;}.cls-27{fill:#656565;}.cls-28{fill:#6b6b6a;}.cls-29{fill:#707070;}.cls-30{fill:#767676;}.cls-31{fill:#7c7c7b;}.cls-32{fill:#818181;}.cls-33{fill:#878786;}.cls-34{fill:#8d8d8c;}.cls-35{fill:#929291;}.cls-36{fill:#989897;}.cls-37,.cls-43{opacity:0.2;}.cls-38{stroke:#dcdcdc;}.cls-39{fill:#d1d1d1;}.cls-40{fill:#f5ca8f;}.cls-41{fill:#e10000;}.cls-42{fill:#aaa9a9;}.cls-43{fill:#3c3c3b;}.cls-44{fill:#ea9b33;}</style><clipPath id="clip-path"><path id="SVGID" class="cls-1" d="M11.88,154c.76-43.69,28.95-75.49,64.33-84.83s36.15-26.63,48.21-49.81c15.86-30.48,112.74,5.7,139,18.82,45.22,22.64,43.3,11.66,74.86,10.73S444.46-.83,500.83,10s74.79,93,47.33,123.76-29.9,58.39-28.42,72S494.93,267.29,440.5,270s-94.46-32.8-134.93-27.2-130.22,30.06-178.3,29.68S10.7,222.07,11.88,154Z"/></clipPath></defs><title>startpage_contiuous-testing</title><g class="cls-2"><g id="Ebene_2" data-name="Ebene 2"><g id="Ebene_2-2" data-name="Ebene 2"><path id="SVGID-2" data-name="SVGID" class="cls-1" d="M11.88,154c.76-43.69,28.95-75.49,64.33-84.83s36.15-26.63,48.21-49.81c15.86-30.48,112.74,5.7,139,18.82,45.22,22.64,43.3,11.66,74.86,10.73S444.46-.83,500.83,10s74.79,93,47.33,123.76-29.9,58.39-28.42,72S494.93,267.29,440.5,270s-94.46-32.8-134.93-27.2-130.22,30.06-178.3,29.68S10.7,222.07,11.88,154Z"/><g class="cls-3"><path class="cls-4" d="M456.86,209.37c-.88.61-1.72,1.24-2.54,1.89l-11.49-2.46a57,57,0,0,0-5.25,6.12l4.63,10.44a45.5,45.5,0,0,0-2.68,5.65l-11.19,3.41a55.37,55.37,0,0,0-1.38,7.85l9.39,6.8a45.85,45.85,0,0,0,.6,6.18L429,263.63a55.75,55.75,0,0,0,2.86,7.45l11.69,1.36c.55.87,1.13,1.74,1.75,2.58s1.28,1.67,1.95,2.46l-2.54,11.11a57.61,57.61,0,0,0,6.33,5.07l10.8-4.47a48.25,48.25,0,0,0,5.84,2.59l3.54,10.82a61.76,61.76,0,0,0,8.11,1.33l7-9.08a49.1,49.1,0,0,0,6.39-.58l8.67,7.67a59.1,59.1,0,0,0,7.71-2.76l1.4-11.3c.9-.53,1.8-1.09,2.68-1.69s1.71-1.24,2.54-1.89l11.49,2.46a56.9,56.9,0,0,0,5.24-6.12l-4.62-10.44a47,47,0,0,0,2.68-5.65l11.19-3.41a55.37,55.37,0,0,0,1.38-7.85l-9.4-6.8a44.26,44.26,0,0,0-.59-6.18l7.93-8.38a53.15,53.15,0,0,0-2.86-7.45l-11.68-1.36c-.56-.87-1.14-1.74-1.76-2.58s-1.28-1.67-1.95-2.46L525.36,207A57.5,57.5,0,0,0,519,201.9l-10.81,4.47a48.25,48.25,0,0,0-5.84-2.59L498.86,193a61.63,61.63,0,0,0-8.12-1.33l-7,9.08a49.1,49.1,0,0,0-6.4.58l-8.67-7.67a60.47,60.47,0,0,0-7.7,2.76l-1.4,11.3C458.63,208.21,457.74,208.77,456.86,209.37ZM515.8,274.6a40.85,40.85,0,0,1-6.79,5.84A42.48,42.48,0,0,1,476.54,287l6.72-15.83a24.75,24.75,0,0,0,15.8-4.26,23.45,23.45,0,0,0,2-1.53Zm5.86-8.11L508,255.28a22.71,22.71,0,0,0-.55-16.43l13.7-10.73A38.88,38.88,0,0,1,521.66,266.49Zm-56.38-5.16a23.67,23.67,0,0,0,6.26,5.9l-4.6,16.58A41,41,0,0,1,451.25,271a39.05,39.05,0,0,1-7.5-19.93l17.52,1.28A22.88,22.88,0,0,0,465.28,261.33ZM514.91,220l-15.22,9.09a24.82,24.82,0,0,0-14.87-4.76l-6.4-16.11A42.3,42.3,0,0,1,514.91,220Zm-46.52-8.93,4.19,16.6c-.53.31-1.05.63-1.56,1a23.43,23.43,0,0,0-8.89,11.5l-17.93.92a39.74,39.74,0,0,1,16.87-26A41.91,41.91,0,0,1,468.39,211.1Z"/><path class="cls-4" d="M367,233.4c-.57.4-1.13.81-1.67,1.24L357.8,233a39.71,39.71,0,0,0-3.45,4l3,6.87a29.28,29.28,0,0,0-1.77,3.71l-7.36,2.24a36.31,36.31,0,0,0-.9,5.17l6.17,4.47a29.52,29.52,0,0,0,.4,4.07l-5.22,5.51a36.58,36.58,0,0,0,1.88,4.9l7.68.89c.37.57.75,1.14,1.16,1.7s.84,1.09,1.28,1.62l-1.67,7.3a37.46,37.46,0,0,0,4.16,3.33l7.11-2.93a31.33,31.33,0,0,0,3.84,1.7l2.32,7.11a38.61,38.61,0,0,0,5.34.88l4.63-6a34.86,34.86,0,0,0,4.2-.38l5.71,5a37.76,37.76,0,0,0,5.06-1.82l.92-7.42c.6-.36,1.19-.72,1.77-1.12s1.13-.81,1.67-1.24l7.55,1.62a37.32,37.32,0,0,0,3.45-4l-3-6.87a29.28,29.28,0,0,0,1.77-3.71l7.35-2.25a36,36,0,0,0,.91-5.16l-6.18-4.47a29.35,29.35,0,0,0-.39-4.07l5.22-5.51a36.58,36.58,0,0,0-1.88-4.9l-7.69-.89c-.36-.57-.74-1.14-1.15-1.7s-.84-1.09-1.28-1.62l1.67-7.3a38.75,38.75,0,0,0-4.16-3.34l-7.11,2.94a31.33,31.33,0,0,0-3.84-1.7l-2.32-7.11a38.61,38.61,0,0,0-5.34-.88l-4.63,6a35.21,35.21,0,0,0-4.21.38l-5.7-5a37.76,37.76,0,0,0-5.06,1.82l-.93,7.42C368.2,232.64,367.61,233,367,233.4Zm38.77,42.9a26.82,26.82,0,0,1-4.47,3.84A27.91,27.91,0,0,1,380,284.43L384.39,274a16.26,16.26,0,0,0,10.4-2.8,14.58,14.58,0,0,0,1.31-1Zm3.86-5.33-9-7.38a14.93,14.93,0,0,0-.36-10.8l9-7.06A25.59,25.59,0,0,1,409.66,271Zm-37.09-3.4a15.63,15.63,0,0,0,4.12,3.88l-3,10.9a26.9,26.9,0,0,1-10.32-8.45,25.71,25.71,0,0,1-4.94-13.11l11.52.84A15.18,15.18,0,0,0,372.57,267.57Zm32.65-27.16-10,6a16.24,16.24,0,0,0-9.77-3.13l-4.22-10.6A27.85,27.85,0,0,1,405.22,240.41Zm-30.6-5.87,2.75,10.92c-.35.2-.69.41-1,.64a15.35,15.35,0,0,0-5.85,7.56l-11.79.6a26.13,26.13,0,0,1,11.09-17.08A27,27,0,0,1,374.62,234.54Z"/></g><path class="cls-1" d="M553.86,199c4.92-46.28-19.75-82.56-54.69-95.79s-53.79-37-56.94-64.46S368.31-7.72,321.17,17s-55,44-87.16,40S131.92-5.69,72.89.45-15.66,91.64,8.39,126.82,28,191,28.07,205.6c.17,35.57,17.34,67.41,72.62,75.4s100.81-25.73,141.44-16,129.18,44.1,178.37,48.25S546.21,271,553.86,199Z"/><path class="cls-5" d="M567.31,189.45c1.78-44.44-2-94.74-36.63-105.08s-64.26-27-80-50.82C436.08,11.57,357.33-5.59,313.4,21s-50.32,45.5-81.59,43.8S129.23,11.65,72.64,21.32-7,114,18.45,146s1.83,81.5,2.83,95.41c2.44,33.9,20.4,56.85,74.28,60.89S213.1,256,253,262.62s127.54,33.69,175.3,34.46S564.53,258.64,567.31,189.45Z"/><path class="cls-6" d="M21.92,168.69H565.13a5.12,5.12,0,0,1,5.12,5.12v0a0,0,0,0,1,0,0H16.8a0,0,0,0,1,0,0v0A5.12,5.12,0,0,1,21.92,168.69Z" transform="translate(587.05 342.5) rotate(-180)"/><polyline class="cls-7" points="457.34 53.68 445.12 48.91 353.68 48.91 340.74 53.68 458.06 53.68"/><rect class="cls-7" x="340.74" y="53.68" width="15.99" height="88.85" transform="translate(697.48 196.22) rotate(-180)"/><rect class="cls-7" x="442.07" y="53.68" width="15.99" height="88.85" transform="translate(900.12 196.22) rotate(-180)"/><rect class="cls-7" x="356.73" y="53.68" width="85.33" height="29.86" transform="translate(798.8 137.22) rotate(-180)"/><rect class="cls-8" x="356.73" y="53.68" width="85.33" height="29.86" transform="translate(798.8 137.22) rotate(-180)"/><rect class="cls-9" x="378.56" y="83.54" width="19.84" height="58.99" transform="translate(776.97 226.07) rotate(-180)"/><rect class="cls-9" x="356.73" y="83.54" width="19.84" height="58.99" transform="translate(733.31 226.07) rotate(-180)"/><circle class="cls-10" cx="399.4" cy="68.61" r="5.25"/><circle class="cls-11" cx="399.4" cy="68.61" r="4.11"/><circle class="cls-12" cx="398.47" cy="67.49" r="1.56"/><path class="cls-11" d="M348.74,44.56c3.91,0,7.08,2.64,7.08,6.86v2.26H341.66V51.42C341.66,47.2,344.83,44.56,348.74,44.56Z"/><path class="cls-7" d="M341.46,51.65H356a0,0,0,0,1,0,0v1.65a.38.38,0,0,1-.38.38H341.83a.38.38,0,0,1-.38-.38V51.65A0,0,0,0,1,341.46,51.65Z" transform="translate(697.48 105.34) rotate(-180)"/><path class="cls-11" d="M341.46,51.65H356a0,0,0,0,1,0,0v1.65a.38.38,0,0,1-.38.38H341.83a.38.38,0,0,1-.38-.38V51.65A0,0,0,0,1,341.46,51.65Z" transform="translate(697.48 105.34) rotate(-180)"/><path class="cls-11" d="M450,44.56a6.69,6.69,0,0,1,7,6.86v2.26H443V51.42A6.68,6.68,0,0,1,450,44.56Z"/><path class="cls-8" d="M442.78,51.65h14.56a0,0,0,0,1,0,0v1.65a.38.38,0,0,1-.38.38H443.16a.38.38,0,0,1-.38-.38V51.65A0,0,0,0,1,442.78,51.65Z" transform="translate(900.12 105.34) rotate(-180)"/><rect class="cls-8" x="442.78" y="52.83" width="14.56" height="0.85" transform="translate(900.12 106.51) rotate(-180)"/><rect class="cls-8" x="356.73" y="53.68" width="3.51" height="29.86" transform="translate(716.98 137.22) rotate(-180)"/><rect class="cls-8" x="438.56" y="53.68" width="3.51" height="29.86" transform="translate(880.62 137.22) rotate(-180)"/><rect class="cls-13" x="422.22" y="83.54" width="19.84" height="4.18" transform="translate(864.29 171.26) rotate(-180)"/><rect class="cls-13" x="400.39" y="83.54" width="19.84" height="4.18" transform="translate(820.63 171.26) rotate(-180)"/><rect class="cls-13" x="378.56" y="83.54" width="19.84" height="4.18" transform="translate(776.97 171.26) rotate(-180)"/><rect class="cls-13" x="356.73" y="83.54" width="19.84" height="4.18" transform="translate(733.31 171.26) rotate(-180)"/><path class="cls-14" d="M461,48.1a10.52,10.52,0,0,0-18.19-4.58"/><polygon class="cls-15" points="379.2 142.47 419.63 142.47 419.63 107.34 413.72 104.04 385.1 104.04 379.2 107.34 379.2 142.47"/><polygon class="cls-16" points="419.63 107.34 379.1 107.34 385.1 104.04 413.72 104.04 419.63 107.34"/><rect class="cls-17" x="397.48" y="107.32" width="4.01" height="35.19" transform="translate(798.97 249.83) rotate(-180)"/><polygon class="cls-18" points="397.48 107.33 401.49 107.33 400.88 104.04 398.23 104.04 397.48 107.33"/><circle class="cls-11" cx="503.71" cy="124.92" r="10.14"/><polygon class="cls-19" points="501.15 130.57 496.67 126.09 498.37 124.39 501.15 127.17 509.06 119.26 510.76 120.96 501.15 130.57"/><polygon class="cls-15" points="250.18 142.47 290.61 142.47 290.61 107.34 284.7 104.04 256.08 104.04 250.18 107.34 250.18 142.47"/><polygon class="cls-16" points="290.61 107.34 250.08 107.34 256.08 104.04 284.7 104.04 290.61 107.34"/><rect class="cls-17" x="268.46" y="107.32" width="4.01" height="35.19" transform="translate(540.93 249.83) rotate(-180)"/><polygon class="cls-18" points="268.46 107.33 272.47 107.33 271.86 104.04 269.21 104.04 268.46 107.33"/><polygon class="cls-15" points="483.43 142.47 523.86 142.47 523.86 107.34 517.95 104.04 489.33 104.04 483.43 107.34 483.43 142.47"/><polygon class="cls-16" points="523.86 107.34 483.33 107.34 489.33 104.04 517.95 104.04 523.86 107.34"/><rect class="cls-17" x="501.71" y="107.32" width="4.01" height="35.19" transform="translate(1007.43 249.83) rotate(-180)"/><polygon class="cls-18" points="501.71 107.33 505.72 107.33 505.11 104.04 502.46 104.04 501.71 107.33"/><circle class="cls-11" cx="503.71" cy="124.92" r="10.14"/><circle class="cls-20" cx="270.35" cy="124.92" r="10.14"/><path class="cls-21" d="M271.82,121.46a1.5,1.5,0,0,0-1.62-1.6,2.74,2.74,0,0,0-2.06,1l-1.28-1.18a4.72,4.72,0,0,1,3.62-1.74c2.08,0,3.58,1.13,3.58,3.32,0,2.54-3.12,3.44-2.84,6h-2C268.78,124.4,271.82,123.26,271.82,121.46Zm-3.08,8.84a1.48,1.48,0,0,1,1.48-1.56,1.56,1.56,0,0,1,0,3.12A1.48,1.48,0,0,1,268.74,130.3Z"/><circle class="cls-20" cx="398.37" cy="124.92" r="10.14"/><path class="cls-21" d="M399.84,121.46a1.5,1.5,0,0,0-1.62-1.6,2.74,2.74,0,0,0-2.06,1l-1.28-1.18A4.72,4.72,0,0,1,398.5,118c2.08,0,3.58,1.13,3.58,3.32,0,2.54-3.12,3.44-2.84,6h-2C396.8,124.4,399.84,123.26,399.84,121.46Zm-3.08,8.84a1.48,1.48,0,0,1,1.48-1.56,1.56,1.56,0,0,1,0,3.12A1.48,1.48,0,0,1,396.76,130.3Z"/><polygon class="cls-15" points="90.98 142.47 131.41 142.47 131.41 107.34 125.5 104.04 96.88 104.04 90.98 107.34 90.98 142.47"/><polygon class="cls-16" points="131.41 107.34 90.88 107.34 96.88 104.04 125.5 104.04 131.41 107.34"/><rect class="cls-17" x="109.26" y="107.32" width="4.01" height="35.19" transform="translate(222.52 249.83) rotate(-180)"/><polygon class="cls-18" points="109.25 107.33 113.27 107.33 112.66 104.04 110.01 104.04 109.25 107.33"/><circle class="cls-20" cx="111.15" cy="124.92" r="10.14"/><path class="cls-21" d="M112.61,121.46a1.49,1.49,0,0,0-1.62-1.6,2.74,2.74,0,0,0-2.06,1l-1.28-1.18a4.74,4.74,0,0,1,3.63-1.74c2.08,0,3.58,1.13,3.58,3.32,0,2.54-3.13,3.44-2.84,6h-2C109.57,124.4,112.61,123.26,112.61,121.46Zm-3.08,8.84a1.5,1.5,0,1,1,1.49,1.56A1.49,1.49,0,0,1,109.53,130.3Z"/><polygon class="cls-19" points="501.15 130.57 496.67 126.09 498.37 124.39 501.15 127.17 509.06 119.26 510.76 120.96 501.15 130.57"/><polygon class="cls-13" points="482.96 162.14 472.4 162.14 470.97 157.28 482.1 157.28 482.96 162.14"/><polygon class="cls-13" points="541.13 162.14 551.69 162.14 553.12 157.28 542 157.28 541.13 162.14"/><path class="cls-22" d="M466.42,46.53a16.06,16.06,0,0,0-27.51-7.87"/><path class="cls-14" d="M338,48.1a10.52,10.52,0,0,1,18.19-4.58"/><path class="cls-22" d="M332.55,46.53a16.06,16.06,0,0,1,27.51-7.87"/><rect class="cls-18" x="287.33" y="-126.51" width="16.04" height="566.97" rx="8.02" transform="translate(138.38 452.33) rotate(-90)"/><rect class="cls-23" x="284.15" y="-130.02" width="21.97" height="574" rx="10.99" transform="translate(138.16 452.11) rotate(-90)"/><path class="cls-24" d="M567.31,157a3,3,0,1,1,3,3A3,3,0,0,1,567.31,157Zm-3.71,0a6.69,6.69,0,1,0,6.68-6.69A6.68,6.68,0,0,0,563.6,157Z"/><path class="cls-25" d="M521.58,157a3,3,0,1,1,3,3A3,3,0,0,1,521.58,157Zm-3.71,0a6.69,6.69,0,1,0,6.69-6.69A6.69,6.69,0,0,0,517.87,157Z"/><path class="cls-26" d="M475.86,156.94a3,3,0,1,1,3,3A3,3,0,0,1,475.86,156.94Zm-3.71,0a6.69,6.69,0,1,0,6.69-6.68A6.7,6.7,0,0,0,472.15,156.94Z"/><path class="cls-27" d="M430.14,156.92a3,3,0,1,1,3,3A3,3,0,0,1,430.14,156.92Zm-3.71,0a6.69,6.69,0,1,0,6.69-6.68A6.68,6.68,0,0,0,426.43,156.92Z"/><path class="cls-28" d="M384.42,156.91a3,3,0,1,1,3,3A3,3,0,0,1,384.42,156.91Zm-3.71,0a6.69,6.69,0,1,0,6.68-6.69A6.68,6.68,0,0,0,380.71,156.91Z"/><path class="cls-29" d="M338.7,156.89a3,3,0,1,1,3,3A3,3,0,0,1,338.7,156.89Zm-3.71,0a6.69,6.69,0,1,0,6.68-6.69A6.68,6.68,0,0,0,335,156.89Z"/><path class="cls-30" d="M293,156.87a3,3,0,1,1,3,3A3,3,0,0,1,293,156.87Zm-3.71,0a6.69,6.69,0,1,0,6.68-6.68A6.69,6.69,0,0,0,289.27,156.87Z"/><path class="cls-31" d="M247.25,156.85a3,3,0,1,1,3,3A3,3,0,0,1,247.25,156.85Zm-3.71,0a6.69,6.69,0,1,0,6.69-6.68A6.69,6.69,0,0,0,243.54,156.85Z"/><path class="cls-32" d="M201.53,156.84a3,3,0,1,1,3,3A3,3,0,0,1,201.53,156.84Zm-3.71,0a6.69,6.69,0,1,0,6.69-6.69A6.69,6.69,0,0,0,197.82,156.84Z"/><path class="cls-33" d="M155.81,156.82a3,3,0,1,1,3,3A3,3,0,0,1,155.81,156.82Zm-3.71,0a6.69,6.69,0,1,0,6.69-6.69A6.68,6.68,0,0,0,152.1,156.82Z"/><path class="cls-34" d="M110.09,156.8a3,3,0,1,1,3,3A3,3,0,0,1,110.09,156.8Zm-3.71,0a6.69,6.69,0,1,0,6.68-6.68A6.69,6.69,0,0,0,106.38,156.8Z"/><path class="cls-35" d="M64.37,156.78a3,3,0,1,1,3,3A3,3,0,0,1,64.37,156.78Zm-3.71,0a6.69,6.69,0,1,0,6.68-6.68A6.69,6.69,0,0,0,60.66,156.78Z"/><path class="cls-36" d="M18.65,156.77a3,3,0,1,1,3,3A3,3,0,0,1,18.65,156.77Zm-3.71,0a6.69,6.69,0,1,0,6.68-6.69A6.68,6.68,0,0,0,14.94,156.77Z"/><polygon class="cls-9" points="400.39 142.53 420.24 142.53 420.24 83.54 400.39 83.54 400.39 103.86 400.39 112.01 400.39 142.53"/><g class="cls-37"><line class="cls-38" x1="360.95" y1="127.72" x2="377.34" y2="127.72"/><line class="cls-38" x1="368.64" y1="132.91" x2="377.34" y2="132.91"/><line class="cls-38" x1="372.09" y1="122.54" x2="377.34" y2="122.54"/></g><rect class="cls-39" x="184.32" y="245.9" width="5.94" height="64.27" transform="translate(374.59 556.07) rotate(-180)"/><path class="cls-39" d="M161.27,307.54h52.05a0,0,0,0,1,0,0v0a3.85,3.85,0,0,1-3.85,3.85H165.12a3.85,3.85,0,0,1-3.85-3.85v0A0,0,0,0,1,161.27,307.54Z" transform="translate(374.59 618.95) rotate(-180)"/><rect class="cls-39" x="153.54" y="231.5" width="65.45" height="18.56" rx="6.39"/><path class="cls-40" d="M231.17,203.05a51.8,51.8,0,0,1,18.76,8,5,5,0,0,1,2.18,4.73c-1.19,9.42-6.07,39.9-22.19,69.67a7.48,7.48,0,0,0-.72,5.15l2.8,13,5.19,4.87H223.81l-8.9-24.1,3.81-1.21a7.21,7.21,0,0,0,5-6.74l.44-25.86a29.42,29.42,0,0,1,7.07-19.47l-21.37-1Z"/><path class="cls-41" d="M242.41,310.85c1.22,1.6-13.11,3.7-20.35.21,0,0-10-17.46-10-26.45,0,0,.79-1.83,6.69-1.42,0,0,3.37,20.68,6.92,23s10,.24,10,.24S240.62,308.5,242.41,310.85Z"/><path class="cls-40" d="M212.6,231.5c.11-.2,23-2.75,23-2.75a52.9,52.9,0,0,0,1.59,16.54c2.34,9.58,35.95,51.08,35.95,51.08l-3.53,11.17a56.71,56.71,0,0,0,32.16,1.94l-21.84-13.11s-20.43-69.64-33-82.07L224,206.37Z"/><path class="cls-42" d="M161.27,191S148.08,210.59,147,219.54s3.61,12.58,17.45,13.18,50.77.59,50.77.59l31.53-26.94s-23-8.2-28.95-10.52S161.27,191,161.27,191Z"/><path class="cls-41" d="M270.94,303.78s-3.79,3.67-1.23,7.76c0,0,30.05,5.33,38.21,2.91,0,0-1.69-3.87-10.88-8.27l.68.52a1.1,1.1,0,0,1-.73,2C290.94,308.33,278.41,307.22,270.94,303.78Z"/><path class="cls-20" d="M196.93,188.38s15.36-14.62,22.91-24.31a20.52,20.52,0,0,0,3.48-18.49c-3.45-11.63-9.58-23.67-10.14-25.54-.86-2.88-18.07-2.76-18.07-2.76s-33.89,22-47.2,59.24l15,4.66s8.85-14.85,17.59-24.28c0,0-15.13,20-15.66,28.16Z"/><path class="cls-43" d="M203.56,181.87s-27.2-.67-35.1-5.35a26.79,26.79,0,0,0-3,5.35l31.43,6.51Z"/><path class="cls-40" d="M215.26,104c-.18.6-4.67,15.5-5,15.81s-9.86.82-14.33-2.24l7.59-15.89Z"/><path class="cls-40" d="M219.71,77.46s6.8,5.59,8.75,18.4-3.54,16.83-8.71,16.07-12.56-3.08-18.25-12.67S210.75,70.56,219.71,77.46Z"/><path class="cls-44" d="M208.56,94.83s-1-18.18,13.65-14l2.71,3.41s8.06-7.52.57-14.48a19.47,19.47,0,0,0-29,3.75c-7.25,10.71-7.33,19-2.79,26.5s9,1.85,9,1.85-1.82-6.29.4-8.72S207.5,95,207.5,95Z"/><path class="cls-40" d="M206.38,96.18S205.93,86.83,201,89s.89,8.78,3.27,11.06Z"/><path class="cls-40" d="M228.21,189.47l-11.28-10.88-15.61,6.59s-15.53,2.41-24.42,0l-8.9-2.4-20.09-6.26-3.15,8.92a5.36,5.36,0,0,0,2,6.17,36.1,36.1,0,0,0,5.07,3.16c2.65,1.16,65.23-.8,65.23-.8Z"/><path class="cls-44" d="M197.78,74.7a3.49,3.49,0,0,0-1.84-5.89c-8.85-1.75-22.49-.9-29,17.93C159.64,108,155,118.52,150.65,120.23a3.49,3.49,0,0,0-.46,6.4c2,1,5,1.47,9.29.71C192.6,121.48,185.83,85.93,197.78,74.7Z"/><path class="cls-17" d="M185.52,194.59h.15l65.45-.08a2.93,2.93,0,0,0,0-5.85l-65.45.07a2.93,2.93,0,0,0-.14,5.85Z"/><path class="cls-17" d="M310,135.17H255.44a10.37,10.37,0,0,0-9.39,6l-25.2,53.43h67.74a6.32,6.32,0,0,0,5.87-4L314,141.12A4.35,4.35,0,0,0,310,135.17Z"/><path class="cls-24" d="M94,197a2.43,2.43,0,0,1,.57-2.09A2.79,2.79,0,0,1,96.7,194H369.8a3.18,3.18,0,0,1,2.62,1.34,2.79,2.79,0,0,1,.21,2.8l-3,6a4.18,4.18,0,0,1-3.77,2.26H98.57A3.09,3.09,0,0,1,95.49,204Z"/><path class="cls-24" d="M354.5,323.53a2.27,2.27,0,0,0,.94-.2,2.47,2.47,0,0,0,1.26-3.22L306.43,200.56a2.38,2.38,0,0,0-3.15-1.29,2.48,2.48,0,0,0-1.25,3.22l50.26,119.56A2.4,2.4,0,0,0,354.5,323.53Z"/><path class="cls-24" d="M297.87,323.53a2.38,2.38,0,0,0,2.2-1.48l50.27-119.56a2.48,2.48,0,0,0-1.26-3.22,2.37,2.37,0,0,0-3.14,1.29L295.67,320.11a2.47,2.47,0,0,0,1.25,3.22A2.28,2.28,0,0,0,297.87,323.53Z"/><path class="cls-24" d="M166.06,323.53a2.28,2.28,0,0,0,.95-.2,2.46,2.46,0,0,0,1.25-3.22L118,200.56a2.38,2.38,0,0,0-3.15-1.29,2.46,2.46,0,0,0-1.25,3.22l50.26,119.56A2.39,2.39,0,0,0,166.06,323.53Z"/><path class="cls-24" d="M109.44,323.53a2.38,2.38,0,0,0,2.2-1.48l50.27-119.56a2.48,2.48,0,0,0-1.26-3.22,2.38,2.38,0,0,0-3.15,1.29L107.24,320.11a2.47,2.47,0,0,0,1.25,3.22A2.28,2.28,0,0,0,109.44,323.53Z"/><polygon class="cls-13" points="311.37 172.95 302.52 172.95 312.75 143.78 321.61 143.78 311.37 172.95"/><rect class="cls-9" x="422.22" y="83.54" width="19.84" height="58.99" transform="translate(864.29 226.07) rotate(-180)"/><line class="cls-38" x1="228.3" y1="127.72" x2="244.69" y2="127.72"/><line class="cls-38" x1="235.99" y1="132.91" x2="244.69" y2="132.91"/><line class="cls-38" x1="239.44" y1="122.54" x2="244.69" y2="122.54"/><line class="cls-38" x1="68.68" y1="127.72" x2="85.07" y2="127.72"/><line class="cls-38" x1="76.37" y1="132.91" x2="85.07" y2="132.91"/><line class="cls-38" x1="79.82" y1="122.54" x2="85.07" y2="122.54"/><line class="cls-38" x1="463.1" y1="127.72" x2="479.49" y2="127.72"/><line class="cls-38" x1="470.79" y1="132.91" x2="479.49" y2="132.91"/><line class="cls-38" x1="474.24" y1="122.54" x2="479.49" y2="122.54"/></g></g></g></svg>