<?xml version="1.0" encoding="UTF-8"?>
<svg width="1200px" height="332px" viewBox="0 0 1200 332" version="1.1" xmlns="http://www.w3.org/2000/svg" xmlns:xlink="http://www.w3.org/1999/xlink">
    <!-- Generator: Sketch 57.1 (83088) - https://sketch.com -->
    <title>SVG Layer</title>
    <desc>Created with Sketch.</desc>
    <g id="Page-1" stroke="none" stroke-width="1" fill="none" fill-rule="evenodd">
        <g id="SVG-Layer" fill-rule="nonzero">
            <g id="ahbhbgeb">
                <g id="SvgjsG1008" fill="#E1E1E1">
                    <ellipse id="Oval" cx="166.416857" cy="165.968684" rx="166.416857" ry="165.968684"></ellipse>
                </g>
                <g id="SvgjsG1009" transform="translate(78.597340, 90.205562)" fill="#03A9F4">
                    <path d="M159.982224,57.7285632 C151.921808,57.7285632 145.203005,63.4980226 143.718286,71.108571 L131.439836,62.7166301 C130.634868,62.1635898 129.515068,62.3705339 128.956956,63.1804704 C128.398845,63.9939748 128.60277,65.1036235 129.422049,65.6602318 L142.022486,74.2733888 L129.422049,82.8865458 C128.60277,83.4431541 128.398845,84.5528027 128.956956,85.3627392 C129.303987,85.8693955 129.862098,86.1405637 130.430943,86.1405637 C130.781551,86.1405637 131.132159,86.0406596 131.439836,85.8265795 L143.718286,77.4346386 C145.203005,85.048755 151.921808,90.8110784 159.982224,90.8110784 C169.133819,90.8110784 176.578881,83.3932021 176.578881,74.2698208 C176.578881,65.1535755 169.133819,57.7285632 159.982224,57.7285632 Z M159.982224,87.2502123 C152.809061,87.2502123 146.973936,81.4308009 146.973936,74.2769568 C146.973936,67.1195446 152.809061,61.2965653 159.982224,61.2965653 C167.162541,61.2965653 173.001244,67.1195446 173.001244,74.2769568 C173.001244,81.4308009 167.162541,87.2502123 159.982224,87.2502123 Z" id="Shape"></path>
                    <path d="M159.982224,115.216212 C151.921808,115.216212 145.203005,120.982104 143.718286,128.592652 L131.436259,120.204279 C130.627713,119.647671 129.515068,119.851047 128.953379,120.66812 C128.395267,121.481624 128.599193,122.591273 129.418471,123.144313 L143.50005,132.760079 C144.033118,141.408916 151.181237,148.302296 159.982224,148.302296 C169.133819,148.302296 176.578881,140.877283 176.578881,131.750334 C176.578881,122.634089 169.133819,115.216212 159.982224,115.216212 Z M159.982224,144.737862 C152.809061,144.737862 146.973936,138.914882 146.973936,131.753902 C146.973936,124.600058 152.809061,118.780647 159.982224,118.780647 C167.162541,118.780647 173.001244,124.600058 173.001244,131.753902 C173.001244,138.914882 167.162541,144.737862 159.982224,144.737862 Z" id="Shape"></path>
                    <path d="M47.7016666,63.1804704 C47.1399776,62.3705339 46.0273325,62.1635898 45.215209,62.7166301 L32.9367591,71.105003 C31.4484621,63.4944546 24.72966,57.7285632 16.669244,57.7285632 C7.52122643,57.7285632 0.0797416469,65.1500075 0.0797416469,74.2733888 C0.0797416469,83.3967701 7.52122643,90.8182144 16.669244,90.8182144 C24.72966,90.8182144 31.4484621,85.052323 32.9367591,77.4417746 L45.215209,85.8301475 C45.5228857,86.0442276 45.8770718,86.1441317 46.2241026,86.1441317 C46.7929468,86.1441317 47.3546358,85.8729635 47.7016666,85.3663072 C48.259778,84.5528027 48.052275,83.4431541 47.2365738,82.8901138 L34.632559,74.2733888 L47.2329962,65.6602318 C48.0486974,65.1036235 48.2562003,63.9939748 47.7016666,63.1804704 Z M16.669244,87.2502123 C9.496082,87.2502123 3.65737856,81.4272329 3.65737856,74.2733888 C3.65737856,67.1195446 9.49250437,61.2965653 16.669244,61.2965653 C23.8459837,61.2965653 29.6811095,67.1159766 29.6811095,74.2733888 C29.6775318,81.4272329 23.842406,87.2502123 16.669244,87.2502123 Z" id="Shape"></path>
                    <path d="M58.7744529,57.400307 C59.1214836,57.400307 59.4756697,57.300403 59.7833465,57.0898908 L72.0617964,48.701518 C73.5500933,56.3120664 80.2653178,62.0779577 88.3257338,62.0779577 C96.3897274,62.0779577 103.108529,56.3120664 104.596826,48.69795 L116.875276,57.0898908 C117.182953,57.300403 117.537139,57.400307 117.88417,57.400307 C118.453014,57.400307 119.011126,57.1291389 119.358156,56.6260506 C119.916268,55.8125461 119.712342,54.7028975 118.893064,54.1462891 L106.292626,45.5331322 L118.893064,36.9199752 C119.712342,36.3633668 119.916268,35.2537182 119.358156,34.4402137 C118.800045,33.6267093 117.6874,33.4233331 116.875276,33.9763735 L104.596826,42.3683143 C103.112107,34.7541979 96.3897274,28.9883066 88.3257338,28.9883066 C79.5283246,28.9883066 72.3766284,35.8781186 71.8435605,44.5233876 L57.7619816,54.1462891 C56.9462804,54.7028975 56.7387775,55.8125461 57.2968888,56.6260506 C57.6439196,57.1255709 58.2056086,57.400307 58.7744529,57.400307 Z M88.3257338,32.5527406 C95.5024734,32.5527406 101.341177,38.37572 101.341177,45.5331322 C101.341177,52.6869763 95.5024734,58.5099557 88.3257338,58.5099557 C81.1525718,58.5099557 75.3174459,52.6905443 75.3174459,45.5331322 C75.3174459,38.372152 81.1525718,32.5527406 88.3257338,32.5527406 Z" id="Shape"></path>
                    <path d="M130.43452,28.6529144 C130.785129,28.6529144 131.135737,28.5530103 131.443414,28.3424982 L143.721864,19.9505573 C145.206583,27.5646738 151.925385,33.3305651 159.985801,33.3305651 C169.137396,33.3305651 176.582459,25.9055528 176.582459,16.7821715 C176.582459,7.65879023 169.137396,0.237345934 159.985801,0.237345934 C151.184814,0.237345934 144.036696,7.12715792 143.503628,15.7724269 L129.425627,25.3953285 C128.606348,25.9519368 128.402422,27.0615855 128.960534,27.8750899 C129.303987,28.3817462 129.862098,28.6529144 130.43452,28.6529144 Z M159.982224,3.808916 C167.162541,3.808916 173.001244,9.62832737 173.001244,16.7857395 C173.001244,23.9431517 167.162541,29.766131 159.982224,29.766131 C152.809061,29.766131 146.973936,23.9431517 146.973936,16.7857395 C146.977513,9.62832737 152.809061,3.808916 159.982224,3.808916 Z" id="Shape"></path>
                    <path d="M106.292626,103.024349 L118.893064,94.4111924 C119.712342,93.8545841 119.916268,92.7449355 119.358156,91.934999 C118.800045,91.1250625 117.6874,90.9145504 116.875276,91.4711587 L104.596826,99.8630996 C103.112107,92.2489832 96.3897274,86.4759559 88.3257338,86.4759559 C80.2688954,86.4759559 73.5465157,92.2454152 72.0617964,99.8630996 L59.7833465,91.4711587 C58.9640676,90.9109824 57.8550002,91.1179265 57.2968888,91.934999 C56.7387775,92.7485035 56.9462804,93.8581521 57.7619816,94.4111924 L71.8435605,104.034094 C72.3766284,112.679363 79.524747,119.565607 88.3257338,119.565607 C96.3897274,119.565607 103.112107,113.799716 104.596826,106.189167 L116.878854,114.57754 C117.186531,114.79162 117.540717,114.891524 117.887748,114.891524 C118.456592,114.891524 119.014703,114.620356 119.361734,114.1137 C119.919845,113.300195 119.71592,112.190547 118.896641,111.637506 L106.292626,103.024349 Z M88.3257338,115.994037 C81.1525718,115.994037 75.3174459,110.174626 75.3174459,103.020781 C75.3174459,95.8598013 81.1525718,90.0368219 88.3257338,90.0368219 C95.5024734,90.0368219 101.341177,95.8598013 101.341177,103.020781 C101.341177,110.178194 95.5024734,115.994037 88.3257338,115.994037 Z" id="Shape"></path>
                </g>
                <g id="SvgjsG1010" opacity="0.865699405" transform="translate(375.816203, 67.714631)" fill="#FFFFFF">
                    <path d="M60.2267291,0 C102.819506,0 126.693164,26.2546346 126.693164,59.8172602 C126.693164,94.1918848 102.819506,119.63452 60.2267291,119.63452 L16.8200775,119.63452 L16.8200775,189.466435 L0,189.466435 L0,0 L60.2267291,0 Z M60.2267291,104.206539 C90.3400936,104.206539 109.873087,87.6958928 109.873087,59.8172602 C109.873087,31.9386276 90.3400936,15.9693138 60.2267291,15.9693138 L16.8200775,15.9693138 L16.8200775,104.206539 L60.2267291,104.206539 Z M222.187798,46.5546097 C224.35813,46.5546097 226.257171,46.5546097 228.156212,46.8252761 L228.156212,62.5239235 C225.98588,61.9825909 224.086839,61.9825909 222.459089,61.9825909 C195.329932,61.9825909 173.084023,81.470567 168.743358,114.762526 L168.743358,189.466435 L152.194572,189.466435 L152.194572,48.7199404 L168.743358,48.7199404 L168.743358,86.3425611 C173.355315,65.7719196 193.430891,46.5546097 222.187798,46.5546097 Z M316.868557,46.2839434 C341.827381,46.2839434 362.445541,59.0052612 371.669454,78.7639037 L371.669454,48.7199404 L388.21824,48.7199404 L388.21824,189.466435 L371.669454,189.466435 L371.669454,159.422472 C362.445541,179.451781 341.827381,192.173098 316.868557,192.173098 C285.127443,192.173098 245.790165,167.813128 245.790165,119.363854 C245.790165,70.9145799 285.127443,46.2839434 316.868557,46.2839434 L316.868557,46.2839434 Z M318.225014,61.1705919 C292.994898,61.1705919 262.067659,80.1172354 262.067659,119.363854 C262.067659,158.339806 292.994898,177.28645 318.225014,177.28645 C344.540297,177.28645 372.483329,158.881139 372.483329,119.363854 C372.483329,79.5759027 344.540297,61.1705919 318.225014,61.1705919 Z M539.598937,48.7199404 L556.147723,48.7199404 L556.147723,189.466435 C556.147723,231.690383 520.337236,245.2237 494.293245,245.2237 C470.96217,245.2237 456.855008,238.727708 450.886593,233.585048 L450.886593,218.969066 C456.855008,224.111726 470.96217,230.878384 494.293245,230.878384 C518.438195,230.878384 539.598937,217.345068 539.598937,189.466435 L539.598937,159.422472 C530.375024,179.451781 509.756864,192.173098 484.79804,192.173098 C453.056926,192.173098 413.719648,167.813128 413.719648,119.363854 C413.719648,70.9145799 453.056926,46.2839434 484.79804,46.2839434 C509.756864,46.2839434 530.375024,59.0052612 539.598937,78.7639037 L539.598937,48.7199404 L539.598937,48.7199404 Z M486.154498,177.28645 C512.46978,177.28645 540.412812,158.881139 540.412812,119.363854 C540.412812,79.5759027 512.46978,61.1705919 486.154498,61.1705919 C460.924381,61.1705919 429.997142,80.1172354 429.997142,119.363854 C429.997142,158.339806 460.924381,177.28645 486.154498,177.28645 Z M658.153355,46.5546097 C660.323687,46.5546097 662.222728,46.5546097 664.121769,46.8252761 L664.121769,62.5239235 C661.951437,61.9825909 660.052396,61.9825909 658.424646,61.9825909 C631.295489,61.9825909 609.04958,81.470567 604.708915,114.762526 L604.708915,189.466435 L588.160129,189.466435 L588.160129,48.7199404 L604.708915,48.7199404 L604.708915,86.3425611 C609.320872,65.7719196 629.396448,46.5546097 658.153355,46.5546097 L658.153355,46.5546097 Z M752.834113,46.2839434 C777.792938,46.2839434 798.411097,59.0052612 807.635011,78.7639037 L807.635011,48.7199404 L824.183797,48.7199404 L824.183797,189.466435 L807.635011,189.466435 L807.635011,159.422472 C798.411097,179.451781 777.792938,192.173098 752.834113,192.173098 C721.092999,192.173098 681.755721,167.813128 681.755721,119.363854 C681.755721,70.9145799 721.092999,46.2839434 752.834113,46.2839434 L752.834113,46.2839434 Z M754.190571,61.1705919 C728.960455,61.1705919 698.033216,80.1172354 698.033216,119.363854 C698.033216,158.339806 728.960455,177.28645 754.190571,177.28645 C780.505854,177.28645 808.448886,158.881139 808.448886,119.363854 C808.448886,79.5759027 780.505854,61.1705919 754.190571,61.1705919 Z" id="Shape"></path>
                </g>
            </g>
        </g>
    </g>
</svg>