<?xml version="1.0" encoding="UTF-8"?>
<svg width="300px" height="84px" viewBox="0 0 300 84" version="1.1" xmlns="http://www.w3.org/2000/svg" xmlns:xlink="http://www.w3.org/1999/xlink">
    <!-- Generator: Sketch 52.2 (67145) - http://www.bohemiancoding.com/sketch -->
    <title>Artboard</title>
    <desc>Created with Sketch.</desc>
    <g id="Page-1" stroke="none" stroke-width="1" fill="none" fill-rule="evenodd">
        <g id="Artboard" transform="translate(-1448.000000, -619.000000)">
            <g id="SvgjsG1008-Copy" transform="translate(1457.000000, 625.000000)" fill="#3742FA" fill-rule="nonzero">
                <ellipse id="Oval" cx="34.9969186" cy="33.9856575" rx="34.9969186" ry="33.9856575"></ellipse>
            </g>
            <g id="SvgjsG1009-Copy" transform="translate(1474.000000, 644.000000)" fill="#FFFFFF" fill-rule="nonzero">
                <path d="M33.5173975,11.6391118 C31.8286838,11.6391118 30.4210477,12.8069797 30.1099886,14.3475252 L27.5375672,12.6488083 C27.3689207,12.5368606 27.1343147,12.5787507 27.0173865,12.7427 C26.9004582,12.9073715 26.943182,13.1319893 27.1148267,13.2446593 L29.7547066,14.9881553 L27.1148267,16.7316512 C26.943182,16.8443212 26.9004582,17.068939 27.0173865,17.2328883 C27.0900919,17.3354469 27.2070201,17.3903374 27.326197,17.3903374 C27.3996519,17.3903374 27.4731068,17.3701145 27.5375672,17.3267799 L30.1099886,15.6280631 C30.4210477,17.1693308 31.8286838,18.3357542 33.5173975,18.3357542 C35.4347209,18.3357542 36.9945136,16.8342098 36.9945136,14.987433 C36.9945136,13.1421007 35.4347209,11.6391118 33.5173975,11.6391118 Z M33.5173975,17.6149551 C32.0145698,17.6149551 30.79207,16.4369759 30.79207,14.9888775 C30.79207,13.5400569 32.0145698,12.3613554 33.5173975,12.3613554 C35.0217243,12.3613554 36.2449736,13.5400569 36.2449736,14.9888775 C36.2449736,16.4369759 35.0217243,17.6149551 33.5173975,17.6149551 Z" id="Shape"></path>
                <path d="M33.5173975,23.2759002 C31.8286838,23.2759002 30.4210477,24.4430458 30.1099886,25.9835913 L27.5368177,24.2855967 C27.3674217,24.1729267 27.1343147,24.2140946 27.0166369,24.3794884 C26.8997087,24.5441599 26.9424325,24.7687776 27.1140771,24.8807254 L30.0642666,26.8271718 C30.1759481,28.5778902 31.6735291,29.9732648 33.5173975,29.9732648 C35.4347209,29.9732648 36.9945136,28.4702759 36.9945136,26.6227769 C36.9945136,24.7774446 35.4347209,23.2759002 33.5173975,23.2759002 Z M33.5173975,29.2517435 C32.0145698,29.2517435 30.79207,28.073042 30.79207,26.6234991 C30.79207,25.1754008 32.0145698,23.9974215 33.5173975,23.9974215 C35.0217243,23.9974215 36.2449736,25.1754008 36.2449736,26.6234991 C36.2449736,28.073042 35.0217243,29.2517435 33.5173975,29.2517435 Z" id="Shape"></path>
                <path d="M9.9938336,12.7427 C9.87615582,12.5787507 9.64304887,12.5368606 9.47290329,12.6488083 L6.90048195,14.346803 C6.5886733,12.8062574 5.18103715,11.6391118 3.49232349,11.6391118 C1.57574967,11.6391118 0.0167064341,13.1413785 0.0167064341,14.9881553 C0.0167064341,16.8349321 1.57574967,18.3371987 3.49232349,18.3371987 C5.18103715,18.3371987 6.5886733,17.1700531 6.90048195,15.6295076 L9.47290329,17.3275022 C9.53736373,17.3708368 9.61156819,17.3910596 9.68427358,17.3910596 C9.80345044,17.3910596 9.92112822,17.3361691 9.9938336,17.2336105 C10.1107618,17.068939 10.0672885,16.8443212 9.8963934,16.7323735 L7.25576392,14.9881553 L9.89564386,13.2446593 C10.066539,13.1319893 10.1100123,12.9073715 9.9938336,12.7427 Z M3.49232349,17.6149551 C1.98949576,17.6149551 0.766246451,16.4362536 0.766246451,14.9881553 C0.766246451,13.5400569 1.98874622,12.3613554 3.49232349,12.3613554 C4.99590077,12.3613554 6.21840054,13.5393347 6.21840054,14.9881553 C6.217651,16.4362536 4.99515123,17.6149551 3.49232349,17.6149551 Z" id="Shape"></path>
                <path d="M12.31366,11.5726654 C12.3863653,11.5726654 12.4605698,11.5524426 12.5250302,11.5098302 L15.0974516,9.81183562 C15.4092602,11.3523811 16.8161468,12.5195268 18.5048605,12.5195268 C20.1943237,12.5195268 21.6019598,11.3523811 21.9137685,9.81111337 L24.4861898,11.5098302 C24.5506503,11.5524426 24.6248547,11.5726654 24.6975601,11.5726654 C24.816737,11.5726654 24.9336652,11.5177749 25.0063706,11.4159386 C25.1232988,11.251267 25.0805751,11.0266493 24.9089304,10.9139793 L22.2690505,9.17048333 L24.9089304,7.42698736 C25.0805751,7.31431736 25.1232988,7.08969961 25.0063706,6.92502808 C24.8894424,6.76035655 24.6563354,6.71918866 24.4861898,6.83113642 L21.9137685,8.52985329 C21.6027094,6.98858551 20.1943237,5.82143991 18.5048605,5.82143991 C16.6617416,5.82143991 15.1634111,7.21609224 15.0517296,8.9660884 L12.1015401,10.9139793 C11.930645,11.0266493 11.8871717,11.251267 12.0040999,11.4159386 C12.0768053,11.5170527 12.1944831,11.5726654 12.31366,11.5726654 Z M18.5048605,6.54296123 C20.0084378,6.54296123 21.2316871,7.72166274 21.2316871,9.17048333 C21.2316871,10.6185817 20.0084378,11.7972832 18.5048605,11.7972832 C17.0020328,11.7972832 15.779533,10.6193039 15.779533,9.17048333 C15.779533,7.72094049 17.0020328,6.54296123 18.5048605,6.54296123 Z" id="Shape"></path>
                <path d="M27.3269465,5.75354901 C27.4004014,5.75354901 27.4738563,5.73332619 27.5383168,5.69071382 L30.1107381,3.99199695 C30.4217972,5.53326473 31.8294334,6.70041033 33.518147,6.70041033 C35.4354704,6.70041033 36.9952632,5.19742147 36.9952632,3.35064467 C36.9952632,1.50386787 35.4354704,0.00160124626 33.518147,0.00160124626 C31.6742786,0.00160124626 30.1766976,1.39625357 30.0650162,3.14624974 L27.1155762,5.09414064 C26.9439316,5.20681063 26.9012078,5.43142838 27.018136,5.59609992 C27.0900919,5.6986585 27.2070201,5.75354901 27.3269465,5.75354901 Z M33.5173975,0.724567057 C35.0217243,0.724567057 36.2449736,1.90254631 36.2449736,3.35136691 C36.2449736,4.80018751 35.0217243,5.97888901 33.5173975,5.97888901 C32.0145698,5.97888901 30.79207,4.80018751 30.79207,3.35136691 C30.7928195,1.90254631 32.0145698,0.724567057 33.5173975,0.724567057 Z" id="Shape"></path>
                <path d="M22.2690505,20.8079939 L24.9089304,19.064498 C25.0805751,18.951828 25.1232988,18.7272102 25.0063706,18.5632609 C24.8894424,18.3993116 24.6563354,18.3566993 24.4861898,18.4693693 L21.9137685,20.1680861 C21.6027094,18.6268184 20.1943237,17.4582283 18.5048605,17.4582283 C16.8168964,17.4582283 15.4085107,18.6260961 15.0974516,20.1680861 L12.5250302,18.4693693 C12.3533856,18.355977 12.1210282,18.3978671 12.0040999,18.5632609 C11.8871717,18.7279325 11.930645,18.9525502 12.1015401,19.064498 L15.0517296,21.0123889 C15.1634111,22.762385 16.6609921,24.1563151 18.5048605,24.1563151 C20.1943237,24.1563151 21.6027094,22.9891695 21.9137685,21.448624 L24.4869394,23.1466186 C24.5513998,23.1899532 24.6256043,23.210176 24.6983097,23.210176 C24.8174865,23.210176 24.9344148,23.1552855 25.0071201,23.0527269 C25.1240484,22.8880554 25.0813246,22.6634377 24.9096799,22.5514899 L22.2690505,20.8079939 Z M18.5048605,23.4333493 C17.0020328,23.4333493 15.779533,22.25537 15.779533,20.8072717 C15.779533,19.3577288 17.0020328,18.1790273 18.5048605,18.1790273 C20.0084378,18.1790273 21.2316871,19.3577288 21.2316871,20.8072717 C21.2316871,22.2560923 20.0084378,23.4333493 18.5048605,23.4333493 Z" id="Shape"></path>
            </g>
            <text id="Pragra" font-family="Poppins-Regular, Poppins" font-size="60" font-weight="normal" letter-spacing="0.998709738" fill="#57606F">
                <tspan x="1535" y="682">Pragra</tspan>
            </text>
        </g>
    </g>
</svg>