<?xml version="1.0" encoding="UTF-8"?>
<svg width="2489px" height="666px" viewBox="0 0 2489 666" version="1.1" xmlns="http://www.w3.org/2000/svg" xmlns:xlink="http://www.w3.org/1999/xlink">
    <!-- Generator: Sketch 52.2 (67145) - http://www.bohemiancoding.com/sketch -->
    <title>Artboard</title>
    <desc>Created with Sketch.</desc>
    <g id="Page-1" stroke="none" stroke-width="1" fill="none" fill-rule="evenodd">
        <g id="Artboard" transform="translate(-1425.000000, -424.000000)">
            <g id="SvgjsG1008" transform="translate(1457.000000, 450.000000)" fill="#2075D7" fill-rule="nonzero">
                <ellipse id="Oval" cx="315.972179" cy="305.870918" rx="315.972179" ry="305.870918"></ellipse>
            </g>
            <g id="SvgjsG1009" transform="translate(1606.000000, 617.000000)" fill="#FFFFFF" fill-rule="nonzero">
                <path d="M303.468329,105.915918 C288.178624,105.915918 275.43381,116.543515 272.617464,130.562479 L249.326622,115.104156 C247.799688,114.085431 245.675552,114.466632 244.616878,115.95857 C243.558203,117.457081 243.945026,119.501103 245.499106,120.5264 L269.400722,136.392213 L245.499106,152.258026 C243.945026,153.283323 243.558203,155.327345 244.616878,156.819283 C245.275156,157.752566 246.333831,158.25207 247.412864,158.25207 C248.077929,158.25207 248.742994,158.068042 249.326622,157.673697 L272.617464,142.215374 C275.43381,156.240911 288.178624,166.855363 303.468329,166.855363 C320.827878,166.855363 334.950326,153.191309 334.950326,136.38564 C334.950326,119.593116 320.827878,105.915918 303.468329,105.915918 Z M303.468329,160.296092 C289.861645,160.296092 278.793066,149.57648 278.793066,136.398785 C278.793066,123.214518 289.861645,112.488334 303.468329,112.488334 C317.088585,112.488334 328.16395,123.214518 328.16395,136.398785 C328.16395,149.57648 317.088585,160.296092 303.468329,160.296092 Z" id="Shape"></path>
                <path d="M303.468329,211.810692 C288.178624,211.810692 275.43381,222.431717 272.617464,236.450681 L249.319836,220.99893 C247.786115,219.973633 245.675552,220.348261 244.610091,221.853344 C243.551417,223.351855 243.93824,225.395877 245.49232,226.414601 L272.203495,244.127264 C273.214665,260.058801 286.773844,272.75671 303.468329,272.75671 C320.827878,272.75671 334.950326,259.079511 334.950326,242.26727 C334.950326,225.474746 320.827878,211.810692 303.468329,211.810692 Z M303.468329,266.190866 C289.861645,266.190866 278.793066,255.464682 278.793066,242.273842 C278.793066,229.096147 289.861645,218.376536 303.468329,218.376536 C317.088585,218.376536 328.16395,229.096147 328.16395,242.273842 C328.16395,255.464682 317.088585,266.190866 303.468329,266.190866 Z" id="Shape"></path>
                <path d="M90.4847096,115.95857 C89.4192486,114.466632 87.3086858,114.085431 85.7681784,115.104156 L62.4773366,130.555907 C59.6542042,116.536943 46.9093904,105.915918 31.6196857,105.915918 C14.2669227,105.915918 0.151260958,119.586544 0.151260958,136.392213 C0.151260958,153.197882 14.2669227,166.868508 31.6196857,166.868508 C46.9093904,166.868508 59.6542042,156.247483 62.4773366,142.228519 L85.7681784,157.68027 C86.3518068,158.074615 87.023658,158.258642 87.6819364,158.258642 C88.7609702,158.258642 89.8264312,157.759139 90.4847096,156.825856 C91.5433843,155.327345 91.1497745,153.283323 89.6024808,152.264599 L65.6940787,136.392213 L89.5956944,120.5264 C91.1429881,119.501103 91.5365979,117.457081 90.4847096,115.95857 Z M31.6196857,160.296092 C18.0130021,160.296092 6.93763679,149.569908 6.93763679,136.392213 C6.93763679,123.214518 18.0062158,112.488334 31.6196857,112.488334 C45.2331556,112.488334 56.3017346,123.207945 56.3017346,136.392213 C56.2949482,149.569908 45.2263692,160.296092 31.6196857,160.296092 Z" id="Shape"></path>
                <path d="M111.488543,105.311255 C112.146821,105.311255 112.818673,105.127228 113.402301,104.739455 L136.693143,89.2877041 C139.516275,103.306668 152.254302,113.927693 167.544007,113.927693 C182.840498,113.927693 195.585312,103.306668 198.408444,89.2811317 L221.699286,104.739455 C222.282915,105.127228 222.954766,105.311255 223.613044,105.311255 C224.692078,105.311255 225.750753,104.811752 226.409031,103.885041 C227.467706,102.38653 227.080882,100.342509 225.526802,99.3172116 L201.625187,83.4513983 L225.526802,67.585585 C227.080882,66.560288 227.467706,64.5162665 226.409031,63.0177555 C225.350357,61.5192446 223.239794,61.1446168 221.699286,62.1633414 L198.408444,77.6216649 C195.592099,63.5961282 182.840498,52.9751032 167.544007,52.9751032 C150.856309,52.9751032 137.290344,65.6664394 136.279174,81.5914045 L109.567998,99.3172116 C108.020705,100.342509 107.627095,102.38653 108.68577,103.885041 C109.344048,104.805179 110.409509,105.311255 111.488543,105.311255 Z M167.544007,59.5409472 C181.157477,59.5409472 192.232842,70.2671309 192.232842,83.4513983 C192.232842,96.6290933 181.157477,107.355277 167.544007,107.355277 C153.937324,107.355277 142.868745,96.6356657 142.868745,83.4513983 C142.868745,70.2605585 153.937324,59.5409472 167.544007,59.5409472 Z" id="Shape"></path>
                <path d="M247.419651,52.357296 C248.084716,52.357296 248.74978,52.1732684 249.333409,51.7854958 L272.624251,36.3271723 C275.440597,50.352709 288.18541,60.973734 303.475115,60.973734 C320.834664,60.973734 334.957113,47.2965354 334.957113,30.4908665 C334.957113,13.6851976 320.834664,0.014571341 303.475115,0.014571341 C286.780631,0.014571341 273.221452,12.7059075 272.210282,28.6308726 L245.505893,46.3566798 C243.951813,47.3819768 243.564989,49.4259983 244.623664,50.9245092 C245.275156,51.8577924 246.333831,52.357296 247.419651,52.357296 Z M303.468329,6.59356022 C317.088585,6.59356022 328.16395,17.3131715 328.16395,30.4974389 C328.16395,43.6817063 317.088585,54.40789 303.468329,54.40789 C289.861645,54.40789 278.793066,43.6817063 278.793066,30.4974389 C278.799853,17.3131715 289.861645,6.59356022 303.468329,6.59356022 Z" id="Shape"></path>
                <path d="M201.625187,189.352745 L225.526802,173.486931 C227.080882,172.461634 227.467706,170.417613 226.409031,168.925674 C225.350357,167.433736 223.239794,167.045963 221.699286,168.07126 L198.408444,183.529584 C195.592099,169.504047 182.840498,158.869877 167.544007,158.869877 C152.261089,158.869877 139.509489,169.497475 136.693143,183.529584 L113.402301,168.07126 C111.848221,167.039391 109.744444,167.420591 108.68577,168.925674 C107.627095,170.424185 108.020705,172.468207 109.567998,173.486931 L136.279174,191.212739 C137.290344,207.137704 150.849523,219.822467 167.544007,219.822467 C182.840498,219.822467 195.592099,209.201442 198.408444,195.182478 L221.706073,210.634229 C222.289701,211.028574 222.961552,211.212602 223.619831,211.212602 C224.698864,211.212602 225.757539,210.713098 226.415818,209.779815 C227.474492,208.281304 227.087669,206.237283 225.533589,205.218558 L201.625187,189.352745 Z M167.544007,213.243479 C153.937324,213.243479 142.868745,202.523867 142.868745,189.346172 C142.868745,176.155332 153.937324,165.429149 167.544007,165.429149 C181.157477,165.429149 192.232842,176.155332 192.232842,189.346172 C192.232842,202.53044 181.157477,213.243479 167.544007,213.243479 Z" id="Shape"></path>
            </g>
            <text id="Pragra" font-family="Poppins-Regular, Poppins" font-size="496" font-weight="normal" letter-spacing="9.02999973" fill="#6B7073">
                <tspan x="2152" y="938">Pragra</tspan>
            </text>
        </g>
    </g>
</svg>