<?xml version="1.0" encoding="UTF-8"?>
<svg width="1309px" height="974px" viewBox="0 0 1309 974" version="1.1" xmlns="http://www.w3.org/2000/svg" xmlns:xlink="http://www.w3.org/1999/xlink">
    <!-- Generator: Sketch 52.2 (67145) - http://www.bohemiancoding.com/sketch -->
    <title>Slice</title>
    <desc>Created with Sketch.</desc>
    <g id="Page-1" stroke="none" stroke-width="1" fill="none" fill-rule="evenodd">
        <g id="SvgjsG1008" opacity="0.243861607" transform="translate(58.000000, 43.000000)" fill="#2075D7" fill-rule="nonzero">
            <ellipse id="Oval" cx="231.979575" cy="235.900446" rx="231.979575" ry="235.900446"></ellipse>
        </g>
        <g id="SvgjsG1009" opacity="0.243861607" transform="translate(165.000000, 177.000000)" fill="#FFFFFF" fill-rule="nonzero">
            <path d="M221.033648,81.8617533 C209.897266,81.8617533 200.614477,90.0757572 198.563168,100.910927 L181.599092,88.9632854 C180.486937,88.1759195 178.939805,88.4705468 178.168711,89.6236568 C177.397616,90.7818465 177.679362,92.3616581 178.811289,93.1541037 L196.220227,105.416692 L178.811289,117.67928 C177.679362,118.471726 177.397616,120.051537 178.168711,121.204648 C178.648173,121.925976 179.419268,122.312039 180.205191,122.312039 C180.689596,122.312039 181.174002,122.169806 181.599092,121.865019 L198.563168,109.917377 C200.614477,120.757627 209.897266,128.961471 221.033648,128.961471 C233.677619,128.961471 243.96382,118.400609 243.96382,105.411612 C243.96382,92.432775 233.677619,81.8617533 221.033648,81.8617533 Z M221.033648,123.891851 C211.123109,123.891851 203.061218,115.60673 203.061218,105.421772 C203.061218,95.2317336 211.123109,86.9415331 221.033648,86.9415331 C230.954074,86.9415331 239.020907,95.2317336 239.020907,105.421772 C239.020907,115.60673 230.954074,123.891851 221.033648,123.891851 Z" id="Shape"></path>
            <path d="M221.033648,163.707165 C209.897266,163.707165 200.614477,171.916089 198.563168,182.751259 L181.594149,170.808697 C180.477051,170.016251 178.939805,170.305799 178.163768,171.469068 C177.392674,172.627258 177.67442,174.207069 178.806347,174.994435 L198.26165,188.684442 C198.998144,200.997828 208.874084,210.811962 221.033648,210.811962 C233.677619,210.811962 243.96382,200.240941 243.96382,187.246864 C243.96382,174.268027 233.677619,163.707165 221.033648,163.707165 Z M221.033648,205.737262 C211.123109,205.737262 203.061218,197.447062 203.061218,187.251944 C203.061218,177.066985 211.123109,168.781865 221.033648,168.781865 C230.954074,168.781865 239.020907,177.066985 239.020907,187.251944 C239.020907,197.447062 230.954074,205.737262 221.033648,205.737262 Z" id="Shape"></path>
            <path d="M65.9052811,89.6236568 C65.1292438,88.4705468 63.591998,88.1759195 62.4699568,88.9632854 L45.505881,100.905848 C43.4496294,90.0706774 34.1668396,81.8617533 23.0304576,81.8617533 C10.3914303,81.8617533 0.11017216,92.4276952 0.11017216,105.416692 C0.11017216,118.405689 10.3914303,128.971631 23.0304576,128.971631 C34.1668396,128.971631 43.4496294,120.762707 45.505881,109.927536 L62.4699568,121.870099 C62.8950473,122.174885 63.3843957,122.317119 63.8638582,122.317119 C64.6497813,122.317119 65.4258185,121.931056 65.9052811,121.209727 C66.6763754,120.051537 66.3896865,118.471726 65.2627024,117.68436 L47.8488215,105.416692 L65.2577595,93.1541037 C66.3847436,92.3616581 66.6714325,90.7818465 65.9052811,89.6236568 Z M23.0304576,123.891851 C13.119918,123.891851 5.05308471,115.60165 5.05308471,105.416692 C5.05308471,95.2317336 13.1149751,86.9415331 23.0304576,86.9415331 C32.9459402,86.9415331 41.0078306,95.2266538 41.0078306,105.416692 C41.0028877,115.60165 32.9409973,123.891851 23.0304576,123.891851 Z" id="Shape"></path>
            <path d="M81.2035954,81.3944136 C81.6830579,81.3944136 82.1724062,81.2521797 82.5974967,80.9524727 L99.5615726,69.0099105 C101.617824,79.8450807 110.895671,88.0540048 122.032053,88.0540048 C133.173378,88.0540048 142.456168,79.8450807 144.512419,69.0048307 L161.476495,80.9524727 C161.901586,81.2521797 162.390934,81.3944136 162.870396,81.3944136 C163.65632,81.3944136 164.427414,81.0083503 164.906876,80.2921014 C165.677971,79.1339116 165.396225,77.5541001 164.264298,76.7616544 L146.85536,64.4990661 L164.264298,52.2364778 C165.396225,51.4440321 165.677971,49.8642206 164.906876,48.7060308 C164.135782,47.547841 162.598536,47.2582936 161.476495,48.0456595 L144.512419,59.9933014 C142.461111,49.1530515 133.173378,40.9441274 122.032053,40.9441274 C109.877431,40.9441274 99.9965489,50.7531821 99.2600549,63.0614884 L79.8047511,76.7616544 C78.6777671,77.5541001 78.3910781,79.1339116 79.1621725,80.2921014 C79.641635,81.0032705 80.4176723,81.3944136 81.2035954,81.3944136 Z M122.032053,46.0188273 C131.947536,46.0188273 140.014369,54.3090279 140.014369,64.4990661 C140.014369,74.6840245 131.947536,82.9742251 122.032053,82.9742251 C112.121513,82.9742251 104.059623,74.6891043 104.059623,64.4990661 C104.059623,54.3039481 112.121513,46.0188273 122.032053,46.0188273 Z" id="Shape"></path>
            <path d="M180.210134,40.4666281 C180.694539,40.4666281 181.178945,40.3243942 181.604035,40.0246872 L198.568111,28.0770452 C200.61942,38.9172952 209.902209,47.1262193 221.038591,47.1262193 C233.682562,47.1262193 243.968763,36.5551977 243.968763,23.5662008 C243.968763,10.577204 233.682562,0.0112620987 221.038591,0.0112620987 C208.879026,0.0112620987 199.003087,9.82031681 198.266593,22.1286232 L178.816232,35.8287892 C177.684305,36.6212348 177.402559,38.2010463 178.173654,39.3592361 C178.648173,40.0805648 179.419268,40.4666281 180.210134,40.4666281 Z M221.033648,5.09612163 C230.954074,5.09612163 239.020907,13.3812424 239.020907,23.5712806 C239.020907,33.7613188 230.954074,42.0515194 221.033648,42.0515194 C211.123109,42.0515194 203.061218,33.7613188 203.061218,23.5712806 C203.066161,13.3812424 211.123109,5.09612163 221.033648,5.09612163 Z" id="Shape"></path>
            <path d="M146.85536,146.349557 L164.264298,134.086969 C165.396225,133.294523 165.677971,131.714712 164.906876,130.561602 C164.135782,129.408492 162.598536,129.108785 161.476495,129.90123 L144.512419,141.848872 C142.461111,131.008622 133.173378,122.789539 122.032053,122.789539 C110.900614,122.789539 101.612881,131.003543 99.5615726,141.848872 L82.5974967,129.90123 C81.4655697,129.103705 79.9332669,129.398332 79.1621725,130.561602 C78.3910781,131.719792 78.6777671,133.299603 79.8047511,134.086969 L99.2600549,147.787135 C99.9965489,160.095441 109.872488,169.899416 122.032053,169.899416 C133.173378,169.899416 142.461111,161.690492 144.512419,150.855322 L161.481438,162.797884 C161.906529,163.102671 162.395877,163.244905 162.875339,163.244905 C163.661262,163.244905 164.432357,162.858841 164.911819,162.137513 C165.682914,160.979323 165.401168,159.399511 164.269241,158.612146 L146.85536,146.349557 Z M122.032053,164.814557 C112.121513,164.814557 104.059623,156.529436 104.059623,146.344478 C104.059623,136.14936 112.121513,127.859159 122.032053,127.859159 C131.947536,127.859159 140.014369,136.14936 140.014369,146.344478 C140.014369,156.534516 131.947536,164.814557 122.032053,164.814557 Z" id="Shape"></path>
        </g>
        <g id="drawkit-grape-pack-illustration-2" opacity="0.868350074" transform="translate(149.000000, 123.000000)">
            <path d="M839.362741,138.524093 C947.783099,217.943158 1066.43928,300.259976 1078.00248,392.014538 C1089.86673,484.009624 994.117988,585.453907 885.656578,642.355251 C777.195168,699.256594 655.980031,711.592091 510.187971,731.693109 C364.696965,752.023198 194.90272,780.34788 96.6223962,723.457991 C-1.65792803,666.568101 -28.629596,524.440732 32.6895537,433.682631 C94.0087033,342.92453 243.782882,303.650234 342.131627,223.990644 C440.480373,144.583032 487.335264,24.9848383 559.943925,3.6697417 C632.552585,-17.8744263 730.901331,59.1164815 839.362741,138.524093" id="Path" fill="#F2F2F2"></path>
            <rect id="Rectangle" fill="#D7E0FF" x="645" y="49" width="254" height="183"></rect>
            <rect id="Rectangle" fill="#EAF0FF" x="782" y="83" width="74" height="127"></rect>
            <path d="M756.999998,110.989602 C757.004242,122.72065 749.57482,133.29864 738.176965,137.789782 C726.779111,142.280924 713.658166,139.800477 704.934004,131.505373 C696.209843,123.210269 693.601097,110.734615 698.324539,99.8973116 C703.047982,89.0600077 714.173109,81.995967 726.510936,82.0000017 C743.34958,82.0000017 756.999998,94.9790879 756.999998,110.989602" id="Path" fill="#FB5D64"></path>
            <path d="M902,422.5 C902,461.98836 868.421356,494 827,494 C785.578644,494 752,461.98836 752,422.5 C752,383.01164 785.578644,351 827,351 C868.421356,351 902,383.01164 902,422.5" id="Path" fill="#FFFFFF"></path>
            <rect id="Rectangle" stroke="#B2C3FB" stroke-width="3" stroke-linecap="round" stroke-linejoin="round" x="788" y="290" width="161" height="153"></rect>
            <path d="M523,807.5 L923,807.5" id="Path" stroke="#1B3C87" stroke-width="3.69" stroke-linecap="round" stroke-linejoin="round"></path>
            <path d="M135,807.5 L429,807.5" id="Path" stroke="#1B3C87" stroke-width="3.69" stroke-linecap="round" stroke-linejoin="round"></path>
            <path d="M594.655333,292.196769 L593.026688,299.728741 L582.099001,303 C582.099001,303 576.687694,286.785057 575.941669,283.120036 C570.687974,286.886022 540.405672,295.043976 535.183498,295.770922 C534.458488,291.863585 534.458488,258 563.837155,258 C589.71686,258 601.31702,282.90801 602,285.825892 C600.486936,286.673996 594.644826,288.75387 594.644826,292.196769" id="Path" fill="#EECB55"></path>
            <path d="M602.235676,357.030007 C595.604169,357.030007 547.475346,402.810491 545.50181,412.392685 L530,488 L610.288978,466.825151 L615,370.523097 L603.561977,357 L602.235676,357.030007 Z" id="Path" fill="#2A9D8F"></path>
            <path d="M503,490 C502.862214,484.726192 549.007302,347.487092 554.212434,342.823725 C557.669008,339.536308 562.44709,337.789669 567.352736,338.020256 C569.647243,338.120328 580.673625,343.023869 583,348.197605 C579.027103,357.064007 569.456034,361.987563 569.456034,361.987563 L550.834409,470.385837 L503,490 Z" id="Path" fill="#FFFFFF"></path>
            <polygon id="Path" fill="#E76F51" points="559.436098 572.25875 626 650.27096 593.714705 681 496 600.116668 519.113939 570"></polygon>
            <path d="M541.849922,712 C532.907666,704.302501 428,580.551949 428,565.23703 C428,531.093769 468.906062,518.991979 480.068027,516.329386 C495.447438,515.008099 563.666488,509.602833 574.395081,510.023243 C582.132352,517.960975 671.977708,536.27882 685,534.697279 C685,540.873295 674.641359,584.055362 601.158427,584.055362 C593.463437,584.055362 535.529037,581.863226 534.450892,581.863226 C534.450892,594.705737 571.58345,678.297168 575.124414,683.962687" id="Path" fill="#E76F51"></path>
            <path d="M636.556875,335 C696.109463,335 709,436.716908 709,465.585631 C709,502.390497 693.230788,531.800321 685.7166,534.555927 C664.433455,542.301683 586.307063,516.930073 581.354049,504.915634 C557.202812,446.396597 596.953927,335 636.599208,335" id="Path" fill="#3A86FF"></path>
            <path d="M586,265 C590.757454,269.270408 594.687565,274.378628 597.594044,280.069531 C598.096656,281.046354 598.565308,282.023177 599,283" id="Path" stroke="#1B3C87" stroke-width="3.69" stroke-linecap="round" stroke-linejoin="round"></path>
            <path d="M536.958965,310 C525.962275,289.502684 530.618343,266.194765 547.359259,257.933604 C552.803197,255.293253 558.988038,254.402877 565,255.394025" id="Path" stroke="#1B3C87" stroke-width="3.69" stroke-linecap="round" stroke-linejoin="round"></path>
            <path d="M595,326.170899 C592.745631,328.590465 590.045341,330.594055 587.033442,332.082009 C575.541394,337.731743 561.355239,334.896823 550,326" id="Path" stroke="#1B3C87" stroke-width="3.69" stroke-linecap="round" stroke-linejoin="round"></path>
            <path d="M591,288.994171 C592.925417,284.551794 598.152935,282.112454 603.205726,283.298558 C608.258517,284.484663 611.562586,288.926729 610.920394,293.670334 C610.278202,298.413939 605.889797,301.981402 600.673913,302 C599.108413,301.991412 597.56611,301.652468 596.166626,301.009457" id="Path" stroke="#1B3C87" stroke-width="3.69" stroke-linecap="round" stroke-linejoin="round"></path>
            <path d="M600,359 C598.459016,354.03216 592.918033,338.725312 586,333" id="Path" stroke="#1B3C87" stroke-width="3.69" stroke-linecap="round" stroke-linejoin="round"></path>
            <path d="M605,304 C607.038043,310.631964 625.464047,334.541407 630,337.857389 C629.728261,340.738653 623.864967,346.309099 617.270067,351" id="Path" stroke="#1B3C87" stroke-width="3.69" stroke-linecap="round" stroke-linejoin="round"></path>
            <polyline id="Path" stroke="#1B3C87" stroke-width="3.69" stroke-linecap="round" stroke-linejoin="round" points="581 299 589.347548 296.545455 591 289"></polyline>
            <path d="M558,285.330336 C564.308043,283.353118 569.694809,281.386091 571.689104,280 C572.241871,282.690647 575.352539,292.08753 577,297" id="Path" stroke="#1B3C87" stroke-width="3.69" stroke-linecap="round" stroke-linejoin="round"></path>
            <path d="M531,292 C532.970674,291.755814 538.564516,290.561047 545,289" id="Path" stroke="#1B3C87" stroke-width="3.69" stroke-linecap="round" stroke-linejoin="round"></path>
            <path d="M592,510 C583.547681,506.063674 577.673854,502.237245 576.422055,499.240043 C568.932658,481.256827 567.509673,458.22832 570.377042,435" id="Path" stroke="#1B3C87" stroke-width="3.69" stroke-linecap="round" stroke-linejoin="round"></path>
            <path d="M695.783151,402 C701.964247,425.64915 704,448.74481 704,460.277544 C704,497.250726 688.283562,526.787005 680.794521,529.544395 C670.847808,533.197434 648.465068,529.544395 627,523.365426" id="Path" stroke="#1B3C87" stroke-width="3.69" stroke-linecap="round" stroke-linejoin="round"></path>
            <path d="M623,331.44 C625.529313,330.508028 628.218069,330.020001 630.933595,330 C646.662901,330 659.146645,337.06 669,348" id="Path" stroke="#1B3C87" stroke-width="3.69" stroke-linecap="round" stroke-linejoin="round"></path>
            <path d="M582,387 C586.089466,375.821464 591.45407,365.092257 598,355" id="Path" stroke="#1B3C87" stroke-width="3.69" stroke-linecap="round" stroke-linejoin="round"></path>
            <path d="M545,345 C546.736515,340.889151 548.012749,338.295401 548.650866,337.717925 C552.054797,334.502612 556.760109,332.794282 561.591043,333.019812 C563.850605,333.117689 574.709055,337.913679 577,342.973939" id="Path" stroke="#1B3C87" stroke-width="3.69" stroke-linecap="round" stroke-linejoin="round"></path>
            <path d="M511,442 C518.642057,418.360136 528.347574,389.452475 536,368" id="Path" stroke="#1B3C87" stroke-width="3.69" stroke-linecap="round" stroke-linejoin="round"></path>
            <path d="M498,485 C498,483.994638 499.492386,478.434987 502,470" id="Path" stroke="#1B3C87" stroke-width="3.69" stroke-linecap="round" stroke-linejoin="round"></path>
            <path d="M563,342 C565.354,342.358434 571.041,345.679217 574,349" id="Path" stroke="#1B3C87" stroke-width="3.69" stroke-linecap="round" stroke-linejoin="round"></path>
            <path d="M557,350 C559.343,350.358434 565.041,353.679217 568,357" id="Path" stroke="#1B3C87" stroke-width="3.69" stroke-linecap="round" stroke-linejoin="round"></path>
            <path d="M546,465 C546.177597,460.193067 558.536274,377.2935 564,361" id="Path" stroke="#1B3C87" stroke-width="3.69" stroke-linecap="round" stroke-linejoin="round"></path>
            <path d="M573,371 C580.537532,363.030691 589.669543,354.468031 597,351" id="Path" stroke="#1B3C87" stroke-width="3.69" stroke-linecap="round" stroke-linejoin="round"></path>
            <path d="M338.863158,402.27 L378,487.76" id="Path" stroke="#1B3C87" stroke-width="3.69" stroke-linecap="round" stroke-linejoin="round"></path>
            <path d="M680,530 C680,536.165035 669.620937,579.270319 595.907323,579.270319 C588.189286,579.270319 530.081373,577.082082 529,577.082082 C529,589.901757 566.243769,673.344555 569.795338,679" id="Path" stroke="#1B3C87" stroke-width="3.69" stroke-linecap="round" stroke-linejoin="round"></path>
            <path d="M474.147247,511 C463.341008,514.830162 422,525.789237 422,559.989973 C422,575.330673 527.024789,699.289544 536,707" id="Path" stroke="#1B3C87" stroke-width="3.69" stroke-linecap="round" stroke-linejoin="round"></path>
            <path d="M531,713 L579,684" id="Path" stroke="#1B3C87" stroke-width="3.69" stroke-linecap="round" stroke-linejoin="round"></path>
            <path d="M536,721 L586,692" id="Path" stroke="#1B3C87" stroke-width="3.69" stroke-linecap="round" stroke-linejoin="round"></path>
            <path d="M556,650 L587,676" id="Path" stroke="#1B3C87" stroke-width="3.69" stroke-linecap="round" stroke-linejoin="round"></path>
            <path d="M574,592 L620,646" id="Path" stroke="#1B3C87" stroke-width="3.69" stroke-linecap="round" stroke-linejoin="round"></path>
            <path d="M626,642 L585,679" id="Path" stroke="#1B3C87" stroke-width="3.69" stroke-linecap="round" stroke-linejoin="round"></path>
            <path d="M631,649 L590,686" id="Path" stroke="#1B3C87" stroke-width="3.69" stroke-linecap="round" stroke-linejoin="round"></path>
            <path d="M307.5,775 L307.5,808" id="Path" stroke="#1B3C87" stroke-width="3.69" stroke-linecap="round" stroke-linejoin="round"></path>
            <path d="M307.5,512 L307.5,713" id="Path" stroke="#1B3C87" stroke-width="3.69" stroke-linecap="round" stroke-linejoin="round"></path>
            <path d="M469.5,511 L469.5,807" id="Path" stroke="#1B3C87" stroke-width="3.69" stroke-linecap="round" stroke-linejoin="round"></path>
            <path d="M657.353269,359.448874 C685.49615,368.737092 671.167337,425.921416 663.246571,427.854801 C655.325805,429.788185 607.570099,411.859534 606.07839,407.036039 C604.58668,402.212544 624.48314,348.586045 657.353269,359.448874" id="Path" fill="#2A9D8F"></path>
            <path d="M621.898103,362.880223 C630.038024,355.136745 640.331085,350.47272 652.357163,354.449101 C680.495032,363.737287 666.168771,420.921423 658.238912,422.854801 C650.309053,424.788179 602.572354,406.859587 601.080911,402.036108 C600.723804,400.899999 601.553551,397.053175 603.475623,391.950652" id="Path" stroke="#1B3C87" stroke-width="3.69" stroke-linecap="round" stroke-linejoin="round"></path>
            <path d="M609.497714,410 C607.188169,413.210234 594.400914,452.365051 594.400914,452.365051 C594.400914,452.365051 504.063781,489.252641 499.561226,491.158717 C497.919118,489.031937 492.516053,485.139529 481.551008,485.139529 C461.474913,485.139529 458,497.749728 458,500.458362 C458,503.166997 488.522022,509.186185 496.711374,508.995577 C504.900726,508.804969 619.413928,492.312395 623.503307,490.376222 C627.592686,488.44005 655,427.174749 655,427.174749 C647.584028,426.803566 613.396397,416.781618 609.518903,410.010032" id="Path" fill="#FFFFFF"></path>
            <path d="M552.543846,495.889304 C523.737692,500.07262 495.522867,503.91485 491.584196,503.995105 C483.421748,504.195744 453,498.176585 453,495.457931 C453,492.739277 456.463497,480.139171 476.473636,480.139171 C487.423776,480.139171 492.809091,484.021528 494.424685,486.15833 C498.912448,484.222167 588.952797,447.364849 588.952797,447.364849 C588.952797,447.364849 601.698042,408.240314 604,405" id="Path" stroke="#1B3C87" stroke-width="3.69" stroke-linecap="round" stroke-linejoin="round"></path>
            <path d="M649,422 C649,422 621.504757,483.57901 617.390039,485.504299 C616.220481,486.058701 606.087857,487.80255 592,490" id="Path" stroke="#1B3C87" stroke-width="3.69" stroke-linecap="round" stroke-linejoin="round"></path>
            <rect id="Rectangle" fill="#8088DC" x="571" y="581" width="174" height="15"></rect>
            <polyline id="Path" stroke="#1B3C87" stroke-width="3.69" stroke-linecap="round" stroke-linejoin="round" points="673.913455 591 565 591 565 576 739 576 739 591 708.418182 591"></polyline>
            <rect id="Rectangle" fill="#8088DC" x="261" y="503" width="265" height="13"></rect>
            <polyline id="Path" stroke="#1B3C87" stroke-width="3.69" stroke-linecap="round" stroke-linejoin="round" points="329.687921 498 521 498 521 511 256 511 256 498.020602 296.780597 498.020602"></polyline>
            <rect id="Rectangle" fill="#FB5D64" x="383" y="492" width="93" height="11"></rect>
            <rect id="Rectangle" stroke="#1B3C87" stroke-width="3.69" stroke-linecap="round" stroke-linejoin="round" x="379" y="488" width="93" height="11"></rect>
            <polyline id="Path" fill="#FFFFFF" points="546 723.29 576.506554 755 559.822625 799 611 761.17 581.335006 703"></polyline>
            <path d="M594,733 L576,698" id="Path" stroke="#1B3C87" stroke-width="3.69" stroke-linecap="round" stroke-linejoin="round"></path>
            <polyline id="Path" stroke="#1B3C87" stroke-width="3.69" stroke-linecap="round" stroke-linejoin="round" points="540 719 570.506554 750.831462 553.833145 795 605 757.025096 599.782327 746.786026"></polyline>
            <polyline id="Path" fill="#FFFFFF" points="629.215316 660 646.243618 687.586182 658 693.421333 635.625971 743 630.522752 711.812121 601 686.127394"></polyline>
            <path d="M604,688 L596,681" id="Path" stroke="#1B3C87" stroke-width="3.69" stroke-linecap="round" stroke-linejoin="round"></path>
            <polyline id="Path" stroke="#1B3C87" stroke-width="3.69" stroke-linecap="round" stroke-linejoin="round" points="624.048035 655 641.175296 682.576121 653 688.421333 630.495945 738 625.363069 706.812121 619 701.298909"></polyline>
            <path d="M610.5,591 L610.5,806" id="Path" stroke="#1B3C87" stroke-width="3.69" stroke-linecap="round" stroke-linejoin="round"></path>
            <path d="M694.5,673 L694.5,806" id="Path" stroke="#1B3C87" stroke-width="3.69" stroke-linecap="round" stroke-linejoin="round"></path>
            <path d="M694.5,592 L694.5,637" id="Path" stroke="#1B3C87" stroke-width="3.69" stroke-linecap="round" stroke-linejoin="round"></path>
            <path d="M559.229736,296.450031 C559.74877,298.098915 560.956316,299.224037 561.930827,298.962155 C562.905338,298.700273 563.286669,297.16778 562.767636,295.528595 C562.248603,293.88941 561.051649,292.754589 560.066545,293.045569 C559.081441,293.336548 558.721296,294.839943 559.229736,296.479129" id="Path" fill="#1B3C87"></path>
            <path d="M547.79,315 C547.669435,315.68931 547.474751,316.360633 547.21,317" id="Path" stroke="#1B3C87" stroke-width="3.14" stroke-linecap="round" stroke-linejoin="round"></path>
            <path d="M547,305 C547.61101,307.248491 547.948548,309.611255 548,312" id="Path" stroke="#1B3C87" stroke-width="3.14" stroke-linecap="round" stroke-linejoin="round"></path>
            <path d="M575.960748,314 C576.294533,316.312258 574.487486,319.904516 571,322" id="Path" stroke="#1B3C87" stroke-width="3.14" stroke-linecap="round" stroke-linejoin="round"></path>
            <rect id="Rectangle" fill="#D7E0FF" x="156" y="272" width="278" height="80"></rect>
            <path d="M409.999998,311.489528 C410.004269,320.995173 404.037832,329.567109 394.883283,333.207601 C385.728733,336.848093 375.189269,334.840063 368.180231,328.120006 C361.171193,321.399948 359.073171,311.291532 362.864631,302.509069 C366.65609,293.726605 375.590216,288.000001 385.500356,288 C399.027012,287.999999 409.994167,298.514982 409.999998,311.489528" id="Path" fill="#B2C3FB"></path>
            <path d="M339,298.5 L201,298.5" id="Path" stroke="#EAF0FF" stroke-width="3.69" stroke-linecap="round" stroke-linejoin="round"></path>
            <path d="M339,325.5 L266,325.5" id="Path" stroke="#EAF0FF" stroke-width="3.69" stroke-linecap="round" stroke-linejoin="round"></path>
            <rect id="Rectangle" fill="#EAF0FF" x="364" y="17" width="165" height="199"></rect>
            <polygon id="Path" stroke="#B2C3FB" stroke-width="3" stroke-linecap="round" stroke-linejoin="round" points="428 89 476.400703 197 578 130.041802"></polygon>
            <rect id="Rectangle" fill="#EAF0FF" x="188" y="117" width="95" height="38"></rect>
            <rect id="Rectangle" fill="#EAF0FF" x="144" y="164" width="95" height="38"></rect>
        </g>
    </g>
</svg>