<svg width="912" height="185" viewBox="0 0 912 185" fill="none" xmlns="http://www.w3.org/2000/svg">
<rect width="912" height="185" fill="white"/>
<rect x="218" y="93" width="22" height="419.978" transform="rotate(-90 218 93)" fill="#3742FA"/>
<path d="M639.061 84.1566C639.646 83.5708 639.646 82.6211 639.061 82.0353L629.515 72.4893C628.929 71.9036 627.979 71.9036 627.393 72.4893C626.808 73.0751 626.808 74.0249 627.393 74.6107L635.879 83.0959L627.393 91.5812C626.808 92.167 626.808 93.1168 627.393 93.7025C627.979 94.2883 628.929 94.2883 629.515 93.7025L639.061 84.1566ZM222.728 84.5959L638 84.5959V81.5959L222.728 81.5959V84.5959Z" fill="white"/>
<g filter="url(#filter0_d)">
<rect x="74" y="47" width="144" height="77" fill="white"/>
<rect x="74.5" y="47.5" width="143" height="76" stroke="#333333"/>
</g>
<g filter="url(#filter1_d)">
<rect x="258" y="48" width="144" height="76" fill="white"/>
<rect x="258.5" y="48.5" width="143" height="75" stroke="#333333"/>
</g>
<g filter="url(#filter2_d)">
<rect x="638" y="49" width="144" height="76" fill="white"/>
<rect x="638.5" y="49.5" width="143" height="75" stroke="#333333"/>
</g>
<g filter="url(#filter3_d)">
<rect x="442" y="47" width="144" height="76" fill="white"/>
<rect x="442.5" y="47.5" width="143" height="75" stroke="#333333"/>
</g>
<path d="M95.7617 85V76.4688H98.75C99.7852 76.4688 100.57 76.668 101.105 77.0664C101.641 77.4609 101.908 78.041 101.908 78.8066C101.908 79.2246 101.801 79.5938 101.586 79.9141C101.371 80.2305 101.072 80.4629 100.689 80.6113C101.127 80.7207 101.471 80.9414 101.721 81.2734C101.975 81.6055 102.102 82.0117 102.102 82.4922C102.102 83.3125 101.84 83.9336 101.316 84.3555C100.793 84.7773 100.047 84.9922 99.0782 85H95.7617ZM97.5196 81.2852V83.5879H99.0254C99.4395 83.5879 99.7617 83.4902 99.9922 83.2949C100.227 83.0957 100.344 82.8223 100.344 82.4746C100.344 81.6934 99.9395 81.2969 99.1309 81.2852H97.5196ZM97.5196 80.043H98.8203C99.7071 80.0273 100.15 79.6738 100.15 78.9824C100.15 78.5957 100.037 78.3184 99.8106 78.1504C99.5879 77.9785 99.2344 77.8926 98.75 77.8926H97.5196V80.043ZM107.111 84.3555C106.693 84.8633 106.115 85.1172 105.377 85.1172C104.697 85.1172 104.178 84.9219 103.818 84.5312C103.463 84.1406 103.281 83.5684 103.273 82.8145V78.6602H104.967V82.7559C104.967 83.416 105.268 83.7461 105.869 83.7461C106.443 83.7461 106.838 83.5469 107.053 83.1484V78.6602H108.752V85H107.158L107.111 84.3555ZM113.463 83.248C113.463 83.041 113.359 82.8789 113.152 82.7617C112.949 82.6406 112.621 82.5332 112.168 82.4395C110.66 82.123 109.906 81.4824 109.906 80.5176C109.906 79.9551 110.139 79.4863 110.604 79.1113C111.072 78.7324 111.684 78.543 112.438 78.543C113.242 78.543 113.885 78.7324 114.365 79.1113C114.85 79.4902 115.092 79.9824 115.092 80.5879H113.398C113.398 80.3457 113.32 80.1465 113.164 79.9902C113.008 79.8301 112.764 79.75 112.432 79.75C112.147 79.75 111.926 79.8145 111.77 79.9434C111.613 80.0723 111.535 80.2363 111.535 80.4355C111.535 80.623 111.623 80.7754 111.799 80.8926C111.979 81.0059 112.279 81.1055 112.701 81.1914C113.123 81.2734 113.479 81.3672 113.768 81.4727C114.662 81.8008 115.109 82.3691 115.109 83.1777C115.109 83.7559 114.861 84.2246 114.365 84.584C113.869 84.9395 113.229 85.1172 112.443 85.1172C111.912 85.1172 111.439 85.0234 111.025 84.8359C110.615 84.6445 110.293 84.3848 110.059 84.0566C109.824 83.7246 109.707 83.3672 109.707 82.9844H111.313C111.328 83.2852 111.439 83.5156 111.647 83.6758C111.854 83.8359 112.131 83.916 112.479 83.916C112.803 83.916 113.047 83.8555 113.211 83.7344C113.379 83.6094 113.463 83.4473 113.463 83.248ZM117.992 85H116.293V78.6602H117.992V85ZM116.193 77.0195C116.193 76.7656 116.277 76.5566 116.445 76.3926C116.617 76.2285 116.85 76.1465 117.143 76.1465C117.432 76.1465 117.662 76.2285 117.834 76.3926C118.006 76.5566 118.092 76.7656 118.092 77.0195C118.092 77.2773 118.004 77.4883 117.828 77.6523C117.656 77.8164 117.428 77.8984 117.143 77.8984C116.857 77.8984 116.627 77.8164 116.451 77.6523C116.279 77.4883 116.193 77.2773 116.193 77.0195ZM120.951 78.6602L121.004 79.3926C121.457 78.8262 122.064 78.543 122.826 78.543C123.498 78.543 123.998 78.7402 124.326 79.1348C124.654 79.5293 124.822 80.1191 124.83 80.9043V85H123.137V80.9453C123.137 80.5859 123.059 80.3262 122.902 80.166C122.746 80.002 122.486 79.9199 122.123 79.9199C121.647 79.9199 121.289 80.123 121.051 80.5293V85H119.357V78.6602H120.951ZM129.037 85.1172C128.107 85.1172 127.35 84.832 126.764 84.2617C126.182 83.6914 125.891 82.9316 125.891 81.9824V81.8184C125.891 81.1816 126.014 80.6133 126.26 80.1133C126.506 79.6094 126.854 79.2227 127.303 78.9531C127.756 78.6797 128.272 78.543 128.85 78.543C129.717 78.543 130.398 78.8164 130.895 79.3633C131.395 79.9102 131.645 80.6855 131.645 81.6895V82.3809H127.607C127.662 82.7949 127.826 83.127 128.1 83.377C128.377 83.627 128.727 83.752 129.148 83.752C129.801 83.752 130.311 83.5156 130.678 83.043L131.51 83.9746C131.256 84.334 130.912 84.6152 130.479 84.8184C130.045 85.0176 129.564 85.1172 129.037 85.1172ZM128.844 79.9141C128.508 79.9141 128.234 80.0273 128.023 80.2539C127.816 80.4805 127.684 80.8047 127.625 81.2266H129.98V81.0918C129.973 80.7168 129.871 80.4277 129.676 80.2246C129.48 80.0176 129.203 79.9141 128.844 79.9141ZM136.045 83.248C136.045 83.041 135.941 82.8789 135.734 82.7617C135.531 82.6406 135.203 82.5332 134.75 82.4395C133.242 82.123 132.488 81.4824 132.488 80.5176C132.488 79.9551 132.721 79.4863 133.186 79.1113C133.654 78.7324 134.266 78.543 135.02 78.543C135.824 78.543 136.467 78.7324 136.947 79.1113C137.432 79.4902 137.674 79.9824 137.674 80.5879H135.98C135.98 80.3457 135.902 80.1465 135.746 79.9902C135.59 79.8301 135.346 79.75 135.014 79.75C134.729 79.75 134.508 79.8145 134.352 79.9434C134.195 80.0723 134.117 80.2363 134.117 80.4355C134.117 80.623 134.205 80.7754 134.381 80.8926C134.561 81.0059 134.861 81.1055 135.283 81.1914C135.705 81.2734 136.061 81.3672 136.35 81.4727C137.244 81.8008 137.691 82.3691 137.691 83.1777C137.691 83.7559 137.443 84.2246 136.947 84.584C136.451 84.9395 135.811 85.1172 135.025 85.1172C134.494 85.1172 134.022 85.0234 133.607 84.8359C133.197 84.6445 132.875 84.3848 132.641 84.0566C132.406 83.7246 132.289 83.3672 132.289 82.9844H133.895C133.91 83.2852 134.022 83.5156 134.229 83.6758C134.436 83.8359 134.713 83.916 135.061 83.916C135.385 83.916 135.629 83.8555 135.793 83.7344C135.961 83.6094 136.045 83.4473 136.045 83.248ZM142.221 83.248C142.221 83.041 142.117 82.8789 141.91 82.7617C141.707 82.6406 141.379 82.5332 140.926 82.4395C139.418 82.123 138.664 81.4824 138.664 80.5176C138.664 79.9551 138.897 79.4863 139.361 79.1113C139.83 78.7324 140.441 78.543 141.195 78.543C142 78.543 142.643 78.7324 143.123 79.1113C143.607 79.4902 143.85 79.9824 143.85 80.5879H142.156C142.156 80.3457 142.078 80.1465 141.922 79.9902C141.766 79.8301 141.522 79.75 141.189 79.75C140.904 79.75 140.684 79.8145 140.527 79.9434C140.371 80.0723 140.293 80.2363 140.293 80.4355C140.293 80.623 140.381 80.7754 140.557 80.8926C140.736 81.0059 141.037 81.1055 141.459 81.1914C141.881 81.2734 142.236 81.3672 142.525 81.4727C143.42 81.8008 143.867 82.3691 143.867 83.1777C143.867 83.7559 143.619 84.2246 143.123 84.584C142.627 84.9395 141.986 85.1172 141.201 85.1172C140.67 85.1172 140.197 85.0234 139.783 84.8359C139.373 84.6445 139.051 84.3848 138.816 84.0566C138.582 83.7246 138.465 83.3672 138.465 82.9844H140.07C140.086 83.2852 140.197 83.5156 140.404 83.6758C140.611 83.8359 140.889 83.916 141.236 83.916C141.561 83.916 141.805 83.8555 141.969 83.7344C142.137 83.6094 142.221 83.4473 142.221 83.248ZM152.879 83.2422H149.797L149.211 85H147.342L150.518 76.4688H152.147L155.34 85H153.471L152.879 83.2422ZM150.272 81.8184H152.404L151.332 78.625L150.272 81.8184ZM157.303 78.6602L157.355 79.3926C157.809 78.8262 158.416 78.543 159.178 78.543C159.85 78.543 160.35 78.7402 160.678 79.1348C161.006 79.5293 161.174 80.1191 161.182 80.9043V85H159.488V80.9453C159.488 80.5859 159.41 80.3262 159.254 80.166C159.098 80.002 158.838 79.9199 158.475 79.9199C157.998 79.9199 157.641 80.123 157.402 80.5293V85H155.709V78.6602H157.303ZM166.145 85C166.066 84.8477 166.01 84.6582 165.975 84.4316C165.564 84.8887 165.031 85.1172 164.375 85.1172C163.754 85.1172 163.238 84.9375 162.828 84.5781C162.422 84.2188 162.219 83.7656 162.219 83.2188C162.219 82.5469 162.467 82.0312 162.963 81.6719C163.463 81.3125 164.184 81.1309 165.125 81.127H165.904V80.7637C165.904 80.4707 165.828 80.2363 165.676 80.0605C165.527 79.8848 165.291 79.7969 164.967 79.7969C164.682 79.7969 164.457 79.8652 164.293 80.002C164.133 80.1387 164.053 80.3262 164.053 80.5645H162.359C162.359 80.1973 162.473 79.8574 162.699 79.5449C162.926 79.2324 163.246 78.9883 163.66 78.8125C164.074 78.6328 164.539 78.543 165.055 78.543C165.836 78.543 166.455 78.7402 166.912 79.1348C167.373 79.5254 167.604 80.0762 167.604 80.7871V83.5352C167.607 84.1367 167.691 84.5918 167.855 84.9004V85H166.145ZM164.744 83.8223C164.994 83.8223 165.225 83.7676 165.436 83.6582C165.647 83.5449 165.803 83.3945 165.904 83.207V82.1172H165.272C164.424 82.1172 163.973 82.4102 163.918 82.9961L163.912 83.0957C163.912 83.3066 163.986 83.4805 164.135 83.6172C164.283 83.7539 164.486 83.8223 164.744 83.8223ZM170.691 85H168.992V76H170.691V85ZM174.459 82.6035L175.631 78.6602H177.447L174.898 85.9844L174.758 86.3184C174.379 87.1465 173.754 87.5605 172.883 87.5605C172.637 87.5605 172.387 87.5234 172.133 87.4492V86.166L172.391 86.1719C172.711 86.1719 172.949 86.123 173.105 86.0254C173.266 85.9277 173.391 85.7656 173.48 85.5391L173.68 85.0176L171.459 78.6602H173.281L174.459 82.6035ZM181.549 83.248C181.549 83.041 181.445 82.8789 181.238 82.7617C181.035 82.6406 180.707 82.5332 180.254 82.4395C178.746 82.123 177.992 81.4824 177.992 80.5176C177.992 79.9551 178.225 79.4863 178.689 79.1113C179.158 78.7324 179.77 78.543 180.523 78.543C181.328 78.543 181.971 78.7324 182.451 79.1113C182.936 79.4902 183.178 79.9824 183.178 80.5879H181.484C181.484 80.3457 181.406 80.1465 181.25 79.9902C181.094 79.8301 180.85 79.75 180.518 79.75C180.232 79.75 180.012 79.8145 179.855 79.9434C179.699 80.0723 179.621 80.2363 179.621 80.4355C179.621 80.623 179.709 80.7754 179.885 80.8926C180.064 81.0059 180.365 81.1055 180.787 81.1914C181.209 81.2734 181.564 81.3672 181.854 81.4727C182.748 81.8008 183.195 82.3691 183.195 83.1777C183.195 83.7559 182.947 84.2246 182.451 84.584C181.955 84.9395 181.314 85.1172 180.529 85.1172C179.998 85.1172 179.525 85.0234 179.111 84.8359C178.701 84.6445 178.379 84.3848 178.145 84.0566C177.91 83.7246 177.793 83.3672 177.793 82.9844H179.398C179.414 83.2852 179.525 83.5156 179.732 83.6758C179.939 83.8359 180.217 83.916 180.564 83.916C180.889 83.916 181.133 83.8555 181.297 83.7344C181.465 83.6094 181.549 83.4473 181.549 83.248ZM186.318 77.1016V78.6602H187.402V79.9023H186.318V83.0664C186.318 83.3008 186.363 83.4688 186.453 83.5703C186.543 83.6719 186.715 83.7227 186.969 83.7227C187.156 83.7227 187.322 83.709 187.467 83.6816V84.9648C187.135 85.0664 186.793 85.1172 186.441 85.1172C185.254 85.1172 184.648 84.5176 184.625 83.3184V79.9023H183.699V78.6602H184.625V77.1016H186.318Z" fill="black"/>
<path d="M287.35 80V71.4688H290.338C291.373 71.4688 292.158 71.668 292.693 72.0664C293.229 72.4609 293.496 73.041 293.496 73.8066C293.496 74.2246 293.389 74.5938 293.174 74.9141C292.959 75.2305 292.66 75.4629 292.277 75.6113C292.715 75.7207 293.059 75.9414 293.309 76.2734C293.562 76.6055 293.689 77.0117 293.689 77.4922C293.689 78.3125 293.428 78.9336 292.904 79.3555C292.381 79.7773 291.635 79.9922 290.666 80H287.35ZM289.107 76.2852V78.5879H290.613C291.027 78.5879 291.35 78.4902 291.58 78.2949C291.814 78.0957 291.932 77.8223 291.932 77.4746C291.932 76.6934 291.527 76.2969 290.719 76.2852H289.107ZM289.107 75.043H290.408C291.295 75.0273 291.738 74.6738 291.738 73.9824C291.738 73.5957 291.625 73.3184 291.398 73.1504C291.176 72.9785 290.822 72.8926 290.338 72.8926H289.107V75.043ZM298.699 79.3555C298.281 79.8633 297.703 80.1172 296.965 80.1172C296.285 80.1172 295.766 79.9219 295.406 79.5312C295.051 79.1406 294.869 78.5684 294.861 77.8145V73.6602H296.555V77.7559C296.555 78.416 296.855 78.7461 297.457 78.7461C298.031 78.7461 298.426 78.5469 298.641 78.1484V73.6602H300.34V80H298.746L298.699 79.3555ZM305.051 78.248C305.051 78.041 304.947 77.8789 304.74 77.7617C304.537 77.6406 304.209 77.5332 303.756 77.4395C302.248 77.123 301.494 76.4824 301.494 75.5176C301.494 74.9551 301.727 74.4863 302.191 74.1113C302.66 73.7324 303.271 73.543 304.025 73.543C304.83 73.543 305.473 73.7324 305.953 74.1113C306.438 74.4902 306.68 74.9824 306.68 75.5879H304.986C304.986 75.3457 304.908 75.1465 304.752 74.9902C304.596 74.8301 304.352 74.75 304.02 74.75C303.734 74.75 303.514 74.8145 303.357 74.9434C303.201 75.0723 303.123 75.2363 303.123 75.4355C303.123 75.623 303.211 75.7754 303.387 75.8926C303.566 76.0059 303.867 76.1055 304.289 76.1914C304.711 76.2734 305.066 76.3672 305.355 76.4727C306.25 76.8008 306.697 77.3691 306.697 78.1777C306.697 78.7559 306.449 79.2246 305.953 79.584C305.457 79.9395 304.816 80.1172 304.031 80.1172C303.5 80.1172 303.027 80.0234 302.613 79.8359C302.203 79.6445 301.881 79.3848 301.646 79.0566C301.412 78.7246 301.295 78.3672 301.295 77.9844H302.9C302.916 78.2852 303.027 78.5156 303.234 78.6758C303.441 78.8359 303.719 78.916 304.066 78.916C304.391 78.916 304.635 78.8555 304.799 78.7344C304.967 78.6094 305.051 78.4473 305.051 78.248ZM309.58 80H307.881V73.6602H309.58V80ZM307.781 72.0195C307.781 71.7656 307.865 71.5566 308.033 71.3926C308.205 71.2285 308.438 71.1465 308.73 71.1465C309.02 71.1465 309.25 71.2285 309.422 71.3926C309.594 71.5566 309.68 71.7656 309.68 72.0195C309.68 72.2773 309.592 72.4883 309.416 72.6523C309.244 72.8164 309.016 72.8984 308.73 72.8984C308.445 72.8984 308.215 72.8164 308.039 72.6523C307.867 72.4883 307.781 72.2773 307.781 72.0195ZM312.539 73.6602L312.592 74.3926C313.045 73.8262 313.652 73.543 314.414 73.543C315.086 73.543 315.586 73.7402 315.914 74.1348C316.242 74.5293 316.41 75.1191 316.418 75.9043V80H314.725V75.9453C314.725 75.5859 314.646 75.3262 314.49 75.166C314.334 75.002 314.074 74.9199 313.711 74.9199C313.234 74.9199 312.877 75.123 312.639 75.5293V80H310.945V73.6602H312.539ZM320.625 80.1172C319.695 80.1172 318.938 79.832 318.352 79.2617C317.77 78.6914 317.479 77.9316 317.479 76.9824V76.8184C317.479 76.1816 317.602 75.6133 317.848 75.1133C318.094 74.6094 318.441 74.2227 318.891 73.9531C319.344 73.6797 319.859 73.543 320.438 73.543C321.305 73.543 321.986 73.8164 322.482 74.3633C322.982 74.9102 323.232 75.6855 323.232 76.6895V77.3809H319.195C319.25 77.7949 319.414 78.127 319.688 78.377C319.965 78.627 320.314 78.752 320.736 78.752C321.389 78.752 321.898 78.5156 322.266 78.043L323.098 78.9746C322.844 79.334 322.5 79.6152 322.066 79.8184C321.633 80.0176 321.152 80.1172 320.625 80.1172ZM320.432 74.9141C320.096 74.9141 319.822 75.0273 319.611 75.2539C319.404 75.4805 319.271 75.8047 319.213 76.2266H321.568V76.0918C321.561 75.7168 321.459 75.4277 321.264 75.2246C321.068 75.0176 320.791 74.9141 320.432 74.9141ZM327.633 78.248C327.633 78.041 327.529 77.8789 327.322 77.7617C327.119 77.6406 326.791 77.5332 326.338 77.4395C324.83 77.123 324.076 76.4824 324.076 75.5176C324.076 74.9551 324.309 74.4863 324.773 74.1113C325.242 73.7324 325.854 73.543 326.607 73.543C327.412 73.543 328.055 73.7324 328.535 74.1113C329.02 74.4902 329.262 74.9824 329.262 75.5879H327.568C327.568 75.3457 327.49 75.1465 327.334 74.9902C327.178 74.8301 326.934 74.75 326.602 74.75C326.316 74.75 326.096 74.8145 325.939 74.9434C325.783 75.0723 325.705 75.2363 325.705 75.4355C325.705 75.623 325.793 75.7754 325.969 75.8926C326.148 76.0059 326.449 76.1055 326.871 76.1914C327.293 76.2734 327.648 76.3672 327.938 76.4727C328.832 76.8008 329.279 77.3691 329.279 78.1777C329.279 78.7559 329.031 79.2246 328.535 79.584C328.039 79.9395 327.398 80.1172 326.613 80.1172C326.082 80.1172 325.609 80.0234 325.195 79.8359C324.785 79.6445 324.463 79.3848 324.229 79.0566C323.994 78.7246 323.877 78.3672 323.877 77.9844H325.482C325.498 78.2852 325.609 78.5156 325.816 78.6758C326.023 78.8359 326.301 78.916 326.648 78.916C326.973 78.916 327.217 78.8555 327.381 78.7344C327.549 78.6094 327.633 78.4473 327.633 78.248ZM333.809 78.248C333.809 78.041 333.705 77.8789 333.498 77.7617C333.295 77.6406 332.967 77.5332 332.514 77.4395C331.006 77.123 330.252 76.4824 330.252 75.5176C330.252 74.9551 330.484 74.4863 330.949 74.1113C331.418 73.7324 332.029 73.543 332.783 73.543C333.588 73.543 334.23 73.7324 334.711 74.1113C335.195 74.4902 335.438 74.9824 335.438 75.5879H333.744C333.744 75.3457 333.666 75.1465 333.51 74.9902C333.354 74.8301 333.109 74.75 332.777 74.75C332.492 74.75 332.271 74.8145 332.115 74.9434C331.959 75.0723 331.881 75.2363 331.881 75.4355C331.881 75.623 331.969 75.7754 332.145 75.8926C332.324 76.0059 332.625 76.1055 333.047 76.1914C333.469 76.2734 333.824 76.3672 334.113 76.4727C335.008 76.8008 335.455 77.3691 335.455 78.1777C335.455 78.7559 335.207 79.2246 334.711 79.584C334.215 79.9395 333.574 80.1172 332.789 80.1172C332.258 80.1172 331.785 80.0234 331.371 79.8359C330.961 79.6445 330.639 79.3848 330.404 79.0566C330.17 78.7246 330.053 78.3672 330.053 77.9844H331.658C331.674 78.2852 331.785 78.5156 331.992 78.6758C332.199 78.8359 332.477 78.916 332.824 78.916C333.148 78.916 333.393 78.8555 333.557 78.7344C333.725 78.6094 333.809 78.4473 333.809 78.248ZM344.074 77.7617C344.074 77.4297 343.957 77.1758 343.723 77C343.488 76.8203 343.066 76.6328 342.457 76.4375C341.848 76.2383 341.365 76.043 341.01 75.8516C340.041 75.3281 339.557 74.623 339.557 73.7363C339.557 73.2754 339.686 72.8652 339.943 72.5059C340.205 72.1426 340.578 71.8594 341.062 71.6562C341.551 71.4531 342.098 71.3516 342.703 71.3516C343.312 71.3516 343.855 71.4629 344.332 71.6855C344.809 71.9043 345.178 72.2148 345.439 72.6172C345.705 73.0195 345.838 73.4766 345.838 73.9883H344.08C344.08 73.5977 343.957 73.2949 343.711 73.0801C343.465 72.8613 343.119 72.752 342.674 72.752C342.244 72.752 341.91 72.8438 341.672 73.0273C341.434 73.207 341.314 73.4453 341.314 73.7422C341.314 74.0195 341.453 74.252 341.73 74.4395C342.012 74.627 342.424 74.8027 342.967 74.9668C343.967 75.2676 344.695 75.6406 345.152 76.0859C345.609 76.5312 345.838 77.0859 345.838 77.75C345.838 78.4883 345.559 79.0684 345 79.4902C344.441 79.9082 343.689 80.1172 342.744 80.1172C342.088 80.1172 341.49 79.998 340.951 79.7598C340.412 79.5176 340 79.1875 339.715 78.7695C339.434 78.3516 339.293 77.8672 339.293 77.3164H341.057C341.057 78.2578 341.619 78.7285 342.744 78.7285C343.162 78.7285 343.488 78.6445 343.723 78.4766C343.957 78.3047 344.074 78.0664 344.074 77.7617ZM349.289 77.6035L350.461 73.6602H352.277L349.729 80.9844L349.588 81.3184C349.209 82.1465 348.584 82.5605 347.713 82.5605C347.467 82.5605 347.217 82.5234 346.963 82.4492V81.166L347.221 81.1719C347.541 81.1719 347.779 81.123 347.936 81.0254C348.096 80.9277 348.221 80.7656 348.311 80.5391L348.51 80.0176L346.289 73.6602H348.111L349.289 77.6035ZM356.379 78.248C356.379 78.041 356.275 77.8789 356.068 77.7617C355.865 77.6406 355.537 77.5332 355.084 77.4395C353.576 77.123 352.822 76.4824 352.822 75.5176C352.822 74.9551 353.055 74.4863 353.52 74.1113C353.988 73.7324 354.6 73.543 355.354 73.543C356.158 73.543 356.801 73.7324 357.281 74.1113C357.766 74.4902 358.008 74.9824 358.008 75.5879H356.314C356.314 75.3457 356.236 75.1465 356.08 74.9902C355.924 74.8301 355.68 74.75 355.348 74.75C355.062 74.75 354.842 74.8145 354.686 74.9434C354.529 75.0723 354.451 75.2363 354.451 75.4355C354.451 75.623 354.539 75.7754 354.715 75.8926C354.895 76.0059 355.195 76.1055 355.617 76.1914C356.039 76.2734 356.395 76.3672 356.684 76.4727C357.578 76.8008 358.025 77.3691 358.025 78.1777C358.025 78.7559 357.777 79.2246 357.281 79.584C356.785 79.9395 356.145 80.1172 355.359 80.1172C354.828 80.1172 354.355 80.0234 353.941 79.8359C353.531 79.6445 353.209 79.3848 352.975 79.0566C352.74 78.7246 352.623 78.3672 352.623 77.9844H354.229C354.244 78.2852 354.355 78.5156 354.562 78.6758C354.77 78.8359 355.047 78.916 355.395 78.916C355.719 78.916 355.963 78.8555 356.127 78.7344C356.295 78.6094 356.379 78.4473 356.379 78.248ZM361.148 72.1016V73.6602H362.232V74.9023H361.148V78.0664C361.148 78.3008 361.193 78.4688 361.283 78.5703C361.373 78.6719 361.545 78.7227 361.799 78.7227C361.986 78.7227 362.152 78.709 362.297 78.6816V79.9648C361.965 80.0664 361.623 80.1172 361.271 80.1172C360.084 80.1172 359.479 79.5176 359.455 78.3184V74.9023H358.529V73.6602H359.455V72.1016H361.148ZM366.094 80.1172C365.164 80.1172 364.406 79.832 363.82 79.2617C363.238 78.6914 362.947 77.9316 362.947 76.9824V76.8184C362.947 76.1816 363.07 75.6133 363.316 75.1133C363.562 74.6094 363.91 74.2227 364.359 73.9531C364.812 73.6797 365.328 73.543 365.906 73.543C366.773 73.543 367.455 73.8164 367.951 74.3633C368.451 74.9102 368.701 75.6855 368.701 76.6895V77.3809H364.664C364.719 77.7949 364.883 78.127 365.156 78.377C365.434 78.627 365.783 78.752 366.205 78.752C366.857 78.752 367.367 78.5156 367.734 78.043L368.566 78.9746C368.312 79.334 367.969 79.6152 367.535 79.8184C367.102 80.0176 366.621 80.1172 366.094 80.1172ZM365.9 74.9141C365.564 74.9141 365.291 75.0273 365.08 75.2539C364.873 75.4805 364.74 75.8047 364.682 76.2266H367.037V76.0918C367.029 75.7168 366.928 75.4277 366.732 75.2246C366.537 75.0176 366.26 74.9141 365.9 74.9141ZM371.256 73.6602L371.309 74.3691C371.758 73.8184 372.365 73.543 373.131 73.543C373.947 73.543 374.508 73.8652 374.812 74.5098C375.258 73.8652 375.893 73.543 376.717 73.543C377.404 73.543 377.916 73.7441 378.252 74.1465C378.588 74.5449 378.756 75.1465 378.756 75.9512V80H377.057V75.957C377.057 75.5977 376.986 75.3359 376.846 75.1719C376.705 75.0039 376.457 74.9199 376.102 74.9199C375.594 74.9199 375.242 75.1621 375.047 75.6465L375.053 80H373.359V75.9629C373.359 75.5957 373.287 75.3301 373.143 75.166C372.998 75.002 372.752 74.9199 372.404 74.9199C371.924 74.9199 371.576 75.1191 371.361 75.5176V80H369.668V73.6602H371.256ZM318.381 92.2422H315.299L314.713 94H312.844L316.02 85.4688H317.648L320.842 94H318.973L318.381 92.2422ZM315.773 90.8184H317.906L316.834 87.625L315.773 90.8184ZM322.805 87.6602L322.857 88.3926C323.311 87.8262 323.918 87.543 324.68 87.543C325.352 87.543 325.852 87.7402 326.18 88.1348C326.508 88.5293 326.676 89.1191 326.684 89.9043V94H324.99V89.9453C324.99 89.5859 324.912 89.3262 324.756 89.166C324.6 89.002 324.34 88.9199 323.977 88.9199C323.5 88.9199 323.143 89.123 322.904 89.5293V94H321.211V87.6602H322.805ZM331.646 94C331.568 93.8477 331.512 93.6582 331.477 93.4316C331.066 93.8887 330.533 94.1172 329.877 94.1172C329.256 94.1172 328.74 93.9375 328.33 93.5781C327.924 93.2188 327.721 92.7656 327.721 92.2188C327.721 91.5469 327.969 91.0312 328.465 90.6719C328.965 90.3125 329.686 90.1309 330.627 90.127H331.406V89.7637C331.406 89.4707 331.33 89.2363 331.178 89.0605C331.029 88.8848 330.793 88.7969 330.469 88.7969C330.184 88.7969 329.959 88.8652 329.795 89.002C329.635 89.1387 329.555 89.3262 329.555 89.5645H327.861C327.861 89.1973 327.975 88.8574 328.201 88.5449C328.428 88.2324 328.748 87.9883 329.162 87.8125C329.576 87.6328 330.041 87.543 330.557 87.543C331.338 87.543 331.957 87.7402 332.414 88.1348C332.875 88.5254 333.105 89.0762 333.105 89.7871V92.5352C333.109 93.1367 333.193 93.5918 333.357 93.9004V94H331.646ZM330.246 92.8223C330.496 92.8223 330.727 92.7676 330.938 92.6582C331.148 92.5449 331.305 92.3945 331.406 92.207V91.1172H330.773C329.926 91.1172 329.475 91.4102 329.42 91.9961L329.414 92.0957C329.414 92.3066 329.488 92.4805 329.637 92.6172C329.785 92.7539 329.988 92.8223 330.246 92.8223ZM336.193 94H334.494V85H336.193V94ZM339.961 91.6035L341.133 87.6602H342.949L340.4 94.9844L340.26 95.3184C339.881 96.1465 339.256 96.5605 338.385 96.5605C338.139 96.5605 337.889 96.5234 337.635 96.4492V95.166L337.893 95.1719C338.213 95.1719 338.451 95.123 338.607 95.0254C338.768 94.9277 338.893 94.7656 338.982 94.5391L339.182 94.0176L336.961 87.6602H338.783L339.961 91.6035ZM347.051 92.248C347.051 92.041 346.947 91.8789 346.74 91.7617C346.537 91.6406 346.209 91.5332 345.756 91.4395C344.248 91.123 343.494 90.4824 343.494 89.5176C343.494 88.9551 343.727 88.4863 344.191 88.1113C344.66 87.7324 345.271 87.543 346.025 87.543C346.83 87.543 347.473 87.7324 347.953 88.1113C348.438 88.4902 348.68 88.9824 348.68 89.5879H346.986C346.986 89.3457 346.908 89.1465 346.752 88.9902C346.596 88.8301 346.352 88.75 346.02 88.75C345.734 88.75 345.514 88.8145 345.357 88.9434C345.201 89.0723 345.123 89.2363 345.123 89.4355C345.123 89.623 345.211 89.7754 345.387 89.8926C345.566 90.0059 345.867 90.1055 346.289 90.1914C346.711 90.2734 347.066 90.3672 347.355 90.4727C348.25 90.8008 348.697 91.3691 348.697 92.1777C348.697 92.7559 348.449 93.2246 347.953 93.584C347.457 93.9395 346.816 94.1172 346.031 94.1172C345.5 94.1172 345.027 94.0234 344.613 93.8359C344.203 93.6445 343.881 93.3848 343.646 93.0566C343.412 92.7246 343.295 92.3672 343.295 91.9844H344.9C344.916 92.2852 345.027 92.5156 345.234 92.6758C345.441 92.8359 345.719 92.916 346.066 92.916C346.391 92.916 346.635 92.8555 346.799 92.7344C346.967 92.6094 347.051 92.4473 347.051 92.248ZM351.82 86.1016V87.6602H352.904V88.9023H351.82V92.0664C351.82 92.3008 351.865 92.4688 351.955 92.5703C352.045 92.6719 352.217 92.7227 352.471 92.7227C352.658 92.7227 352.824 92.709 352.969 92.6816V93.9648C352.637 94.0664 352.295 94.1172 351.943 94.1172C350.756 94.1172 350.15 93.5176 350.127 92.3184V88.9023H349.201V87.6602H350.127V86.1016H351.82Z" fill="black"/>
<path d="M465.041 75.3027H461.666V77.5879H465.627V79H459.908V70.4688H465.615V71.8926H461.666V73.9258H465.041V75.3027ZM468.105 72.6602L468.158 73.3926C468.611 72.8262 469.219 72.543 469.98 72.543C470.652 72.543 471.152 72.7402 471.48 73.1348C471.808 73.5293 471.976 74.1191 471.984 74.9043V79H470.291V74.9453C470.291 74.5859 470.213 74.3262 470.057 74.166C469.9 74.002 469.641 73.9199 469.277 73.9199C468.801 73.9199 468.443 74.123 468.205 74.5293V79H466.512V72.6602H468.105ZM475.301 71.1016V72.6602H476.385V73.9023H475.301V77.0664C475.301 77.3008 475.346 77.4688 475.435 77.5703C475.525 77.6719 475.697 77.7227 475.951 77.7227C476.139 77.7227 476.305 77.709 476.449 77.6816V78.9648C476.117 79.0664 475.775 79.1172 475.424 79.1172C474.236 79.1172 473.631 78.5176 473.607 77.3184V73.9023H472.682V72.6602H473.607V71.1016H475.301ZM480.246 79.1172C479.316 79.1172 478.558 78.832 477.973 78.2617C477.391 77.6914 477.099 76.9316 477.099 75.9824V75.8184C477.099 75.1816 477.223 74.6133 477.469 74.1133C477.715 73.6094 478.062 73.2227 478.512 72.9531C478.965 72.6797 479.48 72.543 480.058 72.543C480.926 72.543 481.607 72.8164 482.103 73.3633C482.603 73.9102 482.853 74.6855 482.853 75.6895V76.3809H478.816C478.871 76.7949 479.035 77.127 479.308 77.377C479.586 77.627 479.935 77.752 480.357 77.752C481.01 77.752 481.519 77.5156 481.887 77.043L482.719 77.9746C482.465 78.334 482.121 78.6152 481.687 78.8184C481.254 79.0176 480.773 79.1172 480.246 79.1172ZM480.053 73.9141C479.717 73.9141 479.443 74.0273 479.232 74.2539C479.025 74.4805 478.892 74.8047 478.834 75.2266H481.189V75.0918C481.182 74.7168 481.08 74.4277 480.885 74.2246C480.689 74.0176 480.412 73.9141 480.053 73.9141ZM487.383 74.248C487.152 74.2168 486.949 74.2012 486.773 74.2012C486.133 74.2012 485.713 74.418 485.514 74.8516V79H483.82V72.6602H485.42L485.467 73.416C485.807 72.834 486.277 72.543 486.879 72.543C487.066 72.543 487.242 72.5684 487.406 72.6191L487.383 74.248ZM493.91 75.8887C493.91 76.8652 493.687 77.6484 493.242 78.2383C492.801 78.8242 492.203 79.1172 491.449 79.1172C490.808 79.1172 490.291 78.8945 489.896 78.4492V81.4375H488.203V72.6602H489.773L489.832 73.2812C490.242 72.7891 490.777 72.543 491.437 72.543C492.219 72.543 492.826 72.832 493.26 73.4102C493.693 73.9883 493.91 74.7852 493.91 75.8008V75.8887ZM492.217 75.7656C492.217 75.1758 492.111 74.7207 491.9 74.4004C491.693 74.0801 491.391 73.9199 490.992 73.9199C490.461 73.9199 490.096 74.123 489.896 74.5293V77.125C490.103 77.543 490.473 77.752 491.004 77.752C491.812 77.752 492.217 77.0898 492.217 75.7656ZM498.527 74.248C498.297 74.2168 498.094 74.2012 497.918 74.2012C497.277 74.2012 496.857 74.418 496.658 74.8516V79H494.965V72.6602H496.564L496.611 73.416C496.951 72.834 497.422 72.543 498.023 72.543C498.211 72.543 498.387 72.5684 498.551 72.6191L498.527 74.248ZM501.135 79H499.435V72.6602H501.135V79ZM499.336 71.0195C499.336 70.7656 499.42 70.5566 499.588 70.3926C499.76 70.2285 499.992 70.1465 500.285 70.1465C500.574 70.1465 500.805 70.2285 500.976 70.3926C501.148 70.5566 501.234 70.7656 501.234 71.0195C501.234 71.2773 501.146 71.4883 500.971 71.6523C500.799 71.8164 500.57 71.8984 500.285 71.8984C500 71.8984 499.769 71.8164 499.594 71.6523C499.422 71.4883 499.336 71.2773 499.336 71.0195ZM505.969 77.248C505.969 77.041 505.865 76.8789 505.658 76.7617C505.455 76.6406 505.127 76.5332 504.674 76.4395C503.166 76.123 502.412 75.4824 502.412 74.5176C502.412 73.9551 502.644 73.4863 503.109 73.1113C503.578 72.7324 504.189 72.543 504.943 72.543C505.748 72.543 506.391 72.7324 506.871 73.1113C507.355 73.4902 507.598 73.9824 507.598 74.5879H505.904C505.904 74.3457 505.826 74.1465 505.67 73.9902C505.514 73.8301 505.269 73.75 504.937 73.75C504.652 73.75 504.432 73.8145 504.275 73.9434C504.119 74.0723 504.041 74.2363 504.041 74.4355C504.041 74.623 504.129 74.7754 504.305 74.8926C504.484 75.0059 504.785 75.1055 505.207 75.1914C505.629 75.2734 505.984 75.3672 506.273 75.4727C507.168 75.8008 507.615 76.3691 507.615 77.1777C507.615 77.7559 507.367 78.2246 506.871 78.584C506.375 78.9395 505.734 79.1172 504.949 79.1172C504.418 79.1172 503.945 79.0234 503.531 78.8359C503.121 78.6445 502.799 78.3848 502.564 78.0566C502.33 77.7246 502.213 77.3672 502.213 76.9844H503.818C503.834 77.2852 503.945 77.5156 504.152 77.6758C504.359 77.8359 504.637 77.916 504.984 77.916C505.308 77.916 505.553 77.8555 505.717 77.7344C505.885 77.6094 505.969 77.4473 505.969 77.248ZM511.629 79.1172C510.699 79.1172 509.941 78.832 509.355 78.2617C508.773 77.6914 508.482 76.9316 508.482 75.9824V75.8184C508.482 75.1816 508.605 74.6133 508.851 74.1133C509.098 73.6094 509.445 73.2227 509.894 72.9531C510.348 72.6797 510.863 72.543 511.441 72.543C512.308 72.543 512.99 72.8164 513.486 73.3633C513.986 73.9102 514.236 74.6855 514.236 75.6895V76.3809H510.199C510.254 76.7949 510.418 77.127 510.691 77.377C510.969 77.627 511.318 77.752 511.74 77.752C512.392 77.752 512.902 77.5156 513.269 77.043L514.101 77.9746C513.848 78.334 513.504 78.6152 513.07 78.8184C512.637 79.0176 512.156 79.1172 511.629 79.1172ZM511.435 73.9141C511.099 73.9141 510.826 74.0273 510.615 74.2539C510.408 74.4805 510.275 74.8047 510.217 75.2266H512.572V75.0918C512.564 74.7168 512.463 74.4277 512.267 74.2246C512.072 74.0176 511.795 73.9141 511.435 73.9141ZM518.303 79V70.4688H521.291C522.326 70.4688 523.111 70.668 523.646 71.0664C524.182 71.4609 524.449 72.041 524.449 72.8066C524.449 73.2246 524.342 73.5938 524.127 73.9141C523.912 74.2305 523.613 74.4629 523.23 74.6113C523.668 74.7207 524.012 74.9414 524.262 75.2734C524.516 75.6055 524.642 76.0117 524.642 76.4922C524.642 77.3125 524.381 77.9336 523.857 78.3555C523.334 78.7773 522.588 78.9922 521.619 79H518.303ZM520.06 75.2852V77.5879H521.566C521.98 77.5879 522.303 77.4902 522.533 77.2949C522.767 77.0957 522.885 76.8223 522.885 76.4746C522.885 75.6934 522.48 75.2969 521.672 75.2852H520.06ZM520.06 74.043H521.361C522.248 74.0273 522.691 73.6738 522.691 72.9824C522.691 72.5957 522.578 72.3184 522.351 72.1504C522.129 71.9785 521.775 71.8926 521.291 71.8926H520.06V74.043ZM529.652 78.3555C529.234 78.8633 528.656 79.1172 527.918 79.1172C527.238 79.1172 526.719 78.9219 526.359 78.5312C526.004 78.1406 525.822 77.5684 525.814 76.8145V72.6602H527.508V76.7559C527.508 77.416 527.808 77.7461 528.41 77.7461C528.984 77.7461 529.379 77.5469 529.594 77.1484V72.6602H531.293V79H529.699L529.652 78.3555ZM536.004 77.248C536.004 77.041 535.9 76.8789 535.693 76.7617C535.49 76.6406 535.162 76.5332 534.709 76.4395C533.201 76.123 532.447 75.4824 532.447 74.5176C532.447 73.9551 532.68 73.4863 533.144 73.1113C533.613 72.7324 534.224 72.543 534.978 72.543C535.783 72.543 536.426 72.7324 536.906 73.1113C537.391 73.4902 537.633 73.9824 537.633 74.5879H535.939C535.939 74.3457 535.861 74.1465 535.705 73.9902C535.549 73.8301 535.305 73.75 534.973 73.75C534.687 73.75 534.467 73.8145 534.31 73.9434C534.154 74.0723 534.076 74.2363 534.076 74.4355C534.076 74.623 534.164 74.7754 534.34 74.8926C534.519 75.0059 534.82 75.1055 535.242 75.1914C535.664 75.2734 536.019 75.3672 536.308 75.4727C537.203 75.8008 537.65 76.3691 537.65 77.1777C537.65 77.7559 537.402 78.2246 536.906 78.584C536.41 78.9395 535.769 79.1172 534.984 79.1172C534.453 79.1172 533.98 79.0234 533.566 78.8359C533.156 78.6445 532.834 78.3848 532.599 78.0566C532.365 77.7246 532.248 77.3672 532.248 76.9844H533.853C533.869 77.2852 533.98 77.5156 534.187 77.6758C534.394 77.8359 534.672 77.916 535.019 77.916C535.344 77.916 535.588 77.8555 535.752 77.7344C535.92 77.6094 536.004 77.4473 536.004 77.248ZM540.533 79H538.834V72.6602H540.533V79ZM538.734 71.0195C538.734 70.7656 538.818 70.5566 538.986 70.3926C539.158 70.2285 539.391 70.1465 539.683 70.1465C539.973 70.1465 540.203 70.2285 540.375 70.3926C540.547 70.5566 540.633 70.7656 540.633 71.0195C540.633 71.2773 540.545 71.4883 540.369 71.6523C540.197 71.8164 539.969 71.8984 539.683 71.8984C539.398 71.8984 539.168 71.8164 538.992 71.6523C538.82 71.4883 538.734 71.2773 538.734 71.0195ZM543.492 72.6602L543.545 73.3926C543.998 72.8262 544.605 72.543 545.367 72.543C546.039 72.543 546.539 72.7402 546.867 73.1348C547.195 73.5293 547.363 74.1191 547.371 74.9043V79H545.678V74.9453C545.678 74.5859 545.599 74.3262 545.443 74.166C545.287 74.002 545.027 73.9199 544.664 73.9199C544.187 73.9199 543.83 74.123 543.592 74.5293V79H541.898V72.6602H543.492ZM551.578 79.1172C550.648 79.1172 549.891 78.832 549.305 78.2617C548.723 77.6914 548.432 76.9316 548.432 75.9824V75.8184C548.432 75.1816 548.555 74.6133 548.801 74.1133C549.047 73.6094 549.394 73.2227 549.844 72.9531C550.297 72.6797 550.812 72.543 551.391 72.543C552.258 72.543 552.939 72.8164 553.435 73.3633C553.935 73.9102 554.185 74.6855 554.185 75.6895V76.3809H550.148C550.203 76.7949 550.367 77.127 550.641 77.377C550.918 77.627 551.267 77.752 551.689 77.752C552.342 77.752 552.851 77.5156 553.219 77.043L554.051 77.9746C553.797 78.334 553.453 78.6152 553.019 78.8184C552.586 79.0176 552.105 79.1172 551.578 79.1172ZM551.385 73.9141C551.049 73.9141 550.775 74.0273 550.564 74.2539C550.357 74.4805 550.224 74.8047 550.166 75.2266H552.521V75.0918C552.514 74.7168 552.412 74.4277 552.217 74.2246C552.021 74.0176 551.744 73.9141 551.385 73.9141ZM558.586 77.248C558.586 77.041 558.482 76.8789 558.275 76.7617C558.072 76.6406 557.744 76.5332 557.291 76.4395C555.783 76.123 555.029 75.4824 555.029 74.5176C555.029 73.9551 555.262 73.4863 555.726 73.1113C556.195 72.7324 556.807 72.543 557.56 72.543C558.365 72.543 559.008 72.7324 559.488 73.1113C559.973 73.4902 560.215 73.9824 560.215 74.5879H558.521C558.521 74.3457 558.443 74.1465 558.287 73.9902C558.131 73.8301 557.887 73.75 557.555 73.75C557.269 73.75 557.049 73.8145 556.892 73.9434C556.736 74.0723 556.658 74.2363 556.658 74.4355C556.658 74.623 556.746 74.7754 556.922 74.8926C557.101 75.0059 557.402 75.1055 557.824 75.1914C558.246 75.2734 558.601 75.3672 558.891 75.4727C559.785 75.8008 560.232 76.3691 560.232 77.1777C560.232 77.7559 559.984 78.2246 559.488 78.584C558.992 78.9395 558.351 79.1172 557.566 79.1172C557.035 79.1172 556.562 79.0234 556.148 78.8359C555.738 78.6445 555.416 78.3848 555.182 78.0566C554.947 77.7246 554.83 77.3672 554.83 76.9844H556.435C556.451 77.2852 556.562 77.5156 556.769 77.6758C556.976 77.8359 557.254 77.916 557.601 77.916C557.926 77.916 558.17 77.8555 558.334 77.7344C558.502 77.6094 558.586 77.4473 558.586 77.248ZM564.762 77.248C564.762 77.041 564.658 76.8789 564.451 76.7617C564.248 76.6406 563.92 76.5332 563.467 76.4395C561.959 76.123 561.205 75.4824 561.205 74.5176C561.205 73.9551 561.437 73.4863 561.902 73.1113C562.371 72.7324 562.982 72.543 563.736 72.543C564.541 72.543 565.183 72.7324 565.664 73.1113C566.148 73.4902 566.391 73.9824 566.391 74.5879H564.697C564.697 74.3457 564.619 74.1465 564.463 73.9902C564.307 73.8301 564.062 73.75 563.73 73.75C563.445 73.75 563.224 73.8145 563.068 73.9434C562.912 74.0723 562.834 74.2363 562.834 74.4355C562.834 74.623 562.922 74.7754 563.098 74.8926C563.277 75.0059 563.578 75.1055 564 75.1914C564.422 75.2734 564.777 75.3672 565.066 75.4727C565.961 75.8008 566.408 76.3691 566.408 77.1777C566.408 77.7559 566.16 78.2246 565.664 78.584C565.168 78.9395 564.527 79.1172 563.742 79.1172C563.211 79.1172 562.738 79.0234 562.324 78.8359C561.914 78.6445 561.592 78.3848 561.357 78.0566C561.123 77.7246 561.006 77.3672 561.006 76.9844H562.611C562.627 77.2852 562.738 77.5156 562.945 77.6758C563.152 77.8359 563.43 77.916 563.777 77.916C564.101 77.916 564.346 77.8555 564.51 77.7344C564.678 77.6094 564.762 77.4473 564.762 77.248ZM498.381 91.2422H495.299L494.713 93H492.844L496.019 84.4688H497.648L500.842 93H498.973L498.381 91.2422ZM495.773 89.8184H497.906L496.834 86.625L495.773 89.8184ZM502.805 86.6602L502.857 87.3926C503.31 86.8262 503.918 86.543 504.68 86.543C505.351 86.543 505.851 86.7402 506.18 87.1348C506.508 87.5293 506.676 88.1191 506.683 88.9043V93H504.99V88.9453C504.99 88.5859 504.912 88.3262 504.756 88.166C504.599 88.002 504.34 87.9199 503.976 87.9199C503.5 87.9199 503.142 88.123 502.904 88.5293V93H501.211V86.6602H502.805ZM511.646 93C511.568 92.8477 511.512 92.6582 511.476 92.4316C511.066 92.8887 510.533 93.1172 509.877 93.1172C509.256 93.1172 508.74 92.9375 508.33 92.5781C507.924 92.2188 507.721 91.7656 507.721 91.2188C507.721 90.5469 507.969 90.0312 508.465 89.6719C508.965 89.3125 509.685 89.1309 510.627 89.127H511.406V88.7637C511.406 88.4707 511.33 88.2363 511.178 88.0605C511.029 87.8848 510.793 87.7969 510.469 87.7969C510.183 87.7969 509.959 87.8652 509.795 88.002C509.635 88.1387 509.555 88.3262 509.555 88.5645H507.861C507.861 88.1973 507.974 87.8574 508.201 87.5449C508.428 87.2324 508.748 86.9883 509.162 86.8125C509.576 86.6328 510.041 86.543 510.557 86.543C511.338 86.543 511.957 86.7402 512.414 87.1348C512.875 87.5254 513.105 88.0762 513.105 88.7871V91.5352C513.109 92.1367 513.193 92.5918 513.357 92.9004V93H511.646ZM510.246 91.8223C510.496 91.8223 510.726 91.7676 510.937 91.6582C511.148 91.5449 511.305 91.3945 511.406 91.207V90.1172H510.773C509.926 90.1172 509.474 90.4102 509.42 90.9961L509.414 91.0957C509.414 91.3066 509.488 91.4805 509.637 91.6172C509.785 91.7539 509.988 91.8223 510.246 91.8223ZM516.193 93H514.494V84H516.193V93ZM519.961 90.6035L521.133 86.6602H522.949L520.4 93.9844L520.26 94.3184C519.881 95.1465 519.256 95.5605 518.385 95.5605C518.139 95.5605 517.889 95.5234 517.635 95.4492V94.166L517.892 94.1719C518.213 94.1719 518.451 94.123 518.607 94.0254C518.767 93.9277 518.892 93.7656 518.982 93.5391L519.182 93.0176L516.961 86.6602H518.783L519.961 90.6035ZM527.051 91.248C527.051 91.041 526.947 90.8789 526.74 90.7617C526.537 90.6406 526.209 90.5332 525.756 90.4395C524.248 90.123 523.494 89.4824 523.494 88.5176C523.494 87.9551 523.726 87.4863 524.191 87.1113C524.66 86.7324 525.271 86.543 526.025 86.543C526.83 86.543 527.473 86.7324 527.953 87.1113C528.437 87.4902 528.68 87.9824 528.68 88.5879H526.986C526.986 88.3457 526.908 88.1465 526.752 87.9902C526.596 87.8301 526.351 87.75 526.019 87.75C525.734 87.75 525.514 87.8145 525.357 87.9434C525.201 88.0723 525.123 88.2363 525.123 88.4355C525.123 88.623 525.211 88.7754 525.387 88.8926C525.566 89.0059 525.867 89.1055 526.289 89.1914C526.711 89.2734 527.066 89.3672 527.355 89.4727C528.25 89.8008 528.697 90.3691 528.697 91.1777C528.697 91.7559 528.449 92.2246 527.953 92.584C527.457 92.9395 526.816 93.1172 526.031 93.1172C525.5 93.1172 525.027 93.0234 524.613 92.8359C524.203 92.6445 523.881 92.3848 523.646 92.0566C523.412 91.7246 523.295 91.3672 523.295 90.9844H524.9C524.916 91.2852 525.027 91.5156 525.234 91.6758C525.441 91.8359 525.719 91.916 526.066 91.916C526.391 91.916 526.635 91.8555 526.799 91.7344C526.967 91.6094 527.051 91.4473 527.051 91.248ZM531.82 85.1016V86.6602H532.904V87.9023H531.82V91.0664C531.82 91.3008 531.865 91.4688 531.955 91.5703C532.045 91.6719 532.217 91.7227 532.471 91.7227C532.658 91.7227 532.824 91.709 532.969 91.6816V92.9648C532.637 93.0664 532.295 93.1172 531.943 93.1172C530.756 93.1172 530.15 92.5176 530.127 91.3184V87.9023H529.201V86.6602H530.127V85.1016H531.82Z" fill="black"/>
<path d="M676.998 73.4688L679.189 79.6562L681.369 73.4688H683.678V82H681.914V79.668L682.09 75.6426L679.787 82H678.58L676.283 75.6484L676.459 79.668V82H674.701V73.4688H676.998ZM688.775 82C688.697 81.8477 688.641 81.6582 688.605 81.4316C688.195 81.8887 687.662 82.1172 687.006 82.1172C686.385 82.1172 685.869 81.9375 685.459 81.5781C685.053 81.2188 684.85 80.7656 684.85 80.2188C684.85 79.5469 685.098 79.0312 685.594 78.6719C686.094 78.3125 686.814 78.1309 687.756 78.127H688.535V77.7637C688.535 77.4707 688.459 77.2363 688.307 77.0605C688.158 76.8848 687.922 76.7969 687.598 76.7969C687.312 76.7969 687.088 76.8652 686.924 77.002C686.764 77.1387 686.684 77.3262 686.684 77.5645H684.99C684.99 77.1973 685.104 76.8574 685.33 76.5449C685.557 76.2324 685.877 75.9883 686.291 75.8125C686.705 75.6328 687.17 75.543 687.686 75.543C688.467 75.543 689.086 75.7402 689.543 76.1348C690.004 76.5254 690.234 77.0762 690.234 77.7871V80.5352C690.238 81.1367 690.322 81.5918 690.486 81.9004V82H688.775ZM687.375 80.8223C687.625 80.8223 687.855 80.7676 688.066 80.6582C688.277 80.5449 688.434 80.3945 688.535 80.207V79.1172H687.902C687.055 79.1172 686.604 79.4102 686.549 79.9961L686.543 80.0957C686.543 80.3066 686.617 80.4805 686.766 80.6172C686.914 80.7539 687.117 80.8223 687.375 80.8223ZM693.094 75.6602L693.146 76.3926C693.6 75.8262 694.207 75.543 694.969 75.543C695.641 75.543 696.141 75.7402 696.469 76.1348C696.797 76.5293 696.965 77.1191 696.973 77.9043V82H695.279V77.9453C695.279 77.5859 695.201 77.3262 695.045 77.166C694.889 77.002 694.629 76.9199 694.266 76.9199C693.789 76.9199 693.432 77.123 693.193 77.5293V82H691.5V75.6602H693.094ZM701.936 82C701.857 81.8477 701.801 81.6582 701.766 81.4316C701.355 81.8887 700.822 82.1172 700.166 82.1172C699.545 82.1172 699.029 81.9375 698.619 81.5781C698.213 81.2188 698.01 80.7656 698.01 80.2188C698.01 79.5469 698.258 79.0312 698.754 78.6719C699.254 78.3125 699.975 78.1309 700.916 78.127H701.695V77.7637C701.695 77.4707 701.619 77.2363 701.467 77.0605C701.318 76.8848 701.082 76.7969 700.758 76.7969C700.473 76.7969 700.248 76.8652 700.084 77.002C699.924 77.1387 699.844 77.3262 699.844 77.5645H698.15C698.15 77.1973 698.264 76.8574 698.49 76.5449C698.717 76.2324 699.037 75.9883 699.451 75.8125C699.865 75.6328 700.33 75.543 700.846 75.543C701.627 75.543 702.246 75.7402 702.703 76.1348C703.164 76.5254 703.395 77.0762 703.395 77.7871V80.5352C703.398 81.1367 703.482 81.5918 703.646 81.9004V82H701.936ZM700.535 80.8223C700.785 80.8223 701.016 80.7676 701.227 80.6582C701.438 80.5449 701.594 80.3945 701.695 80.207V79.1172H701.062C700.215 79.1172 699.764 79.4102 699.709 79.9961L699.703 80.0957C699.703 80.3066 699.777 80.4805 699.926 80.6172C700.074 80.7539 700.277 80.8223 700.535 80.8223ZM704.449 78.7832C704.449 77.8105 704.68 77.0273 705.141 76.4336C705.605 75.8398 706.23 75.543 707.016 75.543C707.711 75.543 708.252 75.7812 708.639 76.2578L708.709 75.6602H710.244V81.7891C710.244 82.3438 710.117 82.8262 709.863 83.2363C709.613 83.6465 709.26 83.959 708.803 84.1738C708.346 84.3887 707.811 84.4961 707.197 84.4961C706.732 84.4961 706.279 84.4023 705.838 84.2148C705.396 84.0312 705.062 83.793 704.836 83.5L705.586 82.4688C706.008 82.9414 706.52 83.1777 707.121 83.1777C707.57 83.1777 707.92 83.0566 708.17 82.8145C708.42 82.5762 708.545 82.2363 708.545 81.7949V81.4551C708.154 81.8965 707.641 82.1172 707.004 82.1172C706.242 82.1172 705.625 81.8203 705.152 81.2266C704.684 80.6289 704.449 79.8379 704.449 78.8535V78.7832ZM706.143 78.9062C706.143 79.4805 706.258 79.9316 706.488 80.2598C706.719 80.584 707.035 80.7461 707.438 80.7461C707.953 80.7461 708.322 80.5527 708.545 80.166V77.5C708.318 77.1133 707.953 76.9199 707.449 76.9199C707.043 76.9199 706.723 77.0859 706.488 77.418C706.258 77.75 706.143 78.2461 706.143 78.9062ZM714.469 82.1172C713.539 82.1172 712.781 81.832 712.195 81.2617C711.613 80.6914 711.322 79.9316 711.322 78.9824V78.8184C711.322 78.1816 711.445 77.6133 711.691 77.1133C711.938 76.6094 712.285 76.2227 712.734 75.9531C713.188 75.6797 713.703 75.543 714.281 75.543C715.148 75.543 715.83 75.8164 716.326 76.3633C716.826 76.9102 717.076 77.6855 717.076 78.6895V79.3809H713.039C713.094 79.7949 713.258 80.127 713.531 80.377C713.809 80.627 714.158 80.752 714.58 80.752C715.232 80.752 715.742 80.5156 716.109 80.043L716.941 80.9746C716.688 81.334 716.344 81.6152 715.91 81.8184C715.477 82.0176 714.996 82.1172 714.469 82.1172ZM714.275 76.9141C713.939 76.9141 713.666 77.0273 713.455 77.2539C713.248 77.4805 713.115 77.8047 713.057 78.2266H715.412V78.0918C715.404 77.7168 715.303 77.4277 715.107 77.2246C714.912 77.0176 714.635 76.9141 714.275 76.9141ZM719.631 75.6602L719.684 76.3691C720.133 75.8184 720.74 75.543 721.506 75.543C722.322 75.543 722.883 75.8652 723.188 76.5098C723.633 75.8652 724.268 75.543 725.092 75.543C725.779 75.543 726.291 75.7441 726.627 76.1465C726.963 76.5449 727.131 77.1465 727.131 77.9512V82H725.432V77.957C725.432 77.5977 725.361 77.3359 725.221 77.1719C725.08 77.0039 724.832 76.9199 724.477 76.9199C723.969 76.9199 723.617 77.1621 723.422 77.6465L723.428 82H721.734V77.9629C721.734 77.5957 721.662 77.3301 721.518 77.166C721.373 77.002 721.127 76.9199 720.779 76.9199C720.299 76.9199 719.951 77.1191 719.736 77.5176V82H718.043V75.6602H719.631ZM731.355 82.1172C730.426 82.1172 729.668 81.832 729.082 81.2617C728.5 80.6914 728.209 79.9316 728.209 78.9824V78.8184C728.209 78.1816 728.332 77.6133 728.578 77.1133C728.824 76.6094 729.172 76.2227 729.621 75.9531C730.074 75.6797 730.59 75.543 731.168 75.543C732.035 75.543 732.717 75.8164 733.213 76.3633C733.713 76.9102 733.963 77.6855 733.963 78.6895V79.3809H729.926C729.98 79.7949 730.145 80.127 730.418 80.377C730.695 80.627 731.045 80.752 731.467 80.752C732.119 80.752 732.629 80.5156 732.996 80.043L733.828 80.9746C733.574 81.334 733.23 81.6152 732.797 81.8184C732.363 82.0176 731.883 82.1172 731.355 82.1172ZM731.162 76.9141C730.826 76.9141 730.553 77.0273 730.342 77.2539C730.135 77.4805 730.002 77.8047 729.943 78.2266H732.299V78.0918C732.291 77.7168 732.189 77.4277 731.994 77.2246C731.799 77.0176 731.521 76.9141 731.162 76.9141ZM736.488 75.6602L736.541 76.3926C736.994 75.8262 737.602 75.543 738.363 75.543C739.035 75.543 739.535 75.7402 739.863 76.1348C740.191 76.5293 740.359 77.1191 740.367 77.9043V82H738.674V77.9453C738.674 77.5859 738.596 77.3262 738.439 77.166C738.283 77.002 738.023 76.9199 737.66 76.9199C737.184 76.9199 736.826 77.123 736.588 77.5293V82H734.895V75.6602H736.488ZM743.684 74.1016V75.6602H744.768V76.9023H743.684V80.0664C743.684 80.3008 743.729 80.4688 743.818 80.5703C743.908 80.6719 744.08 80.7227 744.334 80.7227C744.521 80.7227 744.688 80.709 744.832 80.6816V81.9648C744.5 82.0664 744.158 82.1172 743.807 82.1172C742.619 82.1172 742.014 81.5176 741.99 80.3184V76.9023H741.064V75.6602H741.99V74.1016H743.684ZM684.229 94.752C684.541 94.752 684.795 94.666 684.99 94.4941C685.186 94.3223 685.287 94.0938 685.295 93.8086H686.883C686.879 94.2383 686.762 94.6328 686.531 94.9922C686.301 95.3477 685.984 95.625 685.582 95.8242C685.184 96.0195 684.742 96.1172 684.258 96.1172C683.352 96.1172 682.637 95.8301 682.113 95.2559C681.59 94.6777 681.328 93.8809 681.328 92.8652V92.7539C681.328 91.7773 681.588 90.998 682.107 90.416C682.627 89.834 683.34 89.543 684.246 89.543C685.039 89.543 685.674 89.7695 686.15 90.2227C686.631 90.6719 686.875 91.2715 686.883 92.0215H685.295C685.287 91.6934 685.186 91.4277 684.99 91.2246C684.795 91.0176 684.537 90.9141 684.217 90.9141C683.822 90.9141 683.523 91.0586 683.32 91.3477C683.121 91.6328 683.021 92.0977 683.021 92.7422V92.918C683.021 93.5703 683.121 94.0391 683.32 94.3242C683.52 94.6094 683.822 94.752 684.229 94.752ZM687.586 92.7715C687.586 92.1426 687.707 91.582 687.949 91.0898C688.191 90.5977 688.539 90.2168 688.992 89.9473C689.449 89.6777 689.979 89.543 690.58 89.543C691.436 89.543 692.133 89.8047 692.672 90.3281C693.215 90.8516 693.518 91.5625 693.58 92.4609L693.592 92.8945C693.592 93.8672 693.32 94.6484 692.777 95.2383C692.234 95.8242 691.506 96.1172 690.592 96.1172C689.678 96.1172 688.947 95.8242 688.4 95.2383C687.857 94.6523 687.586 93.8555 687.586 92.8477V92.7715ZM689.279 92.8945C689.279 93.4961 689.393 93.957 689.619 94.2773C689.846 94.5938 690.17 94.752 690.592 94.752C691.002 94.752 691.322 94.5957 691.553 94.2832C691.783 93.9668 691.898 93.4629 691.898 92.7715C691.898 92.1816 691.783 91.7246 691.553 91.4004C691.322 91.0762 690.998 90.9141 690.58 90.9141C690.166 90.9141 689.846 91.0762 689.619 91.4004C689.393 91.7207 689.279 92.2188 689.279 92.8945ZM696.193 89.6602L696.246 90.3926C696.699 89.8262 697.307 89.543 698.068 89.543C698.74 89.543 699.24 89.7402 699.568 90.1348C699.896 90.5293 700.064 91.1191 700.072 91.9043V96H698.379V91.9453C698.379 91.5859 698.301 91.3262 698.145 91.166C697.988 91.002 697.729 90.9199 697.365 90.9199C696.889 90.9199 696.531 91.123 696.293 91.5293V96H694.6V89.6602H696.193ZM704.795 94.248C704.795 94.041 704.691 93.8789 704.484 93.7617C704.281 93.6406 703.953 93.5332 703.5 93.4395C701.992 93.123 701.238 92.4824 701.238 91.5176C701.238 90.9551 701.471 90.4863 701.936 90.1113C702.404 89.7324 703.016 89.543 703.77 89.543C704.574 89.543 705.217 89.7324 705.697 90.1113C706.182 90.4902 706.424 90.9824 706.424 91.5879H704.73C704.73 91.3457 704.652 91.1465 704.496 90.9902C704.34 90.8301 704.096 90.75 703.764 90.75C703.479 90.75 703.258 90.8145 703.102 90.9434C702.945 91.0723 702.867 91.2363 702.867 91.4355C702.867 91.623 702.955 91.7754 703.131 91.8926C703.311 92.0059 703.611 92.1055 704.033 92.1914C704.455 92.2734 704.811 92.3672 705.1 92.4727C705.994 92.8008 706.441 93.3691 706.441 94.1777C706.441 94.7559 706.193 95.2246 705.697 95.584C705.201 95.9395 704.561 96.1172 703.775 96.1172C703.244 96.1172 702.771 96.0234 702.357 95.8359C701.947 95.6445 701.625 95.3848 701.391 95.0566C701.156 94.7246 701.039 94.3672 701.039 93.9844H702.645C702.66 94.2852 702.771 94.5156 702.979 94.6758C703.186 94.8359 703.463 94.916 703.811 94.916C704.135 94.916 704.379 94.8555 704.543 94.7344C704.711 94.6094 704.795 94.4473 704.795 94.248ZM711.334 95.3555C710.916 95.8633 710.338 96.1172 709.6 96.1172C708.92 96.1172 708.4 95.9219 708.041 95.5312C707.686 95.1406 707.504 94.5684 707.496 93.8145V89.6602H709.189V93.7559C709.189 94.416 709.49 94.7461 710.092 94.7461C710.666 94.7461 711.061 94.5469 711.275 94.1484V89.6602H712.975V96H711.381L711.334 95.3555ZM716.039 96H714.34V87H716.039V96ZM719.467 88.1016V89.6602H720.551V90.9023H719.467V94.0664C719.467 94.3008 719.512 94.4688 719.602 94.5703C719.691 94.6719 719.863 94.7227 720.117 94.7227C720.305 94.7227 720.471 94.709 720.615 94.6816V95.9648C720.283 96.0664 719.941 96.1172 719.59 96.1172C718.402 96.1172 717.797 95.5176 717.773 94.3184V90.9023H716.848V89.6602H717.773V88.1016H719.467ZM725.168 96C725.09 95.8477 725.033 95.6582 724.998 95.4316C724.588 95.8887 724.055 96.1172 723.398 96.1172C722.777 96.1172 722.262 95.9375 721.852 95.5781C721.445 95.2188 721.242 94.7656 721.242 94.2188C721.242 93.5469 721.49 93.0312 721.986 92.6719C722.486 92.3125 723.207 92.1309 724.148 92.127H724.928V91.7637C724.928 91.4707 724.852 91.2363 724.699 91.0605C724.551 90.8848 724.314 90.7969 723.99 90.7969C723.705 90.7969 723.48 90.8652 723.316 91.002C723.156 91.1387 723.076 91.3262 723.076 91.5645H721.383C721.383 91.1973 721.496 90.8574 721.723 90.5449C721.949 90.2324 722.27 89.9883 722.684 89.8125C723.098 89.6328 723.562 89.543 724.078 89.543C724.859 89.543 725.479 89.7402 725.936 90.1348C726.396 90.5254 726.627 91.0762 726.627 91.7871V94.5352C726.631 95.1367 726.715 95.5918 726.879 95.9004V96H725.168ZM723.768 94.8223C724.018 94.8223 724.248 94.7676 724.459 94.6582C724.67 94.5449 724.826 94.3945 724.928 94.207V93.1172H724.295C723.447 93.1172 722.996 93.4102 722.941 93.9961L722.936 94.0957C722.936 94.3066 723.01 94.4805 723.158 94.6172C723.307 94.7539 723.51 94.8223 723.768 94.8223ZM729.486 89.6602L729.539 90.3926C729.992 89.8262 730.6 89.543 731.361 89.543C732.033 89.543 732.533 89.7402 732.861 90.1348C733.189 90.5293 733.357 91.1191 733.365 91.9043V96H731.672V91.9453C731.672 91.5859 731.594 91.3262 731.438 91.166C731.281 91.002 731.021 90.9199 730.658 90.9199C730.182 90.9199 729.824 91.123 729.586 91.5293V96H727.893V89.6602H729.486ZM736.682 88.1016V89.6602H737.766V90.9023H736.682V94.0664C736.682 94.3008 736.727 94.4688 736.816 94.5703C736.906 94.6719 737.078 94.7227 737.332 94.7227C737.52 94.7227 737.686 94.709 737.83 94.6816V95.9648C737.498 96.0664 737.156 96.1172 736.805 96.1172C735.617 96.1172 735.012 95.5176 734.988 94.3184V90.9023H734.062V89.6602H734.988V88.1016H736.682Z" fill="black"/>
<defs>
<filter id="filter0_d" x="70" y="47" width="152" height="85" filterUnits="userSpaceOnUse" color-interpolation-filters="sRGB">
<feFlood flood-opacity="0" result="BackgroundImageFix"/>
<feColorMatrix in="SourceAlpha" type="matrix" values="0 0 0 0 0 0 0 0 0 0 0 0 0 0 0 0 0 0 127 0"/>
<feOffset dy="4"/>
<feGaussianBlur stdDeviation="2"/>
<feColorMatrix type="matrix" values="0 0 0 0 0 0 0 0 0 0 0 0 0 0 0 0 0 0 0.25 0"/>
<feBlend mode="normal" in2="BackgroundImageFix" result="effect1_dropShadow"/>
<feBlend mode="normal" in="SourceGraphic" in2="effect1_dropShadow" result="shape"/>
</filter>
<filter id="filter1_d" x="254" y="48" width="152" height="84" filterUnits="userSpaceOnUse" color-interpolation-filters="sRGB">
<feFlood flood-opacity="0" result="BackgroundImageFix"/>
<feColorMatrix in="SourceAlpha" type="matrix" values="0 0 0 0 0 0 0 0 0 0 0 0 0 0 0 0 0 0 127 0"/>
<feOffset dy="4"/>
<feGaussianBlur stdDeviation="2"/>
<feColorMatrix type="matrix" values="0 0 0 0 0 0 0 0 0 0 0 0 0 0 0 0 0 0 0.25 0"/>
<feBlend mode="normal" in2="BackgroundImageFix" result="effect1_dropShadow"/>
<feBlend mode="normal" in="SourceGraphic" in2="effect1_dropShadow" result="shape"/>
</filter>
<filter id="filter2_d" x="634" y="49" width="152" height="84" filterUnits="userSpaceOnUse" color-interpolation-filters="sRGB">
<feFlood flood-opacity="0" result="BackgroundImageFix"/>
<feColorMatrix in="SourceAlpha" type="matrix" values="0 0 0 0 0 0 0 0 0 0 0 0 0 0 0 0 0 0 127 0"/>
<feOffset dy="4"/>
<feGaussianBlur stdDeviation="2"/>
<feColorMatrix type="matrix" values="0 0 0 0 0 0 0 0 0 0 0 0 0 0 0 0 0 0 0.25 0"/>
<feBlend mode="normal" in2="BackgroundImageFix" result="effect1_dropShadow"/>
<feBlend mode="normal" in="SourceGraphic" in2="effect1_dropShadow" result="shape"/>
</filter>
<filter id="filter3_d" x="438" y="47" width="152" height="84" filterUnits="userSpaceOnUse" color-interpolation-filters="sRGB">
<feFlood flood-opacity="0" result="BackgroundImageFix"/>
<feColorMatrix in="SourceAlpha" type="matrix" values="0 0 0 0 0 0 0 0 0 0 0 0 0 0 0 0 0 0 127 0"/>
<feOffset dy="4"/>
<feGaussianBlur stdDeviation="2"/>
<feColorMatrix type="matrix" values="0 0 0 0 0 0 0 0 0 0 0 0 0 0 0 0 0 0 0.25 0"/>
<feBlend mode="normal" in2="BackgroundImageFix" result="effect1_dropShadow"/>
<feBlend mode="normal" in="SourceGraphic" in2="effect1_dropShadow" result="shape"/>
</filter>
</defs>
</svg>
