<svg width="912" height="176" viewBox="0 0 912 176" fill="none" xmlns="http://www.w3.org/2000/svg">
<rect width="912" height="176" fill="white"/>
<rect x="218" y="96" width="22" height="415.978" transform="rotate(-90 218 96)" fill="#3742FA"/>
<path d="M635.061 87.1566C635.646 86.5709 635.646 85.6211 635.061 85.0353L625.515 75.4894C624.929 74.9036 623.979 74.9036 623.393 75.4894C622.808 76.0752 622.808 77.0249 623.393 77.6107L631.879 86.096L623.393 94.5813C622.808 95.167 622.808 96.1168 623.393 96.7026C623.979 97.2884 624.929 97.2884 625.515 96.7026L635.061 87.1566ZM222.683 87.596L634 87.596V84.596L222.683 84.596V87.596Z" fill="white"/>
<g filter="url(#filter0_d)">
<rect x="74" y="47" width="144" height="77" fill="white"/>
<rect x="74.5" y="47.5" width="143" height="76" stroke="#333333"/>
</g>
<g filter="url(#filter1_d)">
<rect x="253" y="47" width="144" height="76" fill="white"/>
<rect x="253.5" y="47.5" width="143" height="75" stroke="#333333"/>
</g>
<g filter="url(#filter2_d)">
<rect x="634" y="47" width="144" height="76" fill="white"/>
<rect x="634.5" y="47.5" width="143" height="75" stroke="#333333"/>
</g>
<g filter="url(#filter3_d)">
<rect x="438" y="47" width="144" height="76" fill="white"/>
<rect x="438.5" y="47.5" width="143" height="75" stroke="#333333"/>
</g>
<path d="M111.459 81.1582C111.393 82.0762 111.053 82.7988 110.439 83.3262C109.83 83.8535 109.025 84.1172 108.025 84.1172C106.932 84.1172 106.07 83.75 105.441 83.0156C104.816 82.2773 104.504 81.2656 104.504 79.9805V79.459C104.504 78.6387 104.648 77.916 104.938 77.291C105.227 76.666 105.639 76.1875 106.174 75.8555C106.713 75.5195 107.338 75.3516 108.049 75.3516C109.033 75.3516 109.826 75.6152 110.428 76.1426C111.029 76.6699 111.377 77.4102 111.471 78.3633H109.713C109.67 77.8125 109.516 77.4141 109.25 77.168C108.988 76.918 108.588 76.793 108.049 76.793C107.463 76.793 107.023 77.0039 106.73 77.4258C106.441 77.8438 106.293 78.4941 106.285 79.377V80.0215C106.285 80.9434 106.424 81.6172 106.701 82.043C106.982 82.4688 107.424 82.6816 108.025 82.6816C108.568 82.6816 108.973 82.5586 109.238 82.3125C109.508 82.0625 109.662 81.6777 109.701 81.1582H111.459ZM114.289 84H112.59V75H114.289V84ZM115.426 80.7715C115.426 80.1426 115.547 79.582 115.789 79.0898C116.031 78.5977 116.379 78.2168 116.832 77.9473C117.289 77.6777 117.818 77.543 118.42 77.543C119.275 77.543 119.973 77.8047 120.512 78.3281C121.055 78.8516 121.357 79.5625 121.42 80.4609L121.432 80.8945C121.432 81.8672 121.16 82.6484 120.617 83.2383C120.074 83.8242 119.346 84.1172 118.432 84.1172C117.518 84.1172 116.787 83.8242 116.24 83.2383C115.697 82.6523 115.426 81.8555 115.426 80.8477V80.7715ZM117.119 80.8945C117.119 81.4961 117.232 81.957 117.459 82.2773C117.686 82.5938 118.01 82.752 118.432 82.752C118.842 82.752 119.162 82.5957 119.393 82.2832C119.623 81.9668 119.738 81.4629 119.738 80.7715C119.738 80.1816 119.623 79.7246 119.393 79.4004C119.162 79.0762 118.838 78.9141 118.42 78.9141C118.006 78.9141 117.686 79.0762 117.459 79.4004C117.232 79.7207 117.119 80.2188 117.119 80.8945ZM126.271 83.3555C125.854 83.8633 125.275 84.1172 124.537 84.1172C123.857 84.1172 123.338 83.9219 122.979 83.5312C122.623 83.1406 122.441 82.5684 122.434 81.8145V77.6602H124.127V81.7559C124.127 82.416 124.428 82.7461 125.029 82.7461C125.604 82.7461 125.998 82.5469 126.213 82.1484V77.6602H127.912V84H126.318L126.271 83.3555ZM128.926 80.7832C128.926 79.7949 129.146 79.0078 129.588 78.4219C130.033 77.8359 130.641 77.543 131.41 77.543C132.027 77.543 132.537 77.7734 132.939 78.2344V75H134.639V84H133.109L133.027 83.3262C132.605 83.8535 132.062 84.1172 131.398 84.1172C130.652 84.1172 130.053 83.8242 129.6 83.2383C129.15 82.6484 128.926 81.8301 128.926 80.7832ZM130.619 80.9062C130.619 81.5 130.723 81.9551 130.93 82.2715C131.137 82.5879 131.438 82.7461 131.832 82.7461C132.355 82.7461 132.725 82.5254 132.939 82.084V79.582C132.729 79.1406 132.363 78.9199 131.844 78.9199C131.027 78.9199 130.619 79.582 130.619 80.9062ZM144.184 80.3027H140.809V82.5879H144.77V84H139.051V75.4688H144.758V76.8926H140.809V78.9258H144.184V80.3027ZM147.248 77.6602L147.301 78.3926C147.754 77.8262 148.361 77.543 149.123 77.543C149.795 77.543 150.295 77.7402 150.623 78.1348C150.951 78.5293 151.119 79.1191 151.127 79.9043V84H149.434V79.9453C149.434 79.5859 149.355 79.3262 149.199 79.166C149.043 79.002 148.783 78.9199 148.42 78.9199C147.943 78.9199 147.586 79.123 147.348 79.5293V84H145.654V77.6602H147.248ZM152.17 80.7832C152.17 79.8105 152.4 79.0273 152.861 78.4336C153.326 77.8398 153.951 77.543 154.736 77.543C155.432 77.543 155.973 77.7812 156.359 78.2578L156.43 77.6602H157.965V83.7891C157.965 84.3438 157.838 84.8262 157.584 85.2363C157.334 85.6465 156.98 85.959 156.523 86.1738C156.066 86.3887 155.531 86.4961 154.918 86.4961C154.453 86.4961 154 86.4023 153.559 86.2148C153.117 86.0312 152.783 85.793 152.557 85.5L153.307 84.4688C153.729 84.9414 154.24 85.1777 154.842 85.1777C155.291 85.1777 155.641 85.0566 155.891 84.8145C156.141 84.5762 156.266 84.2363 156.266 83.7949V83.4551C155.875 83.8965 155.361 84.1172 154.725 84.1172C153.963 84.1172 153.346 83.8203 152.873 83.2266C152.404 82.6289 152.17 81.8379 152.17 80.8535V80.7832ZM153.863 80.9062C153.863 81.4805 153.979 81.9316 154.209 82.2598C154.439 82.584 154.756 82.7461 155.158 82.7461C155.674 82.7461 156.043 82.5527 156.266 82.166V79.5C156.039 79.1133 155.674 78.9199 155.17 78.9199C154.764 78.9199 154.443 79.0859 154.209 79.418C153.979 79.75 153.863 80.2461 153.863 80.9062ZM161.059 84H159.359V77.6602H161.059V84ZM159.26 76.0195C159.26 75.7656 159.344 75.5566 159.512 75.3926C159.684 75.2285 159.916 75.1465 160.209 75.1465C160.498 75.1465 160.729 75.2285 160.9 75.3926C161.072 75.5566 161.158 75.7656 161.158 76.0195C161.158 76.2773 161.07 76.4883 160.895 76.6523C160.723 76.8164 160.494 76.8984 160.209 76.8984C159.924 76.8984 159.693 76.8164 159.518 76.6523C159.346 76.4883 159.26 76.2773 159.26 76.0195ZM164.018 77.6602L164.07 78.3926C164.523 77.8262 165.131 77.543 165.893 77.543C166.564 77.543 167.064 77.7402 167.393 78.1348C167.721 78.5293 167.889 79.1191 167.896 79.9043V84H166.203V79.9453C166.203 79.5859 166.125 79.3262 165.969 79.166C165.812 79.002 165.553 78.9199 165.189 78.9199C164.713 78.9199 164.355 79.123 164.117 79.5293V84H162.424V77.6602H164.018ZM172.104 84.1172C171.174 84.1172 170.416 83.832 169.83 83.2617C169.248 82.6914 168.957 81.9316 168.957 80.9824V80.8184C168.957 80.1816 169.08 79.6133 169.326 79.1133C169.572 78.6094 169.92 78.2227 170.369 77.9531C170.822 77.6797 171.338 77.543 171.916 77.543C172.783 77.543 173.465 77.8164 173.961 78.3633C174.461 78.9102 174.711 79.6855 174.711 80.6895V81.3809H170.674C170.729 81.7949 170.893 82.127 171.166 82.377C171.443 82.627 171.793 82.752 172.215 82.752C172.867 82.752 173.377 82.5156 173.744 82.043L174.576 82.9746C174.322 83.334 173.979 83.6152 173.545 83.8184C173.111 84.0176 172.631 84.1172 172.104 84.1172ZM171.91 78.9141C171.574 78.9141 171.301 79.0273 171.09 79.2539C170.883 79.4805 170.75 79.8047 170.691 80.2266H173.047V80.0918C173.039 79.7168 172.938 79.4277 172.742 79.2246C172.547 79.0176 172.27 78.9141 171.91 78.9141ZM178.596 84.1172C177.666 84.1172 176.908 83.832 176.322 83.2617C175.74 82.6914 175.449 81.9316 175.449 80.9824V80.8184C175.449 80.1816 175.572 79.6133 175.818 79.1133C176.064 78.6094 176.412 78.2227 176.861 77.9531C177.314 77.6797 177.83 77.543 178.408 77.543C179.275 77.543 179.957 77.8164 180.453 78.3633C180.953 78.9102 181.203 79.6855 181.203 80.6895V81.3809H177.166C177.221 81.7949 177.385 82.127 177.658 82.377C177.936 82.627 178.285 82.752 178.707 82.752C179.359 82.752 179.869 82.5156 180.236 82.043L181.068 82.9746C180.814 83.334 180.471 83.6152 180.037 83.8184C179.604 84.0176 179.123 84.1172 178.596 84.1172ZM178.402 78.9141C178.066 78.9141 177.793 79.0273 177.582 79.2539C177.375 79.4805 177.242 79.8047 177.184 80.2266H179.539V80.0918C179.531 79.7168 179.43 79.4277 179.234 79.2246C179.039 79.0176 178.762 78.9141 178.402 78.9141ZM185.732 79.248C185.502 79.2168 185.299 79.2012 185.123 79.2012C184.482 79.2012 184.062 79.418 183.863 79.8516V84H182.17V77.6602H183.77L183.816 78.416C184.156 77.834 184.627 77.543 185.229 77.543C185.416 77.543 185.592 77.5684 185.756 77.6191L185.732 79.248Z" fill="black"/>
<path d="M277.762 85V76.4688H280.387C281.137 76.4688 281.807 76.6387 282.396 76.9785C282.99 77.3145 283.453 77.7949 283.785 78.4199C284.117 79.041 284.283 79.748 284.283 80.541V80.9336C284.283 81.7266 284.119 82.4316 283.791 83.0488C283.467 83.666 283.008 84.1445 282.414 84.4844C281.82 84.8242 281.15 84.9961 280.404 85H277.762ZM279.519 77.8926V83.5879H280.369C281.057 83.5879 281.582 83.3633 281.945 82.9141C282.309 82.4648 282.494 81.8223 282.502 80.9863V80.5352C282.502 79.668 282.322 79.0117 281.963 78.5664C281.603 78.1172 281.078 77.8926 280.387 77.8926H279.519ZM288.373 85.1172C287.443 85.1172 286.685 84.832 286.1 84.2617C285.518 83.6914 285.227 82.9316 285.227 81.9824V81.8184C285.227 81.1816 285.35 80.6133 285.596 80.1133C285.842 79.6094 286.189 79.2227 286.639 78.9531C287.092 78.6797 287.607 78.543 288.185 78.543C289.053 78.543 289.734 78.8164 290.23 79.3633C290.73 79.9102 290.98 80.6855 290.98 81.6895V82.3809H286.943C286.998 82.7949 287.162 83.127 287.435 83.377C287.713 83.627 288.062 83.752 288.484 83.752C289.137 83.752 289.646 83.5156 290.014 83.043L290.846 83.9746C290.592 84.334 290.248 84.6152 289.814 84.8184C289.381 85.0176 288.9 85.1172 288.373 85.1172ZM288.18 79.9141C287.844 79.9141 287.57 80.0273 287.359 80.2539C287.152 80.4805 287.019 80.8047 286.961 81.2266H289.316V81.0918C289.309 80.7168 289.207 80.4277 289.012 80.2246C288.816 80.0176 288.539 79.9141 288.18 79.9141ZM294.238 82.9316L295.416 78.6602H297.185L295.047 85H293.43L291.291 78.6602H293.06L294.238 82.9316ZM297.578 81.7715C297.578 81.1426 297.699 80.582 297.941 80.0898C298.184 79.5977 298.531 79.2168 298.984 78.9473C299.441 78.6777 299.971 78.543 300.572 78.543C301.428 78.543 302.125 78.8047 302.664 79.3281C303.207 79.8516 303.51 80.5625 303.572 81.4609L303.584 81.8945C303.584 82.8672 303.312 83.6484 302.769 84.2383C302.227 84.8242 301.498 85.1172 300.584 85.1172C299.67 85.1172 298.939 84.8242 298.393 84.2383C297.85 83.6523 297.578 82.8555 297.578 81.8477V81.7715ZM299.271 81.8945C299.271 82.4961 299.385 82.957 299.611 83.2773C299.838 83.5938 300.162 83.752 300.584 83.752C300.994 83.752 301.314 83.5957 301.545 83.2832C301.775 82.9668 301.891 82.4629 301.891 81.7715C301.891 81.1816 301.775 80.7246 301.545 80.4004C301.314 80.0762 300.99 79.9141 300.572 79.9141C300.158 79.9141 299.838 80.0762 299.611 80.4004C299.385 80.7207 299.271 81.2188 299.271 81.8945ZM310.334 81.8887C310.334 82.8652 310.111 83.6484 309.666 84.2383C309.225 84.8242 308.627 85.1172 307.873 85.1172C307.232 85.1172 306.715 84.8945 306.32 84.4492V87.4375H304.627V78.6602H306.197L306.256 79.2812C306.666 78.7891 307.201 78.543 307.861 78.543C308.643 78.543 309.25 78.832 309.684 79.4102C310.117 79.9883 310.334 80.7852 310.334 81.8008V81.8887ZM308.641 81.7656C308.641 81.1758 308.535 80.7207 308.324 80.4004C308.117 80.0801 307.814 79.9199 307.416 79.9199C306.885 79.9199 306.519 80.123 306.32 80.5293V83.125C306.527 83.543 306.896 83.752 307.428 83.752C308.236 83.752 308.641 83.0898 308.641 81.7656ZM314.822 83.248C314.822 83.041 314.719 82.8789 314.512 82.7617C314.309 82.6406 313.98 82.5332 313.527 82.4395C312.019 82.123 311.266 81.4824 311.266 80.5176C311.266 79.9551 311.498 79.4863 311.963 79.1113C312.432 78.7324 313.043 78.543 313.797 78.543C314.602 78.543 315.244 78.7324 315.725 79.1113C316.209 79.4902 316.451 79.9824 316.451 80.5879H314.758C314.758 80.3457 314.68 80.1465 314.523 79.9902C314.367 79.8301 314.123 79.75 313.791 79.75C313.506 79.75 313.285 79.8145 313.129 79.9434C312.973 80.0723 312.894 80.2363 312.894 80.4355C312.894 80.623 312.982 80.7754 313.158 80.8926C313.338 81.0059 313.639 81.1055 314.06 81.1914C314.482 81.2734 314.838 81.3672 315.127 81.4727C316.021 81.8008 316.469 82.3691 316.469 83.1777C316.469 83.7559 316.221 84.2246 315.725 84.584C315.228 84.9395 314.588 85.1172 313.803 85.1172C313.271 85.1172 312.799 85.0234 312.385 84.8359C311.975 84.6445 311.652 84.3848 311.418 84.0566C311.184 83.7246 311.066 83.3672 311.066 82.9844H312.672C312.687 83.2852 312.799 83.5156 313.006 83.6758C313.213 83.8359 313.49 83.916 313.838 83.916C314.162 83.916 314.406 83.8555 314.57 83.7344C314.738 83.6094 314.822 83.4473 314.822 83.248ZM325.797 81.3027H322.422V83.5879H326.383V85H320.664V76.4688H326.371V77.8926H322.422V79.9258H325.797V81.3027ZM328.861 78.6602L328.914 79.3926C329.367 78.8262 329.975 78.543 330.736 78.543C331.408 78.543 331.908 78.7402 332.236 79.1348C332.564 79.5293 332.732 80.1191 332.74 80.9043V85H331.047V80.9453C331.047 80.5859 330.969 80.3262 330.812 80.166C330.656 80.002 330.396 79.9199 330.033 79.9199C329.557 79.9199 329.199 80.123 328.961 80.5293V85H327.268V78.6602H328.861ZM333.783 81.7832C333.783 80.8105 334.014 80.0273 334.475 79.4336C334.939 78.8398 335.564 78.543 336.35 78.543C337.045 78.543 337.586 78.7812 337.973 79.2578L338.043 78.6602H339.578V84.7891C339.578 85.3438 339.451 85.8262 339.197 86.2363C338.947 86.6465 338.594 86.959 338.137 87.1738C337.68 87.3887 337.144 87.4961 336.531 87.4961C336.066 87.4961 335.613 87.4023 335.172 87.2148C334.73 87.0312 334.396 86.793 334.17 86.5L334.92 85.4688C335.342 85.9414 335.853 86.1777 336.455 86.1777C336.904 86.1777 337.254 86.0566 337.504 85.8145C337.754 85.5762 337.879 85.2363 337.879 84.7949V84.4551C337.488 84.8965 336.975 85.1172 336.338 85.1172C335.576 85.1172 334.959 84.8203 334.486 84.2266C334.018 83.6289 333.783 82.8379 333.783 81.8535V81.7832ZM335.477 81.9062C335.477 82.4805 335.592 82.9316 335.822 83.2598C336.053 83.584 336.369 83.7461 336.771 83.7461C337.287 83.7461 337.656 83.5527 337.879 83.166V80.5C337.652 80.1133 337.287 79.9199 336.783 79.9199C336.377 79.9199 336.057 80.0859 335.822 80.418C335.592 80.75 335.477 81.2461 335.477 81.9062ZM342.672 85H340.973V78.6602H342.672V85ZM340.873 77.0195C340.873 76.7656 340.957 76.5566 341.125 76.3926C341.297 76.2285 341.529 76.1465 341.822 76.1465C342.111 76.1465 342.342 76.2285 342.514 76.3926C342.685 76.5566 342.771 76.7656 342.771 77.0195C342.771 77.2773 342.684 77.4883 342.508 77.6523C342.336 77.8164 342.107 77.8984 341.822 77.8984C341.537 77.8984 341.307 77.8164 341.131 77.6523C340.959 77.4883 340.873 77.2773 340.873 77.0195ZM345.631 78.6602L345.684 79.3926C346.137 78.8262 346.744 78.543 347.506 78.543C348.178 78.543 348.678 78.7402 349.006 79.1348C349.334 79.5293 349.502 80.1191 349.51 80.9043V85H347.816V80.9453C347.816 80.5859 347.738 80.3262 347.582 80.166C347.426 80.002 347.166 79.9199 346.803 79.9199C346.326 79.9199 345.969 80.123 345.73 80.5293V85H344.037V78.6602H345.631ZM353.717 85.1172C352.787 85.1172 352.029 84.832 351.443 84.2617C350.861 83.6914 350.57 82.9316 350.57 81.9824V81.8184C350.57 81.1816 350.693 80.6133 350.939 80.1133C351.185 79.6094 351.533 79.2227 351.982 78.9531C352.435 78.6797 352.951 78.543 353.529 78.543C354.396 78.543 355.078 78.8164 355.574 79.3633C356.074 79.9102 356.324 80.6855 356.324 81.6895V82.3809H352.287C352.342 82.7949 352.506 83.127 352.779 83.377C353.057 83.627 353.406 83.752 353.828 83.752C354.48 83.752 354.99 83.5156 355.357 83.043L356.189 83.9746C355.935 84.334 355.592 84.6152 355.158 84.8184C354.725 85.0176 354.244 85.1172 353.717 85.1172ZM353.523 79.9141C353.187 79.9141 352.914 80.0273 352.703 80.2539C352.496 80.4805 352.363 80.8047 352.305 81.2266H354.66V81.0918C354.652 80.7168 354.551 80.4277 354.355 80.2246C354.16 80.0176 353.883 79.9141 353.523 79.9141ZM360.209 85.1172C359.279 85.1172 358.521 84.832 357.935 84.2617C357.353 83.6914 357.062 82.9316 357.062 81.9824V81.8184C357.062 81.1816 357.185 80.6133 357.432 80.1133C357.678 79.6094 358.025 79.2227 358.475 78.9531C358.928 78.6797 359.443 78.543 360.021 78.543C360.889 78.543 361.57 78.8164 362.066 79.3633C362.566 79.9102 362.816 80.6855 362.816 81.6895V82.3809H358.779C358.834 82.7949 358.998 83.127 359.271 83.377C359.549 83.627 359.898 83.752 360.32 83.752C360.973 83.752 361.482 83.5156 361.85 83.043L362.682 83.9746C362.428 84.334 362.084 84.6152 361.65 84.8184C361.217 85.0176 360.736 85.1172 360.209 85.1172ZM360.016 79.9141C359.68 79.9141 359.406 80.0273 359.195 80.2539C358.988 80.4805 358.855 80.8047 358.797 81.2266H361.152V81.0918C361.144 80.7168 361.043 80.4277 360.848 80.2246C360.652 80.0176 360.375 79.9141 360.016 79.9141ZM367.346 80.248C367.115 80.2168 366.912 80.2012 366.736 80.2012C366.096 80.2012 365.676 80.418 365.477 80.8516V85H363.783V78.6602H365.383L365.43 79.416C365.769 78.834 366.24 78.543 366.842 78.543C367.029 78.543 367.205 78.5684 367.369 78.6191L367.346 80.248Z" fill="black"/>
<path d="M484.358 76.1582C484.291 77.0762 483.951 77.7988 483.338 78.3262C482.729 78.8535 481.924 79.1172 480.924 79.1172C479.83 79.1172 478.969 78.75 478.34 78.0156C477.715 77.2773 477.402 76.2656 477.402 74.9805V74.459C477.402 73.6387 477.547 72.916 477.836 72.291C478.125 71.666 478.537 71.1875 479.072 70.8555C479.611 70.5195 480.236 70.3516 480.947 70.3516C481.932 70.3516 482.725 70.6152 483.326 71.1426C483.928 71.6699 484.276 72.4102 484.369 73.3633H482.611C482.568 72.8125 482.414 72.4141 482.149 72.168C481.887 71.918 481.486 71.793 480.947 71.793C480.361 71.793 479.922 72.0039 479.629 72.4258C479.34 72.8438 479.192 73.4941 479.184 74.377V75.0215C479.184 75.9434 479.322 76.6172 479.6 77.043C479.881 77.4688 480.322 77.6816 480.924 77.6816C481.467 77.6816 481.871 77.5586 482.137 77.3125C482.406 77.0625 482.561 76.6777 482.6 76.1582H484.358ZM487.188 79H485.488V70H487.188V79ZM488.324 75.7715C488.324 75.1426 488.445 74.582 488.688 74.0898C488.93 73.5977 489.277 73.2168 489.731 72.9473C490.188 72.6777 490.717 72.543 491.318 72.543C492.174 72.543 492.871 72.8047 493.41 73.3281C493.953 73.8516 494.256 74.5625 494.318 75.4609L494.33 75.8945C494.33 76.8672 494.059 77.6484 493.516 78.2383C492.973 78.8242 492.244 79.1172 491.33 79.1172C490.416 79.1172 489.686 78.8242 489.139 78.2383C488.596 77.6523 488.324 76.8555 488.324 75.8477V75.7715ZM490.018 75.8945C490.018 76.4961 490.131 76.957 490.358 77.2773C490.584 77.5938 490.908 77.752 491.33 77.752C491.74 77.752 492.061 77.5957 492.291 77.2832C492.522 76.9668 492.637 76.4629 492.637 75.7715C492.637 75.1816 492.522 74.7246 492.291 74.4004C492.061 74.0762 491.736 73.9141 491.318 73.9141C490.904 73.9141 490.584 74.0762 490.358 74.4004C490.131 74.7207 490.018 75.2188 490.018 75.8945ZM499.17 78.3555C498.752 78.8633 498.174 79.1172 497.436 79.1172C496.756 79.1172 496.236 78.9219 495.877 78.5312C495.522 78.1406 495.34 77.5684 495.332 76.8145V72.6602H497.026V76.7559C497.026 77.416 497.326 77.7461 497.928 77.7461C498.502 77.7461 498.897 77.5469 499.111 77.1484V72.6602H500.811V79H499.217L499.17 78.3555ZM501.824 75.7832C501.824 74.7949 502.045 74.0078 502.486 73.4219C502.932 72.8359 503.539 72.543 504.309 72.543C504.926 72.543 505.436 72.7734 505.838 73.2344V70H507.537V79H506.008L505.926 78.3262C505.504 78.8535 504.961 79.1172 504.297 79.1172C503.551 79.1172 502.951 78.8242 502.498 78.2383C502.049 77.6484 501.824 76.8301 501.824 75.7832ZM503.518 75.9062C503.518 76.5 503.621 76.9551 503.828 77.2715C504.035 77.5879 504.336 77.7461 504.731 77.7461C505.254 77.7461 505.623 77.5254 505.838 77.084V74.582C505.627 74.1406 505.262 73.9199 504.742 73.9199C503.926 73.9199 503.518 74.582 503.518 75.9062ZM511.949 79V70.4688H514.574C515.324 70.4688 515.994 70.6387 516.584 70.9785C517.178 71.3145 517.641 71.7949 517.973 72.4199C518.305 73.041 518.471 73.748 518.471 74.541V74.9336C518.471 75.7266 518.307 76.4316 517.979 77.0488C517.654 77.666 517.195 78.1445 516.602 78.4844C516.008 78.8242 515.338 78.9961 514.592 79H511.949ZM513.707 71.8926V77.5879H514.557C515.244 77.5879 515.77 77.3633 516.133 76.9141C516.496 76.4648 516.682 75.8223 516.69 74.9863V74.5352C516.69 73.668 516.51 73.0117 516.151 72.5664C515.791 72.1172 515.266 71.8926 514.574 71.8926H513.707ZM522.561 79.1172C521.631 79.1172 520.873 78.832 520.287 78.2617C519.705 77.6914 519.414 76.9316 519.414 75.9824V75.8184C519.414 75.1816 519.537 74.6133 519.783 74.1133C520.029 73.6094 520.377 73.2227 520.826 72.9531C521.279 72.6797 521.795 72.543 522.373 72.543C523.24 72.543 523.922 72.8164 524.418 73.3633C524.918 73.9102 525.168 74.6855 525.168 75.6895V76.3809H521.131C521.186 76.7949 521.35 77.127 521.623 77.377C521.901 77.627 522.25 77.752 522.672 77.752C523.324 77.752 523.834 77.5156 524.201 77.043L525.033 77.9746C524.779 78.334 524.436 78.6152 524.002 78.8184C523.568 79.0176 523.088 79.1172 522.561 79.1172ZM522.367 73.9141C522.031 73.9141 521.758 74.0273 521.547 74.2539C521.34 74.4805 521.207 74.8047 521.149 75.2266H523.504V75.0918C523.496 74.7168 523.395 74.4277 523.199 74.2246C523.004 74.0176 522.727 73.9141 522.367 73.9141ZM528.426 76.9316L529.604 72.6602H531.373L529.234 79H527.617L525.479 72.6602H527.248L528.426 76.9316ZM531.766 75.7715C531.766 75.1426 531.887 74.582 532.129 74.0898C532.371 73.5977 532.719 73.2168 533.172 72.9473C533.629 72.6777 534.158 72.543 534.76 72.543C535.615 72.543 536.313 72.8047 536.852 73.3281C537.395 73.8516 537.697 74.5625 537.76 75.4609L537.772 75.8945C537.772 76.8672 537.5 77.6484 536.957 78.2383C536.414 78.8242 535.686 79.1172 534.772 79.1172C533.858 79.1172 533.127 78.8242 532.58 78.2383C532.037 77.6523 531.766 76.8555 531.766 75.8477V75.7715ZM533.459 75.8945C533.459 76.4961 533.572 76.957 533.799 77.2773C534.026 77.5938 534.35 77.752 534.772 77.752C535.182 77.752 535.502 77.5957 535.733 77.2832C535.963 76.9668 536.078 76.4629 536.078 75.7715C536.078 75.1816 535.963 74.7246 535.733 74.4004C535.502 74.0762 535.178 73.9141 534.76 73.9141C534.346 73.9141 534.026 74.0762 533.799 74.4004C533.572 74.7207 533.459 75.2188 533.459 75.8945ZM544.522 75.8887C544.522 76.8652 544.299 77.6484 543.854 78.2383C543.412 78.8242 542.815 79.1172 542.061 79.1172C541.42 79.1172 540.902 78.8945 540.508 78.4492V81.4375H538.815V72.6602H540.385L540.443 73.2812C540.854 72.7891 541.389 72.543 542.049 72.543C542.83 72.543 543.438 72.832 543.871 73.4102C544.305 73.9883 544.522 74.7852 544.522 75.8008V75.8887ZM542.828 75.7656C542.828 75.1758 542.723 74.7207 542.512 74.4004C542.305 74.0801 542.002 73.9199 541.604 73.9199C541.072 73.9199 540.707 74.123 540.508 74.5293V77.125C540.715 77.543 541.084 77.752 541.615 77.752C542.424 77.752 542.828 77.0898 542.828 75.7656ZM549.01 77.248C549.01 77.041 548.906 76.8789 548.699 76.7617C548.496 76.6406 548.168 76.5332 547.715 76.4395C546.207 76.123 545.453 75.4824 545.453 74.5176C545.453 73.9551 545.686 73.4863 546.151 73.1113C546.619 72.7324 547.231 72.543 547.984 72.543C548.789 72.543 549.432 72.7324 549.912 73.1113C550.397 73.4902 550.639 73.9824 550.639 74.5879H548.945C548.945 74.3457 548.867 74.1465 548.711 73.9902C548.555 73.8301 548.311 73.75 547.979 73.75C547.693 73.75 547.473 73.8145 547.317 73.9434C547.16 74.0723 547.082 74.2363 547.082 74.4355C547.082 74.623 547.17 74.7754 547.346 74.8926C547.526 75.0059 547.826 75.1055 548.248 75.1914C548.67 75.2734 549.026 75.3672 549.315 75.4727C550.209 75.8008 550.656 76.3691 550.656 77.1777C550.656 77.7559 550.408 78.2246 549.912 78.584C549.416 78.9395 548.776 79.1172 547.99 79.1172C547.459 79.1172 546.986 79.0234 546.572 78.8359C546.162 78.6445 545.84 78.3848 545.606 78.0566C545.371 77.7246 545.254 77.3672 545.254 76.9844H546.859C546.875 77.2852 546.986 77.5156 547.193 77.6758C547.401 77.8359 547.678 77.916 548.026 77.916C548.35 77.916 548.594 77.8555 548.758 77.7344C548.926 77.6094 549.01 77.4473 549.01 77.248ZM494.899 91.2422H491.817L491.231 93H489.361L492.537 84.4688H494.166L497.359 93H495.49L494.899 91.2422ZM492.291 89.8184H494.424L493.352 86.625L492.291 89.8184ZM501.608 88.248C501.377 88.2168 501.174 88.2012 500.998 88.2012C500.358 88.2012 499.938 88.418 499.738 88.8516V93H498.045V86.6602H499.645L499.692 87.416C500.031 86.834 500.502 86.543 501.104 86.543C501.291 86.543 501.467 86.5684 501.631 86.6191L501.608 88.248ZM504.947 91.752C505.26 91.752 505.514 91.666 505.709 91.4941C505.904 91.3223 506.006 91.0938 506.014 90.8086H507.602C507.598 91.2383 507.481 91.6328 507.25 91.9922C507.02 92.3477 506.703 92.625 506.301 92.8242C505.902 93.0195 505.461 93.1172 504.977 93.1172C504.07 93.1172 503.356 92.8301 502.832 92.2559C502.309 91.6777 502.047 90.8809 502.047 89.8652V89.7539C502.047 88.7773 502.307 87.998 502.826 87.416C503.346 86.834 504.059 86.543 504.965 86.543C505.758 86.543 506.393 86.7695 506.869 87.2227C507.35 87.6719 507.594 88.2715 507.602 89.0215H506.014C506.006 88.6934 505.904 88.4277 505.709 88.2246C505.514 88.0176 505.256 87.9141 504.936 87.9141C504.541 87.9141 504.242 88.0586 504.039 88.3477C503.84 88.6328 503.74 89.0977 503.74 89.7422V89.918C503.74 90.5703 503.84 91.0391 504.039 91.3242C504.238 91.6094 504.541 91.752 504.947 91.752ZM510.221 87.3516C510.67 86.8125 511.234 86.543 511.914 86.543C513.289 86.543 513.986 87.3418 514.006 88.9395V93H512.313V88.9863C512.313 88.623 512.234 88.3555 512.078 88.1836C511.922 88.0078 511.662 87.9199 511.299 87.9199C510.803 87.9199 510.443 88.1113 510.221 88.4941V93H508.527V84H510.221V87.3516ZM517.07 93H515.371V86.6602H517.07V93ZM515.272 85.0195C515.272 84.7656 515.356 84.5566 515.524 84.3926C515.695 84.2285 515.928 84.1465 516.221 84.1465C516.51 84.1465 516.74 84.2285 516.912 84.3926C517.084 84.5566 517.17 84.7656 517.17 85.0195C517.17 85.2773 517.082 85.4883 516.906 85.6523C516.734 85.8164 516.506 85.8984 516.221 85.8984C515.936 85.8984 515.705 85.8164 515.529 85.6523C515.358 85.4883 515.272 85.2773 515.272 85.0195ZM520.498 85.1016V86.6602H521.582V87.9023H520.498V91.0664C520.498 91.3008 520.543 91.4688 520.633 91.5703C520.723 91.6719 520.895 91.7227 521.149 91.7227C521.336 91.7227 521.502 91.709 521.647 91.6816V92.9648C521.315 93.0664 520.973 93.1172 520.621 93.1172C519.434 93.1172 518.828 92.5176 518.805 91.3184V87.9023H517.879V86.6602H518.805V85.1016H520.498ZM525.443 93.1172C524.514 93.1172 523.756 92.832 523.17 92.2617C522.588 91.6914 522.297 90.9316 522.297 89.9824V89.8184C522.297 89.1816 522.42 88.6133 522.666 88.1133C522.912 87.6094 523.26 87.2227 523.709 86.9531C524.162 86.6797 524.678 86.543 525.256 86.543C526.123 86.543 526.805 86.8164 527.301 87.3633C527.801 87.9102 528.051 88.6855 528.051 89.6895V90.3809H524.014C524.068 90.7949 524.233 91.127 524.506 91.377C524.783 91.627 525.133 91.752 525.555 91.752C526.207 91.752 526.717 91.5156 527.084 91.043L527.916 91.9746C527.662 92.334 527.318 92.6152 526.885 92.8184C526.451 93.0176 525.971 93.1172 525.443 93.1172ZM525.25 87.9141C524.914 87.9141 524.641 88.0273 524.43 88.2539C524.223 88.4805 524.09 88.8047 524.031 89.2266H526.387V89.0918C526.379 88.7168 526.277 88.4277 526.082 88.2246C525.887 88.0176 525.609 87.9141 525.25 87.9141ZM531.654 91.752C531.967 91.752 532.221 91.666 532.416 91.4941C532.611 91.3223 532.713 91.0938 532.721 90.8086H534.309C534.305 91.2383 534.188 91.6328 533.957 91.9922C533.727 92.3477 533.41 92.625 533.008 92.8242C532.609 93.0195 532.168 93.1172 531.684 93.1172C530.777 93.1172 530.063 92.8301 529.539 92.2559C529.016 91.6777 528.754 90.8809 528.754 89.8652V89.7539C528.754 88.7773 529.014 87.998 529.533 87.416C530.053 86.834 530.766 86.543 531.672 86.543C532.465 86.543 533.1 86.7695 533.576 87.2227C534.057 87.6719 534.301 88.2715 534.309 89.0215H532.721C532.713 88.6934 532.611 88.4277 532.416 88.2246C532.221 88.0176 531.963 87.9141 531.643 87.9141C531.248 87.9141 530.949 88.0586 530.746 88.3477C530.547 88.6328 530.447 89.0977 530.447 89.7422V89.918C530.447 90.5703 530.547 91.0391 530.746 91.3242C530.945 91.6094 531.248 91.752 531.654 91.752ZM537.303 85.1016V86.6602H538.387V87.9023H537.303V91.0664C537.303 91.3008 537.348 91.4688 537.438 91.5703C537.527 91.6719 537.699 91.7227 537.953 91.7227C538.141 91.7227 538.307 91.709 538.451 91.6816V92.9648C538.119 93.0664 537.777 93.1172 537.426 93.1172C536.238 93.1172 535.633 92.5176 535.609 91.3184V87.9023H534.684V86.6602H535.609V85.1016H537.303Z" fill="black"/>
<path d="M657.022 78.9941V82H655.264V73.4688H658.592C659.233 73.4688 659.795 73.5859 660.279 73.8203C660.768 74.0547 661.143 74.3887 661.404 74.8223C661.666 75.252 661.797 75.7422 661.797 76.293C661.797 77.1289 661.51 77.7891 660.936 78.2734C660.365 78.7539 659.574 78.9941 658.563 78.9941H657.022ZM657.022 77.5703H658.592C659.057 77.5703 659.41 77.4609 659.652 77.2422C659.899 77.0234 660.022 76.7109 660.022 76.3047C660.022 75.8867 659.899 75.5488 659.652 75.291C659.406 75.0332 659.067 74.9004 658.633 74.8926H657.022V77.5703ZM666.461 77.248C666.231 77.2168 666.027 77.2012 665.852 77.2012C665.211 77.2012 664.791 77.418 664.592 77.8516V82H662.899V75.6602H664.498L664.545 76.416C664.885 75.834 665.356 75.543 665.957 75.543C666.145 75.543 666.32 75.5684 666.484 75.6191L666.461 77.248ZM669.068 82H667.369V75.6602H669.068V82ZM667.27 74.0195C667.27 73.7656 667.354 73.5566 667.522 73.3926C667.693 73.2285 667.926 73.1465 668.219 73.1465C668.508 73.1465 668.738 73.2285 668.91 73.3926C669.082 73.5566 669.168 73.7656 669.168 74.0195C669.168 74.2773 669.08 74.4883 668.904 74.6523C668.733 74.8164 668.504 74.8984 668.219 74.8984C667.934 74.8984 667.703 74.8164 667.527 74.6523C667.356 74.4883 667.27 74.2773 667.27 74.0195ZM672.027 75.6602L672.08 76.3926C672.533 75.8262 673.141 75.543 673.902 75.543C674.574 75.543 675.074 75.7402 675.402 76.1348C675.731 76.5293 675.899 77.1191 675.906 77.9043V82H674.213V77.9453C674.213 77.5859 674.135 77.3262 673.979 77.166C673.822 77.002 673.563 76.9199 673.199 76.9199C672.723 76.9199 672.365 77.123 672.127 77.5293V82H670.434V75.6602H672.027ZM679.832 80.752C680.145 80.752 680.399 80.666 680.594 80.4941C680.789 80.3223 680.891 80.0938 680.899 79.8086H682.486C682.483 80.2383 682.365 80.6328 682.135 80.9922C681.904 81.3477 681.588 81.625 681.186 81.8242C680.787 82.0195 680.346 82.1172 679.861 82.1172C678.955 82.1172 678.24 81.8301 677.717 81.2559C677.193 80.6777 676.932 79.8809 676.932 78.8652V78.7539C676.932 77.7773 677.192 76.998 677.711 76.416C678.231 75.834 678.943 75.543 679.85 75.543C680.643 75.543 681.277 75.7695 681.754 76.2227C682.234 76.6719 682.479 77.2715 682.486 78.0215H680.899C680.891 77.6934 680.789 77.4277 680.594 77.2246C680.399 77.0176 680.141 76.9141 679.82 76.9141C679.426 76.9141 679.127 77.0586 678.924 77.3477C678.725 77.6328 678.625 78.0977 678.625 78.7422V78.918C678.625 79.5703 678.725 80.0391 678.924 80.3242C679.123 80.6094 679.426 80.752 679.832 80.752ZM685.24 82H683.541V75.6602H685.24V82ZM683.442 74.0195C683.442 73.7656 683.526 73.5566 683.693 73.3926C683.865 73.2285 684.098 73.1465 684.391 73.1465C684.68 73.1465 684.91 73.2285 685.082 73.3926C685.254 73.5566 685.34 73.7656 685.34 74.0195C685.34 74.2773 685.252 74.4883 685.076 74.6523C684.904 74.8164 684.676 74.8984 684.391 74.8984C684.106 74.8984 683.875 74.8164 683.699 74.6523C683.527 74.4883 683.442 74.2773 683.442 74.0195ZM692.348 78.8887C692.348 79.8652 692.125 80.6484 691.68 81.2383C691.238 81.8242 690.641 82.1172 689.887 82.1172C689.246 82.1172 688.729 81.8945 688.334 81.4492V84.4375H686.641V75.6602H688.211L688.27 76.2812C688.68 75.7891 689.215 75.543 689.875 75.543C690.656 75.543 691.264 75.832 691.697 76.4102C692.131 76.9883 692.348 77.7852 692.348 78.8008V78.8887ZM690.654 78.7656C690.654 78.1758 690.549 77.7207 690.338 77.4004C690.131 77.0801 689.828 76.9199 689.43 76.9199C688.899 76.9199 688.533 77.123 688.334 77.5293V80.125C688.541 80.543 688.91 80.752 689.442 80.752C690.25 80.752 690.654 80.0898 690.654 78.7656ZM697.076 82C696.998 81.8477 696.942 81.6582 696.906 81.4316C696.496 81.8887 695.963 82.1172 695.307 82.1172C694.686 82.1172 694.17 81.9375 693.76 81.5781C693.354 81.2188 693.151 80.7656 693.151 80.2188C693.151 79.5469 693.399 79.0312 693.895 78.6719C694.395 78.3125 695.115 78.1309 696.057 78.127H696.836V77.7637C696.836 77.4707 696.76 77.2363 696.608 77.0605C696.459 76.8848 696.223 76.7969 695.899 76.7969C695.613 76.7969 695.389 76.8652 695.225 77.002C695.065 77.1387 694.984 77.3262 694.984 77.5645H693.291C693.291 77.1973 693.404 76.8574 693.631 76.5449C693.858 76.2324 694.178 75.9883 694.592 75.8125C695.006 75.6328 695.471 75.543 695.986 75.543C696.768 75.543 697.387 75.7402 697.844 76.1348C698.305 76.5254 698.535 77.0762 698.535 77.7871V80.5352C698.539 81.1367 698.623 81.5918 698.787 81.9004V82H697.076ZM695.676 80.8223C695.926 80.8223 696.156 80.7676 696.367 80.6582C696.578 80.5449 696.734 80.3945 696.836 80.207V79.1172H696.203C695.356 79.1172 694.904 79.4102 694.85 79.9961L694.844 80.0957C694.844 80.3066 694.918 80.4805 695.067 80.6172C695.215 80.7539 695.418 80.8223 695.676 80.8223ZM701.623 82H699.924V73H701.623V82ZM710.94 80.2422H707.858L707.272 82H705.402L708.578 73.4688H710.207L713.401 82H711.531L710.94 80.2422ZM708.332 78.8184H710.465L709.393 75.625L708.332 78.8184ZM719.512 78.8887C719.512 79.8652 719.289 80.6484 718.844 81.2383C718.402 81.8242 717.805 82.1172 717.051 82.1172C716.41 82.1172 715.893 81.8945 715.498 81.4492V84.4375H713.805V75.6602H715.375L715.434 76.2812C715.844 75.7891 716.379 75.543 717.039 75.543C717.82 75.543 718.428 75.832 718.861 76.4102C719.295 76.9883 719.512 77.7852 719.512 78.8008V78.8887ZM717.818 78.7656C717.818 78.1758 717.713 77.7207 717.502 77.4004C717.295 77.0801 716.992 76.9199 716.594 76.9199C716.063 76.9199 715.697 77.123 715.498 77.5293V80.125C715.705 80.543 716.074 80.752 716.606 80.752C717.414 80.752 717.818 80.0898 717.818 78.7656ZM726.274 78.8887C726.274 79.8652 726.051 80.6484 725.606 81.2383C725.164 81.8242 724.567 82.1172 723.813 82.1172C723.172 82.1172 722.654 81.8945 722.26 81.4492V84.4375H720.567V75.6602H722.137L722.195 76.2812C722.606 75.7891 723.141 75.543 723.801 75.543C724.582 75.543 725.19 75.832 725.623 76.4102C726.057 76.9883 726.274 77.7852 726.274 78.8008V78.8887ZM724.58 78.7656C724.58 78.1758 724.475 77.7207 724.264 77.4004C724.057 77.0801 723.754 76.9199 723.356 76.9199C722.824 76.9199 722.459 77.123 722.26 77.5293V80.125C722.467 80.543 722.836 80.752 723.367 80.752C724.176 80.752 724.58 80.0898 724.58 78.7656ZM729.115 82H727.416V73H729.115V82ZM732.303 82H730.604V75.6602H732.303V82ZM730.504 74.0195C730.504 73.7656 730.588 73.5566 730.756 73.3926C730.928 73.2285 731.16 73.1465 731.453 73.1465C731.742 73.1465 731.973 73.2285 732.145 73.3926C732.317 73.5566 732.402 73.7656 732.402 74.0195C732.402 74.2773 732.315 74.4883 732.139 74.6523C731.967 74.8164 731.738 74.8984 731.453 74.8984C731.168 74.8984 730.938 74.8164 730.762 74.6523C730.59 74.4883 730.504 74.2773 730.504 74.0195ZM736.34 80.752C736.652 80.752 736.906 80.666 737.102 80.4941C737.297 80.3223 737.399 80.0938 737.406 79.8086H738.994C738.99 80.2383 738.873 80.6328 738.643 80.9922C738.412 81.3477 738.096 81.625 737.693 81.8242C737.295 82.0195 736.854 82.1172 736.369 82.1172C735.463 82.1172 734.748 81.8301 734.225 81.2559C733.701 80.6777 733.44 79.8809 733.44 78.8652V78.7539C733.44 77.7773 733.699 76.998 734.219 76.416C734.738 75.834 735.451 75.543 736.358 75.543C737.151 75.543 737.785 75.7695 738.262 76.2227C738.742 76.6719 738.986 77.2715 738.994 78.0215H737.406C737.399 77.6934 737.297 77.4277 737.102 77.2246C736.906 77.0176 736.649 76.9141 736.328 76.9141C735.934 76.9141 735.635 77.0586 735.432 77.3477C735.233 77.6328 735.133 78.0977 735.133 78.7422V78.918C735.133 79.5703 735.233 80.0391 735.432 80.3242C735.631 80.6094 735.934 80.752 736.34 80.752ZM743.635 82C743.557 81.8477 743.5 81.6582 743.465 81.4316C743.055 81.8887 742.522 82.1172 741.865 82.1172C741.244 82.1172 740.729 81.9375 740.318 81.5781C739.912 81.2188 739.709 80.7656 739.709 80.2188C739.709 79.5469 739.957 79.0312 740.453 78.6719C740.953 78.3125 741.674 78.1309 742.615 78.127H743.395V77.7637C743.395 77.4707 743.318 77.2363 743.166 77.0605C743.018 76.8848 742.781 76.7969 742.457 76.7969C742.172 76.7969 741.947 76.8652 741.783 77.002C741.623 77.1387 741.543 77.3262 741.543 77.5645H739.85C739.85 77.1973 739.963 76.8574 740.19 76.5449C740.416 76.2324 740.736 75.9883 741.151 75.8125C741.565 75.6328 742.029 75.543 742.545 75.543C743.326 75.543 743.945 75.7402 744.402 76.1348C744.863 76.5254 745.094 77.0762 745.094 77.7871V80.5352C745.098 81.1367 745.182 81.5918 745.346 81.9004V82H743.635ZM742.234 80.8223C742.484 80.8223 742.715 80.7676 742.926 80.6582C743.137 80.5449 743.293 80.3945 743.395 80.207V79.1172H742.762C741.914 79.1172 741.463 79.4102 741.408 79.9961L741.402 80.0957C741.402 80.3066 741.477 80.4805 741.625 80.6172C741.774 80.7539 741.977 80.8223 742.234 80.8223ZM748.422 74.1016V75.6602H749.506V76.9023H748.422V80.0664C748.422 80.3008 748.467 80.4688 748.557 80.5703C748.647 80.6719 748.818 80.7227 749.072 80.7227C749.26 80.7227 749.426 80.709 749.57 80.6816V81.9648C749.238 82.0664 748.897 82.1172 748.545 82.1172C747.358 82.1172 746.752 81.5176 746.729 80.3184V76.9023H745.803V75.6602H746.729V74.1016H748.422ZM752.236 82H750.537V75.6602H752.236V82ZM750.438 74.0195C750.438 73.7656 750.522 73.5566 750.69 73.3926C750.861 73.2285 751.094 73.1465 751.387 73.1465C751.676 73.1465 751.906 73.2285 752.078 73.3926C752.25 73.5566 752.336 73.7656 752.336 74.0195C752.336 74.2773 752.248 74.4883 752.072 74.6523C751.901 74.8164 751.672 74.8984 751.387 74.8984C751.102 74.8984 750.871 74.8164 750.695 74.6523C750.524 74.4883 750.438 74.2773 750.438 74.0195ZM753.373 78.7715C753.373 78.1426 753.494 77.582 753.736 77.0898C753.979 76.5977 754.326 76.2168 754.779 75.9473C755.236 75.6777 755.766 75.543 756.367 75.543C757.223 75.543 757.92 75.8047 758.459 76.3281C759.002 76.8516 759.305 77.5625 759.367 78.4609L759.379 78.8945C759.379 79.8672 759.108 80.6484 758.565 81.2383C758.022 81.8242 757.293 82.1172 756.379 82.1172C755.465 82.1172 754.734 81.8242 754.188 81.2383C753.645 80.6523 753.373 79.8555 753.373 78.8477V78.7715ZM755.067 78.8945C755.067 79.4961 755.18 79.957 755.406 80.2773C755.633 80.5938 755.957 80.752 756.379 80.752C756.789 80.752 757.109 80.5957 757.34 80.2832C757.57 79.9668 757.686 79.4629 757.686 78.7715C757.686 78.1816 757.57 77.7246 757.34 77.4004C757.109 77.0762 756.785 76.9141 756.367 76.9141C755.953 76.9141 755.633 77.0762 755.406 77.4004C755.18 77.7207 755.067 78.2188 755.067 78.8945ZM761.981 75.6602L762.033 76.3926C762.486 75.8262 763.094 75.543 763.856 75.543C764.527 75.543 765.027 75.7402 765.356 76.1348C765.684 76.5293 765.852 77.1191 765.859 77.9043V82H764.166V77.9453C764.166 77.5859 764.088 77.3262 763.932 77.166C763.776 77.002 763.516 76.9199 763.152 76.9199C762.676 76.9199 762.318 77.123 762.08 77.5293V82H760.387V75.6602H761.981ZM691.399 94.2422H688.317L687.731 96H685.861L689.037 87.4688H690.666L693.859 96H691.99L691.399 94.2422ZM688.791 92.8184H690.924L689.852 89.625L688.791 92.8184ZM698.108 91.248C697.877 91.2168 697.674 91.2012 697.498 91.2012C696.858 91.2012 696.438 91.418 696.238 91.8516V96H694.545V89.6602H696.145L696.192 90.416C696.531 89.834 697.002 89.543 697.604 89.543C697.791 89.543 697.967 89.5684 698.131 89.6191L698.108 91.248ZM701.447 94.752C701.76 94.752 702.014 94.666 702.209 94.4941C702.404 94.3223 702.506 94.0938 702.514 93.8086H704.102C704.098 94.2383 703.981 94.6328 703.75 94.9922C703.52 95.3477 703.203 95.625 702.801 95.8242C702.402 96.0195 701.961 96.1172 701.477 96.1172C700.57 96.1172 699.856 95.8301 699.332 95.2559C698.809 94.6777 698.547 93.8809 698.547 92.8652V92.7539C698.547 91.7773 698.807 90.998 699.326 90.416C699.846 89.834 700.559 89.543 701.465 89.543C702.258 89.543 702.893 89.7695 703.369 90.2227C703.85 90.6719 704.094 91.2715 704.102 92.0215H702.514C702.506 91.6934 702.404 91.4277 702.209 91.2246C702.014 91.0176 701.756 90.9141 701.436 90.9141C701.041 90.9141 700.742 91.0586 700.539 91.3477C700.34 91.6328 700.24 92.0977 700.24 92.7422V92.918C700.24 93.5703 700.34 94.0391 700.539 94.3242C700.738 94.6094 701.041 94.752 701.447 94.752ZM706.721 90.3516C707.17 89.8125 707.734 89.543 708.414 89.543C709.789 89.543 710.486 90.3418 710.506 91.9395V96H708.813V91.9863C708.813 91.623 708.734 91.3555 708.578 91.1836C708.422 91.0078 708.162 90.9199 707.799 90.9199C707.303 90.9199 706.943 91.1113 706.721 91.4941V96H705.027V87H706.721V90.3516ZM713.57 96H711.871V89.6602H713.57V96ZM711.772 88.0195C711.772 87.7656 711.856 87.5566 712.024 87.3926C712.195 87.2285 712.428 87.1465 712.721 87.1465C713.01 87.1465 713.24 87.2285 713.412 87.3926C713.584 87.5566 713.67 87.7656 713.67 88.0195C713.67 88.2773 713.582 88.4883 713.406 88.6523C713.234 88.8164 713.006 88.8984 712.721 88.8984C712.436 88.8984 712.205 88.8164 712.029 88.6523C711.858 88.4883 711.772 88.2773 711.772 88.0195ZM716.998 88.1016V89.6602H718.082V90.9023H716.998V94.0664C716.998 94.3008 717.043 94.4688 717.133 94.5703C717.223 94.6719 717.395 94.7227 717.649 94.7227C717.836 94.7227 718.002 94.709 718.147 94.6816V95.9648C717.815 96.0664 717.473 96.1172 717.121 96.1172C715.934 96.1172 715.328 95.5176 715.305 94.3184V90.9023H714.379V89.6602H715.305V88.1016H716.998ZM721.943 96.1172C721.014 96.1172 720.256 95.832 719.67 95.2617C719.088 94.6914 718.797 93.9316 718.797 92.9824V92.8184C718.797 92.1816 718.92 91.6133 719.166 91.1133C719.412 90.6094 719.76 90.2227 720.209 89.9531C720.662 89.6797 721.178 89.543 721.756 89.543C722.623 89.543 723.305 89.8164 723.801 90.3633C724.301 90.9102 724.551 91.6855 724.551 92.6895V93.3809H720.514C720.568 93.7949 720.733 94.127 721.006 94.377C721.283 94.627 721.633 94.752 722.055 94.752C722.707 94.752 723.217 94.5156 723.584 94.043L724.416 94.9746C724.162 95.334 723.818 95.6152 723.385 95.8184C722.951 96.0176 722.471 96.1172 721.943 96.1172ZM721.75 90.9141C721.414 90.9141 721.141 91.0273 720.93 91.2539C720.723 91.4805 720.59 91.8047 720.531 92.2266H722.887V92.0918C722.879 91.7168 722.777 91.4277 722.582 91.2246C722.387 91.0176 722.109 90.9141 721.75 90.9141ZM728.154 94.752C728.467 94.752 728.721 94.666 728.916 94.4941C729.111 94.3223 729.213 94.0938 729.221 93.8086H730.809C730.805 94.2383 730.688 94.6328 730.457 94.9922C730.227 95.3477 729.91 95.625 729.508 95.8242C729.109 96.0195 728.668 96.1172 728.184 96.1172C727.277 96.1172 726.563 95.8301 726.039 95.2559C725.516 94.6777 725.254 93.8809 725.254 92.8652V92.7539C725.254 91.7773 725.514 90.998 726.033 90.416C726.553 89.834 727.266 89.543 728.172 89.543C728.965 89.543 729.6 89.7695 730.076 90.2227C730.557 90.6719 730.801 91.2715 730.809 92.0215H729.221C729.213 91.6934 729.111 91.4277 728.916 91.2246C728.721 91.0176 728.463 90.9141 728.143 90.9141C727.748 90.9141 727.449 91.0586 727.246 91.3477C727.047 91.6328 726.947 92.0977 726.947 92.7422V92.918C726.947 93.5703 727.047 94.0391 727.246 94.3242C727.445 94.6094 727.748 94.752 728.154 94.752ZM733.803 88.1016V89.6602H734.887V90.9023H733.803V94.0664C733.803 94.3008 733.848 94.4688 733.938 94.5703C734.027 94.6719 734.199 94.7227 734.453 94.7227C734.641 94.7227 734.807 94.709 734.951 94.6816V95.9648C734.619 96.0664 734.277 96.1172 733.926 96.1172C732.738 96.1172 732.133 95.5176 732.109 94.3184V90.9023H731.184V89.6602H732.109V88.1016H733.803Z" fill="black"/>
<defs>
<filter id="filter0_d" x="70" y="47" width="152" height="85" filterUnits="userSpaceOnUse" color-interpolation-filters="sRGB">
<feFlood flood-opacity="0" result="BackgroundImageFix"/>
<feColorMatrix in="SourceAlpha" type="matrix" values="0 0 0 0 0 0 0 0 0 0 0 0 0 0 0 0 0 0 127 0"/>
<feOffset dy="4"/>
<feGaussianBlur stdDeviation="2"/>
<feColorMatrix type="matrix" values="0 0 0 0 0 0 0 0 0 0 0 0 0 0 0 0 0 0 0.25 0"/>
<feBlend mode="normal" in2="BackgroundImageFix" result="effect1_dropShadow"/>
<feBlend mode="normal" in="SourceGraphic" in2="effect1_dropShadow" result="shape"/>
</filter>
<filter id="filter1_d" x="249" y="47" width="152" height="84" filterUnits="userSpaceOnUse" color-interpolation-filters="sRGB">
<feFlood flood-opacity="0" result="BackgroundImageFix"/>
<feColorMatrix in="SourceAlpha" type="matrix" values="0 0 0 0 0 0 0 0 0 0 0 0 0 0 0 0 0 0 127 0"/>
<feOffset dy="4"/>
<feGaussianBlur stdDeviation="2"/>
<feColorMatrix type="matrix" values="0 0 0 0 0 0 0 0 0 0 0 0 0 0 0 0 0 0 0.25 0"/>
<feBlend mode="normal" in2="BackgroundImageFix" result="effect1_dropShadow"/>
<feBlend mode="normal" in="SourceGraphic" in2="effect1_dropShadow" result="shape"/>
</filter>
<filter id="filter2_d" x="630" y="47" width="152" height="84" filterUnits="userSpaceOnUse" color-interpolation-filters="sRGB">
<feFlood flood-opacity="0" result="BackgroundImageFix"/>
<feColorMatrix in="SourceAlpha" type="matrix" values="0 0 0 0 0 0 0 0 0 0 0 0 0 0 0 0 0 0 127 0"/>
<feOffset dy="4"/>
<feGaussianBlur stdDeviation="2"/>
<feColorMatrix type="matrix" values="0 0 0 0 0 0 0 0 0 0 0 0 0 0 0 0 0 0 0.25 0"/>
<feBlend mode="normal" in2="BackgroundImageFix" result="effect1_dropShadow"/>
<feBlend mode="normal" in="SourceGraphic" in2="effect1_dropShadow" result="shape"/>
</filter>
<filter id="filter3_d" x="434" y="47" width="152" height="84" filterUnits="userSpaceOnUse" color-interpolation-filters="sRGB">
<feFlood flood-opacity="0" result="BackgroundImageFix"/>
<feColorMatrix in="SourceAlpha" type="matrix" values="0 0 0 0 0 0 0 0 0 0 0 0 0 0 0 0 0 0 127 0"/>
<feOffset dy="4"/>
<feGaussianBlur stdDeviation="2"/>
<feColorMatrix type="matrix" values="0 0 0 0 0 0 0 0 0 0 0 0 0 0 0 0 0 0 0.25 0"/>
<feBlend mode="normal" in2="BackgroundImageFix" result="effect1_dropShadow"/>
<feBlend mode="normal" in="SourceGraphic" in2="effect1_dropShadow" result="shape"/>
</filter>
</defs>
</svg>
