<svg width="1119" height="184" viewBox="0 0 1119 184" fill="none" xmlns="http://www.w3.org/2000/svg">
<rect width="1119" height="184" fill="white"/>
<rect x="218" y="97" width="22" height="691" transform="rotate(-90 218 97)" fill="#3742FA"/>
<path d="M910.066 87.1472C910.649 86.5606 910.644 85.6109 910.056 85.0259L900.465 75.4928C899.876 74.9078 898.926 74.9091 898.343 75.4956C897.76 76.0822 897.765 77.0319 898.353 77.6169L906.879 86.0908L898.433 94.5873C897.85 95.1739 897.855 96.1236 898.443 96.7086C899.032 97.2936 899.982 97.2923 900.565 96.7058L910.066 87.1472ZM227.396 88.5L909.007 87.5879L908.993 84.588L227.382 85.5L227.396 88.5Z" fill="white"/>
<g filter="url(#filter0_d)">
<rect x="74" y="47" width="144" height="77" fill="white"/>
<rect x="74.5" y="47.5" width="143" height="76" stroke="#333333"/>
</g>
<g filter="url(#filter1_d)">
<rect x="277" y="47" width="144" height="76" fill="white"/>
<rect x="277.5" y="47.5" width="143" height="75" stroke="#333333"/>
</g>
<g filter="url(#filter2_d)">
<rect x="694" y="47" width="144" height="76" fill="white"/>
<rect x="694.5" y="47.5" width="143" height="75" stroke="#333333"/>
</g>
<g filter="url(#filter3_d)">
<rect x="908" y="48" width="144" height="76" fill="white"/>
<rect x="908.5" y="48.5" width="143" height="75" stroke="#333333"/>
</g>
<g filter="url(#filter4_d)">
<rect x="480" y="48" width="144" height="76" fill="white"/>
<rect x="480.5" y="48.5" width="143" height="75" stroke="#333333"/>
</g>
<path d="M108.201 81.4688H109.959V87.375C109.959 87.918 109.838 88.3984 109.596 88.8164C109.357 89.2305 109.02 89.5508 108.582 89.7773C108.145 90.0039 107.65 90.1172 107.1 90.1172C106.197 90.1172 105.494 89.8887 104.99 89.4316C104.486 88.9707 104.234 88.3203 104.234 87.4805H106.004C106.004 87.8984 106.092 88.207 106.268 88.4062C106.443 88.6055 106.721 88.7051 107.1 88.7051C107.436 88.7051 107.703 88.5898 107.902 88.3594C108.102 88.1289 108.201 87.8008 108.201 87.375V81.4688ZM114.916 85.248C114.686 85.2168 114.482 85.2012 114.307 85.2012C113.666 85.2012 113.246 85.418 113.047 85.8516V90H111.354V83.6602H112.953L113 84.416C113.34 83.834 113.811 83.543 114.412 83.543C114.6 83.543 114.775 83.5684 114.939 83.6191L114.916 85.248ZM114.805 89.168C114.805 88.8984 114.895 88.6797 115.074 88.5117C115.258 88.3438 115.486 88.2598 115.76 88.2598C116.037 88.2598 116.266 88.3438 116.445 88.5117C116.629 88.6797 116.721 88.8984 116.721 89.168C116.721 89.4336 116.631 89.6504 116.451 89.8184C116.271 89.9824 116.041 90.0645 115.76 90.0645C115.482 90.0645 115.254 89.9824 115.074 89.8184C114.895 89.6504 114.805 89.4336 114.805 89.168ZM121.309 90V81.4688H123.934C124.684 81.4688 125.354 81.6387 125.943 81.9785C126.537 82.3145 127 82.7949 127.332 83.4199C127.664 84.041 127.83 84.748 127.83 85.541V85.9336C127.83 86.7266 127.666 87.4316 127.338 88.0488C127.014 88.666 126.555 89.1445 125.961 89.4844C125.367 89.8242 124.697 89.9961 123.951 90H121.309ZM123.066 82.8926V88.5879H123.916C124.604 88.5879 125.129 88.3633 125.492 87.9141C125.855 87.4648 126.041 86.8223 126.049 85.9863V85.5352C126.049 84.668 125.869 84.0117 125.51 83.5664C125.15 83.1172 124.625 82.8926 123.934 82.8926H123.066ZM132.676 90C132.598 89.8477 132.541 89.6582 132.506 89.4316C132.096 89.8887 131.562 90.1172 130.906 90.1172C130.285 90.1172 129.77 89.9375 129.359 89.5781C128.953 89.2188 128.75 88.7656 128.75 88.2188C128.75 87.5469 128.998 87.0312 129.494 86.6719C129.994 86.3125 130.715 86.1309 131.656 86.127H132.436V85.7637C132.436 85.4707 132.359 85.2363 132.207 85.0605C132.059 84.8848 131.822 84.7969 131.498 84.7969C131.213 84.7969 130.988 84.8652 130.824 85.002C130.664 85.1387 130.584 85.3262 130.584 85.5645H128.891C128.891 85.1973 129.004 84.8574 129.23 84.5449C129.457 84.2324 129.777 83.9883 130.191 83.8125C130.605 83.6328 131.07 83.543 131.586 83.543C132.367 83.543 132.986 83.7402 133.443 84.1348C133.904 84.5254 134.135 85.0762 134.135 85.7871V88.5352C134.139 89.1367 134.223 89.5918 134.387 89.9004V90H132.676ZM131.275 88.8223C131.525 88.8223 131.756 88.7676 131.967 88.6582C132.178 88.5449 132.334 88.3945 132.436 88.207V87.1172H131.803C130.955 87.1172 130.504 87.4102 130.449 87.9961L130.443 88.0957C130.443 88.3066 130.518 88.4805 130.666 88.6172C130.814 88.7539 131.018 88.8223 131.275 88.8223ZM137.463 82.1016V83.6602H138.547V84.9023H137.463V88.0664C137.463 88.3008 137.508 88.4688 137.598 88.5703C137.688 88.6719 137.859 88.7227 138.113 88.7227C138.301 88.7227 138.467 88.709 138.611 88.6816V89.9648C138.279 90.0664 137.938 90.1172 137.586 90.1172C136.398 90.1172 135.793 89.5176 135.77 88.3184V84.9023H134.844V83.6602H135.77V82.1016H137.463ZM143.164 90C143.086 89.8477 143.029 89.6582 142.994 89.4316C142.584 89.8887 142.051 90.1172 141.395 90.1172C140.773 90.1172 140.258 89.9375 139.848 89.5781C139.441 89.2188 139.238 88.7656 139.238 88.2188C139.238 87.5469 139.486 87.0312 139.982 86.6719C140.482 86.3125 141.203 86.1309 142.145 86.127H142.924V85.7637C142.924 85.4707 142.848 85.2363 142.695 85.0605C142.547 84.8848 142.311 84.7969 141.986 84.7969C141.701 84.7969 141.477 84.8652 141.312 85.002C141.152 85.1387 141.072 85.3262 141.072 85.5645H139.379C139.379 85.1973 139.492 84.8574 139.719 84.5449C139.945 84.2324 140.266 83.9883 140.68 83.8125C141.094 83.6328 141.559 83.543 142.074 83.543C142.855 83.543 143.475 83.7402 143.932 84.1348C144.393 84.5254 144.623 85.0762 144.623 85.7871V88.5352C144.627 89.1367 144.711 89.5918 144.875 89.9004V90H143.164ZM141.764 88.8223C142.014 88.8223 142.244 88.7676 142.455 88.6582C142.666 88.5449 142.822 88.3945 142.924 88.207V87.1172H142.291C141.443 87.1172 140.992 87.4102 140.938 87.9961L140.932 88.0957C140.932 88.3066 141.006 88.4805 141.154 88.6172C141.303 88.7539 141.506 88.8223 141.764 88.8223ZM154.156 86.3027H150.781V88.5879H154.742V90H149.023V81.4688H154.73V82.8926H150.781V84.9258H154.156V86.3027ZM157.221 83.6602L157.273 84.3926C157.727 83.8262 158.334 83.543 159.096 83.543C159.768 83.543 160.268 83.7402 160.596 84.1348C160.924 84.5293 161.092 85.1191 161.1 85.9043V90H159.406V85.9453C159.406 85.5859 159.328 85.3262 159.172 85.166C159.016 85.002 158.756 84.9199 158.393 84.9199C157.916 84.9199 157.559 85.123 157.32 85.5293V90H155.627V83.6602H157.221ZM162.143 86.7832C162.143 85.8105 162.373 85.0273 162.834 84.4336C163.299 83.8398 163.924 83.543 164.709 83.543C165.404 83.543 165.945 83.7812 166.332 84.2578L166.402 83.6602H167.938V89.7891C167.938 90.3438 167.811 90.8262 167.557 91.2363C167.307 91.6465 166.953 91.959 166.496 92.1738C166.039 92.3887 165.504 92.4961 164.891 92.4961C164.426 92.4961 163.973 92.4023 163.531 92.2148C163.09 92.0312 162.756 91.793 162.529 91.5L163.279 90.4688C163.701 90.9414 164.213 91.1777 164.814 91.1777C165.264 91.1777 165.613 91.0566 165.863 90.8145C166.113 90.5762 166.238 90.2363 166.238 89.7949V89.4551C165.848 89.8965 165.334 90.1172 164.697 90.1172C163.936 90.1172 163.318 89.8203 162.846 89.2266C162.377 88.6289 162.143 87.8379 162.143 86.8535V86.7832ZM163.836 86.9062C163.836 87.4805 163.951 87.9316 164.182 88.2598C164.412 88.584 164.729 88.7461 165.131 88.7461C165.646 88.7461 166.016 88.5527 166.238 88.166V85.5C166.012 85.1133 165.646 84.9199 165.143 84.9199C164.736 84.9199 164.416 85.0859 164.182 85.418C163.951 85.75 163.836 86.2461 163.836 86.9062ZM171.031 90H169.332V83.6602H171.031V90ZM169.232 82.0195C169.232 81.7656 169.316 81.5566 169.484 81.3926C169.656 81.2285 169.889 81.1465 170.182 81.1465C170.471 81.1465 170.701 81.2285 170.873 81.3926C171.045 81.5566 171.131 81.7656 171.131 82.0195C171.131 82.2773 171.043 82.4883 170.867 82.6523C170.695 82.8164 170.467 82.8984 170.182 82.8984C169.896 82.8984 169.666 82.8164 169.49 82.6523C169.318 82.4883 169.232 82.2773 169.232 82.0195ZM173.99 83.6602L174.043 84.3926C174.496 83.8262 175.104 83.543 175.865 83.543C176.537 83.543 177.037 83.7402 177.365 84.1348C177.693 84.5293 177.861 85.1191 177.869 85.9043V90H176.176V85.9453C176.176 85.5859 176.098 85.3262 175.941 85.166C175.785 85.002 175.525 84.9199 175.162 84.9199C174.686 84.9199 174.328 85.123 174.09 85.5293V90H172.396V83.6602H173.99ZM182.076 90.1172C181.146 90.1172 180.389 89.832 179.803 89.2617C179.221 88.6914 178.93 87.9316 178.93 86.9824V86.8184C178.93 86.1816 179.053 85.6133 179.299 85.1133C179.545 84.6094 179.893 84.2227 180.342 83.9531C180.795 83.6797 181.311 83.543 181.889 83.543C182.756 83.543 183.438 83.8164 183.934 84.3633C184.434 84.9102 184.684 85.6855 184.684 86.6895V87.3809H180.646C180.701 87.7949 180.865 88.127 181.139 88.377C181.416 88.627 181.766 88.752 182.188 88.752C182.84 88.752 183.35 88.5156 183.717 88.043L184.549 88.9746C184.295 89.334 183.951 89.6152 183.518 89.8184C183.084 90.0176 182.604 90.1172 182.076 90.1172ZM181.883 84.9141C181.547 84.9141 181.273 85.0273 181.062 85.2539C180.855 85.4805 180.723 85.8047 180.664 86.2266H183.02V86.0918C183.012 85.7168 182.91 85.4277 182.715 85.2246C182.52 85.0176 182.242 84.9141 181.883 84.9141ZM188.568 90.1172C187.639 90.1172 186.881 89.832 186.295 89.2617C185.713 88.6914 185.422 87.9316 185.422 86.9824V86.8184C185.422 86.1816 185.545 85.6133 185.791 85.1133C186.037 84.6094 186.385 84.2227 186.834 83.9531C187.287 83.6797 187.803 83.543 188.381 83.543C189.248 83.543 189.93 83.8164 190.426 84.3633C190.926 84.9102 191.176 85.6855 191.176 86.6895V87.3809H187.139C187.193 87.7949 187.357 88.127 187.631 88.377C187.908 88.627 188.258 88.752 188.68 88.752C189.332 88.752 189.842 88.5156 190.209 88.043L191.041 88.9746C190.787 89.334 190.443 89.6152 190.01 89.8184C189.576 90.0176 189.096 90.1172 188.568 90.1172ZM188.375 84.9141C188.039 84.9141 187.766 85.0273 187.555 85.2539C187.348 85.4805 187.215 85.8047 187.156 86.2266H189.512V86.0918C189.504 85.7168 189.402 85.4277 189.207 85.2246C189.012 85.0176 188.734 84.9141 188.375 84.9141ZM195.705 85.248C195.475 85.2168 195.271 85.2012 195.096 85.2012C194.455 85.2012 194.035 85.418 193.836 85.8516V90H192.143V83.6602H193.742L193.789 84.416C194.129 83.834 194.6 83.543 195.201 83.543C195.389 83.543 195.564 83.5684 195.729 83.6191L195.705 85.248Z" fill="black"/>
<path d="M322.902 81.2422H319.82L319.234 83H317.365L320.541 74.4688H322.17L325.363 83H323.494L322.902 81.2422ZM320.295 79.8184H322.428L321.355 76.625L320.295 79.8184ZM329.482 81.248C329.482 81.041 329.379 80.8789 329.172 80.7617C328.969 80.6406 328.641 80.5332 328.188 80.4395C326.68 80.123 325.926 79.4824 325.926 78.5176C325.926 77.9551 326.158 77.4863 326.623 77.1113C327.092 76.7324 327.703 76.543 328.457 76.543C329.262 76.543 329.904 76.7324 330.385 77.1113C330.869 77.4902 331.111 77.9824 331.111 78.5879H329.418C329.418 78.3457 329.34 78.1465 329.184 77.9902C329.027 77.8301 328.783 77.75 328.451 77.75C328.166 77.75 327.945 77.8145 327.789 77.9434C327.633 78.0723 327.555 78.2363 327.555 78.4355C327.555 78.623 327.643 78.7754 327.818 78.8926C327.998 79.0059 328.299 79.1055 328.721 79.1914C329.143 79.2734 329.498 79.3672 329.787 79.4727C330.682 79.8008 331.129 80.3691 331.129 81.1777C331.129 81.7559 330.881 82.2246 330.385 82.584C329.889 82.9395 329.248 83.1172 328.463 83.1172C327.932 83.1172 327.459 83.0234 327.045 82.8359C326.635 82.6445 326.312 82.3848 326.078 82.0566C325.844 81.7246 325.727 81.3672 325.727 80.9844H327.332C327.348 81.2852 327.459 81.5156 327.666 81.6758C327.873 81.8359 328.15 81.916 328.498 81.916C328.822 81.916 329.066 81.8555 329.23 81.7344C329.398 81.6094 329.482 81.4473 329.482 81.248ZM335.658 81.248C335.658 81.041 335.555 80.8789 335.348 80.7617C335.145 80.6406 334.816 80.5332 334.363 80.4395C332.855 80.123 332.102 79.4824 332.102 78.5176C332.102 77.9551 332.334 77.4863 332.799 77.1113C333.268 76.7324 333.879 76.543 334.633 76.543C335.438 76.543 336.08 76.7324 336.561 77.1113C337.045 77.4902 337.287 77.9824 337.287 78.5879H335.594C335.594 78.3457 335.516 78.1465 335.359 77.9902C335.203 77.8301 334.959 77.75 334.627 77.75C334.342 77.75 334.121 77.8145 333.965 77.9434C333.809 78.0723 333.73 78.2363 333.73 78.4355C333.73 78.623 333.818 78.7754 333.994 78.8926C334.174 79.0059 334.475 79.1055 334.896 79.1914C335.318 79.2734 335.674 79.3672 335.963 79.4727C336.857 79.8008 337.305 80.3691 337.305 81.1777C337.305 81.7559 337.057 82.2246 336.561 82.584C336.064 82.9395 335.424 83.1172 334.639 83.1172C334.107 83.1172 333.635 83.0234 333.221 82.8359C332.811 82.6445 332.488 82.3848 332.254 82.0566C332.02 81.7246 331.902 81.3672 331.902 80.9844H333.508C333.523 81.2852 333.635 81.5156 333.842 81.6758C334.049 81.8359 334.326 81.916 334.674 81.916C334.998 81.916 335.242 81.8555 335.406 81.7344C335.574 81.6094 335.658 81.4473 335.658 81.248ZM338.137 79.7715C338.137 79.1426 338.258 78.582 338.5 78.0898C338.742 77.5977 339.09 77.2168 339.543 76.9473C340 76.6777 340.529 76.543 341.131 76.543C341.986 76.543 342.684 76.8047 343.223 77.3281C343.766 77.8516 344.068 78.5625 344.131 79.4609L344.143 79.8945C344.143 80.8672 343.871 81.6484 343.328 82.2383C342.785 82.8242 342.057 83.1172 341.143 83.1172C340.229 83.1172 339.498 82.8242 338.951 82.2383C338.408 81.6523 338.137 80.8555 338.137 79.8477V79.7715ZM339.83 79.8945C339.83 80.4961 339.943 80.957 340.17 81.2773C340.396 81.5938 340.721 81.752 341.143 81.752C341.553 81.752 341.873 81.5957 342.104 81.2832C342.334 80.9668 342.449 80.4629 342.449 79.7715C342.449 79.1816 342.334 78.7246 342.104 78.4004C341.873 78.0762 341.549 77.9141 341.131 77.9141C340.717 77.9141 340.396 78.0762 340.17 78.4004C339.943 78.7207 339.83 79.2188 339.83 79.8945ZM347.822 81.752C348.135 81.752 348.389 81.666 348.584 81.4941C348.779 81.3223 348.881 81.0938 348.889 80.8086H350.477C350.473 81.2383 350.355 81.6328 350.125 81.9922C349.895 82.3477 349.578 82.625 349.176 82.8242C348.777 83.0195 348.336 83.1172 347.852 83.1172C346.945 83.1172 346.23 82.8301 345.707 82.2559C345.184 81.6777 344.922 80.8809 344.922 79.8652V79.7539C344.922 78.7773 345.182 77.998 345.701 77.416C346.221 76.834 346.934 76.543 347.84 76.543C348.633 76.543 349.268 76.7695 349.744 77.2227C350.225 77.6719 350.469 78.2715 350.477 79.0215H348.889C348.881 78.6934 348.779 78.4277 348.584 78.2246C348.389 78.0176 348.131 77.9141 347.811 77.9141C347.416 77.9141 347.117 78.0586 346.914 78.3477C346.715 78.6328 346.615 79.0977 346.615 79.7422V79.918C346.615 80.5703 346.715 81.0391 346.914 81.3242C347.113 81.6094 347.416 81.752 347.822 81.752ZM353.23 83H351.531V76.6602H353.23V83ZM351.432 75.0195C351.432 74.7656 351.516 74.5566 351.684 74.3926C351.855 74.2285 352.088 74.1465 352.381 74.1465C352.67 74.1465 352.9 74.2285 353.072 74.3926C353.244 74.5566 353.33 74.7656 353.33 75.0195C353.33 75.2773 353.242 75.4883 353.066 75.6523C352.895 75.8164 352.666 75.8984 352.381 75.8984C352.096 75.8984 351.865 75.8164 351.689 75.6523C351.518 75.4883 351.432 75.2773 351.432 75.0195ZM358.305 83C358.227 82.8477 358.17 82.6582 358.135 82.4316C357.725 82.8887 357.191 83.1172 356.535 83.1172C355.914 83.1172 355.398 82.9375 354.988 82.5781C354.582 82.2188 354.379 81.7656 354.379 81.2188C354.379 80.5469 354.627 80.0312 355.123 79.6719C355.623 79.3125 356.344 79.1309 357.285 79.127H358.064V78.7637C358.064 78.4707 357.988 78.2363 357.836 78.0605C357.688 77.8848 357.451 77.7969 357.127 77.7969C356.842 77.7969 356.617 77.8652 356.453 78.002C356.293 78.1387 356.213 78.3262 356.213 78.5645H354.52C354.52 78.1973 354.633 77.8574 354.859 77.5449C355.086 77.2324 355.406 76.9883 355.82 76.8125C356.234 76.6328 356.699 76.543 357.215 76.543C357.996 76.543 358.615 76.7402 359.072 77.1348C359.533 77.5254 359.764 78.0762 359.764 78.7871V81.5352C359.768 82.1367 359.852 82.5918 360.016 82.9004V83H358.305ZM356.904 81.8223C357.154 81.8223 357.385 81.7676 357.596 81.6582C357.807 81.5449 357.963 81.3945 358.064 81.207V80.1172H357.432C356.584 80.1172 356.133 80.4102 356.078 80.9961L356.072 81.0957C356.072 81.3066 356.146 81.4805 356.295 81.6172C356.443 81.7539 356.646 81.8223 356.904 81.8223ZM363.092 75.1016V76.6602H364.176V77.9023H363.092V81.0664C363.092 81.3008 363.137 81.4688 363.227 81.5703C363.316 81.6719 363.488 81.7227 363.742 81.7227C363.93 81.7227 364.096 81.709 364.24 81.6816V82.9648C363.908 83.0664 363.566 83.1172 363.215 83.1172C362.027 83.1172 361.422 82.5176 361.398 81.3184V77.9023H360.473V76.6602H361.398V75.1016H363.092ZM368.037 83.1172C367.107 83.1172 366.35 82.832 365.764 82.2617C365.182 81.6914 364.891 80.9316 364.891 79.9824V79.8184C364.891 79.1816 365.014 78.6133 365.26 78.1133C365.506 77.6094 365.854 77.2227 366.303 76.9531C366.756 76.6797 367.271 76.543 367.85 76.543C368.717 76.543 369.398 76.8164 369.895 77.3633C370.395 77.9102 370.645 78.6855 370.645 79.6895V80.3809H366.607C366.662 80.7949 366.826 81.127 367.1 81.377C367.377 81.627 367.727 81.752 368.148 81.752C368.801 81.752 369.311 81.5156 369.678 81.043L370.51 81.9746C370.256 82.334 369.912 82.6152 369.479 82.8184C369.045 83.0176 368.564 83.1172 368.037 83.1172ZM367.844 77.9141C367.508 77.9141 367.234 78.0273 367.023 78.2539C366.816 78.4805 366.684 78.8047 366.625 79.2266H368.98V79.0918C368.973 78.7168 368.871 78.4277 368.676 78.2246C368.48 78.0176 368.203 77.9141 367.844 77.9141ZM374.711 83V74.4688H377.336C378.086 74.4688 378.756 74.6387 379.346 74.9785C379.939 75.3145 380.402 75.7949 380.734 76.4199C381.066 77.041 381.232 77.748 381.232 78.541V78.9336C381.232 79.7266 381.068 80.4316 380.74 81.0488C380.416 81.666 379.957 82.1445 379.363 82.4844C378.77 82.8242 378.1 82.9961 377.354 83H374.711ZM376.469 75.8926V81.5879H377.318C378.006 81.5879 378.531 81.3633 378.895 80.9141C379.258 80.4648 379.443 79.8223 379.451 78.9863V78.5352C379.451 77.668 379.271 77.0117 378.912 76.5664C378.553 76.1172 378.027 75.8926 377.336 75.8926H376.469ZM386.078 83C386 82.8477 385.943 82.6582 385.908 82.4316C385.498 82.8887 384.965 83.1172 384.309 83.1172C383.688 83.1172 383.172 82.9375 382.762 82.5781C382.355 82.2188 382.152 81.7656 382.152 81.2188C382.152 80.5469 382.4 80.0312 382.896 79.6719C383.396 79.3125 384.117 79.1309 385.059 79.127H385.838V78.7637C385.838 78.4707 385.762 78.2363 385.609 78.0605C385.461 77.8848 385.225 77.7969 384.9 77.7969C384.615 77.7969 384.391 77.8652 384.227 78.002C384.066 78.1387 383.986 78.3262 383.986 78.5645H382.293C382.293 78.1973 382.406 77.8574 382.633 77.5449C382.859 77.2324 383.18 76.9883 383.594 76.8125C384.008 76.6328 384.473 76.543 384.988 76.543C385.77 76.543 386.389 76.7402 386.846 77.1348C387.307 77.5254 387.537 78.0762 387.537 78.7871V81.5352C387.541 82.1367 387.625 82.5918 387.789 82.9004V83H386.078ZM384.678 81.8223C384.928 81.8223 385.158 81.7676 385.369 81.6582C385.58 81.5449 385.736 81.3945 385.838 81.207V80.1172H385.205C384.357 80.1172 383.906 80.4102 383.852 80.9961L383.846 81.0957C383.846 81.3066 383.92 81.4805 384.068 81.6172C384.217 81.7539 384.42 81.8223 384.678 81.8223ZM390.865 75.1016V76.6602H391.949V77.9023H390.865V81.0664C390.865 81.3008 390.91 81.4688 391 81.5703C391.09 81.6719 391.262 81.7227 391.516 81.7227C391.703 81.7227 391.869 81.709 392.014 81.6816V82.9648C391.682 83.0664 391.34 83.1172 390.988 83.1172C389.801 83.1172 389.195 82.5176 389.172 81.3184V77.9023H388.246V76.6602H389.172V75.1016H390.865ZM396.566 83C396.488 82.8477 396.432 82.6582 396.396 82.4316C395.986 82.8887 395.453 83.1172 394.797 83.1172C394.176 83.1172 393.66 82.9375 393.25 82.5781C392.844 82.2188 392.641 81.7656 392.641 81.2188C392.641 80.5469 392.889 80.0312 393.385 79.6719C393.885 79.3125 394.605 79.1309 395.547 79.127H396.326V78.7637C396.326 78.4707 396.25 78.2363 396.098 78.0605C395.949 77.8848 395.713 77.7969 395.389 77.7969C395.104 77.7969 394.879 77.8652 394.715 78.002C394.555 78.1387 394.475 78.3262 394.475 78.5645H392.781C392.781 78.1973 392.895 77.8574 393.121 77.5449C393.348 77.2324 393.668 76.9883 394.082 76.8125C394.496 76.6328 394.961 76.543 395.477 76.543C396.258 76.543 396.877 76.7402 397.334 77.1348C397.795 77.5254 398.025 78.0762 398.025 78.7871V81.5352C398.029 82.1367 398.113 82.5918 398.277 82.9004V83H396.566ZM395.166 81.8223C395.416 81.8223 395.646 81.7676 395.857 81.6582C396.068 81.5449 396.225 81.3945 396.326 81.207V80.1172H395.693C394.846 80.1172 394.395 80.4102 394.34 80.9961L394.334 81.0957C394.334 81.3066 394.408 81.4805 394.557 81.6172C394.705 81.7539 394.908 81.8223 395.166 81.8223ZM339.426 94.7617C339.426 94.4297 339.309 94.1758 339.074 94C338.84 93.8203 338.418 93.6328 337.809 93.4375C337.199 93.2383 336.717 93.043 336.361 92.8516C335.393 92.3281 334.908 91.623 334.908 90.7363C334.908 90.2754 335.037 89.8652 335.295 89.5059C335.557 89.1426 335.93 88.8594 336.414 88.6562C336.902 88.4531 337.449 88.3516 338.055 88.3516C338.664 88.3516 339.207 88.4629 339.684 88.6855C340.16 88.9043 340.529 89.2148 340.791 89.6172C341.057 90.0195 341.189 90.4766 341.189 90.9883H339.432C339.432 90.5977 339.309 90.2949 339.062 90.0801C338.816 89.8613 338.471 89.752 338.025 89.752C337.596 89.752 337.262 89.8438 337.023 90.0273C336.785 90.207 336.666 90.4453 336.666 90.7422C336.666 91.0195 336.805 91.252 337.082 91.4395C337.363 91.627 337.775 91.8027 338.318 91.9668C339.318 92.2676 340.047 92.6406 340.504 93.0859C340.961 93.5312 341.189 94.0859 341.189 94.75C341.189 95.4883 340.91 96.0684 340.352 96.4902C339.793 96.9082 339.041 97.1172 338.096 97.1172C337.439 97.1172 336.842 96.998 336.303 96.7598C335.764 96.5176 335.352 96.1875 335.066 95.7695C334.785 95.3516 334.645 94.8672 334.645 94.3164H336.408C336.408 95.2578 336.971 95.7285 338.096 95.7285C338.514 95.7285 338.84 95.6445 339.074 95.4766C339.309 95.3047 339.426 95.0664 339.426 94.7617ZM344.91 95.752C345.223 95.752 345.477 95.666 345.672 95.4941C345.867 95.3223 345.969 95.0938 345.977 94.8086H347.564C347.561 95.2383 347.443 95.6328 347.213 95.9922C346.982 96.3477 346.666 96.625 346.264 96.8242C345.865 97.0195 345.424 97.1172 344.939 97.1172C344.033 97.1172 343.318 96.8301 342.795 96.2559C342.271 95.6777 342.01 94.8809 342.01 93.8652V93.7539C342.01 92.7773 342.27 91.998 342.789 91.416C343.309 90.834 344.021 90.543 344.928 90.543C345.721 90.543 346.355 90.7695 346.832 91.2227C347.312 91.6719 347.557 92.2715 347.564 93.0215H345.977C345.969 92.6934 345.867 92.4277 345.672 92.2246C345.477 92.0176 345.219 91.9141 344.898 91.9141C344.504 91.9141 344.205 92.0586 344.002 92.3477C343.803 92.6328 343.703 93.0977 343.703 93.7422V93.918C343.703 94.5703 343.803 95.0391 344.002 95.3242C344.201 95.6094 344.504 95.752 344.91 95.752ZM350.318 97H348.619V90.6602H350.318V97ZM348.52 89.0195C348.52 88.7656 348.604 88.5566 348.771 88.3926C348.943 88.2285 349.176 88.1465 349.469 88.1465C349.758 88.1465 349.988 88.2285 350.16 88.3926C350.332 88.5566 350.418 88.7656 350.418 89.0195C350.418 89.2773 350.33 89.4883 350.154 89.6523C349.982 89.8164 349.754 89.8984 349.469 89.8984C349.184 89.8984 348.953 89.8164 348.777 89.6523C348.605 89.4883 348.52 89.2773 348.52 89.0195ZM354.637 97.1172C353.707 97.1172 352.949 96.832 352.363 96.2617C351.781 95.6914 351.49 94.9316 351.49 93.9824V93.8184C351.49 93.1816 351.613 92.6133 351.859 92.1133C352.105 91.6094 352.453 91.2227 352.902 90.9531C353.355 90.6797 353.871 90.543 354.449 90.543C355.316 90.543 355.998 90.8164 356.494 91.3633C356.994 91.9102 357.244 92.6855 357.244 93.6895V94.3809H353.207C353.262 94.7949 353.426 95.127 353.699 95.377C353.977 95.627 354.326 95.752 354.748 95.752C355.4 95.752 355.91 95.5156 356.277 95.043L357.109 95.9746C356.855 96.334 356.512 96.6152 356.078 96.8184C355.645 97.0176 355.164 97.1172 354.637 97.1172ZM354.443 91.9141C354.107 91.9141 353.834 92.0273 353.623 92.2539C353.416 92.4805 353.283 92.8047 353.225 93.2266H355.58V93.0918C355.572 92.7168 355.471 92.4277 355.275 92.2246C355.08 92.0176 354.803 91.9141 354.443 91.9141ZM359.77 90.6602L359.822 91.3926C360.275 90.8262 360.883 90.543 361.645 90.543C362.316 90.543 362.816 90.7402 363.145 91.1348C363.473 91.5293 363.641 92.1191 363.648 92.9043V97H361.955V92.9453C361.955 92.5859 361.877 92.3262 361.721 92.166C361.564 92.002 361.305 91.9199 360.941 91.9199C360.465 91.9199 360.107 92.123 359.869 92.5293V97H358.176V90.6602H359.77ZM366.965 89.1016V90.6602H368.049V91.9023H366.965V95.0664C366.965 95.3008 367.01 95.4688 367.1 95.5703C367.189 95.6719 367.361 95.7227 367.615 95.7227C367.803 95.7227 367.969 95.709 368.113 95.6816V96.9648C367.781 97.0664 367.439 97.1172 367.088 97.1172C365.9 97.1172 365.295 96.5176 365.271 95.3184V91.9023H364.346V90.6602H365.271V89.1016H366.965ZM370.779 97H369.08V90.6602H370.779V97ZM368.98 89.0195C368.98 88.7656 369.064 88.5566 369.232 88.3926C369.404 88.2285 369.637 88.1465 369.93 88.1465C370.219 88.1465 370.449 88.2285 370.621 88.3926C370.793 88.5566 370.879 88.7656 370.879 89.0195C370.879 89.2773 370.791 89.4883 370.615 89.6523C370.443 89.8164 370.215 89.8984 369.93 89.8984C369.645 89.8984 369.414 89.8164 369.238 89.6523C369.066 89.4883 368.98 89.2773 368.98 89.0195ZM375.613 95.248C375.613 95.041 375.51 94.8789 375.303 94.7617C375.1 94.6406 374.771 94.5332 374.318 94.4395C372.811 94.123 372.057 93.4824 372.057 92.5176C372.057 91.9551 372.289 91.4863 372.754 91.1113C373.223 90.7324 373.834 90.543 374.588 90.543C375.393 90.543 376.035 90.7324 376.516 91.1113C377 91.4902 377.242 91.9824 377.242 92.5879H375.549C375.549 92.3457 375.471 92.1465 375.314 91.9902C375.158 91.8301 374.914 91.75 374.582 91.75C374.297 91.75 374.076 91.8145 373.92 91.9434C373.764 92.0723 373.686 92.2363 373.686 92.4355C373.686 92.623 373.773 92.7754 373.949 92.8926C374.129 93.0059 374.43 93.1055 374.852 93.1914C375.273 93.2734 375.629 93.3672 375.918 93.4727C376.812 93.8008 377.26 94.3691 377.26 95.1777C377.26 95.7559 377.012 96.2246 376.516 96.584C376.02 96.9395 375.379 97.1172 374.594 97.1172C374.062 97.1172 373.59 97.0234 373.176 96.8359C372.766 96.6445 372.443 96.3848 372.209 96.0566C371.975 95.7246 371.857 95.3672 371.857 94.9844H373.463C373.479 95.2852 373.59 95.5156 373.797 95.6758C374.004 95.8359 374.281 95.916 374.629 95.916C374.953 95.916 375.197 95.8555 375.361 95.7344C375.529 95.6094 375.613 95.4473 375.613 95.248ZM380.383 89.1016V90.6602H381.467V91.9023H380.383V95.0664C380.383 95.3008 380.428 95.4688 380.518 95.5703C380.607 95.6719 380.779 95.7227 381.033 95.7227C381.221 95.7227 381.387 95.709 381.531 95.6816V96.9648C381.199 97.0664 380.857 97.1172 380.506 97.1172C379.318 97.1172 378.713 96.5176 378.689 95.3184V91.9023H377.764V90.6602H378.689V89.1016H380.383Z" fill="black"/>
<path d="M529.85 80.7617C529.85 80.4297 529.732 80.1758 529.498 80C529.264 79.8203 528.842 79.6328 528.232 79.4375C527.623 79.2383 527.141 79.043 526.785 78.8516C525.816 78.3281 525.332 77.623 525.332 76.7363C525.332 76.2754 525.461 75.8652 525.719 75.5059C525.98 75.1426 526.354 74.8594 526.838 74.6562C527.326 74.4531 527.873 74.3516 528.479 74.3516C529.088 74.3516 529.631 74.4629 530.107 74.6855C530.584 74.9043 530.953 75.2148 531.215 75.6172C531.48 76.0195 531.613 76.4766 531.613 76.9883H529.855C529.855 76.5977 529.732 76.2949 529.486 76.0801C529.24 75.8613 528.895 75.752 528.449 75.752C528.02 75.752 527.686 75.8438 527.447 76.0273C527.209 76.207 527.09 76.4453 527.09 76.7422C527.09 77.0195 527.229 77.252 527.506 77.4395C527.787 77.627 528.199 77.8027 528.742 77.9668C529.742 78.2676 530.471 78.6406 530.928 79.0859C531.385 79.5312 531.613 80.0859 531.613 80.75C531.613 81.4883 531.334 82.0684 530.775 82.4902C530.217 82.9082 529.465 83.1172 528.52 83.1172C527.863 83.1172 527.266 82.998 526.727 82.7598C526.188 82.5176 525.775 82.1875 525.49 81.7695C525.209 81.3516 525.068 80.8672 525.068 80.3164H526.832C526.832 81.2578 527.395 81.7285 528.52 81.7285C528.938 81.7285 529.264 81.6445 529.498 81.4766C529.732 81.3047 529.85 81.0664 529.85 80.7617ZM535.615 83.1172C534.686 83.1172 533.928 82.832 533.342 82.2617C532.76 81.6914 532.469 80.9316 532.469 79.9824V79.8184C532.469 79.1816 532.592 78.6133 532.838 78.1133C533.084 77.6094 533.432 77.2227 533.881 76.9531C534.334 76.6797 534.85 76.543 535.428 76.543C536.295 76.543 536.977 76.8164 537.473 77.3633C537.973 77.9102 538.223 78.6855 538.223 79.6895V80.3809H534.186C534.24 80.7949 534.404 81.127 534.678 81.377C534.955 81.627 535.305 81.752 535.727 81.752C536.379 81.752 536.889 81.5156 537.256 81.043L538.088 81.9746C537.834 82.334 537.49 82.6152 537.057 82.8184C536.623 83.0176 536.143 83.1172 535.615 83.1172ZM535.422 77.9141C535.086 77.9141 534.812 78.0273 534.602 78.2539C534.395 78.4805 534.262 78.8047 534.203 79.2266H536.559V79.0918C536.551 78.7168 536.449 78.4277 536.254 78.2246C536.059 78.0176 535.781 77.9141 535.422 77.9141ZM540.748 76.6602L540.801 77.3926C541.254 76.8262 541.861 76.543 542.623 76.543C543.295 76.543 543.795 76.7402 544.123 77.1348C544.451 77.5293 544.619 78.1191 544.627 78.9043V83H542.934V78.9453C542.934 78.5859 542.855 78.3262 542.699 78.166C542.543 78.002 542.283 77.9199 541.92 77.9199C541.443 77.9199 541.086 78.123 540.848 78.5293V83H539.154V76.6602H540.748ZM547.703 83H546.004V76.6602H547.703V83ZM545.904 75.0195C545.904 74.7656 545.988 74.5566 546.156 74.3926C546.328 74.2285 546.561 74.1465 546.854 74.1465C547.143 74.1465 547.373 74.2285 547.545 74.3926C547.717 74.5566 547.803 74.7656 547.803 75.0195C547.803 75.2773 547.715 75.4883 547.539 75.6523C547.367 75.8164 547.139 75.8984 546.854 75.8984C546.568 75.8984 546.338 75.8164 546.162 75.6523C545.99 75.4883 545.904 75.2773 545.904 75.0195ZM548.84 79.7715C548.84 79.1426 548.961 78.582 549.203 78.0898C549.445 77.5977 549.793 77.2168 550.246 76.9473C550.703 76.6777 551.232 76.543 551.834 76.543C552.689 76.543 553.387 76.8047 553.926 77.3281C554.469 77.8516 554.771 78.5625 554.834 79.4609L554.846 79.8945C554.846 80.8672 554.574 81.6484 554.031 82.2383C553.488 82.8242 552.76 83.1172 551.846 83.1172C550.932 83.1172 550.201 82.8242 549.654 82.2383C549.111 81.6523 548.84 80.8555 548.84 79.8477V79.7715ZM550.533 79.8945C550.533 80.4961 550.646 80.957 550.873 81.2773C551.1 81.5938 551.424 81.752 551.846 81.752C552.256 81.752 552.576 81.5957 552.807 81.2832C553.037 80.9668 553.152 80.4629 553.152 79.7715C553.152 79.1816 553.037 78.7246 552.807 78.4004C552.576 78.0762 552.252 77.9141 551.834 77.9141C551.42 77.9141 551.1 78.0762 550.873 78.4004C550.646 78.7207 550.533 79.2188 550.533 79.8945ZM559.451 78.248C559.221 78.2168 559.018 78.2012 558.842 78.2012C558.201 78.2012 557.781 78.418 557.582 78.8516V83H555.889V76.6602H557.488L557.535 77.416C557.875 76.834 558.346 76.543 558.947 76.543C559.135 76.543 559.311 76.5684 559.475 76.6191L559.451 78.248ZM563.371 83V74.4688H565.996C566.746 74.4688 567.416 74.6387 568.006 74.9785C568.6 75.3145 569.062 75.7949 569.395 76.4199C569.727 77.041 569.893 77.748 569.893 78.541V78.9336C569.893 79.7266 569.729 80.4316 569.4 81.0488C569.076 81.666 568.617 82.1445 568.023 82.4844C567.43 82.8242 566.76 82.9961 566.014 83H563.371ZM565.129 75.8926V81.5879H565.979C566.666 81.5879 567.191 81.3633 567.555 80.9141C567.918 80.4648 568.104 79.8223 568.111 78.9863V78.5352C568.111 77.668 567.932 77.0117 567.572 76.5664C567.213 76.1172 566.688 75.8926 565.996 75.8926H565.129ZM574.738 83C574.66 82.8477 574.604 82.6582 574.568 82.4316C574.158 82.8887 573.625 83.1172 572.969 83.1172C572.348 83.1172 571.832 82.9375 571.422 82.5781C571.016 82.2188 570.812 81.7656 570.812 81.2188C570.812 80.5469 571.061 80.0312 571.557 79.6719C572.057 79.3125 572.777 79.1309 573.719 79.127H574.498V78.7637C574.498 78.4707 574.422 78.2363 574.27 78.0605C574.121 77.8848 573.885 77.7969 573.561 77.7969C573.275 77.7969 573.051 77.8652 572.887 78.002C572.727 78.1387 572.646 78.3262 572.646 78.5645H570.953C570.953 78.1973 571.066 77.8574 571.293 77.5449C571.52 77.2324 571.84 76.9883 572.254 76.8125C572.668 76.6328 573.133 76.543 573.648 76.543C574.43 76.543 575.049 76.7402 575.506 77.1348C575.967 77.5254 576.197 78.0762 576.197 78.7871V81.5352C576.201 82.1367 576.285 82.5918 576.449 82.9004V83H574.738ZM573.338 81.8223C573.588 81.8223 573.818 81.7676 574.029 81.6582C574.24 81.5449 574.396 81.3945 574.498 81.207V80.1172H573.865C573.018 80.1172 572.566 80.4102 572.512 80.9961L572.506 81.0957C572.506 81.3066 572.58 81.4805 572.729 81.6172C572.877 81.7539 573.08 81.8223 573.338 81.8223ZM579.525 75.1016V76.6602H580.609V77.9023H579.525V81.0664C579.525 81.3008 579.57 81.4688 579.66 81.5703C579.75 81.6719 579.922 81.7227 580.176 81.7227C580.363 81.7227 580.529 81.709 580.674 81.6816V82.9648C580.342 83.0664 580 83.1172 579.648 83.1172C578.461 83.1172 577.855 82.5176 577.832 81.3184V77.9023H576.906V76.6602H577.832V75.1016H579.525ZM585.227 83C585.148 82.8477 585.092 82.6582 585.057 82.4316C584.646 82.8887 584.113 83.1172 583.457 83.1172C582.836 83.1172 582.32 82.9375 581.91 82.5781C581.504 82.2188 581.301 81.7656 581.301 81.2188C581.301 80.5469 581.549 80.0312 582.045 79.6719C582.545 79.3125 583.266 79.1309 584.207 79.127H584.986V78.7637C584.986 78.4707 584.91 78.2363 584.758 78.0605C584.609 77.8848 584.373 77.7969 584.049 77.7969C583.764 77.7969 583.539 77.8652 583.375 78.002C583.215 78.1387 583.135 78.3262 583.135 78.5645H581.441C581.441 78.1973 581.555 77.8574 581.781 77.5449C582.008 77.2324 582.328 76.9883 582.742 76.8125C583.156 76.6328 583.621 76.543 584.137 76.543C584.918 76.543 585.537 76.7402 585.994 77.1348C586.455 77.5254 586.686 78.0762 586.686 78.7871V81.5352C586.689 82.1367 586.773 82.5918 586.938 82.9004V83H585.227ZM583.826 81.8223C584.076 81.8223 584.307 81.7676 584.518 81.6582C584.729 81.5449 584.885 81.3945 584.986 81.207V80.1172H584.354C583.506 80.1172 583.055 80.4102 583 80.9961L582.994 81.0957C582.994 81.3066 583.068 81.4805 583.217 81.6172C583.365 81.7539 583.568 81.8223 583.826 81.8223ZM536.928 95.248C536.928 95.041 536.824 94.8789 536.617 94.7617C536.414 94.6406 536.086 94.5332 535.633 94.4395C534.125 94.123 533.371 93.4824 533.371 92.5176C533.371 91.9551 533.604 91.4863 534.068 91.1113C534.537 90.7324 535.148 90.543 535.902 90.543C536.707 90.543 537.35 90.7324 537.83 91.1113C538.314 91.4902 538.557 91.9824 538.557 92.5879H536.863C536.863 92.3457 536.785 92.1465 536.629 91.9902C536.473 91.8301 536.229 91.75 535.896 91.75C535.611 91.75 535.391 91.8145 535.234 91.9434C535.078 92.0723 535 92.2363 535 92.4355C535 92.623 535.088 92.7754 535.264 92.8926C535.443 93.0059 535.744 93.1055 536.166 93.1914C536.588 93.2734 536.943 93.3672 537.232 93.4727C538.127 93.8008 538.574 94.3691 538.574 95.1777C538.574 95.7559 538.326 96.2246 537.83 96.584C537.334 96.9395 536.693 97.1172 535.908 97.1172C535.377 97.1172 534.904 97.0234 534.49 96.8359C534.08 96.6445 533.758 96.3848 533.523 96.0566C533.289 95.7246 533.172 95.3672 533.172 94.9844H534.777C534.793 95.2852 534.904 95.5156 535.111 95.6758C535.318 95.8359 535.596 95.916 535.943 95.916C536.268 95.916 536.512 95.8555 536.676 95.7344C536.844 95.6094 536.928 95.4473 536.928 95.248ZM542.307 95.752C542.619 95.752 542.873 95.666 543.068 95.4941C543.264 95.3223 543.365 95.0938 543.373 94.8086H544.961C544.957 95.2383 544.84 95.6328 544.609 95.9922C544.379 96.3477 544.062 96.625 543.66 96.8242C543.262 97.0195 542.82 97.1172 542.336 97.1172C541.43 97.1172 540.715 96.8301 540.191 96.2559C539.668 95.6777 539.406 94.8809 539.406 93.8652V93.7539C539.406 92.7773 539.666 91.998 540.186 91.416C540.705 90.834 541.418 90.543 542.324 90.543C543.117 90.543 543.752 90.7695 544.229 91.2227C544.709 91.6719 544.953 92.2715 544.961 93.0215H543.373C543.365 92.6934 543.264 92.4277 543.068 92.2246C542.873 92.0176 542.615 91.9141 542.295 91.9141C541.9 91.9141 541.602 92.0586 541.398 92.3477C541.199 92.6328 541.1 93.0977 541.1 93.7422V93.918C541.1 94.5703 541.199 95.0391 541.398 95.3242C541.598 95.6094 541.9 95.752 542.307 95.752ZM547.715 97H546.016V90.6602H547.715V97ZM545.916 89.0195C545.916 88.7656 546 88.5566 546.168 88.3926C546.34 88.2285 546.572 88.1465 546.865 88.1465C547.154 88.1465 547.385 88.2285 547.557 88.3926C547.729 88.5566 547.814 88.7656 547.814 89.0195C547.814 89.2773 547.727 89.4883 547.551 89.6523C547.379 89.8164 547.15 89.8984 546.865 89.8984C546.58 89.8984 546.35 89.8164 546.174 89.6523C546.002 89.4883 545.916 89.2773 545.916 89.0195ZM552.033 97.1172C551.104 97.1172 550.346 96.832 549.76 96.2617C549.178 95.6914 548.887 94.9316 548.887 93.9824V93.8184C548.887 93.1816 549.01 92.6133 549.256 92.1133C549.502 91.6094 549.85 91.2227 550.299 90.9531C550.752 90.6797 551.268 90.543 551.846 90.543C552.713 90.543 553.395 90.8164 553.891 91.3633C554.391 91.9102 554.641 92.6855 554.641 93.6895V94.3809H550.604C550.658 94.7949 550.822 95.127 551.096 95.377C551.373 95.627 551.723 95.752 552.145 95.752C552.797 95.752 553.307 95.5156 553.674 95.043L554.506 95.9746C554.252 96.334 553.908 96.6152 553.475 96.8184C553.041 97.0176 552.561 97.1172 552.033 97.1172ZM551.84 91.9141C551.504 91.9141 551.23 92.0273 551.02 92.2539C550.812 92.4805 550.68 92.8047 550.621 93.2266H552.977V93.0918C552.969 92.7168 552.867 92.4277 552.672 92.2246C552.477 92.0176 552.199 91.9141 551.84 91.9141ZM557.166 90.6602L557.219 91.3926C557.672 90.8262 558.279 90.543 559.041 90.543C559.713 90.543 560.213 90.7402 560.541 91.1348C560.869 91.5293 561.037 92.1191 561.045 92.9043V97H559.352V92.9453C559.352 92.5859 559.273 92.3262 559.117 92.166C558.961 92.002 558.701 91.9199 558.338 91.9199C557.861 91.9199 557.504 92.123 557.266 92.5293V97H555.572V90.6602H557.166ZM564.361 89.1016V90.6602H565.445V91.9023H564.361V95.0664C564.361 95.3008 564.406 95.4688 564.496 95.5703C564.586 95.6719 564.758 95.7227 565.012 95.7227C565.199 95.7227 565.365 95.709 565.51 95.6816V96.9648C565.178 97.0664 564.836 97.1172 564.484 97.1172C563.297 97.1172 562.691 96.5176 562.668 95.3184V91.9023H561.742V90.6602H562.668V89.1016H564.361ZM568.176 97H566.477V90.6602H568.176V97ZM566.377 89.0195C566.377 88.7656 566.461 88.5566 566.629 88.3926C566.801 88.2285 567.033 88.1465 567.326 88.1465C567.615 88.1465 567.846 88.2285 568.018 88.3926C568.189 88.5566 568.275 88.7656 568.275 89.0195C568.275 89.2773 568.188 89.4883 568.012 89.6523C567.84 89.8164 567.611 89.8984 567.326 89.8984C567.041 89.8984 566.811 89.8164 566.635 89.6523C566.463 89.4883 566.377 89.2773 566.377 89.0195ZM573.01 95.248C573.01 95.041 572.906 94.8789 572.699 94.7617C572.496 94.6406 572.168 94.5332 571.715 94.4395C570.207 94.123 569.453 93.4824 569.453 92.5176C569.453 91.9551 569.686 91.4863 570.15 91.1113C570.619 90.7324 571.23 90.543 571.984 90.543C572.789 90.543 573.432 90.7324 573.912 91.1113C574.396 91.4902 574.639 91.9824 574.639 92.5879H572.945C572.945 92.3457 572.867 92.1465 572.711 91.9902C572.555 91.8301 572.311 91.75 571.979 91.75C571.693 91.75 571.473 91.8145 571.316 91.9434C571.16 92.0723 571.082 92.2363 571.082 92.4355C571.082 92.623 571.17 92.7754 571.346 92.8926C571.525 93.0059 571.826 93.1055 572.248 93.1914C572.67 93.2734 573.025 93.3672 573.314 93.4727C574.209 93.8008 574.656 94.3691 574.656 95.1777C574.656 95.7559 574.408 96.2246 573.912 96.584C573.416 96.9395 572.775 97.1172 571.99 97.1172C571.459 97.1172 570.986 97.0234 570.572 96.8359C570.162 96.6445 569.84 96.3848 569.605 96.0566C569.371 95.7246 569.254 95.3672 569.254 94.9844H570.859C570.875 95.2852 570.986 95.5156 571.193 95.6758C571.4 95.8359 571.678 95.916 572.025 95.916C572.35 95.916 572.594 95.8555 572.758 95.7344C572.926 95.6094 573.01 95.4473 573.01 95.248ZM577.779 89.1016V90.6602H578.863V91.9023H577.779V95.0664C577.779 95.3008 577.824 95.4688 577.914 95.5703C578.004 95.6719 578.176 95.7227 578.43 95.7227C578.617 95.7227 578.783 95.709 578.928 95.6816V96.9648C578.596 97.0664 578.254 97.1172 577.902 97.1172C576.715 97.1172 576.109 96.5176 576.086 95.3184V91.9023H575.16V90.6602H576.086V89.1016H577.779Z" fill="black"/>
<path d="M738.227 80.9941V84H736.469V75.4688H739.797C740.438 75.4688 741 75.5859 741.484 75.8203C741.973 76.0547 742.348 76.3887 742.609 76.8223C742.871 77.252 743.002 77.7422 743.002 78.293C743.002 79.1289 742.715 79.7891 742.141 80.2734C741.57 80.7539 740.779 80.9941 739.768 80.9941H738.227ZM738.227 79.5703H739.797C740.262 79.5703 740.615 79.4609 740.857 79.2422C741.104 79.0234 741.227 78.7109 741.227 78.3047C741.227 77.8867 741.104 77.5488 740.857 77.291C740.611 77.0332 740.271 76.9004 739.838 76.8926H738.227V79.5703ZM747.666 79.248C747.436 79.2168 747.232 79.2012 747.057 79.2012C746.416 79.2012 745.996 79.418 745.797 79.8516V84H744.104V77.6602H745.703L745.75 78.416C746.09 77.834 746.561 77.543 747.162 77.543C747.35 77.543 747.525 77.5684 747.689 77.6191L747.666 79.248ZM750.273 84H748.574V77.6602H750.273V84ZM748.475 76.0195C748.475 75.7656 748.559 75.5566 748.727 75.3926C748.898 75.2285 749.131 75.1465 749.424 75.1465C749.713 75.1465 749.943 75.2285 750.115 75.3926C750.287 75.5566 750.373 75.7656 750.373 76.0195C750.373 76.2773 750.285 76.4883 750.109 76.6523C749.938 76.8164 749.709 76.8984 749.424 76.8984C749.139 76.8984 748.908 76.8164 748.732 76.6523C748.561 76.4883 748.475 76.2773 748.475 76.0195ZM753.232 77.6602L753.285 78.3926C753.738 77.8262 754.346 77.543 755.107 77.543C755.779 77.543 756.279 77.7402 756.607 78.1348C756.936 78.5293 757.104 79.1191 757.111 79.9043V84H755.418V79.9453C755.418 79.5859 755.34 79.3262 755.184 79.166C755.027 79.002 754.768 78.9199 754.404 78.9199C753.928 78.9199 753.57 79.123 753.332 79.5293V84H751.639V77.6602H753.232ZM761.037 82.752C761.35 82.752 761.604 82.666 761.799 82.4941C761.994 82.3223 762.096 82.0938 762.104 81.8086H763.691C763.688 82.2383 763.57 82.6328 763.34 82.9922C763.109 83.3477 762.793 83.625 762.391 83.8242C761.992 84.0195 761.551 84.1172 761.066 84.1172C760.16 84.1172 759.445 83.8301 758.922 83.2559C758.398 82.6777 758.137 81.8809 758.137 80.8652V80.7539C758.137 79.7773 758.396 78.998 758.916 78.416C759.436 77.834 760.148 77.543 761.055 77.543C761.848 77.543 762.482 77.7695 762.959 78.2227C763.439 78.6719 763.684 79.2715 763.691 80.0215H762.104C762.096 79.6934 761.994 79.4277 761.799 79.2246C761.604 79.0176 761.346 78.9141 761.025 78.9141C760.631 78.9141 760.332 79.0586 760.129 79.3477C759.93 79.6328 759.83 80.0977 759.83 80.7422V80.918C759.83 81.5703 759.93 82.0391 760.129 82.3242C760.328 82.6094 760.631 82.752 761.037 82.752ZM766.445 84H764.746V77.6602H766.445V84ZM764.646 76.0195C764.646 75.7656 764.73 75.5566 764.898 75.3926C765.07 75.2285 765.303 75.1465 765.596 75.1465C765.885 75.1465 766.115 75.2285 766.287 75.3926C766.459 75.5566 766.545 75.7656 766.545 76.0195C766.545 76.2773 766.457 76.4883 766.281 76.6523C766.109 76.8164 765.881 76.8984 765.596 76.8984C765.311 76.8984 765.08 76.8164 764.904 76.6523C764.732 76.4883 764.646 76.2773 764.646 76.0195ZM773.553 80.8887C773.553 81.8652 773.33 82.6484 772.885 83.2383C772.443 83.8242 771.846 84.1172 771.092 84.1172C770.451 84.1172 769.934 83.8945 769.539 83.4492V86.4375H767.846V77.6602H769.416L769.475 78.2812C769.885 77.7891 770.42 77.543 771.08 77.543C771.861 77.543 772.469 77.832 772.902 78.4102C773.336 78.9883 773.553 79.7852 773.553 80.8008V80.8887ZM771.859 80.7656C771.859 80.1758 771.754 79.7207 771.543 79.4004C771.336 79.0801 771.033 78.9199 770.635 78.9199C770.104 78.9199 769.738 79.123 769.539 79.5293V82.125C769.746 82.543 770.115 82.752 770.646 82.752C771.455 82.752 771.859 82.0898 771.859 80.7656ZM778.281 84C778.203 83.8477 778.146 83.6582 778.111 83.4316C777.701 83.8887 777.168 84.1172 776.512 84.1172C775.891 84.1172 775.375 83.9375 774.965 83.5781C774.559 83.2188 774.355 82.7656 774.355 82.2188C774.355 81.5469 774.604 81.0312 775.1 80.6719C775.6 80.3125 776.32 80.1309 777.262 80.127H778.041V79.7637C778.041 79.4707 777.965 79.2363 777.812 79.0605C777.664 78.8848 777.428 78.7969 777.104 78.7969C776.818 78.7969 776.594 78.8652 776.43 79.002C776.27 79.1387 776.189 79.3262 776.189 79.5645H774.496C774.496 79.1973 774.609 78.8574 774.836 78.5449C775.062 78.2324 775.383 77.9883 775.797 77.8125C776.211 77.6328 776.676 77.543 777.191 77.543C777.973 77.543 778.592 77.7402 779.049 78.1348C779.51 78.5254 779.74 79.0762 779.74 79.7871V82.5352C779.744 83.1367 779.828 83.5918 779.992 83.9004V84H778.281ZM776.881 82.8223C777.131 82.8223 777.361 82.7676 777.572 82.6582C777.783 82.5449 777.939 82.3945 778.041 82.207V81.1172H777.408C776.561 81.1172 776.109 81.4102 776.055 81.9961L776.049 82.0957C776.049 82.3066 776.123 82.4805 776.271 82.6172C776.42 82.7539 776.623 82.8223 776.881 82.8223ZM782.828 84H781.129V75H782.828V84ZM787.328 84V75.4688H789.953C790.703 75.4688 791.373 75.6387 791.963 75.9785C792.557 76.3145 793.02 76.7949 793.352 77.4199C793.684 78.041 793.85 78.748 793.85 79.541V79.9336C793.85 80.7266 793.686 81.4316 793.357 82.0488C793.033 82.666 792.574 83.1445 791.98 83.4844C791.387 83.8242 790.717 83.9961 789.971 84H787.328ZM789.086 76.8926V82.5879H789.936C790.623 82.5879 791.148 82.3633 791.512 81.9141C791.875 81.4648 792.061 80.8223 792.068 79.9863V79.5352C792.068 78.668 791.889 78.0117 791.529 77.5664C791.17 77.1172 790.645 76.8926 789.953 76.8926H789.086ZM798.695 84C798.617 83.8477 798.561 83.6582 798.525 83.4316C798.115 83.8887 797.582 84.1172 796.926 84.1172C796.305 84.1172 795.789 83.9375 795.379 83.5781C794.973 83.2188 794.77 82.7656 794.77 82.2188C794.77 81.5469 795.018 81.0312 795.514 80.6719C796.014 80.3125 796.734 80.1309 797.676 80.127H798.455V79.7637C798.455 79.4707 798.379 79.2363 798.227 79.0605C798.078 78.8848 797.842 78.7969 797.518 78.7969C797.232 78.7969 797.008 78.8652 796.844 79.002C796.684 79.1387 796.604 79.3262 796.604 79.5645H794.91C794.91 79.1973 795.023 78.8574 795.25 78.5449C795.477 78.2324 795.797 77.9883 796.211 77.8125C796.625 77.6328 797.09 77.543 797.605 77.543C798.387 77.543 799.006 77.7402 799.463 78.1348C799.924 78.5254 800.154 79.0762 800.154 79.7871V82.5352C800.158 83.1367 800.242 83.5918 800.406 83.9004V84H798.695ZM797.295 82.8223C797.545 82.8223 797.775 82.7676 797.986 82.6582C798.197 82.5449 798.354 82.3945 798.455 82.207V81.1172H797.822C796.975 81.1172 796.523 81.4102 796.469 81.9961L796.463 82.0957C796.463 82.3066 796.537 82.4805 796.686 82.6172C796.834 82.7539 797.037 82.8223 797.295 82.8223ZM803.482 76.1016V77.6602H804.566V78.9023H803.482V82.0664C803.482 82.3008 803.527 82.4688 803.617 82.5703C803.707 82.6719 803.879 82.7227 804.133 82.7227C804.32 82.7227 804.486 82.709 804.631 82.6816V83.9648C804.299 84.0664 803.957 84.1172 803.605 84.1172C802.418 84.1172 801.812 83.5176 801.789 82.3184V78.9023H800.863V77.6602H801.789V76.1016H803.482ZM809.184 84C809.105 83.8477 809.049 83.6582 809.014 83.4316C808.604 83.8887 808.07 84.1172 807.414 84.1172C806.793 84.1172 806.277 83.9375 805.867 83.5781C805.461 83.2188 805.258 82.7656 805.258 82.2188C805.258 81.5469 805.506 81.0312 806.002 80.6719C806.502 80.3125 807.223 80.1309 808.164 80.127H808.943V79.7637C808.943 79.4707 808.867 79.2363 808.715 79.0605C808.566 78.8848 808.33 78.7969 808.006 78.7969C807.721 78.7969 807.496 78.8652 807.332 79.002C807.172 79.1387 807.092 79.3262 807.092 79.5645H805.398C805.398 79.1973 805.512 78.8574 805.738 78.5449C805.965 78.2324 806.285 77.9883 806.699 77.8125C807.113 77.6328 807.578 77.543 808.094 77.543C808.875 77.543 809.494 77.7402 809.951 78.1348C810.412 78.5254 810.643 79.0762 810.643 79.7871V82.5352C810.646 83.1367 810.73 83.5918 810.895 83.9004V84H809.184ZM807.783 82.8223C808.033 82.8223 808.264 82.7676 808.475 82.6582C808.686 82.5449 808.842 82.3945 808.943 82.207V81.1172H808.311C807.463 81.1172 807.012 81.4102 806.957 81.9961L806.951 82.0957C806.951 82.3066 807.025 82.4805 807.174 82.6172C807.322 82.7539 807.525 82.8223 807.783 82.8223ZM754.926 95.7617C754.926 95.4297 754.809 95.1758 754.574 95C754.34 94.8203 753.918 94.6328 753.309 94.4375C752.699 94.2383 752.217 94.043 751.861 93.8516C750.893 93.3281 750.408 92.623 750.408 91.7363C750.408 91.2754 750.537 90.8652 750.795 90.5059C751.057 90.1426 751.43 89.8594 751.914 89.6562C752.402 89.4531 752.949 89.3516 753.555 89.3516C754.164 89.3516 754.707 89.4629 755.184 89.6855C755.66 89.9043 756.029 90.2148 756.291 90.6172C756.557 91.0195 756.689 91.4766 756.689 91.9883H754.932C754.932 91.5977 754.809 91.2949 754.562 91.0801C754.316 90.8613 753.971 90.752 753.525 90.752C753.096 90.752 752.762 90.8438 752.523 91.0273C752.285 91.207 752.166 91.4453 752.166 91.7422C752.166 92.0195 752.305 92.252 752.582 92.4395C752.863 92.627 753.275 92.8027 753.818 92.9668C754.818 93.2676 755.547 93.6406 756.004 94.0859C756.461 94.5312 756.689 95.0859 756.689 95.75C756.689 96.4883 756.41 97.0684 755.852 97.4902C755.293 97.9082 754.541 98.1172 753.596 98.1172C752.939 98.1172 752.342 97.998 751.803 97.7598C751.264 97.5176 750.852 97.1875 750.566 96.7695C750.285 96.3516 750.145 95.8672 750.145 95.3164H751.908C751.908 96.2578 752.471 96.7285 753.596 96.7285C754.014 96.7285 754.34 96.6445 754.574 96.4766C754.809 96.3047 754.926 96.0664 754.926 95.7617ZM760.41 96.752C760.723 96.752 760.977 96.666 761.172 96.4941C761.367 96.3223 761.469 96.0938 761.477 95.8086H763.064C763.061 96.2383 762.943 96.6328 762.713 96.9922C762.482 97.3477 762.166 97.625 761.764 97.8242C761.365 98.0195 760.924 98.1172 760.439 98.1172C759.533 98.1172 758.818 97.8301 758.295 97.2559C757.771 96.6777 757.51 95.8809 757.51 94.8652V94.7539C757.51 93.7773 757.77 92.998 758.289 92.416C758.809 91.834 759.521 91.543 760.428 91.543C761.221 91.543 761.855 91.7695 762.332 92.2227C762.812 92.6719 763.057 93.2715 763.064 94.0215H761.477C761.469 93.6934 761.367 93.4277 761.172 93.2246C760.977 93.0176 760.719 92.9141 760.398 92.9141C760.004 92.9141 759.705 93.0586 759.502 93.3477C759.303 93.6328 759.203 94.0977 759.203 94.7422V94.918C759.203 95.5703 759.303 96.0391 759.502 96.3242C759.701 96.6094 760.004 96.752 760.41 96.752ZM765.818 98H764.119V91.6602H765.818V98ZM764.02 90.0195C764.02 89.7656 764.104 89.5566 764.271 89.3926C764.443 89.2285 764.676 89.1465 764.969 89.1465C765.258 89.1465 765.488 89.2285 765.66 89.3926C765.832 89.5566 765.918 89.7656 765.918 90.0195C765.918 90.2773 765.83 90.4883 765.654 90.6523C765.482 90.8164 765.254 90.8984 764.969 90.8984C764.684 90.8984 764.453 90.8164 764.277 90.6523C764.105 90.4883 764.02 90.2773 764.02 90.0195ZM770.137 98.1172C769.207 98.1172 768.449 97.832 767.863 97.2617C767.281 96.6914 766.99 95.9316 766.99 94.9824V94.8184C766.99 94.1816 767.113 93.6133 767.359 93.1133C767.605 92.6094 767.953 92.2227 768.402 91.9531C768.855 91.6797 769.371 91.543 769.949 91.543C770.816 91.543 771.498 91.8164 771.994 92.3633C772.494 92.9102 772.744 93.6855 772.744 94.6895V95.3809H768.707C768.762 95.7949 768.926 96.127 769.199 96.377C769.477 96.627 769.826 96.752 770.248 96.752C770.9 96.752 771.41 96.5156 771.777 96.043L772.609 96.9746C772.355 97.334 772.012 97.6152 771.578 97.8184C771.145 98.0176 770.664 98.1172 770.137 98.1172ZM769.943 92.9141C769.607 92.9141 769.334 93.0273 769.123 93.2539C768.916 93.4805 768.783 93.8047 768.725 94.2266H771.08V94.0918C771.072 93.7168 770.971 93.4277 770.775 93.2246C770.58 93.0176 770.303 92.9141 769.943 92.9141ZM775.27 91.6602L775.322 92.3926C775.775 91.8262 776.383 91.543 777.145 91.543C777.816 91.543 778.316 91.7402 778.645 92.1348C778.973 92.5293 779.141 93.1191 779.148 93.9043V98H777.455V93.9453C777.455 93.5859 777.377 93.3262 777.221 93.166C777.064 93.002 776.805 92.9199 776.441 92.9199C775.965 92.9199 775.607 93.123 775.369 93.5293V98H773.676V91.6602H775.27ZM782.465 90.1016V91.6602H783.549V92.9023H782.465V96.0664C782.465 96.3008 782.51 96.4688 782.6 96.5703C782.689 96.6719 782.861 96.7227 783.115 96.7227C783.303 96.7227 783.469 96.709 783.613 96.6816V97.9648C783.281 98.0664 782.939 98.1172 782.588 98.1172C781.4 98.1172 780.795 97.5176 780.771 96.3184V92.9023H779.846V91.6602H780.771V90.1016H782.465ZM786.279 98H784.58V91.6602H786.279V98ZM784.48 90.0195C784.48 89.7656 784.564 89.5566 784.732 89.3926C784.904 89.2285 785.137 89.1465 785.43 89.1465C785.719 89.1465 785.949 89.2285 786.121 89.3926C786.293 89.5566 786.379 89.7656 786.379 90.0195C786.379 90.2773 786.291 90.4883 786.115 90.6523C785.943 90.8164 785.715 90.8984 785.43 90.8984C785.145 90.8984 784.914 90.8164 784.738 90.6523C784.566 90.4883 784.48 90.2773 784.48 90.0195ZM791.113 96.248C791.113 96.041 791.01 95.8789 790.803 95.7617C790.6 95.6406 790.271 95.5332 789.818 95.4395C788.311 95.123 787.557 94.4824 787.557 93.5176C787.557 92.9551 787.789 92.4863 788.254 92.1113C788.723 91.7324 789.334 91.543 790.088 91.543C790.893 91.543 791.535 91.7324 792.016 92.1113C792.5 92.4902 792.742 92.9824 792.742 93.5879H791.049C791.049 93.3457 790.971 93.1465 790.814 92.9902C790.658 92.8301 790.414 92.75 790.082 92.75C789.797 92.75 789.576 92.8145 789.42 92.9434C789.264 93.0723 789.186 93.2363 789.186 93.4355C789.186 93.623 789.273 93.7754 789.449 93.8926C789.629 94.0059 789.93 94.1055 790.352 94.1914C790.773 94.2734 791.129 94.3672 791.418 94.4727C792.312 94.8008 792.76 95.3691 792.76 96.1777C792.76 96.7559 792.512 97.2246 792.016 97.584C791.52 97.9395 790.879 98.1172 790.094 98.1172C789.562 98.1172 789.09 98.0234 788.676 97.8359C788.266 97.6445 787.943 97.3848 787.709 97.0566C787.475 96.7246 787.357 96.3672 787.357 95.9844H788.963C788.979 96.2852 789.09 96.5156 789.297 96.6758C789.504 96.8359 789.781 96.916 790.129 96.916C790.453 96.916 790.697 96.8555 790.861 96.7344C791.029 96.6094 791.113 96.4473 791.113 96.248ZM795.883 90.1016V91.6602H796.967V92.9023H795.883V96.0664C795.883 96.3008 795.928 96.4688 796.018 96.5703C796.107 96.6719 796.279 96.7227 796.533 96.7227C796.721 96.7227 796.887 96.709 797.031 96.6816V97.9648C796.699 98.0664 796.357 98.1172 796.006 98.1172C794.818 98.1172 794.213 97.5176 794.189 96.3184V92.9023H793.264V91.6602H794.189V90.1016H795.883Z" fill="black"/>
<path d="M937.762 90V81.4688H940.387C941.137 81.4688 941.807 81.6387 942.396 81.9785C942.99 82.3145 943.453 82.7949 943.785 83.4199C944.117 84.041 944.283 84.748 944.283 85.541V85.9336C944.283 86.7266 944.119 87.4316 943.791 88.0488C943.467 88.666 943.008 89.1445 942.414 89.4844C941.82 89.8242 941.15 89.9961 940.404 90H937.762ZM939.52 82.8926V88.5879H940.369C941.057 88.5879 941.582 88.3633 941.945 87.9141C942.309 87.4648 942.494 86.8223 942.502 85.9863V85.5352C942.502 84.668 942.322 84.0117 941.963 83.5664C941.604 83.1172 941.078 82.8926 940.387 82.8926H939.52ZM947.242 90H945.543V83.6602H947.242V90ZM945.443 82.0195C945.443 81.7656 945.527 81.5566 945.695 81.3926C945.867 81.2285 946.1 81.1465 946.393 81.1465C946.682 81.1465 946.912 81.2285 947.084 81.3926C947.256 81.5566 947.342 81.7656 947.342 82.0195C947.342 82.2773 947.254 82.4883 947.078 82.6523C946.906 82.8164 946.678 82.8984 946.393 82.8984C946.107 82.8984 945.877 82.8164 945.701 82.6523C945.529 82.4883 945.443 82.2773 945.443 82.0195ZM952.205 85.248C951.975 85.2168 951.771 85.2012 951.596 85.2012C950.955 85.2012 950.535 85.418 950.336 85.8516V90H948.643V83.6602H950.242L950.289 84.416C950.629 83.834 951.1 83.543 951.701 83.543C951.889 83.543 952.064 83.5684 952.229 83.6191L952.205 85.248ZM955.826 90.1172C954.896 90.1172 954.139 89.832 953.553 89.2617C952.971 88.6914 952.68 87.9316 952.68 86.9824V86.8184C952.68 86.1816 952.803 85.6133 953.049 85.1133C953.295 84.6094 953.643 84.2227 954.092 83.9531C954.545 83.6797 955.061 83.543 955.639 83.543C956.506 83.543 957.188 83.8164 957.684 84.3633C958.184 84.9102 958.434 85.6855 958.434 86.6895V87.3809H954.396C954.451 87.7949 954.615 88.127 954.889 88.377C955.166 88.627 955.516 88.752 955.938 88.752C956.59 88.752 957.1 88.5156 957.467 88.043L958.299 88.9746C958.045 89.334 957.701 89.6152 957.268 89.8184C956.834 90.0176 956.354 90.1172 955.826 90.1172ZM955.633 84.9141C955.297 84.9141 955.023 85.0273 954.812 85.2539C954.605 85.4805 954.473 85.8047 954.414 86.2266H956.77V86.0918C956.762 85.7168 956.66 85.4277 956.465 85.2246C956.27 85.0176 955.992 84.9141 955.633 84.9141ZM962.037 88.752C962.35 88.752 962.604 88.666 962.799 88.4941C962.994 88.3223 963.096 88.0938 963.104 87.8086H964.691C964.688 88.2383 964.57 88.6328 964.34 88.9922C964.109 89.3477 963.793 89.625 963.391 89.8242C962.992 90.0195 962.551 90.1172 962.066 90.1172C961.16 90.1172 960.445 89.8301 959.922 89.2559C959.398 88.6777 959.137 87.8809 959.137 86.8652V86.7539C959.137 85.7773 959.396 84.998 959.916 84.416C960.436 83.834 961.148 83.543 962.055 83.543C962.848 83.543 963.482 83.7695 963.959 84.2227C964.439 84.6719 964.684 85.2715 964.691 86.0215H963.104C963.096 85.6934 962.994 85.4277 962.799 85.2246C962.604 85.0176 962.346 84.9141 962.025 84.9141C961.631 84.9141 961.332 85.0586 961.129 85.3477C960.93 85.6328 960.83 86.0977 960.83 86.7422V86.918C960.83 87.5703 960.93 88.0391 961.129 88.3242C961.328 88.6094 961.631 88.752 962.037 88.752ZM967.686 82.1016V83.6602H968.77V84.9023H967.686V88.0664C967.686 88.3008 967.73 88.4688 967.82 88.5703C967.91 88.6719 968.082 88.7227 968.336 88.7227C968.523 88.7227 968.689 88.709 968.834 88.6816V89.9648C968.502 90.0664 968.16 90.1172 967.809 90.1172C966.621 90.1172 966.016 89.5176 965.992 88.3184V84.9023H965.066V83.6602H965.992V82.1016H967.686ZM969.273 86.7715C969.273 86.1426 969.395 85.582 969.637 85.0898C969.879 84.5977 970.227 84.2168 970.68 83.9473C971.137 83.6777 971.666 83.543 972.268 83.543C973.123 83.543 973.82 83.8047 974.359 84.3281C974.902 84.8516 975.205 85.5625 975.268 86.4609L975.279 86.8945C975.279 87.8672 975.008 88.6484 974.465 89.2383C973.922 89.8242 973.193 90.1172 972.279 90.1172C971.365 90.1172 970.635 89.8242 970.088 89.2383C969.545 88.6523 969.273 87.8555 969.273 86.8477V86.7715ZM970.967 86.8945C970.967 87.4961 971.08 87.957 971.307 88.2773C971.533 88.5938 971.857 88.752 972.279 88.752C972.689 88.752 973.01 88.5957 973.24 88.2832C973.471 87.9668 973.586 87.4629 973.586 86.7715C973.586 86.1816 973.471 85.7246 973.24 85.4004C973.01 85.0762 972.686 84.9141 972.268 84.9141C971.854 84.9141 971.533 85.0762 971.307 85.4004C971.08 85.7207 970.967 86.2188 970.967 86.8945ZM979.885 85.248C979.654 85.2168 979.451 85.2012 979.275 85.2012C978.635 85.2012 978.215 85.418 978.016 85.8516V90H976.322V83.6602H977.922L977.969 84.416C978.309 83.834 978.779 83.543 979.381 83.543C979.568 83.543 979.744 83.5684 979.908 83.6191L979.885 85.248ZM981.238 90.7324H979.979L983.119 81.4688H984.379L981.238 90.7324ZM988.457 87.8848L990.391 81.4688H992.348L989.377 90H987.543L984.584 81.4688H986.535L988.457 87.8848ZM994.914 86.9941V90H993.156V81.4688H996.484C997.125 81.4688 997.688 81.5859 998.172 81.8203C998.66 82.0547 999.035 82.3887 999.297 82.8223C999.559 83.252 999.689 83.7422 999.689 84.293C999.689 85.1289 999.402 85.7891 998.828 86.2734C998.258 86.7539 997.467 86.9941 996.455 86.9941H994.914ZM994.914 85.5703H996.484C996.949 85.5703 997.303 85.4609 997.545 85.2422C997.791 85.0234 997.914 84.7109 997.914 84.3047C997.914 83.8867 997.791 83.5488 997.545 83.291C997.299 83.0332 996.959 82.9004 996.525 82.8926H994.914V85.5703ZM1001.32 90.7324H1000.06L1003.21 81.4688H1004.46L1001.32 90.7324ZM1012.09 87.1582C1012.02 88.0762 1011.68 88.7988 1011.07 89.3262C1010.46 89.8535 1009.65 90.1172 1008.65 90.1172C1007.56 90.1172 1006.7 89.75 1006.07 89.0156C1005.45 88.2773 1005.13 87.2656 1005.13 85.9805V85.459C1005.13 84.6387 1005.28 83.916 1005.57 83.291C1005.86 82.666 1006.27 82.1875 1006.8 81.8555C1007.34 81.5195 1007.97 81.3516 1008.68 81.3516C1009.66 81.3516 1010.46 81.6152 1011.06 82.1426C1011.66 82.6699 1012.01 83.4102 1012.1 84.3633H1010.34C1010.3 83.8125 1010.14 83.4141 1009.88 83.168C1009.62 82.918 1009.22 82.793 1008.68 82.793C1008.09 82.793 1007.65 83.0039 1007.36 83.4258C1007.07 83.8438 1006.92 84.4941 1006.91 85.377V86.0215C1006.91 86.9434 1007.05 87.6172 1007.33 88.043C1007.61 88.4688 1008.05 88.6816 1008.65 88.6816C1009.2 88.6816 1009.6 88.5586 1009.87 88.3125C1010.14 88.0625 1010.29 87.6777 1010.33 87.1582H1012.09ZM1019.49 82.8926H1016.88V90H1015.12V82.8926H1012.54V81.4688H1019.49V82.8926ZM1027.34 85.9277C1027.34 86.7676 1027.19 87.5039 1026.89 88.1367C1026.6 88.7695 1026.17 89.2578 1025.62 89.6016C1025.07 89.9453 1024.43 90.1172 1023.72 90.1172C1023.01 90.1172 1022.38 89.9473 1021.83 89.6074C1021.27 89.2676 1020.84 88.7832 1020.54 88.1543C1020.23 87.5215 1020.08 86.7949 1020.07 85.9746V85.5527C1020.07 84.7129 1020.22 83.9746 1020.53 83.3379C1020.83 82.6973 1021.26 82.207 1021.81 81.8672C1022.36 81.5234 1023 81.3516 1023.71 81.3516C1024.42 81.3516 1025.05 81.5234 1025.6 81.8672C1026.15 82.207 1026.58 82.6973 1026.88 83.3379C1027.19 83.9746 1027.34 84.7109 1027.34 85.5469V85.9277ZM1025.56 85.541C1025.56 84.6465 1025.4 83.9668 1025.08 83.502C1024.76 83.0371 1024.3 82.8047 1023.71 82.8047C1023.12 82.8047 1022.66 83.0352 1022.34 83.4961C1022.02 83.9531 1021.86 84.625 1021.86 85.5117V85.9277C1021.86 86.7988 1022.02 87.4746 1022.34 87.9551C1022.66 88.4355 1023.12 88.6758 1023.72 88.6758C1024.31 88.6758 1024.76 88.4453 1025.08 87.9844C1025.39 87.5195 1025.55 86.8438 1025.56 85.957V85.541Z" fill="black"/>
<defs>
<filter id="filter0_d" x="70" y="47" width="152" height="85" filterUnits="userSpaceOnUse" color-interpolation-filters="sRGB">
<feFlood flood-opacity="0" result="BackgroundImageFix"/>
<feColorMatrix in="SourceAlpha" type="matrix" values="0 0 0 0 0 0 0 0 0 0 0 0 0 0 0 0 0 0 127 0"/>
<feOffset dy="4"/>
<feGaussianBlur stdDeviation="2"/>
<feColorMatrix type="matrix" values="0 0 0 0 0 0 0 0 0 0 0 0 0 0 0 0 0 0 0.25 0"/>
<feBlend mode="normal" in2="BackgroundImageFix" result="effect1_dropShadow"/>
<feBlend mode="normal" in="SourceGraphic" in2="effect1_dropShadow" result="shape"/>
</filter>
<filter id="filter1_d" x="273" y="47" width="152" height="84" filterUnits="userSpaceOnUse" color-interpolation-filters="sRGB">
<feFlood flood-opacity="0" result="BackgroundImageFix"/>
<feColorMatrix in="SourceAlpha" type="matrix" values="0 0 0 0 0 0 0 0 0 0 0 0 0 0 0 0 0 0 127 0"/>
<feOffset dy="4"/>
<feGaussianBlur stdDeviation="2"/>
<feColorMatrix type="matrix" values="0 0 0 0 0 0 0 0 0 0 0 0 0 0 0 0 0 0 0.25 0"/>
<feBlend mode="normal" in2="BackgroundImageFix" result="effect1_dropShadow"/>
<feBlend mode="normal" in="SourceGraphic" in2="effect1_dropShadow" result="shape"/>
</filter>
<filter id="filter2_d" x="690" y="47" width="152" height="84" filterUnits="userSpaceOnUse" color-interpolation-filters="sRGB">
<feFlood flood-opacity="0" result="BackgroundImageFix"/>
<feColorMatrix in="SourceAlpha" type="matrix" values="0 0 0 0 0 0 0 0 0 0 0 0 0 0 0 0 0 0 127 0"/>
<feOffset dy="4"/>
<feGaussianBlur stdDeviation="2"/>
<feColorMatrix type="matrix" values="0 0 0 0 0 0 0 0 0 0 0 0 0 0 0 0 0 0 0.25 0"/>
<feBlend mode="normal" in2="BackgroundImageFix" result="effect1_dropShadow"/>
<feBlend mode="normal" in="SourceGraphic" in2="effect1_dropShadow" result="shape"/>
</filter>
<filter id="filter3_d" x="904" y="48" width="152" height="84" filterUnits="userSpaceOnUse" color-interpolation-filters="sRGB">
<feFlood flood-opacity="0" result="BackgroundImageFix"/>
<feColorMatrix in="SourceAlpha" type="matrix" values="0 0 0 0 0 0 0 0 0 0 0 0 0 0 0 0 0 0 127 0"/>
<feOffset dy="4"/>
<feGaussianBlur stdDeviation="2"/>
<feColorMatrix type="matrix" values="0 0 0 0 0 0 0 0 0 0 0 0 0 0 0 0 0 0 0.25 0"/>
<feBlend mode="normal" in2="BackgroundImageFix" result="effect1_dropShadow"/>
<feBlend mode="normal" in="SourceGraphic" in2="effect1_dropShadow" result="shape"/>
</filter>
<filter id="filter4_d" x="476" y="48" width="152" height="84" filterUnits="userSpaceOnUse" color-interpolation-filters="sRGB">
<feFlood flood-opacity="0" result="BackgroundImageFix"/>
<feColorMatrix in="SourceAlpha" type="matrix" values="0 0 0 0 0 0 0 0 0 0 0 0 0 0 0 0 0 0 127 0"/>
<feOffset dy="4"/>
<feGaussianBlur stdDeviation="2"/>
<feColorMatrix type="matrix" values="0 0 0 0 0 0 0 0 0 0 0 0 0 0 0 0 0 0 0.25 0"/>
<feBlend mode="normal" in2="BackgroundImageFix" result="effect1_dropShadow"/>
<feBlend mode="normal" in="SourceGraphic" in2="effect1_dropShadow" result="shape"/>
</filter>
</defs>
</svg>
