<svg width="1342" height="202" viewBox="0 0 1342 202" fill="none" xmlns="http://www.w3.org/2000/svg">
<rect width="1342" height="202" fill="white"/>
<rect x="218" y="101" width="22" height="861" transform="rotate(-90 218 101)" fill="#3742FA"/>
<path d="M1080.06 92.0607C1080.65 91.4749 1080.65 90.5251 1080.06 89.9393L1070.51 80.3934C1069.93 79.8076 1068.98 79.8076 1068.39 80.3934C1067.81 80.9792 1067.81 81.9289 1068.39 82.5147L1076.88 91L1068.39 99.4853C1067.81 100.071 1067.81 101.021 1068.39 101.607C1068.98 102.192 1069.93 102.192 1070.51 101.607L1080.06 92.0607ZM226.786 92.5L1079 92.5V89.5L226.786 89.5V92.5Z" fill="white"/>
<g filter="url(#filter0_d)">
<rect x="78" y="49" width="144" height="77" fill="white"/>
<rect x="78.5" y="49.5" width="143" height="76" stroke="#333333"/>
</g>
<g filter="url(#filter1_d)">
<rect x="280" y="49" width="144" height="76" fill="white"/>
<rect x="280.5" y="49.5" width="143" height="75" stroke="#333333"/>
</g>
<g filter="url(#filter2_d)">
<rect x="666" y="49" width="144" height="76" fill="white"/>
<rect x="666.5" y="49.5" width="143" height="75" stroke="#333333"/>
</g>
<g filter="url(#filter3_d)">
<rect x="868" y="49" width="144" height="76" fill="white"/>
<rect x="868.5" y="49.5" width="143" height="75" stroke="#333333"/>
</g>
<g filter="url(#filter4_d)">
<rect x="1079" y="52" width="144" height="76" fill="white"/>
<rect x="1079.5" y="52.5" width="143" height="75" stroke="#333333"/>
</g>
<g filter="url(#filter5_d)">
<rect x="464" y="48" width="144" height="76" fill="white"/>
<rect x="464.5" y="48.5" width="143" height="75" stroke="#333333"/>
</g>
<path d="M128.578 86.2422H125.496L124.91 88H123.041L126.217 79.4688H127.846L131.039 88H129.17L128.578 86.2422ZM125.971 84.8184H128.104L127.031 81.625L125.971 84.8184ZM135.158 86.248C135.158 86.041 135.055 85.8789 134.848 85.7617C134.645 85.6406 134.316 85.5332 133.863 85.4395C132.355 85.123 131.602 84.4824 131.602 83.5176C131.602 82.9551 131.834 82.4863 132.299 82.1113C132.768 81.7324 133.379 81.543 134.133 81.543C134.938 81.543 135.58 81.7324 136.061 82.1113C136.545 82.4902 136.787 82.9824 136.787 83.5879H135.094C135.094 83.3457 135.016 83.1465 134.859 82.9902C134.703 82.8301 134.459 82.75 134.127 82.75C133.842 82.75 133.621 82.8145 133.465 82.9434C133.309 83.0723 133.23 83.2363 133.23 83.4355C133.23 83.623 133.318 83.7754 133.494 83.8926C133.674 84.0059 133.975 84.1055 134.396 84.1914C134.818 84.2734 135.174 84.3672 135.463 84.4727C136.357 84.8008 136.805 85.3691 136.805 86.1777C136.805 86.7559 136.557 87.2246 136.061 87.584C135.564 87.9395 134.924 88.1172 134.139 88.1172C133.607 88.1172 133.135 88.0234 132.721 87.8359C132.311 87.6445 131.988 87.3848 131.754 87.0566C131.52 86.7246 131.402 86.3672 131.402 85.9844H133.008C133.023 86.2852 133.135 86.5156 133.342 86.6758C133.549 86.8359 133.826 86.916 134.174 86.916C134.498 86.916 134.742 86.8555 134.906 86.7344C135.074 86.6094 135.158 86.4473 135.158 86.248ZM141.334 86.248C141.334 86.041 141.23 85.8789 141.023 85.7617C140.82 85.6406 140.492 85.5332 140.039 85.4395C138.531 85.123 137.777 84.4824 137.777 83.5176C137.777 82.9551 138.01 82.4863 138.475 82.1113C138.943 81.7324 139.555 81.543 140.309 81.543C141.113 81.543 141.756 81.7324 142.236 82.1113C142.721 82.4902 142.963 82.9824 142.963 83.5879H141.27C141.27 83.3457 141.191 83.1465 141.035 82.9902C140.879 82.8301 140.635 82.75 140.303 82.75C140.018 82.75 139.797 82.8145 139.641 82.9434C139.484 83.0723 139.406 83.2363 139.406 83.4355C139.406 83.623 139.494 83.7754 139.67 83.8926C139.85 84.0059 140.15 84.1055 140.572 84.1914C140.994 84.2734 141.35 84.3672 141.639 84.4727C142.533 84.8008 142.98 85.3691 142.98 86.1777C142.98 86.7559 142.732 87.2246 142.236 87.584C141.74 87.9395 141.1 88.1172 140.314 88.1172C139.783 88.1172 139.311 88.0234 138.896 87.8359C138.486 87.6445 138.164 87.3848 137.93 87.0566C137.695 86.7246 137.578 86.3672 137.578 85.9844H139.184C139.199 86.2852 139.311 86.5156 139.518 86.6758C139.725 86.8359 140.002 86.916 140.35 86.916C140.674 86.916 140.918 86.8555 141.082 86.7344C141.25 86.6094 141.334 86.4473 141.334 86.248ZM143.812 84.7715C143.812 84.1426 143.934 83.582 144.176 83.0898C144.418 82.5977 144.766 82.2168 145.219 81.9473C145.676 81.6777 146.205 81.543 146.807 81.543C147.662 81.543 148.359 81.8047 148.898 82.3281C149.441 82.8516 149.744 83.5625 149.807 84.4609L149.818 84.8945C149.818 85.8672 149.547 86.6484 149.004 87.2383C148.461 87.8242 147.732 88.1172 146.818 88.1172C145.904 88.1172 145.174 87.8242 144.627 87.2383C144.084 86.6523 143.812 85.8555 143.812 84.8477V84.7715ZM145.506 84.8945C145.506 85.4961 145.619 85.957 145.846 86.2773C146.072 86.5938 146.396 86.752 146.818 86.752C147.229 86.752 147.549 86.5957 147.779 86.2832C148.01 85.9668 148.125 85.4629 148.125 84.7715C148.125 84.1816 148.01 83.7246 147.779 83.4004C147.549 83.0762 147.225 82.9141 146.807 82.9141C146.393 82.9141 146.072 83.0762 145.846 83.4004C145.619 83.7207 145.506 84.2188 145.506 84.8945ZM153.498 86.752C153.811 86.752 154.064 86.666 154.26 86.4941C154.455 86.3223 154.557 86.0938 154.564 85.8086H156.152C156.148 86.2383 156.031 86.6328 155.801 86.9922C155.57 87.3477 155.254 87.625 154.852 87.8242C154.453 88.0195 154.012 88.1172 153.527 88.1172C152.621 88.1172 151.906 87.8301 151.383 87.2559C150.859 86.6777 150.598 85.8809 150.598 84.8652V84.7539C150.598 83.7773 150.857 82.998 151.377 82.416C151.896 81.834 152.609 81.543 153.516 81.543C154.309 81.543 154.943 81.7695 155.42 82.2227C155.9 82.6719 156.145 83.2715 156.152 84.0215H154.564C154.557 83.6934 154.455 83.4277 154.26 83.2246C154.064 83.0176 153.807 82.9141 153.486 82.9141C153.092 82.9141 152.793 83.0586 152.59 83.3477C152.391 83.6328 152.291 84.0977 152.291 84.7422V84.918C152.291 85.5703 152.391 86.0391 152.59 86.3242C152.789 86.6094 153.092 86.752 153.498 86.752ZM158.906 88H157.207V81.6602H158.906V88ZM157.107 80.0195C157.107 79.7656 157.191 79.5566 157.359 79.3926C157.531 79.2285 157.764 79.1465 158.057 79.1465C158.346 79.1465 158.576 79.2285 158.748 79.3926C158.92 79.5566 159.006 79.7656 159.006 80.0195C159.006 80.2773 158.918 80.4883 158.742 80.6523C158.57 80.8164 158.342 80.8984 158.057 80.8984C157.771 80.8984 157.541 80.8164 157.365 80.6523C157.193 80.4883 157.107 80.2773 157.107 80.0195ZM163.98 88C163.902 87.8477 163.846 87.6582 163.811 87.4316C163.4 87.8887 162.867 88.1172 162.211 88.1172C161.59 88.1172 161.074 87.9375 160.664 87.5781C160.258 87.2188 160.055 86.7656 160.055 86.2188C160.055 85.5469 160.303 85.0312 160.799 84.6719C161.299 84.3125 162.02 84.1309 162.961 84.127H163.74V83.7637C163.74 83.4707 163.664 83.2363 163.512 83.0605C163.363 82.8848 163.127 82.7969 162.803 82.7969C162.518 82.7969 162.293 82.8652 162.129 83.002C161.969 83.1387 161.889 83.3262 161.889 83.5645H160.195C160.195 83.1973 160.309 82.8574 160.535 82.5449C160.762 82.2324 161.082 81.9883 161.496 81.8125C161.91 81.6328 162.375 81.543 162.891 81.543C163.672 81.543 164.291 81.7402 164.748 82.1348C165.209 82.5254 165.439 83.0762 165.439 83.7871V86.5352C165.443 87.1367 165.527 87.5918 165.691 87.9004V88H163.98ZM162.58 86.8223C162.83 86.8223 163.061 86.7676 163.271 86.6582C163.482 86.5449 163.639 86.3945 163.74 86.207V85.1172H163.107C162.26 85.1172 161.809 85.4102 161.754 85.9961L161.748 86.0957C161.748 86.3066 161.822 86.4805 161.971 86.6172C162.119 86.7539 162.322 86.8223 162.58 86.8223ZM168.768 80.1016V81.6602H169.852V82.9023H168.768V86.0664C168.768 86.3008 168.812 86.4688 168.902 86.5703C168.992 86.6719 169.164 86.7227 169.418 86.7227C169.605 86.7227 169.771 86.709 169.916 86.6816V87.9648C169.584 88.0664 169.242 88.1172 168.891 88.1172C167.703 88.1172 167.098 87.5176 167.074 86.3184V82.9023H166.148V81.6602H167.074V80.1016H168.768ZM173.713 88.1172C172.783 88.1172 172.025 87.832 171.439 87.2617C170.857 86.6914 170.566 85.9316 170.566 84.9824V84.8184C170.566 84.1816 170.689 83.6133 170.936 83.1133C171.182 82.6094 171.529 82.2227 171.979 81.9531C172.432 81.6797 172.947 81.543 173.525 81.543C174.393 81.543 175.074 81.8164 175.57 82.3633C176.07 82.9102 176.32 83.6855 176.32 84.6895V85.3809H172.283C172.338 85.7949 172.502 86.127 172.775 86.377C173.053 86.627 173.402 86.752 173.824 86.752C174.477 86.752 174.986 86.5156 175.354 86.043L176.186 86.9746C175.932 87.334 175.588 87.6152 175.154 87.8184C174.721 88.0176 174.24 88.1172 173.713 88.1172ZM173.52 82.9141C173.184 82.9141 172.91 83.0273 172.699 83.2539C172.492 83.4805 172.359 83.8047 172.301 84.2266H174.656V84.0918C174.648 83.7168 174.547 83.4277 174.352 83.2246C174.156 83.0176 173.879 82.9141 173.52 82.9141Z" fill="black"/>
<path d="M310.762 87V78.4688H313.387C314.137 78.4688 314.807 78.6387 315.396 78.9785C315.99 79.3145 316.453 79.7949 316.785 80.4199C317.117 81.041 317.283 81.748 317.283 82.541V82.9336C317.283 83.7266 317.119 84.4316 316.791 85.0488C316.467 85.666 316.008 86.1445 315.414 86.4844C314.82 86.8242 314.15 86.9961 313.404 87H310.762ZM312.52 79.8926V85.5879H313.369C314.057 85.5879 314.582 85.3633 314.945 84.9141C315.309 84.4648 315.494 83.8223 315.502 82.9863V82.5352C315.502 81.668 315.322 81.0117 314.963 80.5664C314.604 80.1172 314.078 79.8926 313.387 79.8926H312.52ZM321.373 87.1172C320.443 87.1172 319.686 86.832 319.1 86.2617C318.518 85.6914 318.227 84.9316 318.227 83.9824V83.8184C318.227 83.1816 318.35 82.6133 318.596 82.1133C318.842 81.6094 319.189 81.2227 319.639 80.9531C320.092 80.6797 320.607 80.543 321.186 80.543C322.053 80.543 322.734 80.8164 323.23 81.3633C323.73 81.9102 323.98 82.6855 323.98 83.6895V84.3809H319.943C319.998 84.7949 320.162 85.127 320.436 85.377C320.713 85.627 321.062 85.752 321.484 85.752C322.137 85.752 322.646 85.5156 323.014 85.043L323.846 85.9746C323.592 86.334 323.248 86.6152 322.814 86.8184C322.381 87.0176 321.9 87.1172 321.373 87.1172ZM321.18 81.9141C320.844 81.9141 320.57 82.0273 320.359 82.2539C320.152 82.4805 320.02 82.8047 319.961 83.2266H322.316V83.0918C322.309 82.7168 322.207 82.4277 322.012 82.2246C321.816 82.0176 321.539 81.9141 321.18 81.9141ZM327.238 84.9316L328.416 80.6602H330.186L328.047 87H326.43L324.291 80.6602H326.061L327.238 84.9316ZM338.055 82.9277C338.055 83.7676 337.906 84.5039 337.609 85.1367C337.312 85.7695 336.887 86.2578 336.332 86.6016C335.781 86.9453 335.148 87.1172 334.434 87.1172C333.727 87.1172 333.096 86.9473 332.541 86.6074C331.986 86.2676 331.557 85.7832 331.252 85.1543C330.947 84.5215 330.793 83.7949 330.789 82.9746V82.5527C330.789 81.7129 330.939 80.9746 331.24 80.3379C331.545 79.6973 331.973 79.207 332.523 78.8672C333.078 78.5234 333.711 78.3516 334.422 78.3516C335.133 78.3516 335.764 78.5234 336.314 78.8672C336.869 79.207 337.297 79.6973 337.598 80.3379C337.902 80.9746 338.055 81.7109 338.055 82.5469V82.9277ZM336.273 82.541C336.273 81.6465 336.113 80.9668 335.793 80.502C335.473 80.0371 335.016 79.8047 334.422 79.8047C333.832 79.8047 333.377 80.0352 333.057 80.4961C332.736 80.9531 332.574 81.625 332.57 82.5117V82.9277C332.57 83.7988 332.73 84.4746 333.051 84.9551C333.371 85.4355 333.832 85.6758 334.434 85.6758C335.023 85.6758 335.477 85.4453 335.793 84.9844C336.109 84.5195 336.27 83.8438 336.273 82.957V82.541ZM344.928 83.8887C344.928 84.8652 344.705 85.6484 344.26 86.2383C343.818 86.8242 343.221 87.1172 342.467 87.1172C341.826 87.1172 341.309 86.8945 340.914 86.4492V89.4375H339.221V80.6602H340.791L340.85 81.2812C341.26 80.7891 341.795 80.543 342.455 80.543C343.236 80.543 343.844 80.832 344.277 81.4102C344.711 81.9883 344.928 82.7852 344.928 83.8008V83.8887ZM343.234 83.7656C343.234 83.1758 343.129 82.7207 342.918 82.4004C342.711 82.0801 342.408 81.9199 342.01 81.9199C341.479 81.9199 341.113 82.123 340.914 82.5293V85.125C341.121 85.543 341.49 85.752 342.021 85.752C342.83 85.752 343.234 85.0898 343.234 83.7656ZM349.416 85.248C349.416 85.041 349.312 84.8789 349.105 84.7617C348.902 84.6406 348.574 84.5332 348.121 84.4395C346.613 84.123 345.859 83.4824 345.859 82.5176C345.859 81.9551 346.092 81.4863 346.557 81.1113C347.025 80.7324 347.637 80.543 348.391 80.543C349.195 80.543 349.838 80.7324 350.318 81.1113C350.803 81.4902 351.045 81.9824 351.045 82.5879H349.352C349.352 82.3457 349.273 82.1465 349.117 81.9902C348.961 81.8301 348.717 81.75 348.385 81.75C348.1 81.75 347.879 81.8145 347.723 81.9434C347.566 82.0723 347.488 82.2363 347.488 82.4355C347.488 82.623 347.576 82.7754 347.752 82.8926C347.932 83.0059 348.232 83.1055 348.654 83.1914C349.076 83.2734 349.432 83.3672 349.721 83.4727C350.615 83.8008 351.062 84.3691 351.062 85.1777C351.062 85.7559 350.814 86.2246 350.318 86.584C349.822 86.9395 349.182 87.1172 348.396 87.1172C347.865 87.1172 347.393 87.0234 346.979 86.8359C346.568 86.6445 346.246 86.3848 346.012 86.0566C345.777 85.7246 345.66 85.3672 345.66 84.9844H347.266C347.281 85.2852 347.393 85.5156 347.6 85.6758C347.807 85.8359 348.084 85.916 348.432 85.916C348.756 85.916 349 85.8555 349.164 85.7344C349.332 85.6094 349.416 85.4473 349.416 85.248ZM360.391 83.3027H357.016V85.5879H360.977V87H355.258V78.4688H360.965V79.8926H357.016V81.9258H360.391V83.3027ZM363.455 80.6602L363.508 81.3926C363.961 80.8262 364.568 80.543 365.33 80.543C366.002 80.543 366.502 80.7402 366.83 81.1348C367.158 81.5293 367.326 82.1191 367.334 82.9043V87H365.641V82.9453C365.641 82.5859 365.562 82.3262 365.406 82.166C365.25 82.002 364.99 81.9199 364.627 81.9199C364.15 81.9199 363.793 82.123 363.555 82.5293V87H361.861V80.6602H363.455ZM368.377 83.7832C368.377 82.8105 368.607 82.0273 369.068 81.4336C369.533 80.8398 370.158 80.543 370.943 80.543C371.639 80.543 372.18 80.7812 372.566 81.2578L372.637 80.6602H374.172V86.7891C374.172 87.3438 374.045 87.8262 373.791 88.2363C373.541 88.6465 373.188 88.959 372.73 89.1738C372.273 89.3887 371.738 89.4961 371.125 89.4961C370.66 89.4961 370.207 89.4023 369.766 89.2148C369.324 89.0312 368.99 88.793 368.764 88.5L369.514 87.4688C369.936 87.9414 370.447 88.1777 371.049 88.1777C371.498 88.1777 371.848 88.0566 372.098 87.8145C372.348 87.5762 372.473 87.2363 372.473 86.7949V86.4551C372.082 86.8965 371.568 87.1172 370.932 87.1172C370.17 87.1172 369.553 86.8203 369.08 86.2266C368.611 85.6289 368.377 84.8379 368.377 83.8535V83.7832ZM370.07 83.9062C370.07 84.4805 370.186 84.9316 370.416 85.2598C370.646 85.584 370.963 85.7461 371.365 85.7461C371.881 85.7461 372.25 85.5527 372.473 85.166V82.5C372.246 82.1133 371.881 81.9199 371.377 81.9199C370.971 81.9199 370.65 82.0859 370.416 82.418C370.186 82.75 370.07 83.2461 370.07 83.9062ZM377.266 87H375.566V80.6602H377.266V87ZM375.467 79.0195C375.467 78.7656 375.551 78.5566 375.719 78.3926C375.891 78.2285 376.123 78.1465 376.416 78.1465C376.705 78.1465 376.936 78.2285 377.107 78.3926C377.279 78.5566 377.365 78.7656 377.365 79.0195C377.365 79.2773 377.277 79.4883 377.102 79.6523C376.93 79.8164 376.701 79.8984 376.416 79.8984C376.131 79.8984 375.9 79.8164 375.725 79.6523C375.553 79.4883 375.467 79.2773 375.467 79.0195ZM380.225 80.6602L380.277 81.3926C380.73 80.8262 381.338 80.543 382.1 80.543C382.771 80.543 383.271 80.7402 383.6 81.1348C383.928 81.5293 384.096 82.1191 384.104 82.9043V87H382.41V82.9453C382.41 82.5859 382.332 82.3262 382.176 82.166C382.02 82.002 381.76 81.9199 381.396 81.9199C380.92 81.9199 380.562 82.123 380.324 82.5293V87H378.631V80.6602H380.225ZM388.311 87.1172C387.381 87.1172 386.623 86.832 386.037 86.2617C385.455 85.6914 385.164 84.9316 385.164 83.9824V83.8184C385.164 83.1816 385.287 82.6133 385.533 82.1133C385.779 81.6094 386.127 81.2227 386.576 80.9531C387.029 80.6797 387.545 80.543 388.123 80.543C388.99 80.543 389.672 80.8164 390.168 81.3633C390.668 81.9102 390.918 82.6855 390.918 83.6895V84.3809H386.881C386.936 84.7949 387.1 85.127 387.373 85.377C387.65 85.627 388 85.752 388.422 85.752C389.074 85.752 389.584 85.5156 389.951 85.043L390.783 85.9746C390.529 86.334 390.186 86.6152 389.752 86.8184C389.318 87.0176 388.838 87.1172 388.311 87.1172ZM388.117 81.9141C387.781 81.9141 387.508 82.0273 387.297 82.2539C387.09 82.4805 386.957 82.8047 386.898 83.2266H389.254V83.0918C389.246 82.7168 389.145 82.4277 388.949 82.2246C388.754 82.0176 388.477 81.9141 388.117 81.9141ZM394.803 87.1172C393.873 87.1172 393.115 86.832 392.529 86.2617C391.947 85.6914 391.656 84.9316 391.656 83.9824V83.8184C391.656 83.1816 391.779 82.6133 392.025 82.1133C392.271 81.6094 392.619 81.2227 393.068 80.9531C393.521 80.6797 394.037 80.543 394.615 80.543C395.482 80.543 396.164 80.8164 396.66 81.3633C397.16 81.9102 397.41 82.6855 397.41 83.6895V84.3809H393.373C393.428 84.7949 393.592 85.127 393.865 85.377C394.143 85.627 394.492 85.752 394.914 85.752C395.566 85.752 396.076 85.5156 396.443 85.043L397.275 85.9746C397.021 86.334 396.678 86.6152 396.244 86.8184C395.811 87.0176 395.33 87.1172 394.803 87.1172ZM394.609 81.9141C394.273 81.9141 394 82.0273 393.789 82.2539C393.582 82.4805 393.449 82.8047 393.391 83.2266H395.746V83.0918C395.738 82.7168 395.637 82.4277 395.441 82.2246C395.246 82.0176 394.969 81.9141 394.609 81.9141ZM401.939 82.248C401.709 82.2168 401.506 82.2012 401.33 82.2012C400.689 82.2012 400.27 82.418 400.07 82.8516V87H398.377V80.6602H399.977L400.023 81.416C400.363 80.834 400.834 80.543 401.436 80.543C401.623 80.543 401.799 80.5684 401.963 80.6191L401.939 82.248Z" fill="black"/>
<path d="M499.186 71.7617C499.186 71.4297 499.068 71.1758 498.834 71C498.6 70.8203 498.178 70.6328 497.568 70.4375C496.959 70.2383 496.477 70.043 496.121 69.8516C495.152 69.3281 494.668 68.623 494.668 67.7363C494.668 67.2754 494.797 66.8652 495.055 66.5059C495.316 66.1426 495.689 65.8594 496.174 65.6562C496.662 65.4531 497.209 65.3516 497.814 65.3516C498.424 65.3516 498.967 65.4629 499.443 65.6855C499.92 65.9043 500.289 66.2148 500.551 66.6172C500.816 67.0195 500.949 67.4766 500.949 67.9883H499.191C499.191 67.5977 499.068 67.2949 498.822 67.0801C498.576 66.8613 498.23 66.752 497.785 66.752C497.355 66.752 497.021 66.8438 496.783 67.0273C496.545 67.207 496.426 67.4453 496.426 67.7422C496.426 68.0195 496.564 68.252 496.842 68.4395C497.123 68.627 497.535 68.8027 498.078 68.9668C499.078 69.2676 499.807 69.6406 500.264 70.0859C500.721 70.5312 500.949 71.0859 500.949 71.75C500.949 72.4883 500.67 73.0684 500.111 73.4902C499.553 73.9082 498.801 74.1172 497.855 74.1172C497.199 74.1172 496.602 73.998 496.062 73.7598C495.523 73.5176 495.111 73.1875 494.826 72.7695C494.545 72.3516 494.404 71.8672 494.404 71.3164H496.168C496.168 72.2578 496.73 72.7285 497.855 72.7285C498.273 72.7285 498.6 72.6445 498.834 72.4766C499.068 72.3047 499.186 72.0664 499.186 71.7617ZM505.596 69.248C505.365 69.2168 505.162 69.2012 504.986 69.2012C504.346 69.2012 503.926 69.418 503.727 69.8516V74H502.033V67.6602H503.633L503.68 68.416C504.02 67.834 504.49 67.543 505.092 67.543C505.279 67.543 505.455 67.5684 505.619 67.6191L505.596 69.248ZM505.484 73.168C505.484 72.8984 505.574 72.6797 505.754 72.5117C505.938 72.3438 506.166 72.2598 506.439 72.2598C506.717 72.2598 506.945 72.3438 507.125 72.5117C507.309 72.6797 507.4 72.8984 507.4 73.168C507.4 73.4336 507.311 73.6504 507.131 73.8184C506.951 73.9824 506.721 74.0645 506.439 74.0645C506.162 74.0645 505.934 73.9824 505.754 73.8184C505.574 73.6504 505.484 73.4336 505.484 73.168ZM496.631 88H494.873V79.4688H496.631V88ZM499.742 81.6602L499.795 82.3691C500.244 81.8184 500.852 81.543 501.617 81.543C502.434 81.543 502.994 81.8652 503.299 82.5098C503.744 81.8652 504.379 81.543 505.203 81.543C505.891 81.543 506.402 81.7441 506.738 82.1465C507.074 82.5449 507.242 83.1465 507.242 83.9512V88H505.543V83.957C505.543 83.5977 505.473 83.3359 505.332 83.1719C505.191 83.0039 504.943 82.9199 504.588 82.9199C504.08 82.9199 503.729 83.1621 503.533 83.6465L503.539 88H501.846V83.9629C501.846 83.5957 501.773 83.3301 501.629 83.166C501.484 83.002 501.238 82.9199 500.891 82.9199C500.41 82.9199 500.062 83.1191 499.848 83.5176V88H498.154V81.6602H499.742ZM514.256 84.8887C514.256 85.8652 514.033 86.6484 513.588 87.2383C513.146 87.8242 512.549 88.1172 511.795 88.1172C511.154 88.1172 510.637 87.8945 510.242 87.4492V90.4375H508.549V81.6602H510.119L510.178 82.2812C510.588 81.7891 511.123 81.543 511.783 81.543C512.564 81.543 513.172 81.832 513.605 82.4102C514.039 82.9883 514.256 83.7852 514.256 84.8008V84.8887ZM512.562 84.7656C512.562 84.1758 512.457 83.7207 512.246 83.4004C512.039 83.0801 511.736 82.9199 511.338 82.9199C510.807 82.9199 510.441 83.123 510.242 83.5293V86.125C510.449 86.543 510.818 86.752 511.35 86.752C512.158 86.752 512.562 86.0898 512.562 84.7656ZM517.098 88H515.398V79H517.098V88ZM521.416 88.1172C520.486 88.1172 519.729 87.832 519.143 87.2617C518.561 86.6914 518.27 85.9316 518.27 84.9824V84.8184C518.27 84.1816 518.393 83.6133 518.639 83.1133C518.885 82.6094 519.232 82.2227 519.682 81.9531C520.135 81.6797 520.65 81.543 521.229 81.543C522.096 81.543 522.777 81.8164 523.273 82.3633C523.773 82.9102 524.023 83.6855 524.023 84.6895V85.3809H519.986C520.041 85.7949 520.205 86.127 520.479 86.377C520.756 86.627 521.105 86.752 521.527 86.752C522.18 86.752 522.689 86.5156 523.057 86.043L523.889 86.9746C523.635 87.334 523.291 87.6152 522.857 87.8184C522.424 88.0176 521.943 88.1172 521.416 88.1172ZM521.223 82.9141C520.887 82.9141 520.613 83.0273 520.402 83.2539C520.195 83.4805 520.062 83.8047 520.004 84.2266H522.359V84.0918C522.352 83.7168 522.25 83.4277 522.055 83.2246C521.859 83.0176 521.582 82.9141 521.223 82.9141ZM526.578 81.6602L526.631 82.3691C527.08 81.8184 527.688 81.543 528.453 81.543C529.27 81.543 529.83 81.8652 530.135 82.5098C530.58 81.8652 531.215 81.543 532.039 81.543C532.727 81.543 533.238 81.7441 533.574 82.1465C533.91 82.5449 534.078 83.1465 534.078 83.9512V88H532.379V83.957C532.379 83.5977 532.309 83.3359 532.168 83.1719C532.027 83.0039 531.779 82.9199 531.424 82.9199C530.916 82.9199 530.564 83.1621 530.369 83.6465L530.375 88H528.682V83.9629C528.682 83.5957 528.609 83.3301 528.465 83.166C528.32 83.002 528.074 82.9199 527.727 82.9199C527.246 82.9199 526.898 83.1191 526.684 83.5176V88H524.99V81.6602H526.578ZM538.303 88.1172C537.373 88.1172 536.615 87.832 536.029 87.2617C535.447 86.6914 535.156 85.9316 535.156 84.9824V84.8184C535.156 84.1816 535.279 83.6133 535.525 83.1133C535.771 82.6094 536.119 82.2227 536.568 81.9531C537.021 81.6797 537.537 81.543 538.115 81.543C538.982 81.543 539.664 81.8164 540.16 82.3633C540.66 82.9102 540.91 83.6855 540.91 84.6895V85.3809H536.873C536.928 85.7949 537.092 86.127 537.365 86.377C537.643 86.627 537.992 86.752 538.414 86.752C539.066 86.752 539.576 86.5156 539.943 86.043L540.775 86.9746C540.521 87.334 540.178 87.6152 539.744 87.8184C539.311 88.0176 538.83 88.1172 538.303 88.1172ZM538.109 82.9141C537.773 82.9141 537.5 83.0273 537.289 83.2539C537.082 83.4805 536.949 83.8047 536.891 84.2266H539.246V84.0918C539.238 83.7168 539.137 83.4277 538.941 83.2246C538.746 83.0176 538.469 82.9141 538.109 82.9141ZM543.436 81.6602L543.488 82.3926C543.941 81.8262 544.549 81.543 545.311 81.543C545.982 81.543 546.482 81.7402 546.811 82.1348C547.139 82.5293 547.307 83.1191 547.314 83.9043V88H545.621V83.9453C545.621 83.5859 545.543 83.3262 545.387 83.166C545.23 83.002 544.971 82.9199 544.607 82.9199C544.131 82.9199 543.773 83.123 543.535 83.5293V88H541.842V81.6602H543.436ZM550.631 80.1016V81.6602H551.715V82.9023H550.631V86.0664C550.631 86.3008 550.676 86.4688 550.766 86.5703C550.855 86.6719 551.027 86.7227 551.281 86.7227C551.469 86.7227 551.635 86.709 551.779 86.6816V87.9648C551.447 88.0664 551.105 88.1172 550.754 88.1172C549.566 88.1172 548.961 87.5176 548.938 86.3184V82.9023H548.012V81.6602H548.938V80.1016H550.631ZM556.332 88C556.254 87.8477 556.197 87.6582 556.162 87.4316C555.752 87.8887 555.219 88.1172 554.562 88.1172C553.941 88.1172 553.426 87.9375 553.016 87.5781C552.609 87.2188 552.406 86.7656 552.406 86.2188C552.406 85.5469 552.654 85.0312 553.15 84.6719C553.65 84.3125 554.371 84.1309 555.312 84.127H556.092V83.7637C556.092 83.4707 556.016 83.2363 555.863 83.0605C555.715 82.8848 555.479 82.7969 555.154 82.7969C554.869 82.7969 554.645 82.8652 554.48 83.002C554.32 83.1387 554.24 83.3262 554.24 83.5645H552.547C552.547 83.1973 552.66 82.8574 552.887 82.5449C553.113 82.2324 553.434 81.9883 553.848 81.8125C554.262 81.6328 554.727 81.543 555.242 81.543C556.023 81.543 556.643 81.7402 557.1 82.1348C557.561 82.5254 557.791 83.0762 557.791 83.7871V86.5352C557.795 87.1367 557.879 87.5918 558.043 87.9004V88H556.332ZM554.932 86.8223C555.182 86.8223 555.412 86.7676 555.623 86.6582C555.834 86.5449 555.99 86.3945 556.092 86.207V85.1172H555.459C554.611 85.1172 554.16 85.4102 554.105 85.9961L554.1 86.0957C554.1 86.3066 554.174 86.4805 554.322 86.6172C554.471 86.7539 554.674 86.8223 554.932 86.8223ZM561.119 80.1016V81.6602H562.203V82.9023H561.119V86.0664C561.119 86.3008 561.164 86.4688 561.254 86.5703C561.344 86.6719 561.516 86.7227 561.77 86.7227C561.957 86.7227 562.123 86.709 562.268 86.6816V87.9648C561.936 88.0664 561.594 88.1172 561.242 88.1172C560.055 88.1172 559.449 87.5176 559.426 86.3184V82.9023H558.5V81.6602H559.426V80.1016H561.119ZM564.934 88H563.234V81.6602H564.934V88ZM563.135 80.0195C563.135 79.7656 563.219 79.5566 563.387 79.3926C563.559 79.2285 563.791 79.1465 564.084 79.1465C564.373 79.1465 564.604 79.2285 564.775 79.3926C564.947 79.5566 565.033 79.7656 565.033 80.0195C565.033 80.2773 564.945 80.4883 564.77 80.6523C564.598 80.8164 564.369 80.8984 564.084 80.8984C563.799 80.8984 563.568 80.8164 563.393 80.6523C563.221 80.4883 563.135 80.2773 563.135 80.0195ZM566.07 84.7715C566.07 84.1426 566.191 83.582 566.434 83.0898C566.676 82.5977 567.023 82.2168 567.477 81.9473C567.934 81.6777 568.463 81.543 569.064 81.543C569.92 81.543 570.617 81.8047 571.156 82.3281C571.699 82.8516 572.002 83.5625 572.064 84.4609L572.076 84.8945C572.076 85.8672 571.805 86.6484 571.262 87.2383C570.719 87.8242 569.99 88.1172 569.076 88.1172C568.162 88.1172 567.432 87.8242 566.885 87.2383C566.342 86.6523 566.07 85.8555 566.07 84.8477V84.7715ZM567.764 84.8945C567.764 85.4961 567.877 85.957 568.104 86.2773C568.33 86.5938 568.654 86.752 569.076 86.752C569.486 86.752 569.807 86.5957 570.037 86.2832C570.268 85.9668 570.383 85.4629 570.383 84.7715C570.383 84.1816 570.268 83.7246 570.037 83.4004C569.807 83.0762 569.482 82.9141 569.064 82.9141C568.65 82.9141 568.33 83.0762 568.104 83.4004C567.877 83.7207 567.764 84.2188 567.764 84.8945ZM574.678 81.6602L574.73 82.3926C575.184 81.8262 575.791 81.543 576.553 81.543C577.225 81.543 577.725 81.7402 578.053 82.1348C578.381 82.5293 578.549 83.1191 578.557 83.9043V88H576.863V83.9453C576.863 83.5859 576.785 83.3262 576.629 83.166C576.473 83.002 576.213 82.9199 575.85 82.9199C575.373 82.9199 575.016 83.123 574.777 83.5293V88H573.084V81.6602H574.678ZM499.895 98.3027H496.52V100.588H500.48V102H494.762V93.4688H500.469V94.8926H496.52V96.9258H499.895V98.3027ZM502.959 95.6602L503.012 96.3926C503.465 95.8262 504.072 95.543 504.834 95.543C505.506 95.543 506.006 95.7402 506.334 96.1348C506.662 96.5293 506.83 97.1191 506.838 97.9043V102H505.145V97.9453C505.145 97.5859 505.066 97.3262 504.91 97.166C504.754 97.002 504.494 96.9199 504.131 96.9199C503.654 96.9199 503.297 97.123 503.059 97.5293V102H501.365V95.6602H502.959ZM507.881 98.7832C507.881 97.8105 508.111 97.0273 508.572 96.4336C509.037 95.8398 509.662 95.543 510.447 95.543C511.143 95.543 511.684 95.7812 512.07 96.2578L512.141 95.6602H513.676V101.789C513.676 102.344 513.549 102.826 513.295 103.236C513.045 103.646 512.691 103.959 512.234 104.174C511.777 104.389 511.242 104.496 510.629 104.496C510.164 104.496 509.711 104.402 509.27 104.215C508.828 104.031 508.494 103.793 508.268 103.5L509.018 102.469C509.439 102.941 509.951 103.178 510.553 103.178C511.002 103.178 511.352 103.057 511.602 102.814C511.852 102.576 511.977 102.236 511.977 101.795V101.455C511.586 101.896 511.072 102.117 510.436 102.117C509.674 102.117 509.057 101.82 508.584 101.227C508.115 100.629 507.881 99.8379 507.881 98.8535V98.7832ZM509.574 98.9062C509.574 99.4805 509.689 99.9316 509.92 100.26C510.15 100.584 510.467 100.746 510.869 100.746C511.385 100.746 511.754 100.553 511.977 100.166V97.5C511.75 97.1133 511.385 96.9199 510.881 96.9199C510.475 96.9199 510.154 97.0859 509.92 97.418C509.689 97.75 509.574 98.2461 509.574 98.9062ZM516.77 102H515.07V95.6602H516.77V102ZM514.971 94.0195C514.971 93.7656 515.055 93.5566 515.223 93.3926C515.395 93.2285 515.627 93.1465 515.92 93.1465C516.209 93.1465 516.439 93.2285 516.611 93.3926C516.783 93.5566 516.869 93.7656 516.869 94.0195C516.869 94.2773 516.781 94.4883 516.605 94.6523C516.434 94.8164 516.205 94.8984 515.92 94.8984C515.635 94.8984 515.404 94.8164 515.229 94.6523C515.057 94.4883 514.971 94.2773 514.971 94.0195ZM519.729 95.6602L519.781 96.3926C520.234 95.8262 520.842 95.543 521.604 95.543C522.275 95.543 522.775 95.7402 523.104 96.1348C523.432 96.5293 523.6 97.1191 523.607 97.9043V102H521.914V97.9453C521.914 97.5859 521.836 97.3262 521.68 97.166C521.523 97.002 521.264 96.9199 520.9 96.9199C520.424 96.9199 520.066 97.123 519.828 97.5293V102H518.135V95.6602H519.729ZM527.814 102.117C526.885 102.117 526.127 101.832 525.541 101.262C524.959 100.691 524.668 99.9316 524.668 98.9824V98.8184C524.668 98.1816 524.791 97.6133 525.037 97.1133C525.283 96.6094 525.631 96.2227 526.08 95.9531C526.533 95.6797 527.049 95.543 527.627 95.543C528.494 95.543 529.176 95.8164 529.672 96.3633C530.172 96.9102 530.422 97.6855 530.422 98.6895V99.3809H526.385C526.439 99.7949 526.604 100.127 526.877 100.377C527.154 100.627 527.504 100.752 527.926 100.752C528.578 100.752 529.088 100.516 529.455 100.043L530.287 100.975C530.033 101.334 529.689 101.615 529.256 101.818C528.822 102.018 528.342 102.117 527.814 102.117ZM527.621 96.9141C527.285 96.9141 527.012 97.0273 526.801 97.2539C526.594 97.4805 526.461 97.8047 526.402 98.2266H528.758V98.0918C528.75 97.7168 528.648 97.4277 528.453 97.2246C528.258 97.0176 527.98 96.9141 527.621 96.9141ZM534.307 102.117C533.377 102.117 532.619 101.832 532.033 101.262C531.451 100.691 531.16 99.9316 531.16 98.9824V98.8184C531.16 98.1816 531.283 97.6133 531.529 97.1133C531.775 96.6094 532.123 96.2227 532.572 95.9531C533.025 95.6797 533.541 95.543 534.119 95.543C534.986 95.543 535.668 95.8164 536.164 96.3633C536.664 96.9102 536.914 97.6855 536.914 98.6895V99.3809H532.877C532.932 99.7949 533.096 100.127 533.369 100.377C533.646 100.627 533.996 100.752 534.418 100.752C535.07 100.752 535.58 100.516 535.947 100.043L536.779 100.975C536.525 101.334 536.182 101.615 535.748 101.818C535.314 102.018 534.834 102.117 534.307 102.117ZM534.113 96.9141C533.777 96.9141 533.504 97.0273 533.293 97.2539C533.086 97.4805 532.953 97.8047 532.895 98.2266H535.25V98.0918C535.242 97.7168 535.141 97.4277 534.945 97.2246C534.75 97.0176 534.473 96.9141 534.113 96.9141ZM541.443 97.248C541.213 97.2168 541.01 97.2012 540.834 97.2012C540.193 97.2012 539.773 97.418 539.574 97.8516V102H537.881V95.6602H539.48L539.527 96.416C539.867 95.834 540.338 95.543 540.939 95.543C541.127 95.543 541.303 95.5684 541.467 95.6191L541.443 97.248Z" fill="black"/>
<path d="M680.762 88V79.4688H683.387C684.137 79.4688 684.807 79.6387 685.396 79.9785C685.99 80.3145 686.453 80.7949 686.785 81.4199C687.117 82.041 687.283 82.748 687.283 83.541V83.9336C687.283 84.7266 687.119 85.4316 686.791 86.0488C686.467 86.666 686.008 87.1445 685.414 87.4844C684.82 87.8242 684.15 87.9961 683.404 88H680.762ZM682.52 80.8926V86.5879H683.369C684.057 86.5879 684.582 86.3633 684.945 85.9141C685.309 85.4648 685.494 84.8223 685.502 83.9863V83.5352C685.502 82.668 685.322 82.0117 684.963 81.5664C684.604 81.1172 684.078 80.8926 683.387 80.8926H682.52ZM691.373 88.1172C690.443 88.1172 689.686 87.832 689.1 87.2617C688.518 86.6914 688.227 85.9316 688.227 84.9824V84.8184C688.227 84.1816 688.35 83.6133 688.596 83.1133C688.842 82.6094 689.189 82.2227 689.639 81.9531C690.092 81.6797 690.607 81.543 691.186 81.543C692.053 81.543 692.734 81.8164 693.23 82.3633C693.73 82.9102 693.98 83.6855 693.98 84.6895V85.3809H689.943C689.998 85.7949 690.162 86.127 690.436 86.377C690.713 86.627 691.062 86.752 691.484 86.752C692.137 86.752 692.646 86.5156 693.014 86.043L693.846 86.9746C693.592 87.334 693.248 87.6152 692.814 87.8184C692.381 88.0176 691.9 88.1172 691.373 88.1172ZM691.18 82.9141C690.844 82.9141 690.57 83.0273 690.359 83.2539C690.152 83.4805 690.02 83.8047 689.961 84.2266H692.316V84.0918C692.309 83.7168 692.207 83.4277 692.012 83.2246C691.816 83.0176 691.539 82.9141 691.18 82.9141ZM697.238 85.9316L698.416 81.6602H700.186L698.047 88H696.43L694.291 81.6602H696.061L697.238 85.9316ZM708.055 83.9277C708.055 84.7676 707.906 85.5039 707.609 86.1367C707.312 86.7695 706.887 87.2578 706.332 87.6016C705.781 87.9453 705.148 88.1172 704.434 88.1172C703.727 88.1172 703.096 87.9473 702.541 87.6074C701.986 87.2676 701.557 86.7832 701.252 86.1543C700.947 85.5215 700.793 84.7949 700.789 83.9746V83.5527C700.789 82.7129 700.939 81.9746 701.24 81.3379C701.545 80.6973 701.973 80.207 702.523 79.8672C703.078 79.5234 703.711 79.3516 704.422 79.3516C705.133 79.3516 705.764 79.5234 706.314 79.8672C706.869 80.207 707.297 80.6973 707.598 81.3379C707.902 81.9746 708.055 82.7109 708.055 83.5469V83.9277ZM706.273 83.541C706.273 82.6465 706.113 81.9668 705.793 81.502C705.473 81.0371 705.016 80.8047 704.422 80.8047C703.832 80.8047 703.377 81.0352 703.057 81.4961C702.736 81.9531 702.574 82.625 702.57 83.5117V83.9277C702.57 84.7988 702.73 85.4746 703.051 85.9551C703.371 86.4355 703.832 86.6758 704.434 86.6758C705.023 86.6758 705.477 86.4453 705.793 85.9844C706.109 85.5195 706.27 84.8438 706.273 83.957V83.541ZM714.928 84.8887C714.928 85.8652 714.705 86.6484 714.26 87.2383C713.818 87.8242 713.221 88.1172 712.467 88.1172C711.826 88.1172 711.309 87.8945 710.914 87.4492V90.4375H709.221V81.6602H710.791L710.85 82.2812C711.26 81.7891 711.795 81.543 712.455 81.543C713.236 81.543 713.844 81.832 714.277 82.4102C714.711 82.9883 714.928 83.7852 714.928 84.8008V84.8887ZM713.234 84.7656C713.234 84.1758 713.129 83.7207 712.918 83.4004C712.711 83.0801 712.408 82.9199 712.01 82.9199C711.479 82.9199 711.113 83.123 710.914 83.5293V86.125C711.121 86.543 711.49 86.752 712.021 86.752C712.83 86.752 713.234 86.0898 713.234 84.7656ZM719.416 86.248C719.416 86.041 719.312 85.8789 719.105 85.7617C718.902 85.6406 718.574 85.5332 718.121 85.4395C716.613 85.123 715.859 84.4824 715.859 83.5176C715.859 82.9551 716.092 82.4863 716.557 82.1113C717.025 81.7324 717.637 81.543 718.391 81.543C719.195 81.543 719.838 81.7324 720.318 82.1113C720.803 82.4902 721.045 82.9824 721.045 83.5879H719.352C719.352 83.3457 719.273 83.1465 719.117 82.9902C718.961 82.8301 718.717 82.75 718.385 82.75C718.1 82.75 717.879 82.8145 717.723 82.9434C717.566 83.0723 717.488 83.2363 717.488 83.4355C717.488 83.623 717.576 83.7754 717.752 83.8926C717.932 84.0059 718.232 84.1055 718.654 84.1914C719.076 84.2734 719.432 84.3672 719.721 84.4727C720.615 84.8008 721.062 85.3691 721.062 86.1777C721.062 86.7559 720.814 87.2246 720.318 87.584C719.822 87.9395 719.182 88.1172 718.396 88.1172C717.865 88.1172 717.393 88.0234 716.979 87.8359C716.568 87.6445 716.246 87.3848 716.012 87.0566C715.777 86.7246 715.66 86.3672 715.66 85.9844H717.266C717.281 86.2852 717.393 86.5156 717.6 86.6758C717.807 86.8359 718.084 86.916 718.432 86.916C718.756 86.916 719 86.8555 719.164 86.7344C719.332 86.6094 719.416 86.4473 719.416 86.248ZM731.328 80.8926H728.715V88H726.957V80.8926H724.379V79.4688H731.328V80.8926ZM734.615 88.1172C733.686 88.1172 732.928 87.832 732.342 87.2617C731.76 86.6914 731.469 85.9316 731.469 84.9824V84.8184C731.469 84.1816 731.592 83.6133 731.838 83.1133C732.084 82.6094 732.432 82.2227 732.881 81.9531C733.334 81.6797 733.85 81.543 734.428 81.543C735.295 81.543 735.977 81.8164 736.473 82.3633C736.973 82.9102 737.223 83.6855 737.223 84.6895V85.3809H733.186C733.24 85.7949 733.404 86.127 733.678 86.377C733.955 86.627 734.305 86.752 734.727 86.752C735.379 86.752 735.889 86.5156 736.256 86.043L737.088 86.9746C736.834 87.334 736.49 87.6152 736.057 87.8184C735.623 88.0176 735.143 88.1172 734.615 88.1172ZM734.422 82.9141C734.086 82.9141 733.812 83.0273 733.602 83.2539C733.395 83.4805 733.262 83.8047 733.203 84.2266H735.559V84.0918C735.551 83.7168 735.449 83.4277 735.254 83.2246C735.059 83.0176 734.781 82.9141 734.422 82.9141ZM741.863 88C741.785 87.8477 741.729 87.6582 741.693 87.4316C741.283 87.8887 740.75 88.1172 740.094 88.1172C739.473 88.1172 738.957 87.9375 738.547 87.5781C738.141 87.2188 737.938 86.7656 737.938 86.2188C737.938 85.5469 738.186 85.0312 738.682 84.6719C739.182 84.3125 739.902 84.1309 740.844 84.127H741.623V83.7637C741.623 83.4707 741.547 83.2363 741.395 83.0605C741.246 82.8848 741.01 82.7969 740.686 82.7969C740.4 82.7969 740.176 82.8652 740.012 83.002C739.852 83.1387 739.771 83.3262 739.771 83.5645H738.078C738.078 83.1973 738.191 82.8574 738.418 82.5449C738.645 82.2324 738.965 81.9883 739.379 81.8125C739.793 81.6328 740.258 81.543 740.773 81.543C741.555 81.543 742.174 81.7402 742.631 82.1348C743.092 82.5254 743.322 83.0762 743.322 83.7871V86.5352C743.326 87.1367 743.41 87.5918 743.574 87.9004V88H741.863ZM740.463 86.8223C740.713 86.8223 740.943 86.7676 741.154 86.6582C741.365 86.5449 741.521 86.3945 741.623 86.207V85.1172H740.99C740.143 85.1172 739.691 85.4102 739.637 85.9961L739.631 86.0957C739.631 86.3066 739.705 86.4805 739.854 86.6172C740.002 86.7539 740.205 86.8223 740.463 86.8223ZM746.211 81.6602L746.264 82.3691C746.713 81.8184 747.32 81.543 748.086 81.543C748.902 81.543 749.463 81.8652 749.768 82.5098C750.213 81.8652 750.848 81.543 751.672 81.543C752.359 81.543 752.871 81.7441 753.207 82.1465C753.543 82.5449 753.711 83.1465 753.711 83.9512V88H752.012V83.957C752.012 83.5977 751.941 83.3359 751.801 83.1719C751.66 83.0039 751.412 82.9199 751.057 82.9199C750.549 82.9199 750.197 83.1621 750.002 83.6465L750.008 88H748.314V83.9629C748.314 83.5957 748.242 83.3301 748.098 83.166C747.953 83.002 747.707 82.9199 747.359 82.9199C746.879 82.9199 746.531 83.1191 746.316 83.5176V88H744.623V81.6602H746.211ZM759.875 86.5879H763.607V88H758.117V79.4688H759.875V86.5879ZM767.428 88.1172C766.498 88.1172 765.74 87.832 765.154 87.2617C764.572 86.6914 764.281 85.9316 764.281 84.9824V84.8184C764.281 84.1816 764.404 83.6133 764.65 83.1133C764.896 82.6094 765.244 82.2227 765.693 81.9531C766.146 81.6797 766.662 81.543 767.24 81.543C768.107 81.543 768.789 81.8164 769.285 82.3633C769.785 82.9102 770.035 83.6855 770.035 84.6895V85.3809H765.998C766.053 85.7949 766.217 86.127 766.49 86.377C766.768 86.627 767.117 86.752 767.539 86.752C768.191 86.752 768.701 86.5156 769.068 86.043L769.9 86.9746C769.646 87.334 769.303 87.6152 768.869 87.8184C768.436 88.0176 767.955 88.1172 767.428 88.1172ZM767.234 82.9141C766.898 82.9141 766.625 83.0273 766.414 83.2539C766.207 83.4805 766.074 83.8047 766.016 84.2266H768.371V84.0918C768.363 83.7168 768.262 83.4277 768.066 83.2246C767.871 83.0176 767.594 82.9141 767.234 82.9141ZM774.676 88C774.598 87.8477 774.541 87.6582 774.506 87.4316C774.096 87.8887 773.562 88.1172 772.906 88.1172C772.285 88.1172 771.77 87.9375 771.359 87.5781C770.953 87.2188 770.75 86.7656 770.75 86.2188C770.75 85.5469 770.998 85.0312 771.494 84.6719C771.994 84.3125 772.715 84.1309 773.656 84.127H774.436V83.7637C774.436 83.4707 774.359 83.2363 774.207 83.0605C774.059 82.8848 773.822 82.7969 773.498 82.7969C773.213 82.7969 772.988 82.8652 772.824 83.002C772.664 83.1387 772.584 83.3262 772.584 83.5645H770.891C770.891 83.1973 771.004 82.8574 771.23 82.5449C771.457 82.2324 771.777 81.9883 772.191 81.8125C772.605 81.6328 773.07 81.543 773.586 81.543C774.367 81.543 774.986 81.7402 775.443 82.1348C775.904 82.5254 776.135 83.0762 776.135 83.7871V86.5352C776.139 87.1367 776.223 87.5918 776.387 87.9004V88H774.676ZM773.275 86.8223C773.525 86.8223 773.756 86.7676 773.967 86.6582C774.178 86.5449 774.334 86.3945 774.436 86.207V85.1172H773.803C772.955 85.1172 772.504 85.4102 772.449 85.9961L772.443 86.0957C772.443 86.3066 772.518 86.4805 772.666 86.6172C772.814 86.7539 773.018 86.8223 773.275 86.8223ZM777.172 84.7832C777.172 83.7949 777.393 83.0078 777.834 82.4219C778.279 81.8359 778.887 81.543 779.656 81.543C780.273 81.543 780.783 81.7734 781.186 82.2344V79H782.885V88H781.355L781.273 87.3262C780.852 87.8535 780.309 88.1172 779.645 88.1172C778.898 88.1172 778.299 87.8242 777.846 87.2383C777.396 86.6484 777.172 85.8301 777.172 84.7832ZM778.865 84.9062C778.865 85.5 778.969 85.9551 779.176 86.2715C779.383 86.5879 779.684 86.7461 780.078 86.7461C780.602 86.7461 780.971 86.5254 781.186 86.084V83.582C780.975 83.1406 780.609 82.9199 780.09 82.9199C779.273 82.9199 778.865 83.582 778.865 84.9062Z" fill="black"/>
<path d="M917.061 82.1582C916.994 83.0762 916.654 83.7988 916.041 84.3262C915.432 84.8535 914.627 85.1172 913.627 85.1172C912.533 85.1172 911.672 84.75 911.043 84.0156C910.418 83.2773 910.105 82.2656 910.105 80.9805V80.459C910.105 79.6387 910.25 78.916 910.539 78.291C910.828 77.666 911.24 77.1875 911.775 76.8555C912.314 76.5195 912.939 76.3516 913.65 76.3516C914.635 76.3516 915.428 76.6152 916.029 77.1426C916.631 77.6699 916.979 78.4102 917.072 79.3633H915.314C915.271 78.8125 915.117 78.4141 914.852 78.168C914.59 77.918 914.189 77.793 913.65 77.793C913.064 77.793 912.625 78.0039 912.332 78.4258C912.043 78.8438 911.895 79.4941 911.887 80.377V81.0215C911.887 81.9434 912.025 82.6172 912.303 83.043C912.584 83.4688 913.025 83.6816 913.627 83.6816C914.17 83.6816 914.574 83.5586 914.84 83.3125C915.109 83.0625 915.264 82.6777 915.303 82.1582H917.061ZM919.891 85H918.191V76H919.891V85ZM921.027 81.7715C921.027 81.1426 921.148 80.582 921.391 80.0898C921.633 79.5977 921.98 79.2168 922.434 78.9473C922.891 78.6777 923.42 78.543 924.021 78.543C924.877 78.543 925.574 78.8047 926.113 79.3281C926.656 79.8516 926.959 80.5625 927.021 81.4609L927.033 81.8945C927.033 82.8672 926.762 83.6484 926.219 84.2383C925.676 84.8242 924.947 85.1172 924.033 85.1172C923.119 85.1172 922.389 84.8242 921.842 84.2383C921.299 83.6523 921.027 82.8555 921.027 81.8477V81.7715ZM922.721 81.8945C922.721 82.4961 922.834 82.957 923.061 83.2773C923.287 83.5938 923.611 83.752 924.033 83.752C924.443 83.752 924.764 83.5957 924.994 83.2832C925.225 82.9668 925.34 82.4629 925.34 81.7715C925.34 81.1816 925.225 80.7246 924.994 80.4004C924.764 80.0762 924.439 79.9141 924.021 79.9141C923.607 79.9141 923.287 80.0762 923.061 80.4004C922.834 80.7207 922.721 81.2188 922.721 81.8945ZM931.873 84.3555C931.455 84.8633 930.877 85.1172 930.139 85.1172C929.459 85.1172 928.939 84.9219 928.58 84.5312C928.225 84.1406 928.043 83.5684 928.035 82.8145V78.6602H929.729V82.7559C929.729 83.416 930.029 83.7461 930.631 83.7461C931.205 83.7461 931.6 83.5469 931.814 83.1484V78.6602H933.514V85H931.92L931.873 84.3555ZM934.527 81.7832C934.527 80.7949 934.748 80.0078 935.189 79.4219C935.635 78.8359 936.242 78.543 937.012 78.543C937.629 78.543 938.139 78.7734 938.541 79.2344V76H940.24V85H938.711L938.629 84.3262C938.207 84.8535 937.664 85.1172 937 85.1172C936.254 85.1172 935.654 84.8242 935.201 84.2383C934.752 83.6484 934.527 82.8301 934.527 81.7832ZM936.221 81.9062C936.221 82.5 936.324 82.9551 936.531 83.2715C936.738 83.5879 937.039 83.7461 937.434 83.7461C937.957 83.7461 938.326 83.5254 938.541 83.084V80.582C938.33 80.1406 937.965 79.9199 937.445 79.9199C936.629 79.9199 936.221 80.582 936.221 81.9062ZM944.652 85V76.4688H947.277C948.027 76.4688 948.697 76.6387 949.287 76.9785C949.881 77.3145 950.344 77.7949 950.676 78.4199C951.008 79.041 951.174 79.748 951.174 80.541V80.9336C951.174 81.7266 951.01 82.4316 950.682 83.0488C950.357 83.666 949.898 84.1445 949.305 84.4844C948.711 84.8242 948.041 84.9961 947.295 85H944.652ZM946.41 77.8926V83.5879H947.26C947.947 83.5879 948.473 83.3633 948.836 82.9141C949.199 82.4648 949.385 81.8223 949.393 80.9863V80.5352C949.393 79.668 949.213 79.0117 948.854 78.5664C948.494 78.1172 947.969 77.8926 947.277 77.8926H946.41ZM955.264 85.1172C954.334 85.1172 953.576 84.832 952.99 84.2617C952.408 83.6914 952.117 82.9316 952.117 81.9824V81.8184C952.117 81.1816 952.24 80.6133 952.486 80.1133C952.732 79.6094 953.08 79.2227 953.529 78.9531C953.982 78.6797 954.498 78.543 955.076 78.543C955.943 78.543 956.625 78.8164 957.121 79.3633C957.621 79.9102 957.871 80.6855 957.871 81.6895V82.3809H953.834C953.889 82.7949 954.053 83.127 954.326 83.377C954.604 83.627 954.953 83.752 955.375 83.752C956.027 83.752 956.537 83.5156 956.904 83.043L957.736 83.9746C957.482 84.334 957.139 84.6152 956.705 84.8184C956.271 85.0176 955.791 85.1172 955.264 85.1172ZM955.07 79.9141C954.734 79.9141 954.461 80.0273 954.25 80.2539C954.043 80.4805 953.91 80.8047 953.852 81.2266H956.207V81.0918C956.199 80.7168 956.098 80.4277 955.902 80.2246C955.707 80.0176 955.43 79.9141 955.07 79.9141ZM961.129 82.9316L962.307 78.6602H964.076L961.938 85H960.32L958.182 78.6602H959.951L961.129 82.9316ZM971.945 80.9277C971.945 81.7676 971.797 82.5039 971.5 83.1367C971.203 83.7695 970.777 84.2578 970.223 84.6016C969.672 84.9453 969.039 85.1172 968.324 85.1172C967.617 85.1172 966.986 84.9473 966.432 84.6074C965.877 84.2676 965.447 83.7832 965.143 83.1543C964.838 82.5215 964.684 81.7949 964.68 80.9746V80.5527C964.68 79.7129 964.83 78.9746 965.131 78.3379C965.436 77.6973 965.863 77.207 966.414 76.8672C966.969 76.5234 967.602 76.3516 968.312 76.3516C969.023 76.3516 969.654 76.5234 970.205 76.8672C970.76 77.207 971.188 77.6973 971.488 78.3379C971.793 78.9746 971.945 79.7109 971.945 80.5469V80.9277ZM970.164 80.541C970.164 79.6465 970.004 78.9668 969.684 78.502C969.363 78.0371 968.906 77.8047 968.312 77.8047C967.723 77.8047 967.268 78.0352 966.947 78.4961C966.627 78.9531 966.465 79.625 966.461 80.5117V80.9277C966.461 81.7988 966.621 82.4746 966.941 82.9551C967.262 83.4355 967.723 83.6758 968.324 83.6758C968.914 83.6758 969.367 83.4453 969.684 82.9844C970 82.5195 970.16 81.8438 970.164 80.957V80.541ZM978.818 81.8887C978.818 82.8652 978.596 83.6484 978.15 84.2383C977.709 84.8242 977.111 85.1172 976.357 85.1172C975.717 85.1172 975.199 84.8945 974.805 84.4492V87.4375H973.111V78.6602H974.682L974.74 79.2812C975.15 78.7891 975.686 78.543 976.346 78.543C977.127 78.543 977.734 78.832 978.168 79.4102C978.602 79.9883 978.818 80.7852 978.818 81.8008V81.8887ZM977.125 81.7656C977.125 81.1758 977.02 80.7207 976.809 80.4004C976.602 80.0801 976.299 79.9199 975.9 79.9199C975.369 79.9199 975.004 80.123 974.805 80.5293V83.125C975.012 83.543 975.381 83.752 975.912 83.752C976.721 83.752 977.125 83.0898 977.125 81.7656ZM983.307 83.248C983.307 83.041 983.203 82.8789 982.996 82.7617C982.793 82.6406 982.465 82.5332 982.012 82.4395C980.504 82.123 979.75 81.4824 979.75 80.5176C979.75 79.9551 979.982 79.4863 980.447 79.1113C980.916 78.7324 981.527 78.543 982.281 78.543C983.086 78.543 983.729 78.7324 984.209 79.1113C984.693 79.4902 984.936 79.9824 984.936 80.5879H983.242C983.242 80.3457 983.164 80.1465 983.008 79.9902C982.852 79.8301 982.607 79.75 982.275 79.75C981.99 79.75 981.77 79.8145 981.613 79.9434C981.457 80.0723 981.379 80.2363 981.379 80.4355C981.379 80.623 981.467 80.7754 981.643 80.8926C981.822 81.0059 982.123 81.1055 982.545 81.1914C982.967 81.2734 983.322 81.3672 983.611 81.4727C984.506 81.8008 984.953 82.3691 984.953 83.1777C984.953 83.7559 984.705 84.2246 984.209 84.584C983.713 84.9395 983.072 85.1172 982.287 85.1172C981.756 85.1172 981.283 85.0234 980.869 84.8359C980.459 84.6445 980.137 84.3848 979.902 84.0566C979.668 83.7246 979.551 83.3672 979.551 82.9844H981.156C981.172 83.2852 981.283 83.5156 981.49 83.6758C981.697 83.8359 981.975 83.916 982.322 83.916C982.646 83.916 982.891 83.8555 983.055 83.7344C983.223 83.6094 983.307 83.4473 983.307 83.248ZM928.398 97.2422H925.316L924.73 99H922.861L926.037 90.4688H927.666L930.859 99H928.99L928.398 97.2422ZM925.791 95.8184H927.924L926.852 92.625L925.791 95.8184ZM935.107 94.248C934.877 94.2168 934.674 94.2012 934.498 94.2012C933.857 94.2012 933.438 94.418 933.238 94.8516V99H931.545V92.6602H933.145L933.191 93.416C933.531 92.834 934.002 92.543 934.604 92.543C934.791 92.543 934.967 92.5684 935.131 92.6191L935.107 94.248ZM938.447 97.752C938.76 97.752 939.014 97.666 939.209 97.4941C939.404 97.3223 939.506 97.0938 939.514 96.8086H941.102C941.098 97.2383 940.98 97.6328 940.75 97.9922C940.52 98.3477 940.203 98.625 939.801 98.8242C939.402 99.0195 938.961 99.1172 938.477 99.1172C937.57 99.1172 936.855 98.8301 936.332 98.2559C935.809 97.6777 935.547 96.8809 935.547 95.8652V95.7539C935.547 94.7773 935.807 93.998 936.326 93.416C936.846 92.834 937.559 92.543 938.465 92.543C939.258 92.543 939.893 92.7695 940.369 93.2227C940.85 93.6719 941.094 94.2715 941.102 95.0215H939.514C939.506 94.6934 939.404 94.4277 939.209 94.2246C939.014 94.0176 938.756 93.9141 938.436 93.9141C938.041 93.9141 937.742 94.0586 937.539 94.3477C937.34 94.6328 937.24 95.0977 937.24 95.7422V95.918C937.24 96.5703 937.34 97.0391 937.539 97.3242C937.738 97.6094 938.041 97.752 938.447 97.752ZM943.721 93.3516C944.17 92.8125 944.734 92.543 945.414 92.543C946.789 92.543 947.486 93.3418 947.506 94.9395V99H945.812V94.9863C945.812 94.623 945.734 94.3555 945.578 94.1836C945.422 94.0078 945.162 93.9199 944.799 93.9199C944.303 93.9199 943.943 94.1113 943.721 94.4941V99H942.027V90H943.721V93.3516ZM950.57 99H948.871V92.6602H950.57V99ZM948.771 91.0195C948.771 90.7656 948.855 90.5566 949.023 90.3926C949.195 90.2285 949.428 90.1465 949.721 90.1465C950.01 90.1465 950.24 90.2285 950.412 90.3926C950.584 90.5566 950.67 90.7656 950.67 91.0195C950.67 91.2773 950.582 91.4883 950.406 91.6523C950.234 91.8164 950.006 91.8984 949.721 91.8984C949.436 91.8984 949.205 91.8164 949.029 91.6523C948.857 91.4883 948.771 91.2773 948.771 91.0195ZM953.998 91.1016V92.6602H955.082V93.9023H953.998V97.0664C953.998 97.3008 954.043 97.4688 954.133 97.5703C954.223 97.6719 954.395 97.7227 954.648 97.7227C954.836 97.7227 955.002 97.709 955.146 97.6816V98.9648C954.814 99.0664 954.473 99.1172 954.121 99.1172C952.934 99.1172 952.328 98.5176 952.305 97.3184V93.9023H951.379V92.6602H952.305V91.1016H953.998ZM958.943 99.1172C958.014 99.1172 957.256 98.832 956.67 98.2617C956.088 97.6914 955.797 96.9316 955.797 95.9824V95.8184C955.797 95.1816 955.92 94.6133 956.166 94.1133C956.412 93.6094 956.76 93.2227 957.209 92.9531C957.662 92.6797 958.178 92.543 958.756 92.543C959.623 92.543 960.305 92.8164 960.801 93.3633C961.301 93.9102 961.551 94.6855 961.551 95.6895V96.3809H957.514C957.568 96.7949 957.732 97.127 958.006 97.377C958.283 97.627 958.633 97.752 959.055 97.752C959.707 97.752 960.217 97.5156 960.584 97.043L961.416 97.9746C961.162 98.334 960.818 98.6152 960.385 98.8184C959.951 99.0176 959.471 99.1172 958.943 99.1172ZM958.75 93.9141C958.414 93.9141 958.141 94.0273 957.93 94.2539C957.723 94.4805 957.59 94.8047 957.531 95.2266H959.887V95.0918C959.879 94.7168 959.777 94.4277 959.582 94.2246C959.387 94.0176 959.109 93.9141 958.75 93.9141ZM965.154 97.752C965.467 97.752 965.721 97.666 965.916 97.4941C966.111 97.3223 966.213 97.0938 966.221 96.8086H967.809C967.805 97.2383 967.688 97.6328 967.457 97.9922C967.227 98.3477 966.91 98.625 966.508 98.8242C966.109 99.0195 965.668 99.1172 965.184 99.1172C964.277 99.1172 963.562 98.8301 963.039 98.2559C962.516 97.6777 962.254 96.8809 962.254 95.8652V95.7539C962.254 94.7773 962.514 93.998 963.033 93.416C963.553 92.834 964.266 92.543 965.172 92.543C965.965 92.543 966.6 92.7695 967.076 93.2227C967.557 93.6719 967.801 94.2715 967.809 95.0215H966.221C966.213 94.6934 966.111 94.4277 965.916 94.2246C965.721 94.0176 965.463 93.9141 965.143 93.9141C964.748 93.9141 964.449 94.0586 964.246 94.3477C964.047 94.6328 963.947 95.0977 963.947 95.7422V95.918C963.947 96.5703 964.047 97.0391 964.246 97.3242C964.445 97.6094 964.748 97.752 965.154 97.752ZM970.803 91.1016V92.6602H971.887V93.9023H970.803V97.0664C970.803 97.3008 970.848 97.4688 970.938 97.5703C971.027 97.6719 971.199 97.7227 971.453 97.7227C971.641 97.7227 971.807 97.709 971.951 97.6816V98.9648C971.619 99.0664 971.277 99.1172 970.926 99.1172C969.738 99.1172 969.133 98.5176 969.109 97.3184V93.9023H968.184V92.6602H969.109V91.1016H970.803Z" fill="black"/>
<path d="M1102.02 83.9941V87H1100.26V78.4688H1103.59C1104.23 78.4688 1104.79 78.5859 1105.28 78.8203C1105.77 79.0547 1106.14 79.3887 1106.4 79.8223C1106.67 80.252 1106.8 80.7422 1106.8 81.293C1106.8 82.1289 1106.51 82.7891 1105.94 83.2734C1105.37 83.7539 1104.57 83.9941 1103.56 83.9941H1102.02ZM1102.02 82.5703H1103.59C1104.06 82.5703 1104.41 82.4609 1104.65 82.2422C1104.9 82.0234 1105.02 81.7109 1105.02 81.3047C1105.02 80.8867 1104.9 80.5488 1104.65 80.291C1104.41 80.0332 1104.07 79.9004 1103.63 79.8926H1102.02V82.5703ZM1111.46 82.248C1111.23 82.2168 1111.03 82.2012 1110.85 82.2012C1110.21 82.2012 1109.79 82.418 1109.59 82.8516V87H1107.9V80.6602H1109.5L1109.54 81.416C1109.88 80.834 1110.36 80.543 1110.96 80.543C1111.14 80.543 1111.32 80.5684 1111.48 80.6191L1111.46 82.248ZM1114.07 87H1112.37V80.6602H1114.07V87ZM1112.27 79.0195C1112.27 78.7656 1112.35 78.5566 1112.52 78.3926C1112.69 78.2285 1112.93 78.1465 1113.22 78.1465C1113.51 78.1465 1113.74 78.2285 1113.91 78.3926C1114.08 78.5566 1114.17 78.7656 1114.17 79.0195C1114.17 79.2773 1114.08 79.4883 1113.9 79.6523C1113.73 79.8164 1113.5 79.8984 1113.22 79.8984C1112.93 79.8984 1112.7 79.8164 1112.53 79.6523C1112.36 79.4883 1112.27 79.2773 1112.27 79.0195ZM1117.03 80.6602L1117.08 81.3926C1117.53 80.8262 1118.14 80.543 1118.9 80.543C1119.57 80.543 1120.07 80.7402 1120.4 81.1348C1120.73 81.5293 1120.9 82.1191 1120.91 82.9043V87H1119.21V82.9453C1119.21 82.5859 1119.13 82.3262 1118.98 82.166C1118.82 82.002 1118.56 81.9199 1118.2 81.9199C1117.72 81.9199 1117.37 82.123 1117.13 82.5293V87H1115.43V80.6602H1117.03ZM1124.83 85.752C1125.14 85.752 1125.4 85.666 1125.59 85.4941C1125.79 85.3223 1125.89 85.0938 1125.9 84.8086H1127.49C1127.48 85.2383 1127.37 85.6328 1127.13 85.9922C1126.9 86.3477 1126.59 86.625 1126.19 86.8242C1125.79 87.0195 1125.35 87.1172 1124.86 87.1172C1123.96 87.1172 1123.24 86.8301 1122.72 86.2559C1122.19 85.6777 1121.93 84.8809 1121.93 83.8652V83.7539C1121.93 82.7773 1122.19 81.998 1122.71 81.416C1123.23 80.834 1123.94 80.543 1124.85 80.543C1125.64 80.543 1126.28 80.7695 1126.75 81.2227C1127.23 81.6719 1127.48 82.2715 1127.49 83.0215H1125.9C1125.89 82.6934 1125.79 82.4277 1125.59 82.2246C1125.4 82.0176 1125.14 81.9141 1124.82 81.9141C1124.43 81.9141 1124.13 82.0586 1123.92 82.3477C1123.72 82.6328 1123.62 83.0977 1123.62 83.7422V83.918C1123.62 84.5703 1123.72 85.0391 1123.92 85.3242C1124.12 85.6094 1124.43 85.752 1124.83 85.752ZM1130.24 87H1128.54V80.6602H1130.24V87ZM1128.44 79.0195C1128.44 78.7656 1128.53 78.5566 1128.69 78.3926C1128.87 78.2285 1129.1 78.1465 1129.39 78.1465C1129.68 78.1465 1129.91 78.2285 1130.08 78.3926C1130.25 78.5566 1130.34 78.7656 1130.34 79.0195C1130.34 79.2773 1130.25 79.4883 1130.08 79.6523C1129.9 79.8164 1129.68 79.8984 1129.39 79.8984C1129.11 79.8984 1128.88 79.8164 1128.7 79.6523C1128.53 79.4883 1128.44 79.2773 1128.44 79.0195ZM1137.35 83.8887C1137.35 84.8652 1137.12 85.6484 1136.68 86.2383C1136.24 86.8242 1135.64 87.1172 1134.89 87.1172C1134.25 87.1172 1133.73 86.8945 1133.33 86.4492V89.4375H1131.64V80.6602H1133.21L1133.27 81.2812C1133.68 80.7891 1134.21 80.543 1134.88 80.543C1135.66 80.543 1136.26 80.832 1136.7 81.4102C1137.13 81.9883 1137.35 82.7852 1137.35 83.8008V83.8887ZM1135.65 83.7656C1135.65 83.1758 1135.55 82.7207 1135.34 82.4004C1135.13 82.0801 1134.83 81.9199 1134.43 81.9199C1133.9 81.9199 1133.53 82.123 1133.33 82.5293V85.125C1133.54 85.543 1133.91 85.752 1134.44 85.752C1135.25 85.752 1135.65 85.0898 1135.65 83.7656ZM1142.08 87C1142 86.8477 1141.94 86.6582 1141.91 86.4316C1141.5 86.8887 1140.96 87.1172 1140.31 87.1172C1139.69 87.1172 1139.17 86.9375 1138.76 86.5781C1138.35 86.2188 1138.15 85.7656 1138.15 85.2188C1138.15 84.5469 1138.4 84.0312 1138.89 83.6719C1139.39 83.3125 1140.12 83.1309 1141.06 83.127H1141.84V82.7637C1141.84 82.4707 1141.76 82.2363 1141.61 82.0605C1141.46 81.8848 1141.22 81.7969 1140.9 81.7969C1140.61 81.7969 1140.39 81.8652 1140.22 82.002C1140.06 82.1387 1139.98 82.3262 1139.98 82.5645H1138.29C1138.29 82.1973 1138.4 81.8574 1138.63 81.5449C1138.86 81.2324 1139.18 80.9883 1139.59 80.8125C1140.01 80.6328 1140.47 80.543 1140.99 80.543C1141.77 80.543 1142.39 80.7402 1142.84 81.1348C1143.3 81.5254 1143.54 82.0762 1143.54 82.7871V85.5352C1143.54 86.1367 1143.62 86.5918 1143.79 86.9004V87H1142.08ZM1140.68 85.8223C1140.93 85.8223 1141.16 85.7676 1141.37 85.6582C1141.58 85.5449 1141.73 85.3945 1141.84 85.207V84.1172H1141.2C1140.36 84.1172 1139.9 84.4102 1139.85 84.9961L1139.84 85.0957C1139.84 85.3066 1139.92 85.4805 1140.07 85.6172C1140.21 85.7539 1140.42 85.8223 1140.68 85.8223ZM1146.62 87H1144.92V78H1146.62V87ZM1155.94 85.2422H1152.86L1152.27 87H1150.4L1153.58 78.4688H1155.21L1158.4 87H1156.53L1155.94 85.2422ZM1153.33 83.8184H1155.46L1154.39 80.625L1153.33 83.8184ZM1164.51 83.8887C1164.51 84.8652 1164.29 85.6484 1163.84 86.2383C1163.4 86.8242 1162.8 87.1172 1162.05 87.1172C1161.41 87.1172 1160.89 86.8945 1160.5 86.4492V89.4375H1158.8V80.6602H1160.38L1160.43 81.2812C1160.84 80.7891 1161.38 80.543 1162.04 80.543C1162.82 80.543 1163.43 80.832 1163.86 81.4102C1164.29 81.9883 1164.51 82.7852 1164.51 83.8008V83.8887ZM1162.82 83.7656C1162.82 83.1758 1162.71 82.7207 1162.5 82.4004C1162.29 82.0801 1161.99 81.9199 1161.59 81.9199C1161.06 81.9199 1160.7 82.123 1160.5 82.5293V85.125C1160.71 85.543 1161.07 85.752 1161.61 85.752C1162.41 85.752 1162.82 85.0898 1162.82 83.7656ZM1171.27 83.8887C1171.27 84.8652 1171.05 85.6484 1170.61 86.2383C1170.16 86.8242 1169.57 87.1172 1168.81 87.1172C1168.17 87.1172 1167.65 86.8945 1167.26 86.4492V89.4375H1165.57V80.6602H1167.14L1167.2 81.2812C1167.61 80.7891 1168.14 80.543 1168.8 80.543C1169.58 80.543 1170.19 80.832 1170.62 81.4102C1171.06 81.9883 1171.27 82.7852 1171.27 83.8008V83.8887ZM1169.58 83.7656C1169.58 83.1758 1169.47 82.7207 1169.26 82.4004C1169.06 82.0801 1168.75 81.9199 1168.36 81.9199C1167.82 81.9199 1167.46 82.123 1167.26 82.5293V85.125C1167.47 85.543 1167.84 85.752 1168.37 85.752C1169.18 85.752 1169.58 85.0898 1169.58 83.7656ZM1174.12 87H1172.42V78H1174.12V87ZM1177.3 87H1175.6V80.6602H1177.3V87ZM1175.5 79.0195C1175.5 78.7656 1175.59 78.5566 1175.76 78.3926C1175.93 78.2285 1176.16 78.1465 1176.45 78.1465C1176.74 78.1465 1176.97 78.2285 1177.14 78.3926C1177.32 78.5566 1177.4 78.7656 1177.4 79.0195C1177.4 79.2773 1177.31 79.4883 1177.14 79.6523C1176.97 79.8164 1176.74 79.8984 1176.45 79.8984C1176.17 79.8984 1175.94 79.8164 1175.76 79.6523C1175.59 79.4883 1175.5 79.2773 1175.5 79.0195ZM1181.34 85.752C1181.65 85.752 1181.91 85.666 1182.1 85.4941C1182.3 85.3223 1182.4 85.0938 1182.41 84.8086H1183.99C1183.99 85.2383 1183.87 85.6328 1183.64 85.9922C1183.41 86.3477 1183.1 86.625 1182.69 86.8242C1182.29 87.0195 1181.85 87.1172 1181.37 87.1172C1180.46 87.1172 1179.75 86.8301 1179.22 86.2559C1178.7 85.6777 1178.44 84.8809 1178.44 83.8652V83.7539C1178.44 82.7773 1178.7 81.998 1179.22 81.416C1179.74 80.834 1180.45 80.543 1181.36 80.543C1182.15 80.543 1182.79 80.7695 1183.26 81.2227C1183.74 81.6719 1183.99 82.2715 1183.99 83.0215H1182.41C1182.4 82.6934 1182.3 82.4277 1182.1 82.2246C1181.91 82.0176 1181.65 81.9141 1181.33 81.9141C1180.93 81.9141 1180.63 82.0586 1180.43 82.3477C1180.23 82.6328 1180.13 83.0977 1180.13 83.7422V83.918C1180.13 84.5703 1180.23 85.0391 1180.43 85.3242C1180.63 85.6094 1180.93 85.752 1181.34 85.752ZM1188.63 87C1188.56 86.8477 1188.5 86.6582 1188.46 86.4316C1188.05 86.8887 1187.52 87.1172 1186.87 87.1172C1186.24 87.1172 1185.73 86.9375 1185.32 86.5781C1184.91 86.2188 1184.71 85.7656 1184.71 85.2188C1184.71 84.5469 1184.96 84.0312 1185.45 83.6719C1185.95 83.3125 1186.67 83.1309 1187.62 83.127H1188.39V82.7637C1188.39 82.4707 1188.32 82.2363 1188.17 82.0605C1188.02 81.8848 1187.78 81.7969 1187.46 81.7969C1187.17 81.7969 1186.95 81.8652 1186.78 82.002C1186.62 82.1387 1186.54 82.3262 1186.54 82.5645H1184.85C1184.85 82.1973 1184.96 81.8574 1185.19 81.5449C1185.42 81.2324 1185.74 80.9883 1186.15 80.8125C1186.56 80.6328 1187.03 80.543 1187.54 80.543C1188.33 80.543 1188.95 80.7402 1189.4 81.1348C1189.86 81.5254 1190.09 82.0762 1190.09 82.7871V85.5352C1190.1 86.1367 1190.18 86.5918 1190.35 86.9004V87H1188.63ZM1187.23 85.8223C1187.48 85.8223 1187.71 85.7676 1187.93 85.6582C1188.14 85.5449 1188.29 85.3945 1188.39 85.207V84.1172H1187.76C1186.91 84.1172 1186.46 84.4102 1186.41 84.9961L1186.4 85.0957C1186.4 85.3066 1186.48 85.4805 1186.62 85.6172C1186.77 85.7539 1186.98 85.8223 1187.23 85.8223ZM1193.42 79.1016V80.6602H1194.51V81.9023H1193.42V85.0664C1193.42 85.3008 1193.47 85.4688 1193.56 85.5703C1193.65 85.6719 1193.82 85.7227 1194.07 85.7227C1194.26 85.7227 1194.43 85.709 1194.57 85.6816V86.9648C1194.24 87.0664 1193.9 87.1172 1193.54 87.1172C1192.36 87.1172 1191.75 86.5176 1191.73 85.3184V81.9023H1190.8V80.6602H1191.73V79.1016H1193.42ZM1197.24 87H1195.54V80.6602H1197.24V87ZM1195.44 79.0195C1195.44 78.7656 1195.52 78.5566 1195.69 78.3926C1195.86 78.2285 1196.09 78.1465 1196.39 78.1465C1196.68 78.1465 1196.91 78.2285 1197.08 78.3926C1197.25 78.5566 1197.34 78.7656 1197.34 79.0195C1197.34 79.2773 1197.25 79.4883 1197.07 79.6523C1196.9 79.8164 1196.67 79.8984 1196.39 79.8984C1196.1 79.8984 1195.87 79.8164 1195.7 79.6523C1195.52 79.4883 1195.44 79.2773 1195.44 79.0195ZM1198.37 83.7715C1198.37 83.1426 1198.49 82.582 1198.74 82.0898C1198.98 81.5977 1199.33 81.2168 1199.78 80.9473C1200.24 80.6777 1200.77 80.543 1201.37 80.543C1202.22 80.543 1202.92 80.8047 1203.46 81.3281C1204 81.8516 1204.3 82.5625 1204.37 83.4609L1204.38 83.8945C1204.38 84.8672 1204.11 85.6484 1203.56 86.2383C1203.02 86.8242 1202.29 87.1172 1201.38 87.1172C1200.46 87.1172 1199.73 86.8242 1199.19 86.2383C1198.64 85.6523 1198.37 84.8555 1198.37 83.8477V83.7715ZM1200.07 83.8945C1200.07 84.4961 1200.18 84.957 1200.41 85.2773C1200.63 85.5938 1200.96 85.752 1201.38 85.752C1201.79 85.752 1202.11 85.5957 1202.34 85.2832C1202.57 84.9668 1202.69 84.4629 1202.69 83.7715C1202.69 83.1816 1202.57 82.7246 1202.34 82.4004C1202.11 82.0762 1201.79 81.9141 1201.37 81.9141C1200.95 81.9141 1200.63 82.0762 1200.41 82.4004C1200.18 82.7207 1200.07 83.2188 1200.07 83.8945ZM1206.98 80.6602L1207.03 81.3926C1207.49 80.8262 1208.09 80.543 1208.86 80.543C1209.53 80.543 1210.03 80.7402 1210.36 81.1348C1210.68 81.5293 1210.85 82.1191 1210.86 82.9043V87H1209.17V82.9453C1209.17 82.5859 1209.09 82.3262 1208.93 82.166C1208.78 82.002 1208.52 81.9199 1208.15 81.9199C1207.68 81.9199 1207.32 82.123 1207.08 82.5293V87H1205.39V80.6602H1206.98ZM1136.4 99.2422H1133.32L1132.73 101H1130.86L1134.04 92.4688H1135.67L1138.86 101H1136.99L1136.4 99.2422ZM1133.79 97.8184H1135.92L1134.85 94.625L1133.79 97.8184ZM1143.11 96.248C1142.88 96.2168 1142.67 96.2012 1142.5 96.2012C1141.86 96.2012 1141.44 96.418 1141.24 96.8516V101H1139.54V94.6602H1141.14L1141.19 95.416C1141.53 94.834 1142 94.543 1142.6 94.543C1142.79 94.543 1142.97 94.5684 1143.13 94.6191L1143.11 96.248ZM1146.45 99.752C1146.76 99.752 1147.01 99.666 1147.21 99.4941C1147.4 99.3223 1147.51 99.0938 1147.51 98.8086H1149.1C1149.1 99.2383 1148.98 99.6328 1148.75 99.9922C1148.52 100.348 1148.2 100.625 1147.8 100.824C1147.4 101.02 1146.96 101.117 1146.48 101.117C1145.57 101.117 1144.86 100.83 1144.33 100.256C1143.81 99.6777 1143.55 98.8809 1143.55 97.8652V97.7539C1143.55 96.7773 1143.81 95.998 1144.33 95.416C1144.85 94.834 1145.56 94.543 1146.46 94.543C1147.26 94.543 1147.89 94.7695 1148.37 95.2227C1148.85 95.6719 1149.09 96.2715 1149.1 97.0215H1147.51C1147.51 96.6934 1147.4 96.4277 1147.21 96.2246C1147.01 96.0176 1146.76 95.9141 1146.44 95.9141C1146.04 95.9141 1145.74 96.0586 1145.54 96.3477C1145.34 96.6328 1145.24 97.0977 1145.24 97.7422V97.918C1145.24 98.5703 1145.34 99.0391 1145.54 99.3242C1145.74 99.6094 1146.04 99.752 1146.45 99.752ZM1151.72 95.3516C1152.17 94.8125 1152.73 94.543 1153.41 94.543C1154.79 94.543 1155.49 95.3418 1155.51 96.9395V101H1153.81V96.9863C1153.81 96.623 1153.73 96.3555 1153.58 96.1836C1153.42 96.0078 1153.16 95.9199 1152.8 95.9199C1152.3 95.9199 1151.94 96.1113 1151.72 96.4941V101H1150.03V92H1151.72V95.3516ZM1158.57 101H1156.87V94.6602H1158.57V101ZM1156.77 93.0195C1156.77 92.7656 1156.86 92.5566 1157.02 92.3926C1157.2 92.2285 1157.43 92.1465 1157.72 92.1465C1158.01 92.1465 1158.24 92.2285 1158.41 92.3926C1158.58 92.5566 1158.67 92.7656 1158.67 93.0195C1158.67 93.2773 1158.58 93.4883 1158.41 93.6523C1158.23 93.8164 1158.01 93.8984 1157.72 93.8984C1157.44 93.8984 1157.21 93.8164 1157.03 93.6523C1156.86 93.4883 1156.77 93.2773 1156.77 93.0195ZM1162 93.1016V94.6602H1163.08V95.9023H1162V99.0664C1162 99.3008 1162.04 99.4688 1162.13 99.5703C1162.22 99.6719 1162.39 99.7227 1162.65 99.7227C1162.84 99.7227 1163 99.709 1163.15 99.6816V100.965C1162.81 101.066 1162.47 101.117 1162.12 101.117C1160.93 101.117 1160.33 100.518 1160.3 99.3184V95.9023H1159.38V94.6602H1160.3V93.1016H1162ZM1166.94 101.117C1166.01 101.117 1165.26 100.832 1164.67 100.262C1164.09 99.6914 1163.8 98.9316 1163.8 97.9824V97.8184C1163.8 97.1816 1163.92 96.6133 1164.17 96.1133C1164.41 95.6094 1164.76 95.2227 1165.21 94.9531C1165.66 94.6797 1166.18 94.543 1166.76 94.543C1167.62 94.543 1168.3 94.8164 1168.8 95.3633C1169.3 95.9102 1169.55 96.6855 1169.55 97.6895V98.3809H1165.51C1165.57 98.7949 1165.73 99.127 1166.01 99.377C1166.28 99.627 1166.63 99.752 1167.05 99.752C1167.71 99.752 1168.22 99.5156 1168.58 99.043L1169.42 99.9746C1169.16 100.334 1168.82 100.615 1168.38 100.818C1167.95 101.018 1167.47 101.117 1166.94 101.117ZM1166.75 95.9141C1166.41 95.9141 1166.14 96.0273 1165.93 96.2539C1165.72 96.4805 1165.59 96.8047 1165.53 97.2266H1167.89V97.0918C1167.88 96.7168 1167.78 96.4277 1167.58 96.2246C1167.39 96.0176 1167.11 95.9141 1166.75 95.9141ZM1173.15 99.752C1173.47 99.752 1173.72 99.666 1173.92 99.4941C1174.11 99.3223 1174.21 99.0938 1174.22 98.8086H1175.81C1175.8 99.2383 1175.69 99.6328 1175.46 99.9922C1175.23 100.348 1174.91 100.625 1174.51 100.824C1174.11 101.02 1173.67 101.117 1173.18 101.117C1172.28 101.117 1171.56 100.83 1171.04 100.256C1170.52 99.6777 1170.25 98.8809 1170.25 97.8652V97.7539C1170.25 96.7773 1170.51 95.998 1171.03 95.416C1171.55 94.834 1172.27 94.543 1173.17 94.543C1173.96 94.543 1174.6 94.7695 1175.08 95.2227C1175.56 95.6719 1175.8 96.2715 1175.81 97.0215H1174.22C1174.21 96.6934 1174.11 96.4277 1173.92 96.2246C1173.72 96.0176 1173.46 95.9141 1173.14 95.9141C1172.75 95.9141 1172.45 96.0586 1172.25 96.3477C1172.05 96.6328 1171.95 97.0977 1171.95 97.7422V97.918C1171.95 98.5703 1172.05 99.0391 1172.25 99.3242C1172.45 99.6094 1172.75 99.752 1173.15 99.752ZM1178.8 93.1016V94.6602H1179.89V95.9023H1178.8V99.0664C1178.8 99.3008 1178.85 99.4688 1178.94 99.5703C1179.03 99.6719 1179.2 99.7227 1179.45 99.7227C1179.64 99.7227 1179.81 99.709 1179.95 99.6816V100.965C1179.62 101.066 1179.28 101.117 1178.93 101.117C1177.74 101.117 1177.13 100.518 1177.11 99.3184V95.9023H1176.18V94.6602H1177.11V93.1016H1178.8Z" fill="black"/>
<defs>
<filter id="filter0_d" x="74" y="49" width="152" height="85" filterUnits="userSpaceOnUse" color-interpolation-filters="sRGB">
<feFlood flood-opacity="0" result="BackgroundImageFix"/>
<feColorMatrix in="SourceAlpha" type="matrix" values="0 0 0 0 0 0 0 0 0 0 0 0 0 0 0 0 0 0 127 0"/>
<feOffset dy="4"/>
<feGaussianBlur stdDeviation="2"/>
<feColorMatrix type="matrix" values="0 0 0 0 0 0 0 0 0 0 0 0 0 0 0 0 0 0 0.25 0"/>
<feBlend mode="normal" in2="BackgroundImageFix" result="effect1_dropShadow"/>
<feBlend mode="normal" in="SourceGraphic" in2="effect1_dropShadow" result="shape"/>
</filter>
<filter id="filter1_d" x="276" y="49" width="152" height="84" filterUnits="userSpaceOnUse" color-interpolation-filters="sRGB">
<feFlood flood-opacity="0" result="BackgroundImageFix"/>
<feColorMatrix in="SourceAlpha" type="matrix" values="0 0 0 0 0 0 0 0 0 0 0 0 0 0 0 0 0 0 127 0"/>
<feOffset dy="4"/>
<feGaussianBlur stdDeviation="2"/>
<feColorMatrix type="matrix" values="0 0 0 0 0 0 0 0 0 0 0 0 0 0 0 0 0 0 0.25 0"/>
<feBlend mode="normal" in2="BackgroundImageFix" result="effect1_dropShadow"/>
<feBlend mode="normal" in="SourceGraphic" in2="effect1_dropShadow" result="shape"/>
</filter>
<filter id="filter2_d" x="662" y="49" width="152" height="84" filterUnits="userSpaceOnUse" color-interpolation-filters="sRGB">
<feFlood flood-opacity="0" result="BackgroundImageFix"/>
<feColorMatrix in="SourceAlpha" type="matrix" values="0 0 0 0 0 0 0 0 0 0 0 0 0 0 0 0 0 0 127 0"/>
<feOffset dy="4"/>
<feGaussianBlur stdDeviation="2"/>
<feColorMatrix type="matrix" values="0 0 0 0 0 0 0 0 0 0 0 0 0 0 0 0 0 0 0.25 0"/>
<feBlend mode="normal" in2="BackgroundImageFix" result="effect1_dropShadow"/>
<feBlend mode="normal" in="SourceGraphic" in2="effect1_dropShadow" result="shape"/>
</filter>
<filter id="filter3_d" x="864" y="49" width="152" height="84" filterUnits="userSpaceOnUse" color-interpolation-filters="sRGB">
<feFlood flood-opacity="0" result="BackgroundImageFix"/>
<feColorMatrix in="SourceAlpha" type="matrix" values="0 0 0 0 0 0 0 0 0 0 0 0 0 0 0 0 0 0 127 0"/>
<feOffset dy="4"/>
<feGaussianBlur stdDeviation="2"/>
<feColorMatrix type="matrix" values="0 0 0 0 0 0 0 0 0 0 0 0 0 0 0 0 0 0 0.25 0"/>
<feBlend mode="normal" in2="BackgroundImageFix" result="effect1_dropShadow"/>
<feBlend mode="normal" in="SourceGraphic" in2="effect1_dropShadow" result="shape"/>
</filter>
<filter id="filter4_d" x="1075" y="52" width="152" height="84" filterUnits="userSpaceOnUse" color-interpolation-filters="sRGB">
<feFlood flood-opacity="0" result="BackgroundImageFix"/>
<feColorMatrix in="SourceAlpha" type="matrix" values="0 0 0 0 0 0 0 0 0 0 0 0 0 0 0 0 0 0 127 0"/>
<feOffset dy="4"/>
<feGaussianBlur stdDeviation="2"/>
<feColorMatrix type="matrix" values="0 0 0 0 0 0 0 0 0 0 0 0 0 0 0 0 0 0 0.25 0"/>
<feBlend mode="normal" in2="BackgroundImageFix" result="effect1_dropShadow"/>
<feBlend mode="normal" in="SourceGraphic" in2="effect1_dropShadow" result="shape"/>
</filter>
<filter id="filter5_d" x="460" y="48" width="152" height="84" filterUnits="userSpaceOnUse" color-interpolation-filters="sRGB">
<feFlood flood-opacity="0" result="BackgroundImageFix"/>
<feColorMatrix in="SourceAlpha" type="matrix" values="0 0 0 0 0 0 0 0 0 0 0 0 0 0 0 0 0 0 127 0"/>
<feOffset dy="4"/>
<feGaussianBlur stdDeviation="2"/>
<feColorMatrix type="matrix" values="0 0 0 0 0 0 0 0 0 0 0 0 0 0 0 0 0 0 0.25 0"/>
<feBlend mode="normal" in2="BackgroundImageFix" result="effect1_dropShadow"/>
<feBlend mode="normal" in="SourceGraphic" in2="effect1_dropShadow" result="shape"/>
</filter>
</defs>
</svg>
