<svg width="912" height="172" viewBox="0 0 912 172" fill="none" xmlns="http://www.w3.org/2000/svg">
<rect width="912" height="172" fill="white"/>
<rect x="218" y="96" width="22" height="486.975" transform="rotate(-90 218 96)" fill="#3742FA"/>
<path d="M706.061 87.1566C706.646 86.5709 706.646 85.6211 706.061 85.0353L696.515 75.4894C695.929 74.9036 694.979 74.9036 694.393 75.4894C693.808 76.0752 693.808 77.0249 694.393 77.6107L702.879 86.096L694.393 94.5813C693.808 95.167 693.808 96.1168 694.393 96.7026C694.979 97.2884 695.929 97.2884 696.515 96.7026L706.061 87.1566ZM223.482 87.596L705 87.596V84.596L223.482 84.596V87.596Z" fill="white"/>
<g filter="url(#filter0_d)">
<rect x="74" y="47" width="144" height="77" fill="white"/>
<rect x="74.5" y="47.5" width="143" height="76" stroke="#333333"/>
</g>
<g filter="url(#filter1_d)">
<rect x="283" y="49" width="144" height="76" fill="white"/>
<rect x="283.5" y="49.5" width="143" height="75" stroke="#333333"/>
</g>
<g filter="url(#filter2_d)">
<rect x="705" y="47" width="144" height="76" fill="white"/>
<rect x="705.5" y="47.5" width="143" height="75" stroke="#333333"/>
</g>
<g filter="url(#filter3_d)">
<rect x="496" y="47" width="144" height="76" fill="white"/>
<rect x="496.5" y="47.5" width="143" height="75" stroke="#333333"/>
</g>
<path d="M111.406 83.5391L112.555 77.4688H114.307L112.414 86H110.645L109.256 80.293L107.867 86H106.098L104.205 77.4688H105.957L107.111 83.5273L108.518 77.4688H110.006L111.406 83.5391ZM117.881 86.1172C116.951 86.1172 116.193 85.832 115.607 85.2617C115.025 84.6914 114.734 83.9316 114.734 82.9824V82.8184C114.734 82.1816 114.857 81.6133 115.104 81.1133C115.35 80.6094 115.697 80.2227 116.147 79.9531C116.6 79.6797 117.115 79.543 117.693 79.543C118.561 79.543 119.242 79.8164 119.738 80.3633C120.238 80.9102 120.488 81.6855 120.488 82.6895V83.3809H116.451C116.506 83.7949 116.67 84.127 116.943 84.377C117.221 84.627 117.57 84.752 117.992 84.752C118.645 84.752 119.154 84.5156 119.522 84.043L120.354 84.9746C120.1 85.334 119.756 85.6152 119.322 85.8184C118.889 86.0176 118.408 86.1172 117.881 86.1172ZM117.688 80.9141C117.352 80.9141 117.078 81.0273 116.867 81.2539C116.66 81.4805 116.527 81.8047 116.469 82.2266H118.824V82.0918C118.816 81.7168 118.715 81.4277 118.52 81.2246C118.324 81.0176 118.047 80.9141 117.688 80.9141ZM127.168 82.8887C127.168 83.9043 126.951 84.6973 126.518 85.2676C126.084 85.834 125.479 86.1172 124.701 86.1172C124.014 86.1172 123.465 85.8535 123.055 85.3262L122.979 86H121.455V77H123.148V80.2285C123.539 79.7715 124.053 79.543 124.689 79.543C125.463 79.543 126.068 79.8281 126.506 80.3984C126.947 80.9648 127.168 81.7637 127.168 82.7949V82.8887ZM125.475 82.7656C125.475 82.125 125.373 81.6582 125.17 81.3652C124.967 81.0684 124.664 80.9199 124.262 80.9199C123.723 80.9199 123.352 81.1406 123.148 81.582V84.084C123.355 84.5293 123.73 84.752 124.273 84.752C124.82 84.752 125.18 84.4824 125.352 83.9434C125.434 83.6855 125.475 83.293 125.475 82.7656ZM131.316 86V77.4688H133.941C134.691 77.4688 135.361 77.6387 135.951 77.9785C136.545 78.3145 137.008 78.7949 137.34 79.4199C137.672 80.041 137.838 80.748 137.838 81.541V81.9336C137.838 82.7266 137.674 83.4316 137.346 84.0488C137.022 84.666 136.563 85.1445 135.969 85.4844C135.375 85.8242 134.705 85.9961 133.959 86H131.316ZM133.074 78.8926V84.5879H133.924C134.611 84.5879 135.137 84.3633 135.5 83.9141C135.863 83.4648 136.049 82.8223 136.057 81.9863V81.5352C136.057 80.668 135.877 80.0117 135.518 79.5664C135.158 79.1172 134.633 78.8926 133.941 78.8926H133.074ZM141.928 86.1172C140.998 86.1172 140.24 85.832 139.654 85.2617C139.072 84.6914 138.781 83.9316 138.781 82.9824V82.8184C138.781 82.1816 138.904 81.6133 139.15 81.1133C139.397 80.6094 139.744 80.2227 140.193 79.9531C140.647 79.6797 141.162 79.543 141.74 79.543C142.607 79.543 143.289 79.8164 143.785 80.3633C144.285 80.9102 144.535 81.6855 144.535 82.6895V83.3809H140.498C140.553 83.7949 140.717 84.127 140.99 84.377C141.268 84.627 141.617 84.752 142.039 84.752C142.691 84.752 143.201 84.5156 143.568 84.043L144.4 84.9746C144.147 85.334 143.803 85.6152 143.369 85.8184C142.936 86.0176 142.455 86.1172 141.928 86.1172ZM141.734 80.9141C141.398 80.9141 141.125 81.0273 140.914 81.2539C140.707 81.4805 140.574 81.8047 140.516 82.2266H142.871V82.0918C142.863 81.7168 142.762 81.4277 142.566 81.2246C142.371 81.0176 142.094 80.9141 141.734 80.9141ZM148.936 84.248C148.936 84.041 148.832 83.8789 148.625 83.7617C148.422 83.6406 148.094 83.5332 147.641 83.4395C146.133 83.123 145.379 82.4824 145.379 81.5176C145.379 80.9551 145.611 80.4863 146.076 80.1113C146.545 79.7324 147.156 79.543 147.91 79.543C148.715 79.543 149.357 79.7324 149.838 80.1113C150.322 80.4902 150.564 80.9824 150.564 81.5879H148.871C148.871 81.3457 148.793 81.1465 148.637 80.9902C148.48 80.8301 148.236 80.75 147.904 80.75C147.619 80.75 147.398 80.8145 147.242 80.9434C147.086 81.0723 147.008 81.2363 147.008 81.4355C147.008 81.623 147.096 81.7754 147.272 81.8926C147.451 82.0059 147.752 82.1055 148.174 82.1914C148.596 82.2734 148.951 82.3672 149.24 82.4727C150.135 82.8008 150.582 83.3691 150.582 84.1777C150.582 84.7559 150.334 85.2246 149.838 85.584C149.342 85.9395 148.701 86.1172 147.916 86.1172C147.385 86.1172 146.912 86.0234 146.498 85.8359C146.088 85.6445 145.766 85.3848 145.531 85.0566C145.297 84.7246 145.18 84.3672 145.18 83.9844H146.785C146.801 84.2852 146.912 84.5156 147.119 84.6758C147.326 84.8359 147.604 84.916 147.951 84.916C148.275 84.916 148.52 84.8555 148.684 84.7344C148.852 84.6094 148.936 84.4473 148.936 84.248ZM153.465 86H151.766V79.6602H153.465V86ZM151.666 78.0195C151.666 77.7656 151.75 77.5566 151.918 77.3926C152.09 77.2285 152.322 77.1465 152.615 77.1465C152.904 77.1465 153.135 77.2285 153.307 77.3926C153.479 77.5566 153.564 77.7656 153.564 78.0195C153.564 78.2773 153.477 78.4883 153.301 78.6523C153.129 78.8164 152.9 78.8984 152.615 78.8984C152.33 78.8984 152.1 78.8164 151.924 78.6523C151.752 78.4883 151.666 78.2773 151.666 78.0195ZM154.619 82.7832C154.619 81.8105 154.85 81.0273 155.311 80.4336C155.775 79.8398 156.4 79.543 157.186 79.543C157.881 79.543 158.422 79.7812 158.809 80.2578L158.879 79.6602H160.414V85.7891C160.414 86.3438 160.287 86.8262 160.033 87.2363C159.783 87.6465 159.43 87.959 158.973 88.1738C158.516 88.3887 157.98 88.4961 157.367 88.4961C156.902 88.4961 156.449 88.4023 156.008 88.2148C155.566 88.0312 155.232 87.793 155.006 87.5L155.756 86.4688C156.178 86.9414 156.689 87.1777 157.291 87.1777C157.74 87.1777 158.09 87.0566 158.34 86.8145C158.59 86.5762 158.715 86.2363 158.715 85.7949V85.4551C158.324 85.8965 157.811 86.1172 157.174 86.1172C156.412 86.1172 155.795 85.8203 155.322 85.2266C154.854 84.6289 154.619 83.8379 154.619 82.8535V82.7832ZM156.313 82.9062C156.313 83.4805 156.428 83.9316 156.658 84.2598C156.889 84.584 157.205 84.7461 157.607 84.7461C158.123 84.7461 158.492 84.5527 158.715 84.166V81.5C158.488 81.1133 158.123 80.9199 157.619 80.9199C157.213 80.9199 156.893 81.0859 156.658 81.418C156.428 81.75 156.313 82.2461 156.313 82.9062ZM163.279 79.6602L163.332 80.3926C163.785 79.8262 164.393 79.543 165.154 79.543C165.826 79.543 166.326 79.7402 166.654 80.1348C166.982 80.5293 167.15 81.1191 167.158 81.9043V86H165.465V81.9453C165.465 81.5859 165.387 81.3262 165.23 81.166C165.074 81.002 164.814 80.9199 164.451 80.9199C163.975 80.9199 163.617 81.123 163.379 81.5293V86H161.686V79.6602H163.279ZM171.365 86.1172C170.436 86.1172 169.678 85.832 169.092 85.2617C168.51 84.6914 168.219 83.9316 168.219 82.9824V82.8184C168.219 82.1816 168.342 81.6133 168.588 81.1133C168.834 80.6094 169.182 80.2227 169.631 79.9531C170.084 79.6797 170.6 79.543 171.178 79.543C172.045 79.543 172.727 79.8164 173.223 80.3633C173.723 80.9102 173.973 81.6855 173.973 82.6895V83.3809H169.936C169.99 83.7949 170.154 84.127 170.428 84.377C170.705 84.627 171.055 84.752 171.477 84.752C172.129 84.752 172.639 84.5156 173.006 84.043L173.838 84.9746C173.584 85.334 173.24 85.6152 172.807 85.8184C172.373 86.0176 171.893 86.1172 171.365 86.1172ZM171.172 80.9141C170.836 80.9141 170.563 81.0273 170.352 81.2539C170.145 81.4805 170.012 81.8047 169.953 82.2266H172.309V82.0918C172.301 81.7168 172.199 81.4277 172.004 81.2246C171.809 81.0176 171.531 80.9141 171.172 80.9141ZM178.502 81.248C178.272 81.2168 178.068 81.2012 177.893 81.2012C177.252 81.2012 176.832 81.418 176.633 81.8516V86H174.939V79.6602H176.539L176.586 80.416C176.926 79.834 177.397 79.543 177.998 79.543C178.186 79.543 178.361 79.5684 178.525 79.6191L178.502 81.248Z" fill="black"/>
<path d="M299.186 83.7617C299.186 83.4297 299.068 83.1758 298.834 83C298.6 82.8203 298.178 82.6328 297.568 82.4375C296.959 82.2383 296.477 82.043 296.121 81.8516C295.152 81.3281 294.668 80.623 294.668 79.7363C294.668 79.2754 294.797 78.8652 295.055 78.5059C295.316 78.1426 295.689 77.8594 296.174 77.6562C296.662 77.4531 297.209 77.3516 297.814 77.3516C298.424 77.3516 298.967 77.4629 299.443 77.6855C299.92 77.9043 300.289 78.2148 300.551 78.6172C300.816 79.0195 300.949 79.4766 300.949 79.9883H299.191C299.191 79.5977 299.068 79.2949 298.822 79.0801C298.576 78.8613 298.23 78.752 297.785 78.752C297.355 78.752 297.021 78.8438 296.783 79.0273C296.545 79.207 296.426 79.4453 296.426 79.7422C296.426 80.0195 296.564 80.252 296.842 80.4395C297.123 80.627 297.535 80.8027 298.078 80.9668C299.078 81.2676 299.807 81.6406 300.264 82.0859C300.721 82.5312 300.949 83.0859 300.949 83.75C300.949 84.4883 300.67 85.0684 300.111 85.4902C299.553 85.9082 298.801 86.1172 297.855 86.1172C297.199 86.1172 296.602 85.998 296.062 85.7598C295.523 85.5176 295.111 85.1875 294.826 84.7695C294.545 84.3516 294.404 83.8672 294.404 83.3164H296.168C296.168 84.2578 296.73 84.7285 297.855 84.7285C298.273 84.7285 298.6 84.6445 298.834 84.4766C299.068 84.3047 299.186 84.0664 299.186 83.7617ZM304.951 86.1172C304.021 86.1172 303.264 85.832 302.678 85.2617C302.096 84.6914 301.805 83.9316 301.805 82.9824V82.8184C301.805 82.1816 301.928 81.6133 302.174 81.1133C302.42 80.6094 302.768 80.2227 303.217 79.9531C303.67 79.6797 304.186 79.543 304.764 79.543C305.631 79.543 306.312 79.8164 306.809 80.3633C307.309 80.9102 307.559 81.6855 307.559 82.6895V83.3809H303.521C303.576 83.7949 303.74 84.127 304.014 84.377C304.291 84.627 304.641 84.752 305.062 84.752C305.715 84.752 306.225 84.5156 306.592 84.043L307.424 84.9746C307.17 85.334 306.826 85.6152 306.393 85.8184C305.959 86.0176 305.479 86.1172 304.951 86.1172ZM304.758 80.9141C304.422 80.9141 304.148 81.0273 303.938 81.2539C303.73 81.4805 303.598 81.8047 303.539 82.2266H305.895V82.0918C305.887 81.7168 305.785 81.4277 305.59 81.2246C305.395 81.0176 305.117 80.9141 304.758 80.9141ZM310.084 79.6602L310.137 80.3926C310.59 79.8262 311.197 79.543 311.959 79.543C312.631 79.543 313.131 79.7402 313.459 80.1348C313.787 80.5293 313.955 81.1191 313.963 81.9043V86H312.27V81.9453C312.27 81.5859 312.191 81.3262 312.035 81.166C311.879 81.002 311.619 80.9199 311.256 80.9199C310.779 80.9199 310.422 81.123 310.184 81.5293V86H308.49V79.6602H310.084ZM317.039 86H315.34V79.6602H317.039V86ZM315.24 78.0195C315.24 77.7656 315.324 77.5566 315.492 77.3926C315.664 77.2285 315.896 77.1465 316.189 77.1465C316.479 77.1465 316.709 77.2285 316.881 77.3926C317.053 77.5566 317.139 77.7656 317.139 78.0195C317.139 78.2773 317.051 78.4883 316.875 78.6523C316.703 78.8164 316.475 78.8984 316.189 78.8984C315.904 78.8984 315.674 78.8164 315.498 78.6523C315.326 78.4883 315.24 78.2773 315.24 78.0195ZM318.176 82.7715C318.176 82.1426 318.297 81.582 318.539 81.0898C318.781 80.5977 319.129 80.2168 319.582 79.9473C320.039 79.6777 320.568 79.543 321.17 79.543C322.025 79.543 322.723 79.8047 323.262 80.3281C323.805 80.8516 324.107 81.5625 324.17 82.4609L324.182 82.8945C324.182 83.8672 323.91 84.6484 323.367 85.2383C322.824 85.8242 322.096 86.1172 321.182 86.1172C320.268 86.1172 319.537 85.8242 318.99 85.2383C318.447 84.6523 318.176 83.8555 318.176 82.8477V82.7715ZM319.869 82.8945C319.869 83.4961 319.982 83.957 320.209 84.2773C320.436 84.5938 320.76 84.752 321.182 84.752C321.592 84.752 321.912 84.5957 322.143 84.2832C322.373 83.9668 322.488 83.4629 322.488 82.7715C322.488 82.1816 322.373 81.7246 322.143 81.4004C321.912 81.0762 321.588 80.9141 321.17 80.9141C320.756 80.9141 320.436 81.0762 320.209 81.4004C319.982 81.7207 319.869 82.2188 319.869 82.8945ZM328.787 81.248C328.557 81.2168 328.354 81.2012 328.178 81.2012C327.537 81.2012 327.117 81.418 326.918 81.8516V86H325.225V79.6602H326.824L326.871 80.416C327.211 79.834 327.682 79.543 328.283 79.543C328.471 79.543 328.646 79.5684 328.811 79.6191L328.787 81.248ZM339.164 77.4688V83.0879C339.164 84.0215 338.871 84.7598 338.285 85.3027C337.703 85.8457 336.906 86.1172 335.895 86.1172C334.898 86.1172 334.107 85.8535 333.521 85.3262C332.936 84.7988 332.637 84.0742 332.625 83.1523V77.4688H334.383V83.0996C334.383 83.6582 334.516 84.0664 334.781 84.3242C335.051 84.5781 335.422 84.7051 335.895 84.7051C336.883 84.7051 337.385 84.1855 337.4 83.1465V77.4688H339.164ZM343.658 80.4102L345.258 77.4688H347.279L344.795 81.6992L347.344 86H345.299L343.658 83.0117L342.018 86H339.973L342.521 81.6992L340.037 77.4688H342.059L343.658 80.4102ZM357.68 77.4688V83.0879C357.68 84.0215 357.387 84.7598 356.801 85.3027C356.219 85.8457 355.422 86.1172 354.41 86.1172C353.414 86.1172 352.623 85.8535 352.037 85.3262C351.451 84.7988 351.152 84.0742 351.141 83.1523V77.4688H352.898V83.0996C352.898 83.6582 353.031 84.0664 353.297 84.3242C353.566 84.5781 353.938 84.7051 354.41 84.7051C355.398 84.7051 355.9 84.1855 355.916 83.1465V77.4688H357.68ZM360.99 86H359.232V77.4688H360.99V86ZM365.613 86V77.4688H368.238C368.988 77.4688 369.658 77.6387 370.248 77.9785C370.842 78.3145 371.305 78.7949 371.637 79.4199C371.969 80.041 372.135 80.748 372.135 81.541V81.9336C372.135 82.7266 371.971 83.4316 371.643 84.0488C371.318 84.666 370.859 85.1445 370.266 85.4844C369.672 85.8242 369.002 85.9961 368.256 86H365.613ZM367.371 78.8926V84.5879H368.221C368.908 84.5879 369.434 84.3633 369.797 83.9141C370.16 83.4648 370.346 82.8223 370.354 81.9863V81.5352C370.354 80.668 370.174 80.0117 369.814 79.5664C369.455 79.1172 368.93 78.8926 368.238 78.8926H367.371ZM376.225 86.1172C375.295 86.1172 374.537 85.832 373.951 85.2617C373.369 84.6914 373.078 83.9316 373.078 82.9824V82.8184C373.078 82.1816 373.201 81.6133 373.447 81.1133C373.693 80.6094 374.041 80.2227 374.49 79.9531C374.943 79.6797 375.459 79.543 376.037 79.543C376.904 79.543 377.586 79.8164 378.082 80.3633C378.582 80.9102 378.832 81.6855 378.832 82.6895V83.3809H374.795C374.85 83.7949 375.014 84.127 375.287 84.377C375.564 84.627 375.914 84.752 376.336 84.752C376.988 84.752 377.498 84.5156 377.865 84.043L378.697 84.9746C378.443 85.334 378.1 85.6152 377.666 85.8184C377.232 86.0176 376.752 86.1172 376.225 86.1172ZM376.031 80.9141C375.695 80.9141 375.422 81.0273 375.211 81.2539C375.004 81.4805 374.871 81.8047 374.812 82.2266H377.168V82.0918C377.16 81.7168 377.059 81.4277 376.863 81.2246C376.668 81.0176 376.391 80.9141 376.031 80.9141ZM383.232 84.248C383.232 84.041 383.129 83.8789 382.922 83.7617C382.719 83.6406 382.391 83.5332 381.938 83.4395C380.43 83.123 379.676 82.4824 379.676 81.5176C379.676 80.9551 379.908 80.4863 380.373 80.1113C380.842 79.7324 381.453 79.543 382.207 79.543C383.012 79.543 383.654 79.7324 384.135 80.1113C384.619 80.4902 384.861 80.9824 384.861 81.5879H383.168C383.168 81.3457 383.09 81.1465 382.934 80.9902C382.777 80.8301 382.533 80.75 382.201 80.75C381.916 80.75 381.695 80.8145 381.539 80.9434C381.383 81.0723 381.305 81.2363 381.305 81.4355C381.305 81.623 381.393 81.7754 381.568 81.8926C381.748 82.0059 382.049 82.1055 382.471 82.1914C382.893 82.2734 383.248 82.3672 383.537 82.4727C384.432 82.8008 384.879 83.3691 384.879 84.1777C384.879 84.7559 384.631 85.2246 384.135 85.584C383.639 85.9395 382.998 86.1172 382.213 86.1172C381.682 86.1172 381.209 86.0234 380.795 85.8359C380.385 85.6445 380.062 85.3848 379.828 85.0566C379.594 84.7246 379.477 84.3672 379.477 83.9844H381.082C381.098 84.2852 381.209 84.5156 381.416 84.6758C381.623 84.8359 381.9 84.916 382.248 84.916C382.572 84.916 382.816 84.8555 382.98 84.7344C383.148 84.6094 383.232 84.4473 383.232 84.248ZM387.762 86H386.062V79.6602H387.762V86ZM385.963 78.0195C385.963 77.7656 386.047 77.5566 386.215 77.3926C386.387 77.2285 386.619 77.1465 386.912 77.1465C387.201 77.1465 387.432 77.2285 387.604 77.3926C387.775 77.5566 387.861 77.7656 387.861 78.0195C387.861 78.2773 387.773 78.4883 387.598 78.6523C387.426 78.8164 387.197 78.8984 386.912 78.8984C386.627 78.8984 386.396 78.8164 386.221 78.6523C386.049 78.4883 385.963 78.2773 385.963 78.0195ZM388.916 82.7832C388.916 81.8105 389.146 81.0273 389.607 80.4336C390.072 79.8398 390.697 79.543 391.482 79.543C392.178 79.543 392.719 79.7812 393.105 80.2578L393.176 79.6602H394.711V85.7891C394.711 86.3438 394.584 86.8262 394.33 87.2363C394.08 87.6465 393.727 87.959 393.27 88.1738C392.812 88.3887 392.277 88.4961 391.664 88.4961C391.199 88.4961 390.746 88.4023 390.305 88.2148C389.863 88.0312 389.529 87.793 389.303 87.5L390.053 86.4688C390.475 86.9414 390.986 87.1777 391.588 87.1777C392.037 87.1777 392.387 87.0566 392.637 86.8145C392.887 86.5762 393.012 86.2363 393.012 85.7949V85.4551C392.621 85.8965 392.107 86.1172 391.471 86.1172C390.709 86.1172 390.092 85.8203 389.619 85.2266C389.15 84.6289 388.916 83.8379 388.916 82.8535V82.7832ZM390.609 82.9062C390.609 83.4805 390.725 83.9316 390.955 84.2598C391.186 84.584 391.502 84.7461 391.904 84.7461C392.42 84.7461 392.789 84.5527 393.012 84.166V81.5C392.785 81.1133 392.42 80.9199 391.916 80.9199C391.51 80.9199 391.189 81.0859 390.955 81.418C390.725 81.75 390.609 82.2461 390.609 82.9062ZM397.576 79.6602L397.629 80.3926C398.082 79.8262 398.689 79.543 399.451 79.543C400.123 79.543 400.623 79.7402 400.951 80.1348C401.279 80.5293 401.447 81.1191 401.455 81.9043V86H399.762V81.9453C399.762 81.5859 399.684 81.3262 399.527 81.166C399.371 81.002 399.111 80.9199 398.748 80.9199C398.271 80.9199 397.914 81.123 397.676 81.5293V86H395.982V79.6602H397.576ZM405.662 86.1172C404.732 86.1172 403.975 85.832 403.389 85.2617C402.807 84.6914 402.516 83.9316 402.516 82.9824V82.8184C402.516 82.1816 402.639 81.6133 402.885 81.1133C403.131 80.6094 403.479 80.2227 403.928 79.9531C404.381 79.6797 404.896 79.543 405.475 79.543C406.342 79.543 407.023 79.8164 407.52 80.3633C408.02 80.9102 408.27 81.6855 408.27 82.6895V83.3809H404.232C404.287 83.7949 404.451 84.127 404.725 84.377C405.002 84.627 405.352 84.752 405.773 84.752C406.426 84.752 406.936 84.5156 407.303 84.043L408.135 84.9746C407.881 85.334 407.537 85.6152 407.104 85.8184C406.67 86.0176 406.189 86.1172 405.662 86.1172ZM405.469 80.9141C405.133 80.9141 404.859 81.0273 404.648 81.2539C404.441 81.4805 404.309 81.8047 404.25 82.2266H406.605V82.0918C406.598 81.7168 406.496 81.4277 406.301 81.2246C406.105 81.0176 405.828 80.9141 405.469 80.9141ZM412.799 81.248C412.568 81.2168 412.365 81.2012 412.189 81.2012C411.549 81.2012 411.129 81.418 410.93 81.8516V86H409.236V79.6602H410.836L410.883 80.416C411.223 79.834 411.693 79.543 412.295 79.543C412.482 79.543 412.658 79.5684 412.822 79.6191L412.799 81.248Z" fill="black"/>
<path d="M528.52 82.9941V86H526.762V77.4688H530.09C530.73 77.4688 531.293 77.5859 531.777 77.8203C532.266 78.0547 532.641 78.3887 532.902 78.8223C533.164 79.252 533.295 79.7422 533.295 80.293C533.295 81.1289 533.008 81.7891 532.434 82.2734C531.863 82.7539 531.072 82.9941 530.061 82.9941H528.52ZM528.52 81.5703H530.09C530.555 81.5703 530.908 81.4609 531.15 81.2422C531.396 81.0234 531.52 80.7109 531.52 80.3047C531.52 79.8867 531.396 79.5488 531.15 79.291C530.904 79.0332 530.564 78.9004 530.131 78.8926H528.52V81.5703ZM537.959 81.248C537.729 81.2168 537.525 81.2012 537.35 81.2012C536.709 81.2012 536.289 81.418 536.09 81.8516V86H534.396V79.6602H535.996L536.043 80.416C536.383 79.834 536.854 79.543 537.455 79.543C537.643 79.543 537.818 79.5684 537.982 79.6191L537.959 81.248ZM538.305 82.7715C538.305 82.1426 538.426 81.582 538.668 81.0898C538.91 80.5977 539.258 80.2168 539.711 79.9473C540.168 79.6777 540.697 79.543 541.299 79.543C542.154 79.543 542.852 79.8047 543.391 80.3281C543.934 80.8516 544.236 81.5625 544.299 82.4609L544.311 82.8945C544.311 83.8672 544.039 84.6484 543.496 85.2383C542.953 85.8242 542.225 86.1172 541.311 86.1172C540.396 86.1172 539.666 85.8242 539.119 85.2383C538.576 84.6523 538.305 83.8555 538.305 82.8477V82.7715ZM539.998 82.8945C539.998 83.4961 540.111 83.957 540.338 84.2773C540.564 84.5938 540.889 84.752 541.311 84.752C541.721 84.752 542.041 84.5957 542.271 84.2832C542.502 83.9668 542.617 83.4629 542.617 82.7715C542.617 82.1816 542.502 81.7246 542.271 81.4004C542.041 81.0762 541.717 80.9141 541.299 80.9141C540.885 80.9141 540.564 81.0762 540.338 81.4004C540.111 81.7207 539.998 82.2188 539.998 82.8945ZM545.09 82.7832C545.09 81.7949 545.311 81.0078 545.752 80.4219C546.197 79.8359 546.805 79.543 547.574 79.543C548.191 79.543 548.701 79.7734 549.104 80.2344V77H550.803V86H549.273L549.191 85.3262C548.77 85.8535 548.227 86.1172 547.562 86.1172C546.816 86.1172 546.217 85.8242 545.764 85.2383C545.314 84.6484 545.09 83.8301 545.09 82.7832ZM546.783 82.9062C546.783 83.5 546.887 83.9551 547.094 84.2715C547.301 84.5879 547.602 84.7461 547.996 84.7461C548.52 84.7461 548.889 84.5254 549.104 84.084V81.582C548.893 81.1406 548.527 80.9199 548.008 80.9199C547.191 80.9199 546.783 81.582 546.783 82.9062ZM555.912 85.3555C555.494 85.8633 554.916 86.1172 554.178 86.1172C553.498 86.1172 552.979 85.9219 552.619 85.5312C552.264 85.1406 552.082 84.5684 552.074 83.8145V79.6602H553.768V83.7559C553.768 84.416 554.068 84.7461 554.67 84.7461C555.244 84.7461 555.639 84.5469 555.854 84.1484V79.6602H557.553V86H555.959L555.912 85.3555ZM561.467 84.752C561.779 84.752 562.033 84.666 562.229 84.4941C562.424 84.3223 562.525 84.0938 562.533 83.8086H564.121C564.117 84.2383 564 84.6328 563.77 84.9922C563.539 85.3477 563.223 85.625 562.82 85.8242C562.422 86.0195 561.98 86.1172 561.496 86.1172C560.59 86.1172 559.875 85.8301 559.352 85.2559C558.828 84.6777 558.566 83.8809 558.566 82.8652V82.7539C558.566 81.7773 558.826 80.998 559.346 80.416C559.865 79.834 560.578 79.543 561.484 79.543C562.277 79.543 562.912 79.7695 563.389 80.2227C563.869 80.6719 564.113 81.2715 564.121 82.0215H562.533C562.525 81.6934 562.424 81.4277 562.229 81.2246C562.033 81.0176 561.775 80.9141 561.455 80.9141C561.061 80.9141 560.762 81.0586 560.559 81.3477C560.359 81.6328 560.26 82.0977 560.26 82.7422V82.918C560.26 83.5703 560.359 84.0391 560.559 84.3242C560.758 84.6094 561.061 84.752 561.467 84.752ZM567.115 78.1016V79.6602H568.199V80.9023H567.115V84.0664C567.115 84.3008 567.16 84.4688 567.25 84.5703C567.34 84.6719 567.512 84.7227 567.766 84.7227C567.953 84.7227 568.119 84.709 568.264 84.6816V85.9648C567.932 86.0664 567.59 86.1172 567.238 86.1172C566.051 86.1172 565.445 85.5176 565.422 84.3184V80.9023H564.496V79.6602H565.422V78.1016H567.115ZM572.242 86V77.4688H574.867C575.617 77.4688 576.287 77.6387 576.877 77.9785C577.471 78.3145 577.934 78.7949 578.266 79.4199C578.598 80.041 578.764 80.748 578.764 81.541V81.9336C578.764 82.7266 578.6 83.4316 578.271 84.0488C577.947 84.666 577.488 85.1445 576.895 85.4844C576.301 85.8242 575.631 85.9961 574.885 86H572.242ZM574 78.8926V84.5879H574.85C575.537 84.5879 576.062 84.3633 576.426 83.9141C576.789 83.4648 576.975 82.8223 576.982 81.9863V81.5352C576.982 80.668 576.803 80.0117 576.443 79.5664C576.084 79.1172 575.559 78.8926 574.867 78.8926H574ZM582.854 86.1172C581.924 86.1172 581.166 85.832 580.58 85.2617C579.998 84.6914 579.707 83.9316 579.707 82.9824V82.8184C579.707 82.1816 579.83 81.6133 580.076 81.1133C580.322 80.6094 580.67 80.2227 581.119 79.9531C581.572 79.6797 582.088 79.543 582.666 79.543C583.533 79.543 584.215 79.8164 584.711 80.3633C585.211 80.9102 585.461 81.6855 585.461 82.6895V83.3809H581.424C581.479 83.7949 581.643 84.127 581.916 84.377C582.193 84.627 582.543 84.752 582.965 84.752C583.617 84.752 584.127 84.5156 584.494 84.043L585.326 84.9746C585.072 85.334 584.729 85.6152 584.295 85.8184C583.861 86.0176 583.381 86.1172 582.854 86.1172ZM582.66 80.9141C582.324 80.9141 582.051 81.0273 581.84 81.2539C581.633 81.4805 581.5 81.8047 581.441 82.2266H583.797V82.0918C583.789 81.7168 583.688 81.4277 583.492 81.2246C583.297 81.0176 583.02 80.9141 582.66 80.9141ZM589.861 84.248C589.861 84.041 589.758 83.8789 589.551 83.7617C589.348 83.6406 589.02 83.5332 588.566 83.4395C587.059 83.123 586.305 82.4824 586.305 81.5176C586.305 80.9551 586.537 80.4863 587.002 80.1113C587.471 79.7324 588.082 79.543 588.836 79.543C589.641 79.543 590.283 79.7324 590.764 80.1113C591.248 80.4902 591.49 80.9824 591.49 81.5879H589.797C589.797 81.3457 589.719 81.1465 589.562 80.9902C589.406 80.8301 589.162 80.75 588.83 80.75C588.545 80.75 588.324 80.8145 588.168 80.9434C588.012 81.0723 587.934 81.2363 587.934 81.4355C587.934 81.623 588.021 81.7754 588.197 81.8926C588.377 82.0059 588.678 82.1055 589.1 82.1914C589.521 82.2734 589.877 82.3672 590.166 82.4727C591.061 82.8008 591.508 83.3691 591.508 84.1777C591.508 84.7559 591.26 85.2246 590.764 85.584C590.268 85.9395 589.627 86.1172 588.842 86.1172C588.311 86.1172 587.838 86.0234 587.424 85.8359C587.014 85.6445 586.691 85.3848 586.457 85.0566C586.223 84.7246 586.105 84.3672 586.105 83.9844H587.711C587.727 84.2852 587.838 84.5156 588.045 84.6758C588.252 84.8359 588.529 84.916 588.877 84.916C589.201 84.916 589.445 84.8555 589.609 84.7344C589.777 84.6094 589.861 84.4473 589.861 84.248ZM594.391 86H592.691V79.6602H594.391V86ZM592.592 78.0195C592.592 77.7656 592.676 77.5566 592.844 77.3926C593.016 77.2285 593.248 77.1465 593.541 77.1465C593.83 77.1465 594.061 77.2285 594.232 77.3926C594.404 77.5566 594.49 77.7656 594.49 78.0195C594.49 78.2773 594.402 78.4883 594.227 78.6523C594.055 78.8164 593.826 78.8984 593.541 78.8984C593.256 78.8984 593.025 78.8164 592.85 78.6523C592.678 78.4883 592.592 78.2773 592.592 78.0195ZM595.545 82.7832C595.545 81.8105 595.775 81.0273 596.236 80.4336C596.701 79.8398 597.326 79.543 598.111 79.543C598.807 79.543 599.348 79.7812 599.734 80.2578L599.805 79.6602H601.34V85.7891C601.34 86.3438 601.213 86.8262 600.959 87.2363C600.709 87.6465 600.355 87.959 599.898 88.1738C599.441 88.3887 598.906 88.4961 598.293 88.4961C597.828 88.4961 597.375 88.4023 596.934 88.2148C596.492 88.0312 596.158 87.793 595.932 87.5L596.682 86.4688C597.104 86.9414 597.615 87.1777 598.217 87.1777C598.666 87.1777 599.016 87.0566 599.266 86.8145C599.516 86.5762 599.641 86.2363 599.641 85.7949V85.4551C599.25 85.8965 598.736 86.1172 598.1 86.1172C597.338 86.1172 596.721 85.8203 596.248 85.2266C595.779 84.6289 595.545 83.8379 595.545 82.8535V82.7832ZM597.238 82.9062C597.238 83.4805 597.354 83.9316 597.584 84.2598C597.814 84.584 598.131 84.7461 598.533 84.7461C599.049 84.7461 599.418 84.5527 599.641 84.166V81.5C599.414 81.1133 599.049 80.9199 598.545 80.9199C598.139 80.9199 597.818 81.0859 597.584 81.418C597.354 81.75 597.238 82.2461 597.238 82.9062ZM604.205 79.6602L604.258 80.3926C604.711 79.8262 605.318 79.543 606.08 79.543C606.752 79.543 607.252 79.7402 607.58 80.1348C607.908 80.5293 608.076 81.1191 608.084 81.9043V86H606.391V81.9453C606.391 81.5859 606.312 81.3262 606.156 81.166C606 81.002 605.74 80.9199 605.377 80.9199C604.9 80.9199 604.543 81.123 604.305 81.5293V86H602.611V79.6602H604.205ZM612.291 86.1172C611.361 86.1172 610.604 85.832 610.018 85.2617C609.436 84.6914 609.145 83.9316 609.145 82.9824V82.8184C609.145 82.1816 609.268 81.6133 609.514 81.1133C609.76 80.6094 610.107 80.2227 610.557 79.9531C611.01 79.6797 611.525 79.543 612.104 79.543C612.971 79.543 613.652 79.8164 614.148 80.3633C614.648 80.9102 614.898 81.6855 614.898 82.6895V83.3809H610.861C610.916 83.7949 611.08 84.127 611.354 84.377C611.631 84.627 611.98 84.752 612.402 84.752C613.055 84.752 613.564 84.5156 613.932 84.043L614.764 84.9746C614.51 85.334 614.166 85.6152 613.732 85.8184C613.299 86.0176 612.818 86.1172 612.291 86.1172ZM612.098 80.9141C611.762 80.9141 611.488 81.0273 611.277 81.2539C611.07 81.4805 610.938 81.8047 610.879 82.2266H613.234V82.0918C613.227 81.7168 613.125 81.4277 612.93 81.2246C612.734 81.0176 612.457 80.9141 612.098 80.9141ZM619.428 81.248C619.197 81.2168 618.994 81.2012 618.818 81.2012C618.178 81.2012 617.758 81.418 617.559 81.8516V86H615.865V79.6602H617.465L617.512 80.416C617.852 79.834 618.322 79.543 618.924 79.543C619.111 79.543 619.287 79.5684 619.451 79.6191L619.428 81.248Z" fill="black"/>
<path d="M729.459 83.1582C729.393 84.0762 729.053 84.7988 728.439 85.3262C727.83 85.8535 727.025 86.1172 726.025 86.1172C724.932 86.1172 724.07 85.75 723.441 85.0156C722.816 84.2773 722.504 83.2656 722.504 81.9805V81.459C722.504 80.6387 722.648 79.916 722.938 79.291C723.227 78.666 723.639 78.1875 724.174 77.8555C724.713 77.5195 725.338 77.3516 726.049 77.3516C727.033 77.3516 727.826 77.6152 728.428 78.1426C729.029 78.6699 729.377 79.4102 729.471 80.3633H727.713C727.67 79.8125 727.516 79.4141 727.25 79.168C726.988 78.918 726.588 78.793 726.049 78.793C725.463 78.793 725.023 79.0039 724.73 79.4258C724.441 79.8438 724.293 80.4941 724.285 81.377V82.0215C724.285 82.9434 724.424 83.6172 724.701 84.043C724.982 84.4688 725.424 84.6816 726.025 84.6816C726.568 84.6816 726.973 84.5586 727.238 84.3125C727.508 84.0625 727.662 83.6777 727.701 83.1582H729.459ZM734.064 81.248C733.834 81.2168 733.631 81.2012 733.455 81.2012C732.814 81.2012 732.395 81.418 732.195 81.8516V86H730.502V79.6602H732.102L732.148 80.416C732.488 79.834 732.959 79.543 733.561 79.543C733.748 79.543 733.924 79.5684 734.088 79.6191L734.064 81.248ZM737.686 86.1172C736.756 86.1172 735.998 85.832 735.412 85.2617C734.83 84.6914 734.539 83.9316 734.539 82.9824V82.8184C734.539 82.1816 734.662 81.6133 734.908 81.1133C735.154 80.6094 735.502 80.2227 735.951 79.9531C736.404 79.6797 736.92 79.543 737.498 79.543C738.365 79.543 739.047 79.8164 739.543 80.3633C740.043 80.9102 740.293 81.6855 740.293 82.6895V83.3809H736.256C736.311 83.7949 736.475 84.127 736.748 84.377C737.025 84.627 737.375 84.752 737.797 84.752C738.449 84.752 738.959 84.5156 739.326 84.043L740.158 84.9746C739.904 85.334 739.561 85.6152 739.127 85.8184C738.693 86.0176 738.213 86.1172 737.686 86.1172ZM737.492 80.9141C737.156 80.9141 736.883 81.0273 736.672 81.2539C736.465 81.4805 736.332 81.8047 736.273 82.2266H738.629V82.0918C738.621 81.7168 738.52 81.4277 738.324 81.2246C738.129 81.0176 737.852 80.9141 737.492 80.9141ZM744.934 86C744.855 85.8477 744.799 85.6582 744.764 85.4316C744.354 85.8887 743.82 86.1172 743.164 86.1172C742.543 86.1172 742.027 85.9375 741.617 85.5781C741.211 85.2188 741.008 84.7656 741.008 84.2188C741.008 83.5469 741.256 83.0312 741.752 82.6719C742.252 82.3125 742.973 82.1309 743.914 82.127H744.693V81.7637C744.693 81.4707 744.617 81.2363 744.465 81.0605C744.316 80.8848 744.08 80.7969 743.756 80.7969C743.471 80.7969 743.246 80.8652 743.082 81.002C742.922 81.1387 742.842 81.3262 742.842 81.5645H741.148C741.148 81.1973 741.262 80.8574 741.488 80.5449C741.715 80.2324 742.035 79.9883 742.449 79.8125C742.863 79.6328 743.328 79.543 743.844 79.543C744.625 79.543 745.244 79.7402 745.701 80.1348C746.162 80.5254 746.393 81.0762 746.393 81.7871V84.5352C746.396 85.1367 746.48 85.5918 746.645 85.9004V86H744.934ZM743.533 84.8223C743.783 84.8223 744.014 84.7676 744.225 84.6582C744.436 84.5449 744.592 84.3945 744.693 84.207V83.1172H744.061C743.213 83.1172 742.762 83.4102 742.707 83.9961L742.701 84.0957C742.701 84.3066 742.775 84.4805 742.924 84.6172C743.072 84.7539 743.275 84.8223 743.533 84.8223ZM749.721 78.1016V79.6602H750.805V80.9023H749.721V84.0664C749.721 84.3008 749.766 84.4688 749.855 84.5703C749.945 84.6719 750.117 84.7227 750.371 84.7227C750.559 84.7227 750.725 84.709 750.869 84.6816V85.9648C750.537 86.0664 750.195 86.1172 749.844 86.1172C748.656 86.1172 748.051 85.5176 748.027 84.3184V80.9023H747.102V79.6602H748.027V78.1016H749.721ZM753.535 86H751.836V79.6602H753.535V86ZM751.736 78.0195C751.736 77.7656 751.82 77.5566 751.988 77.3926C752.16 77.2285 752.393 77.1465 752.686 77.1465C752.975 77.1465 753.205 77.2285 753.377 77.3926C753.549 77.5566 753.635 77.7656 753.635 78.0195C753.635 78.2773 753.547 78.4883 753.371 78.6523C753.199 78.8164 752.971 78.8984 752.686 78.8984C752.4 78.8984 752.17 78.8164 751.994 78.6523C751.822 78.4883 751.736 78.2773 751.736 78.0195ZM757.309 83.9316L758.486 79.6602H760.256L758.117 86H756.5L754.361 79.6602H756.131L757.309 83.9316ZM763.842 86.1172C762.912 86.1172 762.154 85.832 761.568 85.2617C760.986 84.6914 760.695 83.9316 760.695 82.9824V82.8184C760.695 82.1816 760.818 81.6133 761.064 81.1133C761.311 80.6094 761.658 80.2227 762.107 79.9531C762.561 79.6797 763.076 79.543 763.654 79.543C764.521 79.543 765.203 79.8164 765.699 80.3633C766.199 80.9102 766.449 81.6855 766.449 82.6895V83.3809H762.412C762.467 83.7949 762.631 84.127 762.904 84.377C763.182 84.627 763.531 84.752 763.953 84.752C764.605 84.752 765.115 84.5156 765.482 84.043L766.314 84.9746C766.061 85.334 765.717 85.6152 765.283 85.8184C764.85 86.0176 764.369 86.1172 763.842 86.1172ZM763.648 80.9141C763.312 80.9141 763.039 81.0273 762.828 81.2539C762.621 81.4805 762.488 81.8047 762.43 82.2266H764.785V82.0918C764.777 81.7168 764.676 81.4277 764.48 81.2246C764.285 81.0176 764.008 80.9141 763.648 80.9141ZM776.586 78.8926H773.973V86H772.215V78.8926H769.637V77.4688H776.586V78.8926ZM779.873 86.1172C778.943 86.1172 778.186 85.832 777.6 85.2617C777.018 84.6914 776.727 83.9316 776.727 82.9824V82.8184C776.727 82.1816 776.85 81.6133 777.096 81.1133C777.342 80.6094 777.689 80.2227 778.139 79.9531C778.592 79.6797 779.107 79.543 779.686 79.543C780.553 79.543 781.234 79.8164 781.73 80.3633C782.23 80.9102 782.48 81.6855 782.48 82.6895V83.3809H778.443C778.498 83.7949 778.662 84.127 778.936 84.377C779.213 84.627 779.562 84.752 779.984 84.752C780.637 84.752 781.146 84.5156 781.514 84.043L782.346 84.9746C782.092 85.334 781.748 85.6152 781.314 85.8184C780.881 86.0176 780.4 86.1172 779.873 86.1172ZM779.68 80.9141C779.344 80.9141 779.07 81.0273 778.859 81.2539C778.652 81.4805 778.52 81.8047 778.461 82.2266H780.816V82.0918C780.809 81.7168 780.707 81.4277 780.512 81.2246C780.316 81.0176 780.039 80.9141 779.68 80.9141ZM786.084 84.752C786.396 84.752 786.65 84.666 786.846 84.4941C787.041 84.3223 787.143 84.0938 787.15 83.8086H788.738C788.734 84.2383 788.617 84.6328 788.387 84.9922C788.156 85.3477 787.84 85.625 787.438 85.8242C787.039 86.0195 786.598 86.1172 786.113 86.1172C785.207 86.1172 784.492 85.8301 783.969 85.2559C783.445 84.6777 783.184 83.8809 783.184 82.8652V82.7539C783.184 81.7773 783.443 80.998 783.963 80.416C784.482 79.834 785.195 79.543 786.102 79.543C786.895 79.543 787.529 79.7695 788.006 80.2227C788.486 80.6719 788.73 81.2715 788.738 82.0215H787.15C787.143 81.6934 787.041 81.4277 786.846 81.2246C786.65 81.0176 786.393 80.9141 786.072 80.9141C785.678 80.9141 785.379 81.0586 785.176 81.3477C784.977 81.6328 784.877 82.0977 784.877 82.7422V82.918C784.877 83.5703 784.977 84.0391 785.176 84.3242C785.375 84.6094 785.678 84.752 786.084 84.752ZM791.357 80.3516C791.807 79.8125 792.371 79.543 793.051 79.543C794.426 79.543 795.123 80.3418 795.143 81.9395V86H793.449V81.9863C793.449 81.623 793.371 81.3555 793.215 81.1836C793.059 81.0078 792.799 80.9199 792.436 80.9199C791.939 80.9199 791.58 81.1113 791.357 81.4941V86H789.664V77H791.357V80.3516ZM797.979 79.6602L798.031 80.3926C798.484 79.8262 799.092 79.543 799.854 79.543C800.525 79.543 801.025 79.7402 801.354 80.1348C801.682 80.5293 801.85 81.1191 801.857 81.9043V86H800.164V81.9453C800.164 81.5859 800.086 81.3262 799.93 81.166C799.773 81.002 799.514 80.9199 799.15 80.9199C798.674 80.9199 798.316 81.123 798.078 81.5293V86H796.385V79.6602H797.979ZM802.883 82.7715C802.883 82.1426 803.004 81.582 803.246 81.0898C803.488 80.5977 803.836 80.2168 804.289 79.9473C804.746 79.6777 805.275 79.543 805.877 79.543C806.732 79.543 807.43 79.8047 807.969 80.3281C808.512 80.8516 808.814 81.5625 808.877 82.4609L808.889 82.8945C808.889 83.8672 808.617 84.6484 808.074 85.2383C807.531 85.8242 806.803 86.1172 805.889 86.1172C804.975 86.1172 804.244 85.8242 803.697 85.2383C803.154 84.6523 802.883 83.8555 802.883 82.8477V82.7715ZM804.576 82.8945C804.576 83.4961 804.689 83.957 804.916 84.2773C805.143 84.5938 805.467 84.752 805.889 84.752C806.299 84.752 806.619 84.5957 806.85 84.2832C807.08 83.9668 807.195 83.4629 807.195 82.7715C807.195 82.1816 807.08 81.7246 806.85 81.4004C806.619 81.0762 806.295 80.9141 805.877 80.9141C805.463 80.9141 805.143 81.0762 804.916 81.4004C804.689 81.7207 804.576 82.2188 804.576 82.8945ZM811.719 86H810.02V77H811.719V86ZM812.855 82.7715C812.855 82.1426 812.977 81.582 813.219 81.0898C813.461 80.5977 813.809 80.2168 814.262 79.9473C814.719 79.6777 815.248 79.543 815.85 79.543C816.705 79.543 817.402 79.8047 817.941 80.3281C818.484 80.8516 818.787 81.5625 818.85 82.4609L818.861 82.8945C818.861 83.8672 818.59 84.6484 818.047 85.2383C817.504 85.8242 816.775 86.1172 815.861 86.1172C814.947 86.1172 814.217 85.8242 813.67 85.2383C813.127 84.6523 812.855 83.8555 812.855 82.8477V82.7715ZM814.549 82.8945C814.549 83.4961 814.662 83.957 814.889 84.2773C815.115 84.5938 815.439 84.752 815.861 84.752C816.271 84.752 816.592 84.5957 816.822 84.2832C817.053 83.9668 817.168 83.4629 817.168 82.7715C817.168 82.1816 817.053 81.7246 816.822 81.4004C816.592 81.0762 816.268 80.9141 815.85 80.9141C815.436 80.9141 815.115 81.0762 814.889 81.4004C814.662 81.7207 814.549 82.2188 814.549 82.8945ZM819.658 82.7832C819.658 81.8105 819.889 81.0273 820.35 80.4336C820.814 79.8398 821.439 79.543 822.225 79.543C822.92 79.543 823.461 79.7812 823.848 80.2578L823.918 79.6602H825.453V85.7891C825.453 86.3438 825.326 86.8262 825.072 87.2363C824.822 87.6465 824.469 87.959 824.012 88.1738C823.555 88.3887 823.02 88.4961 822.406 88.4961C821.941 88.4961 821.488 88.4023 821.047 88.2148C820.605 88.0312 820.271 87.793 820.045 87.5L820.795 86.4688C821.217 86.9414 821.729 87.1777 822.33 87.1777C822.779 87.1777 823.129 87.0566 823.379 86.8145C823.629 86.5762 823.754 86.2363 823.754 85.7949V85.4551C823.363 85.8965 822.85 86.1172 822.213 86.1172C821.451 86.1172 820.834 85.8203 820.361 85.2266C819.893 84.6289 819.658 83.8379 819.658 82.8535V82.7832ZM821.352 82.9062C821.352 83.4805 821.467 83.9316 821.697 84.2598C821.928 84.584 822.244 84.7461 822.646 84.7461C823.162 84.7461 823.531 84.5527 823.754 84.166V81.5C823.527 81.1133 823.162 80.9199 822.658 80.9199C822.252 80.9199 821.932 81.0859 821.697 81.418C821.467 81.75 821.352 82.2461 821.352 82.9062ZM828.547 86H826.848V79.6602H828.547V86ZM826.748 78.0195C826.748 77.7656 826.832 77.5566 827 77.3926C827.172 77.2285 827.404 77.1465 827.697 77.1465C827.986 77.1465 828.217 77.2285 828.389 77.3926C828.561 77.5566 828.646 77.7656 828.646 78.0195C828.646 78.2773 828.559 78.4883 828.383 78.6523C828.211 78.8164 827.982 78.8984 827.697 78.8984C827.412 78.8984 827.182 78.8164 827.006 78.6523C826.834 78.4883 826.748 78.2773 826.748 78.0195ZM833.381 84.248C833.381 84.041 833.277 83.8789 833.07 83.7617C832.867 83.6406 832.539 83.5332 832.086 83.4395C830.578 83.123 829.824 82.4824 829.824 81.5176C829.824 80.9551 830.057 80.4863 830.521 80.1113C830.99 79.7324 831.602 79.543 832.355 79.543C833.16 79.543 833.803 79.7324 834.283 80.1113C834.768 80.4902 835.01 80.9824 835.01 81.5879H833.316C833.316 81.3457 833.238 81.1465 833.082 80.9902C832.926 80.8301 832.682 80.75 832.35 80.75C832.064 80.75 831.844 80.8145 831.688 80.9434C831.531 81.0723 831.453 81.2363 831.453 81.4355C831.453 81.623 831.541 81.7754 831.717 81.8926C831.896 82.0059 832.197 82.1055 832.619 82.1914C833.041 82.2734 833.396 82.3672 833.686 82.4727C834.58 82.8008 835.027 83.3691 835.027 84.1777C835.027 84.7559 834.779 85.2246 834.283 85.584C833.787 85.9395 833.146 86.1172 832.361 86.1172C831.83 86.1172 831.357 86.0234 830.943 85.8359C830.533 85.6445 830.211 85.3848 829.977 85.0566C829.742 84.7246 829.625 84.3672 829.625 83.9844H831.23C831.246 84.2852 831.357 84.5156 831.564 84.6758C831.771 84.8359 832.049 84.916 832.396 84.916C832.721 84.916 832.965 84.8555 833.129 84.7344C833.297 84.6094 833.381 84.4473 833.381 84.248ZM838.15 78.1016V79.6602H839.234V80.9023H838.15V84.0664C838.15 84.3008 838.195 84.4688 838.285 84.5703C838.375 84.6719 838.547 84.7227 838.801 84.7227C838.988 84.7227 839.154 84.709 839.299 84.6816V85.9648C838.967 86.0664 838.625 86.1172 838.273 86.1172C837.086 86.1172 836.48 85.5176 836.457 84.3184V80.9023H835.531V79.6602H836.457V78.1016H838.15Z" fill="black"/>
<defs>
<filter id="filter0_d" x="70" y="47" width="152" height="85" filterUnits="userSpaceOnUse" color-interpolation-filters="sRGB">
<feFlood flood-opacity="0" result="BackgroundImageFix"/>
<feColorMatrix in="SourceAlpha" type="matrix" values="0 0 0 0 0 0 0 0 0 0 0 0 0 0 0 0 0 0 127 0"/>
<feOffset dy="4"/>
<feGaussianBlur stdDeviation="2"/>
<feColorMatrix type="matrix" values="0 0 0 0 0 0 0 0 0 0 0 0 0 0 0 0 0 0 0.25 0"/>
<feBlend mode="normal" in2="BackgroundImageFix" result="effect1_dropShadow"/>
<feBlend mode="normal" in="SourceGraphic" in2="effect1_dropShadow" result="shape"/>
</filter>
<filter id="filter1_d" x="279" y="49" width="152" height="84" filterUnits="userSpaceOnUse" color-interpolation-filters="sRGB">
<feFlood flood-opacity="0" result="BackgroundImageFix"/>
<feColorMatrix in="SourceAlpha" type="matrix" values="0 0 0 0 0 0 0 0 0 0 0 0 0 0 0 0 0 0 127 0"/>
<feOffset dy="4"/>
<feGaussianBlur stdDeviation="2"/>
<feColorMatrix type="matrix" values="0 0 0 0 0 0 0 0 0 0 0 0 0 0 0 0 0 0 0.25 0"/>
<feBlend mode="normal" in2="BackgroundImageFix" result="effect1_dropShadow"/>
<feBlend mode="normal" in="SourceGraphic" in2="effect1_dropShadow" result="shape"/>
</filter>
<filter id="filter2_d" x="701" y="47" width="152" height="84" filterUnits="userSpaceOnUse" color-interpolation-filters="sRGB">
<feFlood flood-opacity="0" result="BackgroundImageFix"/>
<feColorMatrix in="SourceAlpha" type="matrix" values="0 0 0 0 0 0 0 0 0 0 0 0 0 0 0 0 0 0 127 0"/>
<feOffset dy="4"/>
<feGaussianBlur stdDeviation="2"/>
<feColorMatrix type="matrix" values="0 0 0 0 0 0 0 0 0 0 0 0 0 0 0 0 0 0 0.25 0"/>
<feBlend mode="normal" in2="BackgroundImageFix" result="effect1_dropShadow"/>
<feBlend mode="normal" in="SourceGraphic" in2="effect1_dropShadow" result="shape"/>
</filter>
<filter id="filter3_d" x="492" y="47" width="152" height="84" filterUnits="userSpaceOnUse" color-interpolation-filters="sRGB">
<feFlood flood-opacity="0" result="BackgroundImageFix"/>
<feColorMatrix in="SourceAlpha" type="matrix" values="0 0 0 0 0 0 0 0 0 0 0 0 0 0 0 0 0 0 127 0"/>
<feOffset dy="4"/>
<feGaussianBlur stdDeviation="2"/>
<feColorMatrix type="matrix" values="0 0 0 0 0 0 0 0 0 0 0 0 0 0 0 0 0 0 0.25 0"/>
<feBlend mode="normal" in2="BackgroundImageFix" result="effect1_dropShadow"/>
<feBlend mode="normal" in="SourceGraphic" in2="effect1_dropShadow" result="shape"/>
</filter>
</defs>
</svg>
