<svg width="912" height="175" viewBox="0 0 912 175" fill="none" xmlns="http://www.w3.org/2000/svg">
<rect width="912" height="175" fill="white"/>
<rect x="218" y="98" width="22" height="494.974" transform="rotate(-90 218 98)" fill="#3742FA"/>
<path d="M714.061 89.1566C714.646 88.5709 714.646 87.6211 714.061 87.0353L704.515 77.4894C703.929 76.9036 702.979 76.9036 702.393 77.4894C701.808 78.0752 701.808 79.0249 702.393 79.6107L710.879 88.096L702.393 96.5813C701.808 97.167 701.808 98.1168 702.393 98.7026C702.979 99.2884 703.929 99.2884 704.515 98.7026L714.061 89.1566ZM223.572 89.596L713 89.596V86.596L223.572 86.596V89.596Z" fill="white"/>
<g filter="url(#filter0_d)">
<rect x="74" y="47" width="144" height="77" fill="white"/>
<rect x="74.5" y="47.5" width="143" height="76" stroke="#333333"/>
</g>
<g filter="url(#filter1_d)">
<rect x="280" y="49" width="144" height="76" fill="white"/>
<rect x="280.5" y="49.5" width="143" height="75" stroke="#333333"/>
</g>
<g filter="url(#filter2_d)">
<rect x="713" y="48" width="144" height="76" fill="white"/>
<rect x="713.5" y="48.5" width="143" height="75" stroke="#333333"/>
</g>
<g filter="url(#filter3_d)">
<rect x="494" y="47" width="144" height="76" fill="white"/>
<rect x="494.5" y="47.5" width="143" height="75" stroke="#333333"/>
</g>
<path d="M95.1855 88.7617C95.1855 88.4297 95.0684 88.1758 94.834 88C94.5996 87.8203 94.1777 87.6328 93.5684 87.4375C92.959 87.2383 92.4766 87.043 92.1211 86.8516C91.1523 86.3281 90.668 85.623 90.668 84.7363C90.668 84.2754 90.7969 83.8652 91.0547 83.5059C91.3164 83.1426 91.6895 82.8594 92.1738 82.6562C92.6621 82.4531 93.209 82.3516 93.8145 82.3516C94.4238 82.3516 94.9668 82.4629 95.4434 82.6855C95.9199 82.9043 96.2891 83.2148 96.5508 83.6172C96.8164 84.0195 96.9492 84.4766 96.9492 84.9883H95.1914C95.1914 84.5977 95.0684 84.2949 94.8223 84.0801C94.5762 83.8613 94.2305 83.752 93.7852 83.752C93.3555 83.752 93.0215 83.8438 92.7832 84.0273C92.5449 84.207 92.4258 84.4453 92.4258 84.7422C92.4258 85.0195 92.5645 85.252 92.8418 85.4395C93.123 85.627 93.5352 85.8027 94.0781 85.9668C95.0781 86.2676 95.8066 86.6406 96.2637 87.0859C96.7207 87.5312 96.9492 88.0859 96.9492 88.75C96.9492 89.4883 96.6699 90.0684 96.1113 90.4902C95.5527 90.9082 94.8008 91.1172 93.8555 91.1172C93.1992 91.1172 92.6016 90.998 92.0625 90.7598C91.5234 90.5176 91.1113 90.1875 90.8262 89.7695C90.5449 89.3516 90.4043 88.8672 90.4043 88.3164H92.168C92.168 89.2578 92.7305 89.7285 93.8555 89.7285C94.2734 89.7285 94.5996 89.6445 94.834 89.4766C95.0684 89.3047 95.1855 89.0664 95.1855 88.7617ZM97.7695 87.7715C97.7695 87.1426 97.8906 86.582 98.1328 86.0898C98.375 85.5977 98.7227 85.2168 99.1758 84.9473C99.6328 84.6777 100.162 84.543 100.764 84.543C101.619 84.543 102.316 84.8047 102.855 85.3281C103.398 85.8516 103.701 86.5625 103.764 87.4609L103.775 87.8945C103.775 88.8672 103.504 89.6484 102.961 90.2383C102.418 90.8242 101.689 91.1172 100.775 91.1172C99.8613 91.1172 99.1309 90.8242 98.584 90.2383C98.041 89.6523 97.7695 88.8555 97.7695 87.8477V87.7715ZM99.4629 87.8945C99.4629 88.4961 99.5762 88.957 99.8027 89.2773C100.029 89.5938 100.354 89.752 100.775 89.752C101.186 89.752 101.506 89.5957 101.736 89.2832C101.967 88.9668 102.082 88.4629 102.082 87.7715C102.082 87.1816 101.967 86.7246 101.736 86.4004C101.506 86.0762 101.182 85.9141 100.764 85.9141C100.35 85.9141 100.029 86.0762 99.8027 86.4004C99.5762 86.7207 99.4629 87.2188 99.4629 87.8945ZM105.281 91V85.9023H104.338V84.6602H105.281V84.1211C105.281 83.4102 105.484 82.8594 105.891 82.4688C106.301 82.0742 106.873 81.877 107.607 81.877C107.842 81.877 108.129 81.916 108.469 81.9941L108.451 83.3066C108.311 83.2715 108.139 83.2539 107.936 83.2539C107.299 83.2539 106.98 83.5527 106.98 84.1504V84.6602H108.24V85.9023H106.98V91H105.281ZM111.146 83.1016V84.6602H112.23V85.9023H111.146V89.0664C111.146 89.3008 111.191 89.4688 111.281 89.5703C111.371 89.6719 111.543 89.7227 111.797 89.7227C111.984 89.7227 112.15 89.709 112.295 89.6816V90.9648C111.963 91.0664 111.621 91.1172 111.27 91.1172C110.082 91.1172 109.477 90.5176 109.453 89.3184V85.9023H108.527V84.6602H109.453V83.1016H111.146ZM118.688 88.6973L119.52 84.6602H121.154L119.537 91H118.119L116.918 87.0098L115.717 91H114.305L112.688 84.6602H114.322L115.148 88.6914L116.309 84.6602H117.533L118.688 88.6973ZM125.672 91C125.594 90.8477 125.537 90.6582 125.502 90.4316C125.092 90.8887 124.559 91.1172 123.902 91.1172C123.281 91.1172 122.766 90.9375 122.355 90.5781C121.949 90.2188 121.746 89.7656 121.746 89.2188C121.746 88.5469 121.994 88.0312 122.49 87.6719C122.99 87.3125 123.711 87.1309 124.652 87.127H125.432V86.7637C125.432 86.4707 125.355 86.2363 125.203 86.0605C125.055 85.8848 124.818 85.7969 124.494 85.7969C124.209 85.7969 123.984 85.8652 123.82 86.002C123.66 86.1387 123.58 86.3262 123.58 86.5645H121.887C121.887 86.1973 122 85.8574 122.227 85.5449C122.453 85.2324 122.773 84.9883 123.188 84.8125C123.602 84.6328 124.066 84.543 124.582 84.543C125.363 84.543 125.982 84.7402 126.439 85.1348C126.9 85.5254 127.131 86.0762 127.131 86.7871V89.5352C127.135 90.1367 127.219 90.5918 127.383 90.9004V91H125.672ZM124.271 89.8223C124.521 89.8223 124.752 89.7676 124.963 89.6582C125.174 89.5449 125.33 89.3945 125.432 89.207V88.1172H124.799C123.951 88.1172 123.5 88.4102 123.445 88.9961L123.439 89.0957C123.439 89.3066 123.514 89.4805 123.662 89.6172C123.811 89.7539 124.014 89.8223 124.271 89.8223ZM131.994 86.248C131.764 86.2168 131.561 86.2012 131.385 86.2012C130.744 86.2012 130.324 86.418 130.125 86.8516V91H128.432V84.6602H130.031L130.078 85.416C130.418 84.834 130.889 84.543 131.49 84.543C131.678 84.543 131.854 84.5684 132.018 84.6191L131.994 86.248ZM135.615 91.1172C134.686 91.1172 133.928 90.832 133.342 90.2617C132.76 89.6914 132.469 88.9316 132.469 87.9824V87.8184C132.469 87.1816 132.592 86.6133 132.838 86.1133C133.084 85.6094 133.432 85.2227 133.881 84.9531C134.334 84.6797 134.85 84.543 135.428 84.543C136.295 84.543 136.977 84.8164 137.473 85.3633C137.973 85.9102 138.223 86.6855 138.223 87.6895V88.3809H134.186C134.24 88.7949 134.404 89.127 134.678 89.377C134.955 89.627 135.305 89.752 135.727 89.752C136.379 89.752 136.889 89.5156 137.256 89.043L138.088 89.9746C137.834 90.334 137.49 90.6152 137.057 90.8184C136.623 91.0176 136.143 91.1172 135.615 91.1172ZM135.422 85.9141C135.086 85.9141 134.812 86.0273 134.602 86.2539C134.395 86.4805 134.262 86.8047 134.203 87.2266H136.559V87.0918C136.551 86.7168 136.449 86.4277 136.254 86.2246C136.059 86.0176 135.781 85.9141 135.422 85.9141ZM142.289 91V82.4688H144.914C145.664 82.4688 146.334 82.6387 146.924 82.9785C147.518 83.3145 147.98 83.7949 148.312 84.4199C148.645 85.041 148.811 85.748 148.811 86.541V86.9336C148.811 87.7266 148.646 88.4316 148.318 89.0488C147.994 89.666 147.535 90.1445 146.941 90.4844C146.348 90.8242 145.678 90.9961 144.932 91H142.289ZM144.047 83.8926V89.5879H144.896C145.584 89.5879 146.109 89.3633 146.473 88.9141C146.836 88.4648 147.021 87.8223 147.029 86.9863V86.5352C147.029 85.668 146.85 85.0117 146.49 84.5664C146.131 84.1172 145.605 83.8926 144.914 83.8926H144.047ZM152.9 91.1172C151.971 91.1172 151.213 90.832 150.627 90.2617C150.045 89.6914 149.754 88.9316 149.754 87.9824V87.8184C149.754 87.1816 149.877 86.6133 150.123 86.1133C150.369 85.6094 150.717 85.2227 151.166 84.9531C151.619 84.6797 152.135 84.543 152.713 84.543C153.58 84.543 154.262 84.8164 154.758 85.3633C155.258 85.9102 155.508 86.6855 155.508 87.6895V88.3809H151.471C151.525 88.7949 151.689 89.127 151.963 89.377C152.24 89.627 152.59 89.752 153.012 89.752C153.664 89.752 154.174 89.5156 154.541 89.043L155.373 89.9746C155.119 90.334 154.775 90.6152 154.342 90.8184C153.908 91.0176 153.428 91.1172 152.9 91.1172ZM152.707 85.9141C152.371 85.9141 152.098 86.0273 151.887 86.2539C151.68 86.4805 151.547 86.8047 151.488 87.2266H153.844V87.0918C153.836 86.7168 153.734 86.4277 153.539 86.2246C153.344 86.0176 153.066 85.9141 152.707 85.9141ZM158.766 88.9316L159.943 84.6602H161.713L159.574 91H157.957L155.818 84.6602H157.588L158.766 88.9316ZM165.299 91.1172C164.369 91.1172 163.611 90.832 163.025 90.2617C162.443 89.6914 162.152 88.9316 162.152 87.9824V87.8184C162.152 87.1816 162.275 86.6133 162.521 86.1133C162.768 85.6094 163.115 85.2227 163.564 84.9531C164.018 84.6797 164.533 84.543 165.111 84.543C165.979 84.543 166.66 84.8164 167.156 85.3633C167.656 85.9102 167.906 86.6855 167.906 87.6895V88.3809H163.869C163.924 88.7949 164.088 89.127 164.361 89.377C164.639 89.627 164.988 89.752 165.41 89.752C166.062 89.752 166.572 89.5156 166.939 89.043L167.771 89.9746C167.518 90.334 167.174 90.6152 166.74 90.8184C166.307 91.0176 165.826 91.1172 165.299 91.1172ZM165.105 85.9141C164.77 85.9141 164.496 86.0273 164.285 86.2539C164.078 86.4805 163.945 86.8047 163.887 87.2266H166.242V87.0918C166.234 86.7168 166.133 86.4277 165.938 86.2246C165.742 86.0176 165.465 85.9141 165.105 85.9141ZM170.66 91H168.961V82H170.66V91ZM171.797 87.7715C171.797 87.1426 171.918 86.582 172.16 86.0898C172.402 85.5977 172.75 85.2168 173.203 84.9473C173.66 84.6777 174.189 84.543 174.791 84.543C175.646 84.543 176.344 84.8047 176.883 85.3281C177.426 85.8516 177.729 86.5625 177.791 87.4609L177.803 87.8945C177.803 88.8672 177.531 89.6484 176.988 90.2383C176.445 90.8242 175.717 91.1172 174.803 91.1172C173.889 91.1172 173.158 90.8242 172.611 90.2383C172.068 89.6523 171.797 88.8555 171.797 87.8477V87.7715ZM173.49 87.8945C173.49 88.4961 173.604 88.957 173.83 89.2773C174.057 89.5938 174.381 89.752 174.803 89.752C175.213 89.752 175.533 89.5957 175.764 89.2832C175.994 88.9668 176.109 88.4629 176.109 87.7715C176.109 87.1816 175.994 86.7246 175.764 86.4004C175.533 86.0762 175.209 85.9141 174.791 85.9141C174.377 85.9141 174.057 86.0762 173.83 86.4004C173.604 86.7207 173.49 87.2188 173.49 87.8945ZM184.553 87.8887C184.553 88.8652 184.33 89.6484 183.885 90.2383C183.443 90.8242 182.846 91.1172 182.092 91.1172C181.451 91.1172 180.934 90.8945 180.539 90.4492V93.4375H178.846V84.6602H180.416L180.475 85.2812C180.885 84.7891 181.42 84.543 182.08 84.543C182.861 84.543 183.469 84.832 183.902 85.4102C184.336 85.9883 184.553 86.7852 184.553 87.8008V87.8887ZM182.859 87.7656C182.859 87.1758 182.754 86.7207 182.543 86.4004C182.336 86.0801 182.033 85.9199 181.635 85.9199C181.104 85.9199 180.738 86.123 180.539 86.5293V89.125C180.746 89.543 181.115 89.752 181.646 89.752C182.455 89.752 182.859 89.0898 182.859 87.7656ZM188.525 91.1172C187.596 91.1172 186.838 90.832 186.252 90.2617C185.67 89.6914 185.379 88.9316 185.379 87.9824V87.8184C185.379 87.1816 185.502 86.6133 185.748 86.1133C185.994 85.6094 186.342 85.2227 186.791 84.9531C187.244 84.6797 187.76 84.543 188.338 84.543C189.205 84.543 189.887 84.8164 190.383 85.3633C190.883 85.9102 191.133 86.6855 191.133 87.6895V88.3809H187.096C187.15 88.7949 187.314 89.127 187.588 89.377C187.865 89.627 188.215 89.752 188.637 89.752C189.289 89.752 189.799 89.5156 190.166 89.043L190.998 89.9746C190.744 90.334 190.4 90.6152 189.967 90.8184C189.533 91.0176 189.053 91.1172 188.525 91.1172ZM188.332 85.9141C187.996 85.9141 187.723 86.0273 187.512 86.2539C187.305 86.4805 187.172 86.8047 187.113 87.2266H189.469V87.0918C189.461 86.7168 189.359 86.4277 189.164 86.2246C188.969 86.0176 188.691 85.9141 188.332 85.9141ZM195.662 86.248C195.432 86.2168 195.229 86.2012 195.053 86.2012C194.412 86.2012 193.992 86.418 193.793 86.8516V91H192.1V84.6602H193.699L193.746 85.416C194.086 84.834 194.557 84.543 195.158 84.543C195.346 84.543 195.521 84.5684 195.686 84.6191L195.662 86.248Z" fill="black"/>
<path d="M314.617 78.4688H316.375V84.375C316.375 84.918 316.254 85.3984 316.012 85.8164C315.773 86.2305 315.436 86.5508 314.998 86.7773C314.561 87.0039 314.066 87.1172 313.516 87.1172C312.613 87.1172 311.91 86.8887 311.406 86.4316C310.902 85.9707 310.65 85.3203 310.65 84.4805H312.42C312.42 84.8984 312.508 85.207 312.684 85.4062C312.859 85.6055 313.137 85.7051 313.516 85.7051C313.852 85.7051 314.119 85.5898 314.318 85.3594C314.518 85.1289 314.617 84.8008 314.617 84.375V78.4688ZM321.443 87C321.365 86.8477 321.309 86.6582 321.273 86.4316C320.863 86.8887 320.33 87.1172 319.674 87.1172C319.053 87.1172 318.537 86.9375 318.127 86.5781C317.721 86.2188 317.518 85.7656 317.518 85.2188C317.518 84.5469 317.766 84.0312 318.262 83.6719C318.762 83.3125 319.482 83.1309 320.424 83.127H321.203V82.7637C321.203 82.4707 321.127 82.2363 320.975 82.0605C320.826 81.8848 320.59 81.7969 320.266 81.7969C319.98 81.7969 319.756 81.8652 319.592 82.002C319.432 82.1387 319.352 82.3262 319.352 82.5645H317.658C317.658 82.1973 317.771 81.8574 317.998 81.5449C318.225 81.2324 318.545 80.9883 318.959 80.8125C319.373 80.6328 319.838 80.543 320.354 80.543C321.135 80.543 321.754 80.7402 322.211 81.1348C322.672 81.5254 322.902 82.0762 322.902 82.7871V85.5352C322.906 86.1367 322.99 86.5918 323.154 86.9004V87H321.443ZM320.043 85.8223C320.293 85.8223 320.523 85.7676 320.734 85.6582C320.945 85.5449 321.102 85.3945 321.203 85.207V84.1172H320.57C319.723 84.1172 319.271 84.4102 319.217 84.9961L319.211 85.0957C319.211 85.3066 319.285 85.4805 319.434 85.6172C319.582 85.7539 319.785 85.8223 320.043 85.8223ZM326.482 84.9316L327.66 80.6602H329.43L327.291 87H325.674L323.535 80.6602H325.305L326.482 84.9316ZM333.76 87C333.682 86.8477 333.625 86.6582 333.59 86.4316C333.18 86.8887 332.646 87.1172 331.99 87.1172C331.369 87.1172 330.854 86.9375 330.443 86.5781C330.037 86.2188 329.834 85.7656 329.834 85.2188C329.834 84.5469 330.082 84.0312 330.578 83.6719C331.078 83.3125 331.799 83.1309 332.74 83.127H333.52V82.7637C333.52 82.4707 333.443 82.2363 333.291 82.0605C333.143 81.8848 332.906 81.7969 332.582 81.7969C332.297 81.7969 332.072 81.8652 331.908 82.002C331.748 82.1387 331.668 82.3262 331.668 82.5645H329.975C329.975 82.1973 330.088 81.8574 330.314 81.5449C330.541 81.2324 330.861 80.9883 331.275 80.8125C331.689 80.6328 332.154 80.543 332.67 80.543C333.451 80.543 334.07 80.7402 334.527 81.1348C334.988 81.5254 335.219 82.0762 335.219 82.7871V85.5352C335.223 86.1367 335.307 86.5918 335.471 86.9004V87H333.76ZM332.359 85.8223C332.609 85.8223 332.84 85.7676 333.051 85.6582C333.262 85.5449 333.418 85.3945 333.52 85.207V84.1172H332.887C332.039 84.1172 331.588 84.4102 331.533 84.9961L331.527 85.0957C331.527 85.3066 331.602 85.4805 331.75 85.6172C331.898 85.7539 332.102 85.8223 332.359 85.8223ZM344.752 83.5137H341.377V87H339.619V78.4688H345.174V79.8926H341.377V82.0957H344.752V83.5137ZM349.75 86.3555C349.332 86.8633 348.754 87.1172 348.016 87.1172C347.336 87.1172 346.816 86.9219 346.457 86.5312C346.102 86.1406 345.92 85.5684 345.912 84.8145V80.6602H347.605V84.7559C347.605 85.416 347.906 85.7461 348.508 85.7461C349.082 85.7461 349.477 85.5469 349.691 85.1484V80.6602H351.391V87H349.797L349.75 86.3555ZM354.455 87H352.756V78H354.455V87ZM357.643 87H355.943V78H357.643V87ZM362.336 84.0293H359.037V82.6641H362.336V84.0293ZM368.23 84.7617C368.23 84.4297 368.113 84.1758 367.879 84C367.645 83.8203 367.223 83.6328 366.613 83.4375C366.004 83.2383 365.521 83.043 365.166 82.8516C364.197 82.3281 363.713 81.623 363.713 80.7363C363.713 80.2754 363.842 79.8652 364.1 79.5059C364.361 79.1426 364.734 78.8594 365.219 78.6562C365.707 78.4531 366.254 78.3516 366.859 78.3516C367.469 78.3516 368.012 78.4629 368.488 78.6855C368.965 78.9043 369.334 79.2148 369.596 79.6172C369.861 80.0195 369.994 80.4766 369.994 80.9883H368.236C368.236 80.5977 368.113 80.2949 367.867 80.0801C367.621 79.8613 367.275 79.752 366.83 79.752C366.4 79.752 366.066 79.8438 365.828 80.0273C365.59 80.207 365.471 80.4453 365.471 80.7422C365.471 81.0195 365.609 81.252 365.887 81.4395C366.168 81.627 366.58 81.8027 367.123 81.9668C368.123 82.2676 368.852 82.6406 369.309 83.0859C369.766 83.5312 369.994 84.0859 369.994 84.75C369.994 85.4883 369.715 86.0684 369.156 86.4902C368.598 86.9082 367.846 87.1172 366.9 87.1172C366.244 87.1172 365.646 86.998 365.107 86.7598C364.568 86.5176 364.156 86.1875 363.871 85.7695C363.59 85.3516 363.449 84.8672 363.449 84.3164H365.213C365.213 85.2578 365.775 85.7285 366.9 85.7285C367.318 85.7285 367.645 85.6445 367.879 85.4766C368.113 85.3047 368.23 85.0664 368.23 84.7617ZM373.105 79.1016V80.6602H374.189V81.9023H373.105V85.0664C373.105 85.3008 373.15 85.4688 373.24 85.5703C373.33 85.6719 373.502 85.7227 373.756 85.7227C373.943 85.7227 374.109 85.709 374.254 85.6816V86.9648C373.922 87.0664 373.58 87.1172 373.229 87.1172C372.041 87.1172 371.436 86.5176 371.412 85.3184V81.9023H370.486V80.6602H371.412V79.1016H373.105ZM378.807 87C378.729 86.8477 378.672 86.6582 378.637 86.4316C378.227 86.8887 377.693 87.1172 377.037 87.1172C376.416 87.1172 375.9 86.9375 375.49 86.5781C375.084 86.2188 374.881 85.7656 374.881 85.2188C374.881 84.5469 375.129 84.0312 375.625 83.6719C376.125 83.3125 376.846 83.1309 377.787 83.127H378.566V82.7637C378.566 82.4707 378.49 82.2363 378.338 82.0605C378.189 81.8848 377.953 81.7969 377.629 81.7969C377.344 81.7969 377.119 81.8652 376.955 82.002C376.795 82.1387 376.715 82.3262 376.715 82.5645H375.021C375.021 82.1973 375.135 81.8574 375.361 81.5449C375.588 81.2324 375.908 80.9883 376.322 80.8125C376.736 80.6328 377.201 80.543 377.717 80.543C378.498 80.543 379.117 80.7402 379.574 81.1348C380.035 81.5254 380.266 82.0762 380.266 82.7871V85.5352C380.27 86.1367 380.354 86.5918 380.518 86.9004V87H378.807ZM377.406 85.8223C377.656 85.8223 377.887 85.7676 378.098 85.6582C378.309 85.5449 378.465 85.3945 378.566 85.207V84.1172H377.934C377.086 84.1172 376.635 84.4102 376.58 84.9961L376.574 85.0957C376.574 85.3066 376.648 85.4805 376.797 85.6172C376.945 85.7539 377.148 85.8223 377.406 85.8223ZM384.203 85.752C384.516 85.752 384.77 85.666 384.965 85.4941C385.16 85.3223 385.262 85.0938 385.27 84.8086H386.857C386.854 85.2383 386.736 85.6328 386.506 85.9922C386.275 86.3477 385.959 86.625 385.557 86.8242C385.158 87.0195 384.717 87.1172 384.232 87.1172C383.326 87.1172 382.611 86.8301 382.088 86.2559C381.564 85.6777 381.303 84.8809 381.303 83.8652V83.7539C381.303 82.7773 381.562 81.998 382.082 81.416C382.602 80.834 383.314 80.543 384.221 80.543C385.014 80.543 385.648 80.7695 386.125 81.2227C386.605 81.6719 386.85 82.2715 386.857 83.0215H385.27C385.262 82.6934 385.16 82.4277 384.965 82.2246C384.77 82.0176 384.512 81.9141 384.191 81.9141C383.797 81.9141 383.498 82.0586 383.295 82.3477C383.096 82.6328 382.996 83.0977 382.996 83.7422V83.918C382.996 84.5703 383.096 85.0391 383.295 85.3242C383.494 85.6094 383.797 85.752 384.203 85.752ZM390.127 84.457L389.518 85.0664V87H387.824V78H389.518V82.9863L389.846 82.5645L391.469 80.6602H393.502L391.211 83.3027L393.701 87H391.756L390.127 84.457ZM325.609 101V92.4688H328.234C328.984 92.4688 329.654 92.6387 330.244 92.9785C330.838 93.3145 331.301 93.7949 331.633 94.4199C331.965 95.041 332.131 95.748 332.131 96.541V96.9336C332.131 97.7266 331.967 98.4316 331.639 99.0488C331.314 99.666 330.855 100.145 330.262 100.484C329.668 100.824 328.998 100.996 328.252 101H325.609ZM327.367 93.8926V99.5879H328.217C328.904 99.5879 329.43 99.3633 329.793 98.9141C330.156 98.4648 330.342 97.8223 330.35 96.9863V96.5352C330.35 95.668 330.17 95.0117 329.811 94.5664C329.451 94.1172 328.926 93.8926 328.234 93.8926H327.367ZM336.221 101.117C335.291 101.117 334.533 100.832 333.947 100.262C333.365 99.6914 333.074 98.9316 333.074 97.9824V97.8184C333.074 97.1816 333.197 96.6133 333.443 96.1133C333.689 95.6094 334.037 95.2227 334.486 94.9531C334.939 94.6797 335.455 94.543 336.033 94.543C336.9 94.543 337.582 94.8164 338.078 95.3633C338.578 95.9102 338.828 96.6855 338.828 97.6895V98.3809H334.791C334.846 98.7949 335.01 99.127 335.283 99.377C335.561 99.627 335.91 99.752 336.332 99.752C336.984 99.752 337.494 99.5156 337.861 99.043L338.693 99.9746C338.439 100.334 338.096 100.615 337.662 100.818C337.229 101.018 336.748 101.117 336.221 101.117ZM336.027 95.9141C335.691 95.9141 335.418 96.0273 335.207 96.2539C335 96.4805 334.867 96.8047 334.809 97.2266H337.164V97.0918C337.156 96.7168 337.055 96.4277 336.859 96.2246C336.664 96.0176 336.387 95.9141 336.027 95.9141ZM342.086 98.9316L343.264 94.6602H345.033L342.895 101H341.277L339.139 94.6602H340.908L342.086 98.9316ZM348.619 101.117C347.689 101.117 346.932 100.832 346.346 100.262C345.764 99.6914 345.473 98.9316 345.473 97.9824V97.8184C345.473 97.1816 345.596 96.6133 345.842 96.1133C346.088 95.6094 346.436 95.2227 346.885 94.9531C347.338 94.6797 347.854 94.543 348.432 94.543C349.299 94.543 349.98 94.8164 350.477 95.3633C350.977 95.9102 351.227 96.6855 351.227 97.6895V98.3809H347.189C347.244 98.7949 347.408 99.127 347.682 99.377C347.959 99.627 348.309 99.752 348.73 99.752C349.383 99.752 349.893 99.5156 350.26 99.043L351.092 99.9746C350.838 100.334 350.494 100.615 350.061 100.818C349.627 101.018 349.146 101.117 348.619 101.117ZM348.426 95.9141C348.09 95.9141 347.816 96.0273 347.605 96.2539C347.398 96.4805 347.266 96.8047 347.207 97.2266H349.562V97.0918C349.555 96.7168 349.453 96.4277 349.258 96.2246C349.062 96.0176 348.785 95.9141 348.426 95.9141ZM353.98 101H352.281V92H353.98V101ZM355.117 97.7715C355.117 97.1426 355.238 96.582 355.48 96.0898C355.723 95.5977 356.07 95.2168 356.523 94.9473C356.98 94.6777 357.51 94.543 358.111 94.543C358.967 94.543 359.664 94.8047 360.203 95.3281C360.746 95.8516 361.049 96.5625 361.111 97.4609L361.123 97.8945C361.123 98.8672 360.852 99.6484 360.309 100.238C359.766 100.824 359.037 101.117 358.123 101.117C357.209 101.117 356.479 100.824 355.932 100.238C355.389 99.6523 355.117 98.8555 355.117 97.8477V97.7715ZM356.811 97.8945C356.811 98.4961 356.924 98.957 357.15 99.2773C357.377 99.5938 357.701 99.752 358.123 99.752C358.533 99.752 358.854 99.5957 359.084 99.2832C359.314 98.9668 359.43 98.4629 359.43 97.7715C359.43 97.1816 359.314 96.7246 359.084 96.4004C358.854 96.0762 358.529 95.9141 358.111 95.9141C357.697 95.9141 357.377 96.0762 357.15 96.4004C356.924 96.7207 356.811 97.2188 356.811 97.8945ZM367.873 97.8887C367.873 98.8652 367.65 99.6484 367.205 100.238C366.764 100.824 366.166 101.117 365.412 101.117C364.771 101.117 364.254 100.895 363.859 100.449V103.438H362.166V94.6602H363.736L363.795 95.2812C364.205 94.7891 364.74 94.543 365.4 94.543C366.182 94.543 366.789 94.832 367.223 95.4102C367.656 95.9883 367.873 96.7852 367.873 97.8008V97.8887ZM366.18 97.7656C366.18 97.1758 366.074 96.7207 365.863 96.4004C365.656 96.0801 365.354 95.9199 364.955 95.9199C364.424 95.9199 364.059 96.123 363.859 96.5293V99.125C364.066 99.543 364.436 99.752 364.967 99.752C365.775 99.752 366.18 99.0898 366.18 97.7656ZM371.846 101.117C370.916 101.117 370.158 100.832 369.572 100.262C368.99 99.6914 368.699 98.9316 368.699 97.9824V97.8184C368.699 97.1816 368.822 96.6133 369.068 96.1133C369.314 95.6094 369.662 95.2227 370.111 94.9531C370.564 94.6797 371.08 94.543 371.658 94.543C372.525 94.543 373.207 94.8164 373.703 95.3633C374.203 95.9102 374.453 96.6855 374.453 97.6895V98.3809H370.416C370.471 98.7949 370.635 99.127 370.908 99.377C371.186 99.627 371.535 99.752 371.957 99.752C372.609 99.752 373.119 99.5156 373.486 99.043L374.318 99.9746C374.064 100.334 373.721 100.615 373.287 100.818C372.854 101.018 372.373 101.117 371.846 101.117ZM371.652 95.9141C371.316 95.9141 371.043 96.0273 370.832 96.2539C370.625 96.4805 370.492 96.8047 370.434 97.2266H372.789V97.0918C372.781 96.7168 372.68 96.4277 372.484 96.2246C372.289 96.0176 372.012 95.9141 371.652 95.9141ZM378.982 96.248C378.752 96.2168 378.549 96.2012 378.373 96.2012C377.732 96.2012 377.312 96.418 377.113 96.8516V101H375.42V94.6602H377.02L377.066 95.416C377.406 94.834 377.877 94.543 378.479 94.543C378.666 94.543 378.842 94.5684 379.006 94.6191L378.982 96.248Z" fill="black"/>
<path d="M544.01 80.2422H540.928L540.342 82H538.473L541.648 73.4688H543.277L546.471 82H544.602L544.01 80.2422ZM541.402 78.8184H543.535L542.463 75.625L541.402 78.8184ZM552.582 78.8887C552.582 79.8652 552.359 80.6484 551.914 81.2383C551.473 81.8242 550.875 82.1172 550.121 82.1172C549.48 82.1172 548.963 81.8945 548.568 81.4492V84.4375H546.875V75.6602H548.445L548.504 76.2812C548.914 75.7891 549.449 75.543 550.109 75.543C550.891 75.543 551.498 75.832 551.932 76.4102C552.365 76.9883 552.582 77.7852 552.582 78.8008V78.8887ZM550.889 78.7656C550.889 78.1758 550.783 77.7207 550.572 77.4004C550.365 77.0801 550.062 76.9199 549.664 76.9199C549.133 76.9199 548.768 77.123 548.568 77.5293V80.125C548.775 80.543 549.145 80.752 549.676 80.752C550.484 80.752 550.889 80.0898 550.889 78.7656ZM559.344 78.8887C559.344 79.8652 559.121 80.6484 558.676 81.2383C558.234 81.8242 557.637 82.1172 556.883 82.1172C556.242 82.1172 555.725 81.8945 555.33 81.4492V84.4375H553.637V75.6602H555.207L555.266 76.2812C555.676 75.7891 556.211 75.543 556.871 75.543C557.652 75.543 558.26 75.832 558.693 76.4102C559.127 76.9883 559.344 77.7852 559.344 78.8008V78.8887ZM557.65 78.7656C557.65 78.1758 557.545 77.7207 557.334 77.4004C557.127 77.0801 556.824 76.9199 556.426 76.9199C555.895 76.9199 555.529 77.123 555.33 77.5293V80.125C555.537 80.543 555.906 80.752 556.438 80.752C557.246 80.752 557.65 80.0898 557.65 78.7656ZM562.186 82H560.486V73H562.186V82ZM565.373 82H563.674V75.6602H565.373V82ZM563.574 74.0195C563.574 73.7656 563.658 73.5566 563.826 73.3926C563.998 73.2285 564.23 73.1465 564.523 73.1465C564.812 73.1465 565.043 73.2285 565.215 73.3926C565.387 73.5566 565.473 73.7656 565.473 74.0195C565.473 74.2773 565.385 74.4883 565.209 74.6523C565.037 74.8164 564.809 74.8984 564.523 74.8984C564.238 74.8984 564.008 74.8164 563.832 74.6523C563.66 74.4883 563.574 74.2773 563.574 74.0195ZM569.41 80.752C569.723 80.752 569.977 80.666 570.172 80.4941C570.367 80.3223 570.469 80.0938 570.477 79.8086H572.064C572.061 80.2383 571.943 80.6328 571.713 80.9922C571.482 81.3477 571.166 81.625 570.764 81.8242C570.365 82.0195 569.924 82.1172 569.439 82.1172C568.533 82.1172 567.818 81.8301 567.295 81.2559C566.771 80.6777 566.51 79.8809 566.51 78.8652V78.7539C566.51 77.7773 566.77 76.998 567.289 76.416C567.809 75.834 568.521 75.543 569.428 75.543C570.221 75.543 570.855 75.7695 571.332 76.2227C571.812 76.6719 572.057 77.2715 572.064 78.0215H570.477C570.469 77.6934 570.367 77.4277 570.172 77.2246C569.977 77.0176 569.719 76.9141 569.398 76.9141C569.004 76.9141 568.705 77.0586 568.502 77.3477C568.303 77.6328 568.203 78.0977 568.203 78.7422V78.918C568.203 79.5703 568.303 80.0391 568.502 80.3242C568.701 80.6094 569.004 80.752 569.41 80.752ZM576.705 82C576.627 81.8477 576.57 81.6582 576.535 81.4316C576.125 81.8887 575.592 82.1172 574.936 82.1172C574.314 82.1172 573.799 81.9375 573.389 81.5781C572.982 81.2188 572.779 80.7656 572.779 80.2188C572.779 79.5469 573.027 79.0312 573.523 78.6719C574.023 78.3125 574.744 78.1309 575.686 78.127H576.465V77.7637C576.465 77.4707 576.389 77.2363 576.236 77.0605C576.088 76.8848 575.852 76.7969 575.527 76.7969C575.242 76.7969 575.018 76.8652 574.854 77.002C574.693 77.1387 574.613 77.3262 574.613 77.5645H572.92C572.92 77.1973 573.033 76.8574 573.26 76.5449C573.486 76.2324 573.807 75.9883 574.221 75.8125C574.635 75.6328 575.1 75.543 575.615 75.543C576.396 75.543 577.016 75.7402 577.473 76.1348C577.934 76.5254 578.164 77.0762 578.164 77.7871V80.5352C578.168 81.1367 578.252 81.5918 578.416 81.9004V82H576.705ZM575.305 80.8223C575.555 80.8223 575.785 80.7676 575.996 80.6582C576.207 80.5449 576.363 80.3945 576.465 80.207V79.1172H575.832C574.984 79.1172 574.533 79.4102 574.479 79.9961L574.473 80.0957C574.473 80.3066 574.547 80.4805 574.695 80.6172C574.844 80.7539 575.047 80.8223 575.305 80.8223ZM581.492 74.1016V75.6602H582.576V76.9023H581.492V80.0664C581.492 80.3008 581.537 80.4688 581.627 80.5703C581.717 80.6719 581.889 80.7227 582.143 80.7227C582.33 80.7227 582.496 80.709 582.641 80.6816V81.9648C582.309 82.0664 581.967 82.1172 581.615 82.1172C580.428 82.1172 579.822 81.5176 579.799 80.3184V76.9023H578.873V75.6602H579.799V74.1016H581.492ZM585.307 82H583.607V75.6602H585.307V82ZM583.508 74.0195C583.508 73.7656 583.592 73.5566 583.76 73.3926C583.932 73.2285 584.164 73.1465 584.457 73.1465C584.746 73.1465 584.977 73.2285 585.148 73.3926C585.32 73.5566 585.406 73.7656 585.406 74.0195C585.406 74.2773 585.318 74.4883 585.143 74.6523C584.971 74.8164 584.742 74.8984 584.457 74.8984C584.172 74.8984 583.941 74.8164 583.766 74.6523C583.594 74.4883 583.508 74.2773 583.508 74.0195ZM586.443 78.7715C586.443 78.1426 586.564 77.582 586.807 77.0898C587.049 76.5977 587.396 76.2168 587.85 75.9473C588.307 75.6777 588.836 75.543 589.438 75.543C590.293 75.543 590.99 75.8047 591.529 76.3281C592.072 76.8516 592.375 77.5625 592.438 78.4609L592.449 78.8945C592.449 79.8672 592.178 80.6484 591.635 81.2383C591.092 81.8242 590.363 82.1172 589.449 82.1172C588.535 82.1172 587.805 81.8242 587.258 81.2383C586.715 80.6523 586.443 79.8555 586.443 78.8477V78.7715ZM588.137 78.8945C588.137 79.4961 588.25 79.957 588.477 80.2773C588.703 80.5938 589.027 80.752 589.449 80.752C589.859 80.752 590.18 80.5957 590.41 80.2832C590.641 79.9668 590.756 79.4629 590.756 78.7715C590.756 78.1816 590.641 77.7246 590.41 77.4004C590.18 77.0762 589.855 76.9141 589.438 76.9141C589.023 76.9141 588.703 77.0762 588.477 77.4004C588.25 77.7207 588.137 78.2188 588.137 78.8945ZM595.051 75.6602L595.104 76.3926C595.557 75.8262 596.164 75.543 596.926 75.543C597.598 75.543 598.098 75.7402 598.426 76.1348C598.754 76.5293 598.922 77.1191 598.93 77.9043V82H597.236V77.9453C597.236 77.5859 597.158 77.3262 597.002 77.166C596.846 77.002 596.586 76.9199 596.223 76.9199C595.746 76.9199 595.389 77.123 595.15 77.5293V82H593.457V75.6602H595.051ZM549.898 94.2422H546.816L546.23 96H544.361L547.537 87.4688H549.166L552.359 96H550.49L549.898 94.2422ZM547.291 92.8184H549.424L548.352 89.625L547.291 92.8184ZM556.607 91.248C556.377 91.2168 556.174 91.2012 555.998 91.2012C555.357 91.2012 554.938 91.418 554.738 91.8516V96H553.045V89.6602H554.645L554.691 90.416C555.031 89.834 555.502 89.543 556.104 89.543C556.291 89.543 556.467 89.5684 556.631 89.6191L556.607 91.248ZM559.947 94.752C560.26 94.752 560.514 94.666 560.709 94.4941C560.904 94.3223 561.006 94.0938 561.014 93.8086H562.602C562.598 94.2383 562.48 94.6328 562.25 94.9922C562.02 95.3477 561.703 95.625 561.301 95.8242C560.902 96.0195 560.461 96.1172 559.977 96.1172C559.07 96.1172 558.355 95.8301 557.832 95.2559C557.309 94.6777 557.047 93.8809 557.047 92.8652V92.7539C557.047 91.7773 557.307 90.998 557.826 90.416C558.346 89.834 559.059 89.543 559.965 89.543C560.758 89.543 561.393 89.7695 561.869 90.2227C562.35 90.6719 562.594 91.2715 562.602 92.0215H561.014C561.006 91.6934 560.904 91.4277 560.709 91.2246C560.514 91.0176 560.256 90.9141 559.936 90.9141C559.541 90.9141 559.242 91.0586 559.039 91.3477C558.84 91.6328 558.74 92.0977 558.74 92.7422V92.918C558.74 93.5703 558.84 94.0391 559.039 94.3242C559.238 94.6094 559.541 94.752 559.947 94.752ZM565.221 90.3516C565.67 89.8125 566.234 89.543 566.914 89.543C568.289 89.543 568.986 90.3418 569.006 91.9395V96H567.312V91.9863C567.312 91.623 567.234 91.3555 567.078 91.1836C566.922 91.0078 566.662 90.9199 566.299 90.9199C565.803 90.9199 565.443 91.1113 565.221 91.4941V96H563.527V87H565.221V90.3516ZM572.07 96H570.371V89.6602H572.07V96ZM570.271 88.0195C570.271 87.7656 570.355 87.5566 570.523 87.3926C570.695 87.2285 570.928 87.1465 571.221 87.1465C571.51 87.1465 571.74 87.2285 571.912 87.3926C572.084 87.5566 572.17 87.7656 572.17 88.0195C572.17 88.2773 572.082 88.4883 571.906 88.6523C571.734 88.8164 571.506 88.8984 571.221 88.8984C570.936 88.8984 570.705 88.8164 570.529 88.6523C570.357 88.4883 570.271 88.2773 570.271 88.0195ZM575.498 88.1016V89.6602H576.582V90.9023H575.498V94.0664C575.498 94.3008 575.543 94.4688 575.633 94.5703C575.723 94.6719 575.895 94.7227 576.148 94.7227C576.336 94.7227 576.502 94.709 576.646 94.6816V95.9648C576.314 96.0664 575.973 96.1172 575.621 96.1172C574.434 96.1172 573.828 95.5176 573.805 94.3184V90.9023H572.879V89.6602H573.805V88.1016H575.498ZM580.443 96.1172C579.514 96.1172 578.756 95.832 578.17 95.2617C577.588 94.6914 577.297 93.9316 577.297 92.9824V92.8184C577.297 92.1816 577.42 91.6133 577.666 91.1133C577.912 90.6094 578.26 90.2227 578.709 89.9531C579.162 89.6797 579.678 89.543 580.256 89.543C581.123 89.543 581.805 89.8164 582.301 90.3633C582.801 90.9102 583.051 91.6855 583.051 92.6895V93.3809H579.014C579.068 93.7949 579.232 94.127 579.506 94.377C579.783 94.627 580.133 94.752 580.555 94.752C581.207 94.752 581.717 94.5156 582.084 94.043L582.916 94.9746C582.662 95.334 582.318 95.6152 581.885 95.8184C581.451 96.0176 580.971 96.1172 580.443 96.1172ZM580.25 90.9141C579.914 90.9141 579.641 91.0273 579.43 91.2539C579.223 91.4805 579.09 91.8047 579.031 92.2266H581.387V92.0918C581.379 91.7168 581.277 91.4277 581.082 91.2246C580.887 91.0176 580.609 90.9141 580.25 90.9141ZM586.654 94.752C586.967 94.752 587.221 94.666 587.416 94.4941C587.611 94.3223 587.713 94.0938 587.721 93.8086H589.309C589.305 94.2383 589.188 94.6328 588.957 94.9922C588.727 95.3477 588.41 95.625 588.008 95.8242C587.609 96.0195 587.168 96.1172 586.684 96.1172C585.777 96.1172 585.062 95.8301 584.539 95.2559C584.016 94.6777 583.754 93.8809 583.754 92.8652V92.7539C583.754 91.7773 584.014 90.998 584.533 90.416C585.053 89.834 585.766 89.543 586.672 89.543C587.465 89.543 588.1 89.7695 588.576 90.2227C589.057 90.6719 589.301 91.2715 589.309 92.0215H587.721C587.713 91.6934 587.611 91.4277 587.416 91.2246C587.221 91.0176 586.963 90.9141 586.643 90.9141C586.248 90.9141 585.949 91.0586 585.746 91.3477C585.547 91.6328 585.447 92.0977 585.447 92.7422V92.918C585.447 93.5703 585.547 94.0391 585.746 94.3242C585.945 94.6094 586.248 94.752 586.654 94.752ZM592.303 88.1016V89.6602H593.387V90.9023H592.303V94.0664C592.303 94.3008 592.348 94.4688 592.438 94.5703C592.527 94.6719 592.699 94.7227 592.953 94.7227C593.141 94.7227 593.307 94.709 593.451 94.6816V95.9648C593.119 96.0664 592.777 96.1172 592.426 96.1172C591.238 96.1172 590.633 95.5176 590.609 94.3184V90.9023H589.684V89.6602H590.609V88.1016H592.303Z" fill="black"/>
<path d="M744.178 77.9941V81H742.42V72.4688H745.748C746.389 72.4688 746.951 72.5859 747.436 72.8203C747.924 73.0547 748.299 73.3887 748.561 73.8223C748.822 74.252 748.953 74.7422 748.953 75.293C748.953 76.1289 748.666 76.7891 748.092 77.2734C747.521 77.7539 746.73 77.9941 745.719 77.9941H744.178ZM744.178 76.5703H745.748C746.213 76.5703 746.566 76.4609 746.809 76.2422C747.055 76.0234 747.178 75.7109 747.178 75.3047C747.178 74.8867 747.055 74.5488 746.809 74.291C746.562 74.0332 746.223 73.9004 745.789 73.8926H744.178V76.5703ZM753.617 76.248C753.387 76.2168 753.184 76.2012 753.008 76.2012C752.367 76.2012 751.947 76.418 751.748 76.8516V81H750.055V74.6602H751.654L751.701 75.416C752.041 74.834 752.512 74.543 753.113 74.543C753.301 74.543 753.477 74.5684 753.641 74.6191L753.617 76.248ZM756.225 81H754.525V74.6602H756.225V81ZM754.426 73.0195C754.426 72.7656 754.51 72.5566 754.678 72.3926C754.85 72.2285 755.082 72.1465 755.375 72.1465C755.664 72.1465 755.895 72.2285 756.066 72.3926C756.238 72.5566 756.324 72.7656 756.324 73.0195C756.324 73.2773 756.236 73.4883 756.061 73.6523C755.889 73.8164 755.66 73.8984 755.375 73.8984C755.09 73.8984 754.859 73.8164 754.684 73.6523C754.512 73.4883 754.426 73.2773 754.426 73.0195ZM759.184 74.6602L759.236 75.3926C759.689 74.8262 760.297 74.543 761.059 74.543C761.73 74.543 762.23 74.7402 762.559 75.1348C762.887 75.5293 763.055 76.1191 763.062 76.9043V81H761.369V76.9453C761.369 76.5859 761.291 76.3262 761.135 76.166C760.979 76.002 760.719 75.9199 760.355 75.9199C759.879 75.9199 759.521 76.123 759.283 76.5293V81H757.59V74.6602H759.184ZM766.988 79.752C767.301 79.752 767.555 79.666 767.75 79.4941C767.945 79.3223 768.047 79.0938 768.055 78.8086H769.643C769.639 79.2383 769.521 79.6328 769.291 79.9922C769.061 80.3477 768.744 80.625 768.342 80.8242C767.943 81.0195 767.502 81.1172 767.018 81.1172C766.111 81.1172 765.396 80.8301 764.873 80.2559C764.35 79.6777 764.088 78.8809 764.088 77.8652V77.7539C764.088 76.7773 764.348 75.998 764.867 75.416C765.387 74.834 766.1 74.543 767.006 74.543C767.799 74.543 768.434 74.7695 768.91 75.2227C769.391 75.6719 769.635 76.2715 769.643 77.0215H768.055C768.047 76.6934 767.945 76.4277 767.75 76.2246C767.555 76.0176 767.297 75.9141 766.977 75.9141C766.582 75.9141 766.283 76.0586 766.08 76.3477C765.881 76.6328 765.781 77.0977 765.781 77.7422V77.918C765.781 78.5703 765.881 79.0391 766.08 79.3242C766.279 79.6094 766.582 79.752 766.988 79.752ZM772.396 81H770.697V74.6602H772.396V81ZM770.598 73.0195C770.598 72.7656 770.682 72.5566 770.85 72.3926C771.021 72.2285 771.254 72.1465 771.547 72.1465C771.836 72.1465 772.066 72.2285 772.238 72.3926C772.41 72.5566 772.496 72.7656 772.496 73.0195C772.496 73.2773 772.408 73.4883 772.232 73.6523C772.061 73.8164 771.832 73.8984 771.547 73.8984C771.262 73.8984 771.031 73.8164 770.855 73.6523C770.684 73.4883 770.598 73.2773 770.598 73.0195ZM779.504 77.8887C779.504 78.8652 779.281 79.6484 778.836 80.2383C778.395 80.8242 777.797 81.1172 777.043 81.1172C776.402 81.1172 775.885 80.8945 775.49 80.4492V83.4375H773.797V74.6602H775.367L775.426 75.2812C775.836 74.7891 776.371 74.543 777.031 74.543C777.812 74.543 778.42 74.832 778.854 75.4102C779.287 75.9883 779.504 76.7852 779.504 77.8008V77.8887ZM777.811 77.7656C777.811 77.1758 777.705 76.7207 777.494 76.4004C777.287 76.0801 776.984 75.9199 776.586 75.9199C776.055 75.9199 775.689 76.123 775.49 76.5293V79.125C775.697 79.543 776.066 79.752 776.598 79.752C777.406 79.752 777.811 79.0898 777.811 77.7656ZM784.232 81C784.154 80.8477 784.098 80.6582 784.062 80.4316C783.652 80.8887 783.119 81.1172 782.463 81.1172C781.842 81.1172 781.326 80.9375 780.916 80.5781C780.51 80.2188 780.307 79.7656 780.307 79.2188C780.307 78.5469 780.555 78.0312 781.051 77.6719C781.551 77.3125 782.271 77.1309 783.213 77.127H783.992V76.7637C783.992 76.4707 783.916 76.2363 783.764 76.0605C783.615 75.8848 783.379 75.7969 783.055 75.7969C782.77 75.7969 782.545 75.8652 782.381 76.002C782.221 76.1387 782.141 76.3262 782.141 76.5645H780.447C780.447 76.1973 780.561 75.8574 780.787 75.5449C781.014 75.2324 781.334 74.9883 781.748 74.8125C782.162 74.6328 782.627 74.543 783.143 74.543C783.924 74.543 784.543 74.7402 785 75.1348C785.461 75.5254 785.691 76.0762 785.691 76.7871V79.5352C785.695 80.1367 785.779 80.5918 785.943 80.9004V81H784.232ZM782.832 79.8223C783.082 79.8223 783.312 79.7676 783.523 79.6582C783.734 79.5449 783.891 79.3945 783.992 79.207V78.1172H783.359C782.512 78.1172 782.061 78.4102 782.006 78.9961L782 79.0957C782 79.3066 782.074 79.4805 782.223 79.6172C782.371 79.7539 782.574 79.8223 782.832 79.8223ZM788.779 81H787.08V72H788.779V81ZM797.703 78.7617C797.703 78.4297 797.586 78.1758 797.352 78C797.117 77.8203 796.695 77.6328 796.086 77.4375C795.477 77.2383 794.994 77.043 794.639 76.8516C793.67 76.3281 793.186 75.623 793.186 74.7363C793.186 74.2754 793.314 73.8652 793.572 73.5059C793.834 73.1426 794.207 72.8594 794.691 72.6562C795.18 72.4531 795.727 72.3516 796.332 72.3516C796.941 72.3516 797.484 72.4629 797.961 72.6855C798.438 72.9043 798.807 73.2148 799.068 73.6172C799.334 74.0195 799.467 74.4766 799.467 74.9883H797.709C797.709 74.5977 797.586 74.2949 797.34 74.0801C797.094 73.8613 796.748 73.752 796.303 73.752C795.873 73.752 795.539 73.8438 795.301 74.0273C795.062 74.207 794.943 74.4453 794.943 74.7422C794.943 75.0195 795.082 75.252 795.359 75.4395C795.641 75.627 796.053 75.8027 796.596 75.9668C797.596 76.2676 798.324 76.6406 798.781 77.0859C799.238 77.5312 799.467 78.0859 799.467 78.75C799.467 79.4883 799.188 80.0684 798.629 80.4902C798.07 80.9082 797.318 81.1172 796.373 81.1172C795.717 81.1172 795.119 80.998 794.58 80.7598C794.041 80.5176 793.629 80.1875 793.344 79.7695C793.062 79.3516 792.922 78.8672 792.922 78.3164H794.686C794.686 79.2578 795.248 79.7285 796.373 79.7285C796.791 79.7285 797.117 79.6445 797.352 79.4766C797.586 79.3047 797.703 79.0664 797.703 78.7617ZM800.287 77.7715C800.287 77.1426 800.408 76.582 800.65 76.0898C800.893 75.5977 801.24 75.2168 801.693 74.9473C802.15 74.6777 802.68 74.543 803.281 74.543C804.137 74.543 804.834 74.8047 805.373 75.3281C805.916 75.8516 806.219 76.5625 806.281 77.4609L806.293 77.8945C806.293 78.8672 806.021 79.6484 805.479 80.2383C804.936 80.8242 804.207 81.1172 803.293 81.1172C802.379 81.1172 801.648 80.8242 801.102 80.2383C800.559 79.6523 800.287 78.8555 800.287 77.8477V77.7715ZM801.98 77.8945C801.98 78.4961 802.094 78.957 802.32 79.2773C802.547 79.5938 802.871 79.752 803.293 79.752C803.703 79.752 804.023 79.5957 804.254 79.2832C804.484 78.9668 804.6 78.4629 804.6 77.7715C804.6 77.1816 804.484 76.7246 804.254 76.4004C804.023 76.0762 803.699 75.9141 803.281 75.9141C802.867 75.9141 802.547 76.0762 802.32 76.4004C802.094 76.7207 801.98 77.2188 801.98 77.8945ZM809.123 81H807.424V72H809.123V81ZM814.32 80.3555C813.902 80.8633 813.324 81.1172 812.586 81.1172C811.906 81.1172 811.387 80.9219 811.027 80.5312C810.672 80.1406 810.49 79.5684 810.482 78.8145V74.6602H812.176V78.7559C812.176 79.416 812.477 79.7461 813.078 79.7461C813.652 79.7461 814.047 79.5469 814.262 79.1484V74.6602H815.961V81H814.367L814.32 80.3555ZM819.266 73.1016V74.6602H820.35V75.9023H819.266V79.0664C819.266 79.3008 819.311 79.4688 819.4 79.5703C819.49 79.6719 819.662 79.7227 819.916 79.7227C820.104 79.7227 820.27 79.709 820.414 79.6816V80.9648C820.082 81.0664 819.74 81.1172 819.389 81.1172C818.201 81.1172 817.596 80.5176 817.572 79.3184V75.9023H816.646V74.6602H817.572V73.1016H819.266ZM823.08 81H821.381V74.6602H823.08V81ZM821.281 73.0195C821.281 72.7656 821.365 72.5566 821.533 72.3926C821.705 72.2285 821.938 72.1465 822.23 72.1465C822.52 72.1465 822.75 72.2285 822.922 72.3926C823.094 72.5566 823.18 72.7656 823.18 73.0195C823.18 73.2773 823.092 73.4883 822.916 73.6523C822.744 73.8164 822.516 73.8984 822.23 73.8984C821.945 73.8984 821.715 73.8164 821.539 73.6523C821.367 73.4883 821.281 73.2773 821.281 73.0195ZM824.217 77.7715C824.217 77.1426 824.338 76.582 824.58 76.0898C824.822 75.5977 825.17 75.2168 825.623 74.9473C826.08 74.6777 826.609 74.543 827.211 74.543C828.066 74.543 828.764 74.8047 829.303 75.3281C829.846 75.8516 830.148 76.5625 830.211 77.4609L830.223 77.8945C830.223 78.8672 829.951 79.6484 829.408 80.2383C828.865 80.8242 828.137 81.1172 827.223 81.1172C826.309 81.1172 825.578 80.8242 825.031 80.2383C824.488 79.6523 824.217 78.8555 824.217 77.8477V77.7715ZM825.91 77.8945C825.91 78.4961 826.023 78.957 826.25 79.2773C826.477 79.5938 826.801 79.752 827.223 79.752C827.633 79.752 827.953 79.5957 828.184 79.2832C828.414 78.9668 828.529 78.4629 828.529 77.7715C828.529 77.1816 828.414 76.7246 828.184 76.4004C827.953 76.0762 827.629 75.9141 827.211 75.9141C826.797 75.9141 826.477 76.0762 826.25 76.4004C826.023 76.7207 825.91 77.2188 825.91 77.8945ZM832.824 74.6602L832.877 75.3926C833.33 74.8262 833.938 74.543 834.699 74.543C835.371 74.543 835.871 74.7402 836.199 75.1348C836.527 75.5293 836.695 76.1191 836.703 76.9043V81H835.01V76.9453C835.01 76.5859 834.932 76.3262 834.775 76.166C834.619 76.002 834.359 75.9199 833.996 75.9199C833.52 75.9199 833.162 76.123 832.924 76.5293V81H831.23V74.6602H832.824ZM770.398 93.2422H767.316L766.73 95H764.861L768.037 86.4688H769.666L772.859 95H770.99L770.398 93.2422ZM767.791 91.8184H769.924L768.852 88.625L767.791 91.8184ZM777.107 90.248C776.877 90.2168 776.674 90.2012 776.498 90.2012C775.857 90.2012 775.438 90.418 775.238 90.8516V95H773.545V88.6602H775.145L775.191 89.416C775.531 88.834 776.002 88.543 776.604 88.543C776.791 88.543 776.967 88.5684 777.131 88.6191L777.107 90.248ZM780.447 93.752C780.76 93.752 781.014 93.666 781.209 93.4941C781.404 93.3223 781.506 93.0938 781.514 92.8086H783.102C783.098 93.2383 782.98 93.6328 782.75 93.9922C782.52 94.3477 782.203 94.625 781.801 94.8242C781.402 95.0195 780.961 95.1172 780.477 95.1172C779.57 95.1172 778.855 94.8301 778.332 94.2559C777.809 93.6777 777.547 92.8809 777.547 91.8652V91.7539C777.547 90.7773 777.807 89.998 778.326 89.416C778.846 88.834 779.559 88.543 780.465 88.543C781.258 88.543 781.893 88.7695 782.369 89.2227C782.85 89.6719 783.094 90.2715 783.102 91.0215H781.514C781.506 90.6934 781.404 90.4277 781.209 90.2246C781.014 90.0176 780.756 89.9141 780.436 89.9141C780.041 89.9141 779.742 90.0586 779.539 90.3477C779.34 90.6328 779.24 91.0977 779.24 91.7422V91.918C779.24 92.5703 779.34 93.0391 779.539 93.3242C779.738 93.6094 780.041 93.752 780.447 93.752ZM785.721 89.3516C786.17 88.8125 786.734 88.543 787.414 88.543C788.789 88.543 789.486 89.3418 789.506 90.9395V95H787.812V90.9863C787.812 90.623 787.734 90.3555 787.578 90.1836C787.422 90.0078 787.162 89.9199 786.799 89.9199C786.303 89.9199 785.943 90.1113 785.721 90.4941V95H784.027V86H785.721V89.3516ZM792.57 95H790.871V88.6602H792.57V95ZM790.771 87.0195C790.771 86.7656 790.855 86.5566 791.023 86.3926C791.195 86.2285 791.428 86.1465 791.721 86.1465C792.01 86.1465 792.24 86.2285 792.412 86.3926C792.584 86.5566 792.67 86.7656 792.67 87.0195C792.67 87.2773 792.582 87.4883 792.406 87.6523C792.234 87.8164 792.006 87.8984 791.721 87.8984C791.436 87.8984 791.205 87.8164 791.029 87.6523C790.857 87.4883 790.771 87.2773 790.771 87.0195ZM795.998 87.1016V88.6602H797.082V89.9023H795.998V93.0664C795.998 93.3008 796.043 93.4688 796.133 93.5703C796.223 93.6719 796.395 93.7227 796.648 93.7227C796.836 93.7227 797.002 93.709 797.146 93.6816V94.9648C796.814 95.0664 796.473 95.1172 796.121 95.1172C794.934 95.1172 794.328 94.5176 794.305 93.3184V89.9023H793.379V88.6602H794.305V87.1016H795.998ZM800.943 95.1172C800.014 95.1172 799.256 94.832 798.67 94.2617C798.088 93.6914 797.797 92.9316 797.797 91.9824V91.8184C797.797 91.1816 797.92 90.6133 798.166 90.1133C798.412 89.6094 798.76 89.2227 799.209 88.9531C799.662 88.6797 800.178 88.543 800.756 88.543C801.623 88.543 802.305 88.8164 802.801 89.3633C803.301 89.9102 803.551 90.6855 803.551 91.6895V92.3809H799.514C799.568 92.7949 799.732 93.127 800.006 93.377C800.283 93.627 800.633 93.752 801.055 93.752C801.707 93.752 802.217 93.5156 802.584 93.043L803.416 93.9746C803.162 94.334 802.818 94.6152 802.385 94.8184C801.951 95.0176 801.471 95.1172 800.943 95.1172ZM800.75 89.9141C800.414 89.9141 800.141 90.0273 799.93 90.2539C799.723 90.4805 799.59 90.8047 799.531 91.2266H801.887V91.0918C801.879 90.7168 801.777 90.4277 801.582 90.2246C801.387 90.0176 801.109 89.9141 800.75 89.9141ZM807.154 93.752C807.467 93.752 807.721 93.666 807.916 93.4941C808.111 93.3223 808.213 93.0938 808.221 92.8086H809.809C809.805 93.2383 809.688 93.6328 809.457 93.9922C809.227 94.3477 808.91 94.625 808.508 94.8242C808.109 95.0195 807.668 95.1172 807.184 95.1172C806.277 95.1172 805.562 94.8301 805.039 94.2559C804.516 93.6777 804.254 92.8809 804.254 91.8652V91.7539C804.254 90.7773 804.514 89.998 805.033 89.416C805.553 88.834 806.266 88.543 807.172 88.543C807.965 88.543 808.6 88.7695 809.076 89.2227C809.557 89.6719 809.801 90.2715 809.809 91.0215H808.221C808.213 90.6934 808.111 90.4277 807.916 90.2246C807.721 90.0176 807.463 89.9141 807.143 89.9141C806.748 89.9141 806.449 90.0586 806.246 90.3477C806.047 90.6328 805.947 91.0977 805.947 91.7422V91.918C805.947 92.5703 806.047 93.0391 806.246 93.3242C806.445 93.6094 806.748 93.752 807.154 93.752ZM812.803 87.1016V88.6602H813.887V89.9023H812.803V93.0664C812.803 93.3008 812.848 93.4688 812.938 93.5703C813.027 93.6719 813.199 93.7227 813.453 93.7227C813.641 93.7227 813.807 93.709 813.951 93.6816V94.9648C813.619 95.0664 813.277 95.1172 812.926 95.1172C811.738 95.1172 811.133 94.5176 811.109 93.3184V89.9023H810.184V88.6602H811.109V87.1016H812.803Z" fill="black"/>
<defs>
<filter id="filter0_d" x="70" y="47" width="152" height="85" filterUnits="userSpaceOnUse" color-interpolation-filters="sRGB">
<feFlood flood-opacity="0" result="BackgroundImageFix"/>
<feColorMatrix in="SourceAlpha" type="matrix" values="0 0 0 0 0 0 0 0 0 0 0 0 0 0 0 0 0 0 127 0"/>
<feOffset dy="4"/>
<feGaussianBlur stdDeviation="2"/>
<feColorMatrix type="matrix" values="0 0 0 0 0 0 0 0 0 0 0 0 0 0 0 0 0 0 0.25 0"/>
<feBlend mode="normal" in2="BackgroundImageFix" result="effect1_dropShadow"/>
<feBlend mode="normal" in="SourceGraphic" in2="effect1_dropShadow" result="shape"/>
</filter>
<filter id="filter1_d" x="276" y="49" width="152" height="84" filterUnits="userSpaceOnUse" color-interpolation-filters="sRGB">
<feFlood flood-opacity="0" result="BackgroundImageFix"/>
<feColorMatrix in="SourceAlpha" type="matrix" values="0 0 0 0 0 0 0 0 0 0 0 0 0 0 0 0 0 0 127 0"/>
<feOffset dy="4"/>
<feGaussianBlur stdDeviation="2"/>
<feColorMatrix type="matrix" values="0 0 0 0 0 0 0 0 0 0 0 0 0 0 0 0 0 0 0.25 0"/>
<feBlend mode="normal" in2="BackgroundImageFix" result="effect1_dropShadow"/>
<feBlend mode="normal" in="SourceGraphic" in2="effect1_dropShadow" result="shape"/>
</filter>
<filter id="filter2_d" x="709" y="48" width="152" height="84" filterUnits="userSpaceOnUse" color-interpolation-filters="sRGB">
<feFlood flood-opacity="0" result="BackgroundImageFix"/>
<feColorMatrix in="SourceAlpha" type="matrix" values="0 0 0 0 0 0 0 0 0 0 0 0 0 0 0 0 0 0 127 0"/>
<feOffset dy="4"/>
<feGaussianBlur stdDeviation="2"/>
<feColorMatrix type="matrix" values="0 0 0 0 0 0 0 0 0 0 0 0 0 0 0 0 0 0 0.25 0"/>
<feBlend mode="normal" in2="BackgroundImageFix" result="effect1_dropShadow"/>
<feBlend mode="normal" in="SourceGraphic" in2="effect1_dropShadow" result="shape"/>
</filter>
<filter id="filter3_d" x="490" y="47" width="152" height="84" filterUnits="userSpaceOnUse" color-interpolation-filters="sRGB">
<feFlood flood-opacity="0" result="BackgroundImageFix"/>
<feColorMatrix in="SourceAlpha" type="matrix" values="0 0 0 0 0 0 0 0 0 0 0 0 0 0 0 0 0 0 127 0"/>
<feOffset dy="4"/>
<feGaussianBlur stdDeviation="2"/>
<feColorMatrix type="matrix" values="0 0 0 0 0 0 0 0 0 0 0 0 0 0 0 0 0 0 0.25 0"/>
<feBlend mode="normal" in2="BackgroundImageFix" result="effect1_dropShadow"/>
<feBlend mode="normal" in="SourceGraphic" in2="effect1_dropShadow" result="shape"/>
</filter>
</defs>
</svg>
