<svg width="912" height="170" viewBox="0 0 912 170" fill="none" xmlns="http://www.w3.org/2000/svg">
<rect width="912" height="170" fill="white"/>
<rect x="217" y="96" width="22" height="487.975" transform="rotate(-90 217 96)" fill="#3742FA"/>
<path d="M706.061 87.1566C706.646 86.5709 706.646 85.6211 706.061 85.0353L696.515 75.4894C695.929 74.9036 694.979 74.9036 694.393 75.4894C693.808 76.0752 693.808 77.0249 694.393 77.6107L702.879 86.096L694.393 94.5813C693.808 95.167 693.808 96.1168 694.393 96.7026C694.979 97.2884 695.929 97.2884 696.515 96.7026L706.061 87.1566ZM222.493 87.596L705 87.596V84.596L222.493 84.596V87.596Z" fill="white"/>
<g filter="url(#filter0_d)">
<rect x="74" y="47" width="144" height="77" fill="white"/>
<rect x="74.5" y="47.5" width="143" height="76" stroke="#333333"/>
</g>
<g filter="url(#filter1_d)">
<rect x="276" y="47" width="144" height="76" fill="white"/>
<rect x="276.5" y="47.5" width="143" height="75" stroke="#333333"/>
</g>
<g filter="url(#filter2_d)">
<rect x="705" y="47" width="144" height="76" fill="white"/>
<rect x="705.5" y="47.5" width="143" height="75" stroke="#333333"/>
</g>
<g filter="url(#filter3_d)">
<path d="M491 47H635V123H491V47Z" fill="white"/>
<path d="M491.5 47.5H634.5V122.5H491.5V47.5Z" stroke="#333333"/>
</g>
<path d="M106.52 80.9941V84H104.762V75.4688H108.09C108.73 75.4688 109.293 75.5859 109.777 75.8203C110.266 76.0547 110.641 76.3887 110.902 76.8223C111.164 77.252 111.295 77.7422 111.295 78.293C111.295 79.1289 111.008 79.7891 110.434 80.2734C109.863 80.7539 109.072 80.9941 108.061 80.9941H106.52ZM106.52 79.5703H108.09C108.555 79.5703 108.908 79.4609 109.15 79.2422C109.396 79.0234 109.52 78.7109 109.52 78.3047C109.52 77.8867 109.396 77.5488 109.15 77.291C108.904 77.0332 108.564 76.9004 108.131 76.8926H106.52V79.5703ZM115.959 79.248C115.729 79.2168 115.525 79.2012 115.35 79.2012C114.709 79.2012 114.289 79.418 114.09 79.8516V84H112.396V77.6602H113.996L114.043 78.416C114.383 77.834 114.854 77.543 115.455 77.543C115.643 77.543 115.818 77.5684 115.982 77.6191L115.959 79.248ZM116.305 80.7715C116.305 80.1426 116.426 79.582 116.668 79.0898C116.91 78.5977 117.258 78.2168 117.711 77.9473C118.168 77.6777 118.697 77.543 119.299 77.543C120.154 77.543 120.852 77.8047 121.391 78.3281C121.934 78.8516 122.236 79.5625 122.299 80.4609L122.311 80.8945C122.311 81.8672 122.039 82.6484 121.496 83.2383C120.953 83.8242 120.225 84.1172 119.311 84.1172C118.396 84.1172 117.666 83.8242 117.119 83.2383C116.576 82.6523 116.305 81.8555 116.305 80.8477V80.7715ZM117.998 80.8945C117.998 81.4961 118.111 81.957 118.338 82.2773C118.564 82.5938 118.889 82.752 119.311 82.752C119.721 82.752 120.041 82.5957 120.271 82.2832C120.502 81.9668 120.617 81.4629 120.617 80.7715C120.617 80.1816 120.502 79.7246 120.271 79.4004C120.041 79.0762 119.717 78.9141 119.299 78.9141C118.885 78.9141 118.564 79.0762 118.338 79.4004C118.111 79.7207 117.998 80.2188 117.998 80.8945ZM125.146 77.6602V84.3457C125.146 85.0449 124.961 85.5879 124.59 85.9746C124.219 86.3652 123.684 86.5605 122.984 86.5605C122.691 86.5605 122.412 86.5273 122.146 86.4609V85.1191C122.35 85.1543 122.527 85.1719 122.68 85.1719C123.191 85.1719 123.447 84.9004 123.447 84.3574V77.6602H125.146ZM123.312 76.0195C123.312 75.7656 123.396 75.5566 123.564 75.3926C123.736 75.2285 123.969 75.1465 124.262 75.1465C124.555 75.1465 124.785 75.2285 124.953 75.3926C125.125 75.5566 125.211 75.7656 125.211 76.0195C125.211 76.2773 125.123 76.4883 124.947 76.6523C124.775 76.8164 124.547 76.8984 124.262 76.8984C123.977 76.8984 123.746 76.8164 123.57 76.6523C123.398 76.4883 123.312 76.2773 123.312 76.0195ZM129.389 84.1172C128.459 84.1172 127.701 83.832 127.115 83.2617C126.533 82.6914 126.242 81.9316 126.242 80.9824V80.8184C126.242 80.1816 126.365 79.6133 126.611 79.1133C126.857 78.6094 127.205 78.2227 127.654 77.9531C128.107 77.6797 128.623 77.543 129.201 77.543C130.068 77.543 130.75 77.8164 131.246 78.3633C131.746 78.9102 131.996 79.6855 131.996 80.6895V81.3809H127.959C128.014 81.7949 128.178 82.127 128.451 82.377C128.729 82.627 129.078 82.752 129.5 82.752C130.152 82.752 130.662 82.5156 131.029 82.043L131.861 82.9746C131.607 83.334 131.264 83.6152 130.83 83.8184C130.396 84.0176 129.916 84.1172 129.389 84.1172ZM129.195 78.9141C128.859 78.9141 128.586 79.0273 128.375 79.2539C128.168 79.4805 128.035 79.8047 127.977 80.2266H130.332V80.0918C130.324 79.7168 130.223 79.4277 130.027 79.2246C129.832 79.0176 129.555 78.9141 129.195 78.9141ZM135.6 82.752C135.912 82.752 136.166 82.666 136.361 82.4941C136.557 82.3223 136.658 82.0938 136.666 81.8086H138.254C138.25 82.2383 138.133 82.6328 137.902 82.9922C137.672 83.3477 137.355 83.625 136.953 83.8242C136.555 84.0195 136.113 84.1172 135.629 84.1172C134.723 84.1172 134.008 83.8301 133.484 83.2559C132.961 82.6777 132.699 81.8809 132.699 80.8652V80.7539C132.699 79.7773 132.959 78.998 133.479 78.416C133.998 77.834 134.711 77.543 135.617 77.543C136.41 77.543 137.045 77.7695 137.521 78.2227C138.002 78.6719 138.246 79.2715 138.254 80.0215H136.666C136.658 79.6934 136.557 79.4277 136.361 79.2246C136.166 79.0176 135.908 78.9141 135.588 78.9141C135.193 78.9141 134.895 79.0586 134.691 79.3477C134.492 79.6328 134.393 80.0977 134.393 80.7422V80.918C134.393 81.5703 134.492 82.0391 134.691 82.3242C134.891 82.6094 135.193 82.752 135.6 82.752ZM141.248 76.1016V77.6602H142.332V78.9023H141.248V82.0664C141.248 82.3008 141.293 82.4688 141.383 82.5703C141.473 82.6719 141.645 82.7227 141.898 82.7227C142.086 82.7227 142.252 82.709 142.396 82.6816V83.9648C142.064 84.0664 141.723 84.1172 141.371 84.1172C140.184 84.1172 139.578 83.5176 139.555 82.3184V78.9023H138.629V77.6602H139.555V76.1016H141.248ZM148.672 75.4688L150.863 81.6562L153.043 75.4688H155.352V84H153.588V81.668L153.764 77.6426L151.461 84H150.254L147.957 77.6484L148.133 81.668V84H146.375V75.4688H148.672ZM160.449 84C160.371 83.8477 160.314 83.6582 160.279 83.4316C159.869 83.8887 159.336 84.1172 158.68 84.1172C158.059 84.1172 157.543 83.9375 157.133 83.5781C156.727 83.2188 156.523 82.7656 156.523 82.2188C156.523 81.5469 156.771 81.0312 157.268 80.6719C157.768 80.3125 158.488 80.1309 159.43 80.127H160.209V79.7637C160.209 79.4707 160.133 79.2363 159.98 79.0605C159.832 78.8848 159.596 78.7969 159.271 78.7969C158.986 78.7969 158.762 78.8652 158.598 79.002C158.438 79.1387 158.357 79.3262 158.357 79.5645H156.664C156.664 79.1973 156.777 78.8574 157.004 78.5449C157.23 78.2324 157.551 77.9883 157.965 77.8125C158.379 77.6328 158.844 77.543 159.359 77.543C160.141 77.543 160.76 77.7402 161.217 78.1348C161.678 78.5254 161.908 79.0762 161.908 79.7871V82.5352C161.912 83.1367 161.996 83.5918 162.16 83.9004V84H160.449ZM159.049 82.8223C159.299 82.8223 159.529 82.7676 159.74 82.6582C159.951 82.5449 160.107 82.3945 160.209 82.207V81.1172H159.576C158.729 81.1172 158.277 81.4102 158.223 81.9961L158.217 82.0957C158.217 82.3066 158.291 82.4805 158.439 82.6172C158.588 82.7539 158.791 82.8223 159.049 82.8223ZM164.768 77.6602L164.82 78.3926C165.273 77.8262 165.881 77.543 166.643 77.543C167.314 77.543 167.814 77.7402 168.143 78.1348C168.471 78.5293 168.639 79.1191 168.646 79.9043V84H166.953V79.9453C166.953 79.5859 166.875 79.3262 166.719 79.166C166.562 79.002 166.303 78.9199 165.939 78.9199C165.463 78.9199 165.105 79.123 164.867 79.5293V84H163.174V77.6602H164.768ZM173.609 84C173.531 83.8477 173.475 83.6582 173.439 83.4316C173.029 83.8887 172.496 84.1172 171.84 84.1172C171.219 84.1172 170.703 83.9375 170.293 83.5781C169.887 83.2188 169.684 82.7656 169.684 82.2188C169.684 81.5469 169.932 81.0312 170.428 80.6719C170.928 80.3125 171.648 80.1309 172.59 80.127H173.369V79.7637C173.369 79.4707 173.293 79.2363 173.141 79.0605C172.992 78.8848 172.756 78.7969 172.432 78.7969C172.146 78.7969 171.922 78.8652 171.758 79.002C171.598 79.1387 171.518 79.3262 171.518 79.5645H169.824C169.824 79.1973 169.938 78.8574 170.164 78.5449C170.391 78.2324 170.711 77.9883 171.125 77.8125C171.539 77.6328 172.004 77.543 172.52 77.543C173.301 77.543 173.92 77.7402 174.377 78.1348C174.838 78.5254 175.068 79.0762 175.068 79.7871V82.5352C175.072 83.1367 175.156 83.5918 175.32 83.9004V84H173.609ZM172.209 82.8223C172.459 82.8223 172.689 82.7676 172.9 82.6582C173.111 82.5449 173.268 82.3945 173.369 82.207V81.1172H172.736C171.889 81.1172 171.438 81.4102 171.383 81.9961L171.377 82.0957C171.377 82.3066 171.451 82.4805 171.6 82.6172C171.748 82.7539 171.951 82.8223 172.209 82.8223ZM176.123 80.7832C176.123 79.8105 176.354 79.0273 176.814 78.4336C177.279 77.8398 177.904 77.543 178.689 77.543C179.385 77.543 179.926 77.7812 180.312 78.2578L180.383 77.6602H181.918V83.7891C181.918 84.3438 181.791 84.8262 181.537 85.2363C181.287 85.6465 180.934 85.959 180.477 86.1738C180.02 86.3887 179.484 86.4961 178.871 86.4961C178.406 86.4961 177.953 86.4023 177.512 86.2148C177.07 86.0312 176.736 85.793 176.51 85.5L177.26 84.4688C177.682 84.9414 178.193 85.1777 178.795 85.1777C179.244 85.1777 179.594 85.0566 179.844 84.8145C180.094 84.5762 180.219 84.2363 180.219 83.7949V83.4551C179.828 83.8965 179.314 84.1172 178.678 84.1172C177.916 84.1172 177.299 83.8203 176.826 83.2266C176.357 82.6289 176.123 81.8379 176.123 80.8535V80.7832ZM177.816 80.9062C177.816 81.4805 177.932 81.9316 178.162 82.2598C178.393 82.584 178.709 82.7461 179.111 82.7461C179.627 82.7461 179.996 82.5527 180.219 82.166V79.5C179.992 79.1133 179.627 78.9199 179.123 78.9199C178.717 78.9199 178.396 79.0859 178.162 79.418C177.932 79.75 177.816 80.2461 177.816 80.9062ZM186.143 84.1172C185.213 84.1172 184.455 83.832 183.869 83.2617C183.287 82.6914 182.996 81.9316 182.996 80.9824V80.8184C182.996 80.1816 183.119 79.6133 183.365 79.1133C183.611 78.6094 183.959 78.2227 184.408 77.9531C184.861 77.6797 185.377 77.543 185.955 77.543C186.822 77.543 187.504 77.8164 188 78.3633C188.5 78.9102 188.75 79.6855 188.75 80.6895V81.3809H184.713C184.768 81.7949 184.932 82.127 185.205 82.377C185.482 82.627 185.832 82.752 186.254 82.752C186.906 82.752 187.416 82.5156 187.783 82.043L188.615 82.9746C188.361 83.334 188.018 83.6152 187.584 83.8184C187.15 84.0176 186.67 84.1172 186.143 84.1172ZM185.949 78.9141C185.613 78.9141 185.34 79.0273 185.129 79.2539C184.922 79.4805 184.789 79.8047 184.73 80.2266H187.086V80.0918C187.078 79.7168 186.977 79.4277 186.781 79.2246C186.586 79.0176 186.309 78.9141 185.949 78.9141ZM193.279 79.248C193.049 79.2168 192.846 79.2012 192.67 79.2012C192.029 79.2012 191.609 79.418 191.41 79.8516V84H189.717V77.6602H191.316L191.363 78.416C191.703 77.834 192.174 77.543 192.775 77.543C192.963 77.543 193.139 77.5684 193.303 77.6191L193.279 79.248Z" fill="black"/>
<path d="M309.059 73.4688L311.25 79.6562L313.43 73.4688H315.738V82H313.975V79.668L314.15 75.6426L311.848 82H310.641L308.344 75.6484L308.52 79.668V82H306.762V73.4688H309.059ZM320.836 82C320.758 81.8477 320.701 81.6582 320.666 81.4316C320.256 81.8887 319.723 82.1172 319.066 82.1172C318.445 82.1172 317.93 81.9375 317.52 81.5781C317.113 81.2188 316.91 80.7656 316.91 80.2188C316.91 79.5469 317.158 79.0312 317.654 78.6719C318.154 78.3125 318.875 78.1309 319.816 78.127H320.596V77.7637C320.596 77.4707 320.52 77.2363 320.367 77.0605C320.219 76.8848 319.982 76.7969 319.658 76.7969C319.373 76.7969 319.148 76.8652 318.984 77.002C318.824 77.1387 318.744 77.3262 318.744 77.5645H317.051C317.051 77.1973 317.164 76.8574 317.391 76.5449C317.617 76.2324 317.938 75.9883 318.352 75.8125C318.766 75.6328 319.23 75.543 319.746 75.543C320.527 75.543 321.146 75.7402 321.604 76.1348C322.064 76.5254 322.295 77.0762 322.295 77.7871V80.5352C322.299 81.1367 322.383 81.5918 322.547 81.9004V82H320.836ZM319.436 80.8223C319.686 80.8223 319.916 80.7676 320.127 80.6582C320.338 80.5449 320.494 80.3945 320.596 80.207V79.1172H319.963C319.115 79.1172 318.664 79.4102 318.609 79.9961L318.604 80.0957C318.604 80.3066 318.678 80.4805 318.826 80.6172C318.975 80.7539 319.178 80.8223 319.436 80.8223ZM325.154 75.6602L325.207 76.3926C325.66 75.8262 326.268 75.543 327.029 75.543C327.701 75.543 328.201 75.7402 328.529 76.1348C328.857 76.5293 329.025 77.1191 329.033 77.9043V82H327.34V77.9453C327.34 77.5859 327.262 77.3262 327.105 77.166C326.949 77.002 326.689 76.9199 326.326 76.9199C325.85 76.9199 325.492 77.123 325.254 77.5293V82H323.561V75.6602H325.154ZM333.996 82C333.918 81.8477 333.861 81.6582 333.826 81.4316C333.416 81.8887 332.883 82.1172 332.227 82.1172C331.605 82.1172 331.09 81.9375 330.68 81.5781C330.273 81.2188 330.07 80.7656 330.07 80.2188C330.07 79.5469 330.318 79.0312 330.814 78.6719C331.314 78.3125 332.035 78.1309 332.977 78.127H333.756V77.7637C333.756 77.4707 333.68 77.2363 333.527 77.0605C333.379 76.8848 333.143 76.7969 332.818 76.7969C332.533 76.7969 332.309 76.8652 332.145 77.002C331.984 77.1387 331.904 77.3262 331.904 77.5645H330.211C330.211 77.1973 330.324 76.8574 330.551 76.5449C330.777 76.2324 331.098 75.9883 331.512 75.8125C331.926 75.6328 332.391 75.543 332.906 75.543C333.688 75.543 334.307 75.7402 334.764 76.1348C335.225 76.5254 335.455 77.0762 335.455 77.7871V80.5352C335.459 81.1367 335.543 81.5918 335.707 81.9004V82H333.996ZM332.596 80.8223C332.846 80.8223 333.076 80.7676 333.287 80.6582C333.498 80.5449 333.654 80.3945 333.756 80.207V79.1172H333.123C332.275 79.1172 331.824 79.4102 331.77 79.9961L331.764 80.0957C331.764 80.3066 331.838 80.4805 331.986 80.6172C332.135 80.7539 332.338 80.8223 332.596 80.8223ZM336.51 78.7832C336.51 77.8105 336.74 77.0273 337.201 76.4336C337.666 75.8398 338.291 75.543 339.076 75.543C339.771 75.543 340.312 75.7812 340.699 76.2578L340.77 75.6602H342.305V81.7891C342.305 82.3438 342.178 82.8262 341.924 83.2363C341.674 83.6465 341.32 83.959 340.863 84.1738C340.406 84.3887 339.871 84.4961 339.258 84.4961C338.793 84.4961 338.34 84.4023 337.898 84.2148C337.457 84.0312 337.123 83.793 336.896 83.5L337.646 82.4688C338.068 82.9414 338.58 83.1777 339.182 83.1777C339.631 83.1777 339.98 83.0566 340.23 82.8145C340.48 82.5762 340.605 82.2363 340.605 81.7949V81.4551C340.215 81.8965 339.701 82.1172 339.064 82.1172C338.303 82.1172 337.686 81.8203 337.213 81.2266C336.744 80.6289 336.51 79.8379 336.51 78.8535V78.7832ZM338.203 78.9062C338.203 79.4805 338.318 79.9316 338.549 80.2598C338.779 80.584 339.096 80.7461 339.498 80.7461C340.014 80.7461 340.383 80.5527 340.605 80.166V77.5C340.379 77.1133 340.014 76.9199 339.51 76.9199C339.104 76.9199 338.783 77.0859 338.549 77.418C338.318 77.75 338.203 78.2461 338.203 78.9062ZM346.529 82.1172C345.6 82.1172 344.842 81.832 344.256 81.2617C343.674 80.6914 343.383 79.9316 343.383 78.9824V78.8184C343.383 78.1816 343.506 77.6133 343.752 77.1133C343.998 76.6094 344.346 76.2227 344.795 75.9531C345.248 75.6797 345.764 75.543 346.342 75.543C347.209 75.543 347.891 75.8164 348.387 76.3633C348.887 76.9102 349.137 77.6855 349.137 78.6895V79.3809H345.1C345.154 79.7949 345.318 80.127 345.592 80.377C345.869 80.627 346.219 80.752 346.641 80.752C347.293 80.752 347.803 80.5156 348.17 80.043L349.002 80.9746C348.748 81.334 348.404 81.6152 347.971 81.8184C347.537 82.0176 347.057 82.1172 346.529 82.1172ZM346.336 76.9141C346 76.9141 345.727 77.0273 345.516 77.2539C345.309 77.4805 345.176 77.8047 345.117 78.2266H347.473V78.0918C347.465 77.7168 347.363 77.4277 347.168 77.2246C346.973 77.0176 346.695 76.9141 346.336 76.9141ZM351.691 75.6602L351.744 76.3691C352.193 75.8184 352.801 75.543 353.566 75.543C354.383 75.543 354.943 75.8652 355.248 76.5098C355.693 75.8652 356.328 75.543 357.152 75.543C357.84 75.543 358.352 75.7441 358.688 76.1465C359.023 76.5449 359.191 77.1465 359.191 77.9512V82H357.492V77.957C357.492 77.5977 357.422 77.3359 357.281 77.1719C357.141 77.0039 356.893 76.9199 356.537 76.9199C356.029 76.9199 355.678 77.1621 355.482 77.6465L355.488 82H353.795V77.9629C353.795 77.5957 353.723 77.3301 353.578 77.166C353.434 77.002 353.188 76.9199 352.84 76.9199C352.359 76.9199 352.012 77.1191 351.797 77.5176V82H350.104V75.6602H351.691ZM363.416 82.1172C362.486 82.1172 361.729 81.832 361.143 81.2617C360.561 80.6914 360.27 79.9316 360.27 78.9824V78.8184C360.27 78.1816 360.393 77.6133 360.639 77.1133C360.885 76.6094 361.232 76.2227 361.682 75.9531C362.135 75.6797 362.65 75.543 363.229 75.543C364.096 75.543 364.777 75.8164 365.273 76.3633C365.773 76.9102 366.023 77.6855 366.023 78.6895V79.3809H361.986C362.041 79.7949 362.205 80.127 362.479 80.377C362.756 80.627 363.105 80.752 363.527 80.752C364.18 80.752 364.689 80.5156 365.057 80.043L365.889 80.9746C365.635 81.334 365.291 81.6152 364.857 81.8184C364.424 82.0176 363.943 82.1172 363.416 82.1172ZM363.223 76.9141C362.887 76.9141 362.613 77.0273 362.402 77.2539C362.195 77.4805 362.062 77.8047 362.004 78.2266H364.359V78.0918C364.352 77.7168 364.25 77.4277 364.055 77.2246C363.859 77.0176 363.582 76.9141 363.223 76.9141ZM368.549 75.6602L368.602 76.3926C369.055 75.8262 369.662 75.543 370.424 75.543C371.096 75.543 371.596 75.7402 371.924 76.1348C372.252 76.5293 372.42 77.1191 372.428 77.9043V82H370.734V77.9453C370.734 77.5859 370.656 77.3262 370.5 77.166C370.344 77.002 370.084 76.9199 369.721 76.9199C369.244 76.9199 368.887 77.123 368.648 77.5293V82H366.955V75.6602H368.549ZM375.744 74.1016V75.6602H376.828V76.9023H375.744V80.0664C375.744 80.3008 375.789 80.4688 375.879 80.5703C375.969 80.6719 376.141 80.7227 376.395 80.7227C376.582 80.7227 376.748 80.709 376.893 80.6816V81.9648C376.561 82.0664 376.219 82.1172 375.867 82.1172C374.68 82.1172 374.074 81.5176 374.051 80.3184V76.9023H373.125V75.6602H374.051V74.1016H375.744ZM309.287 94.752C309.6 94.752 309.854 94.666 310.049 94.4941C310.244 94.3223 310.346 94.0938 310.354 93.8086H311.941C311.938 94.2383 311.82 94.6328 311.59 94.9922C311.359 95.3477 311.043 95.625 310.641 95.8242C310.242 96.0195 309.801 96.1172 309.316 96.1172C308.41 96.1172 307.695 95.8301 307.172 95.2559C306.648 94.6777 306.387 93.8809 306.387 92.8652V92.7539C306.387 91.7773 306.646 90.998 307.166 90.416C307.686 89.834 308.398 89.543 309.305 89.543C310.098 89.543 310.732 89.7695 311.209 90.2227C311.689 90.6719 311.934 91.2715 311.941 92.0215H310.354C310.346 91.6934 310.244 91.4277 310.049 91.2246C309.854 91.0176 309.596 90.9141 309.275 90.9141C308.881 90.9141 308.582 91.0586 308.379 91.3477C308.18 91.6328 308.08 92.0977 308.08 92.7422V92.918C308.08 93.5703 308.18 94.0391 308.379 94.3242C308.578 94.6094 308.881 94.752 309.287 94.752ZM312.645 92.7715C312.645 92.1426 312.766 91.582 313.008 91.0898C313.25 90.5977 313.598 90.2168 314.051 89.9473C314.508 89.6777 315.037 89.543 315.639 89.543C316.494 89.543 317.191 89.8047 317.73 90.3281C318.273 90.8516 318.576 91.5625 318.639 92.4609L318.65 92.8945C318.65 93.8672 318.379 94.6484 317.836 95.2383C317.293 95.8242 316.564 96.1172 315.65 96.1172C314.736 96.1172 314.006 95.8242 313.459 95.2383C312.916 94.6523 312.645 93.8555 312.645 92.8477V92.7715ZM314.338 92.8945C314.338 93.4961 314.451 93.957 314.678 94.2773C314.904 94.5938 315.229 94.752 315.65 94.752C316.061 94.752 316.381 94.5957 316.611 94.2832C316.842 93.9668 316.957 93.4629 316.957 92.7715C316.957 92.1816 316.842 91.7246 316.611 91.4004C316.381 91.0762 316.057 90.9141 315.639 90.9141C315.225 90.9141 314.904 91.0762 314.678 91.4004C314.451 91.7207 314.338 92.2188 314.338 92.8945ZM321.252 89.6602L321.305 90.3926C321.758 89.8262 322.365 89.543 323.127 89.543C323.799 89.543 324.299 89.7402 324.627 90.1348C324.955 90.5293 325.123 91.1191 325.131 91.9043V96H323.438V91.9453C323.438 91.5859 323.359 91.3262 323.203 91.166C323.047 91.002 322.787 90.9199 322.424 90.9199C321.947 90.9199 321.59 91.123 321.352 91.5293V96H319.658V89.6602H321.252ZM329.854 94.248C329.854 94.041 329.75 93.8789 329.543 93.7617C329.34 93.6406 329.012 93.5332 328.559 93.4395C327.051 93.123 326.297 92.4824 326.297 91.5176C326.297 90.9551 326.529 90.4863 326.994 90.1113C327.463 89.7324 328.074 89.543 328.828 89.543C329.633 89.543 330.275 89.7324 330.756 90.1113C331.24 90.4902 331.482 90.9824 331.482 91.5879H329.789C329.789 91.3457 329.711 91.1465 329.555 90.9902C329.398 90.8301 329.154 90.75 328.822 90.75C328.537 90.75 328.316 90.8145 328.16 90.9434C328.004 91.0723 327.926 91.2363 327.926 91.4355C327.926 91.623 328.014 91.7754 328.189 91.8926C328.369 92.0059 328.67 92.1055 329.092 92.1914C329.514 92.2734 329.869 92.3672 330.158 92.4727C331.053 92.8008 331.5 93.3691 331.5 94.1777C331.5 94.7559 331.252 95.2246 330.756 95.584C330.26 95.9395 329.619 96.1172 328.834 96.1172C328.303 96.1172 327.83 96.0234 327.416 95.8359C327.006 95.6445 326.684 95.3848 326.449 95.0566C326.215 94.7246 326.098 94.3672 326.098 93.9844H327.703C327.719 94.2852 327.83 94.5156 328.037 94.6758C328.244 94.8359 328.521 94.916 328.869 94.916C329.193 94.916 329.438 94.8555 329.602 94.7344C329.77 94.6094 329.854 94.4473 329.854 94.248ZM336.393 95.3555C335.975 95.8633 335.396 96.1172 334.658 96.1172C333.979 96.1172 333.459 95.9219 333.1 95.5312C332.744 95.1406 332.562 94.5684 332.555 93.8145V89.6602H334.248V93.7559C334.248 94.416 334.549 94.7461 335.15 94.7461C335.725 94.7461 336.119 94.5469 336.334 94.1484V89.6602H338.033V96H336.439L336.393 95.3555ZM341.098 96H339.398V87H341.098V96ZM344.525 88.1016V89.6602H345.609V90.9023H344.525V94.0664C344.525 94.3008 344.57 94.4688 344.66 94.5703C344.75 94.6719 344.922 94.7227 345.176 94.7227C345.363 94.7227 345.529 94.709 345.674 94.6816V95.9648C345.342 96.0664 345 96.1172 344.648 96.1172C343.461 96.1172 342.855 95.5176 342.832 94.3184V90.9023H341.906V89.6602H342.832V88.1016H344.525ZM350.227 96C350.148 95.8477 350.092 95.6582 350.057 95.4316C349.646 95.8887 349.113 96.1172 348.457 96.1172C347.836 96.1172 347.32 95.9375 346.91 95.5781C346.504 95.2188 346.301 94.7656 346.301 94.2188C346.301 93.5469 346.549 93.0312 347.045 92.6719C347.545 92.3125 348.266 92.1309 349.207 92.127H349.986V91.7637C349.986 91.4707 349.91 91.2363 349.758 91.0605C349.609 90.8848 349.373 90.7969 349.049 90.7969C348.764 90.7969 348.539 90.8652 348.375 91.002C348.215 91.1387 348.135 91.3262 348.135 91.5645H346.441C346.441 91.1973 346.555 90.8574 346.781 90.5449C347.008 90.2324 347.328 89.9883 347.742 89.8125C348.156 89.6328 348.621 89.543 349.137 89.543C349.918 89.543 350.537 89.7402 350.994 90.1348C351.455 90.5254 351.686 91.0762 351.686 91.7871V94.5352C351.689 95.1367 351.773 95.5918 351.938 95.9004V96H350.227ZM348.826 94.8223C349.076 94.8223 349.307 94.7676 349.518 94.6582C349.729 94.5449 349.885 94.3945 349.986 94.207V93.1172H349.354C348.506 93.1172 348.055 93.4102 348 93.9961L347.994 94.0957C347.994 94.3066 348.068 94.4805 348.217 94.6172C348.365 94.7539 348.568 94.8223 348.826 94.8223ZM354.545 89.6602L354.598 90.3926C355.051 89.8262 355.658 89.543 356.42 89.543C357.092 89.543 357.592 89.7402 357.92 90.1348C358.248 90.5293 358.416 91.1191 358.424 91.9043V96H356.73V91.9453C356.73 91.5859 356.652 91.3262 356.496 91.166C356.34 91.002 356.08 90.9199 355.717 90.9199C355.24 90.9199 354.883 91.123 354.645 91.5293V96H352.951V89.6602H354.545ZM361.74 88.1016V89.6602H362.824V90.9023H361.74V94.0664C361.74 94.3008 361.785 94.4688 361.875 94.5703C361.965 94.6719 362.137 94.7227 362.391 94.7227C362.578 94.7227 362.744 94.709 362.889 94.6816V95.9648C362.557 96.0664 362.215 96.1172 361.863 96.1172C360.676 96.1172 360.07 95.5176 360.047 94.3184V90.9023H359.121V89.6602H360.047V88.1016H361.74Z" fill="black"/>
<path d="M538.52 78.9941V82H536.762V73.4688H540.09C540.73 73.4688 541.293 73.5859 541.777 73.8203C542.266 74.0547 542.641 74.3887 542.902 74.8223C543.164 75.252 543.295 75.7422 543.295 76.293C543.295 77.1289 543.008 77.7891 542.434 78.2734C541.863 78.7539 541.072 78.9941 540.061 78.9941H538.52ZM538.52 77.5703H540.09C540.555 77.5703 540.908 77.4609 541.15 77.2422C541.396 77.0234 541.52 76.7109 541.52 76.3047C541.52 75.8867 541.396 75.5488 541.15 75.291C540.904 75.0332 540.564 74.9004 540.131 74.8926H538.52V77.5703ZM544.051 78.7715C544.051 78.1426 544.172 77.582 544.414 77.0898C544.656 76.5977 545.004 76.2168 545.457 75.9473C545.914 75.6777 546.443 75.543 547.045 75.543C547.9 75.543 548.598 75.8047 549.137 76.3281C549.68 76.8516 549.982 77.5625 550.045 78.4609L550.057 78.8945C550.057 79.8672 549.785 80.6484 549.242 81.2383C548.699 81.8242 547.971 82.1172 547.057 82.1172C546.143 82.1172 545.412 81.8242 544.865 81.2383C544.322 80.6523 544.051 79.8555 544.051 78.8477V78.7715ZM545.744 78.8945C545.744 79.4961 545.857 79.957 546.084 80.2773C546.311 80.5938 546.635 80.752 547.057 80.752C547.467 80.752 547.787 80.5957 548.018 80.2832C548.248 79.9668 548.363 79.4629 548.363 78.7715C548.363 78.1816 548.248 77.7246 548.018 77.4004C547.787 77.0762 547.463 76.9141 547.045 76.9141C546.631 76.9141 546.311 77.0762 546.084 77.4004C545.857 77.7207 545.744 78.2188 545.744 78.8945ZM554.662 77.248C554.432 77.2168 554.229 77.2012 554.053 77.2012C553.412 77.2012 552.992 77.418 552.793 77.8516V82H551.1V75.6602H552.699L552.746 76.416C553.086 75.834 553.557 75.543 554.158 75.543C554.346 75.543 554.521 75.5684 554.686 75.6191L554.662 77.248ZM557.803 74.1016V75.6602H558.887V76.9023H557.803V80.0664C557.803 80.3008 557.848 80.4688 557.938 80.5703C558.027 80.6719 558.199 80.7227 558.453 80.7227C558.641 80.7227 558.807 80.709 558.951 80.6816V81.9648C558.619 82.0664 558.277 82.1172 557.926 82.1172C556.738 82.1172 556.133 81.5176 556.109 80.3184V76.9023H555.184V75.6602H556.109V74.1016H557.803ZM560.293 82V76.9023H559.35V75.6602H560.293V75.1211C560.293 74.4102 560.496 73.8594 560.902 73.4688C561.312 73.0742 561.885 72.877 562.619 72.877C562.854 72.877 563.141 72.916 563.48 72.9941L563.463 74.3066C563.322 74.2715 563.15 74.2539 562.947 74.2539C562.311 74.2539 561.992 74.5527 561.992 75.1504V75.6602H563.252V76.9023H561.992V82H560.293ZM563.867 78.7715C563.867 78.1426 563.988 77.582 564.23 77.0898C564.473 76.5977 564.82 76.2168 565.273 75.9473C565.73 75.6777 566.26 75.543 566.861 75.543C567.717 75.543 568.414 75.8047 568.953 76.3281C569.496 76.8516 569.799 77.5625 569.861 78.4609L569.873 78.8945C569.873 79.8672 569.602 80.6484 569.059 81.2383C568.516 81.8242 567.787 82.1172 566.873 82.1172C565.959 82.1172 565.229 81.8242 564.682 81.2383C564.139 80.6523 563.867 79.8555 563.867 78.8477V78.7715ZM565.561 78.8945C565.561 79.4961 565.674 79.957 565.9 80.2773C566.127 80.5938 566.451 80.752 566.873 80.752C567.283 80.752 567.604 80.5957 567.834 80.2832C568.064 79.9668 568.18 79.4629 568.18 78.7715C568.18 78.1816 568.064 77.7246 567.834 77.4004C567.604 77.0762 567.279 76.9141 566.861 76.9141C566.447 76.9141 566.127 77.0762 565.9 77.4004C565.674 77.7207 565.561 78.2188 565.561 78.8945ZM572.703 82H571.004V73H572.703V82ZM575.891 82H574.191V75.6602H575.891V82ZM574.092 74.0195C574.092 73.7656 574.176 73.5566 574.344 73.3926C574.516 73.2285 574.748 73.1465 575.041 73.1465C575.33 73.1465 575.561 73.2285 575.732 73.3926C575.904 73.5566 575.99 73.7656 575.99 74.0195C575.99 74.2773 575.902 74.4883 575.727 74.6523C575.555 74.8164 575.326 74.8984 575.041 74.8984C574.756 74.8984 574.525 74.8164 574.35 74.6523C574.178 74.4883 574.092 74.2773 574.092 74.0195ZM577.027 78.7715C577.027 78.1426 577.148 77.582 577.391 77.0898C577.633 76.5977 577.98 76.2168 578.434 75.9473C578.891 75.6777 579.42 75.543 580.021 75.543C580.877 75.543 581.574 75.8047 582.113 76.3281C582.656 76.8516 582.959 77.5625 583.021 78.4609L583.033 78.8945C583.033 79.8672 582.762 80.6484 582.219 81.2383C581.676 81.8242 580.947 82.1172 580.033 82.1172C579.119 82.1172 578.389 81.8242 577.842 81.2383C577.299 80.6523 577.027 79.8555 577.027 78.8477V78.7715ZM578.721 78.8945C578.721 79.4961 578.834 79.957 579.061 80.2773C579.287 80.5938 579.611 80.752 580.033 80.752C580.443 80.752 580.764 80.5957 580.994 80.2832C581.225 79.9668 581.34 79.4629 581.34 78.7715C581.34 78.1816 581.225 77.7246 580.994 77.4004C580.764 77.0762 580.439 76.9141 580.021 76.9141C579.607 76.9141 579.287 77.0762 579.061 77.4004C578.834 77.7207 578.721 78.2188 578.721 78.8945ZM539.059 87.4688L541.25 93.6562L543.43 87.4688H545.738V96H543.975V93.668L544.15 89.6426L541.848 96H540.641L538.344 89.6484L538.52 93.668V96H536.762V87.4688H539.059ZM550.836 96C550.758 95.8477 550.701 95.6582 550.666 95.4316C550.256 95.8887 549.723 96.1172 549.066 96.1172C548.445 96.1172 547.93 95.9375 547.52 95.5781C547.113 95.2188 546.91 94.7656 546.91 94.2188C546.91 93.5469 547.158 93.0312 547.654 92.6719C548.154 92.3125 548.875 92.1309 549.816 92.127H550.596V91.7637C550.596 91.4707 550.52 91.2363 550.367 91.0605C550.219 90.8848 549.982 90.7969 549.658 90.7969C549.373 90.7969 549.148 90.8652 548.984 91.002C548.824 91.1387 548.744 91.3262 548.744 91.5645H547.051C547.051 91.1973 547.164 90.8574 547.391 90.5449C547.617 90.2324 547.938 89.9883 548.352 89.8125C548.766 89.6328 549.23 89.543 549.746 89.543C550.527 89.543 551.146 89.7402 551.604 90.1348C552.064 90.5254 552.295 91.0762 552.295 91.7871V94.5352C552.299 95.1367 552.383 95.5918 552.547 95.9004V96H550.836ZM549.436 94.8223C549.686 94.8223 549.916 94.7676 550.127 94.6582C550.338 94.5449 550.494 94.3945 550.596 94.207V93.1172H549.963C549.115 93.1172 548.664 93.4102 548.609 93.9961L548.604 94.0957C548.604 94.3066 548.678 94.4805 548.826 94.6172C548.975 94.7539 549.178 94.8223 549.436 94.8223ZM555.154 89.6602L555.207 90.3926C555.66 89.8262 556.268 89.543 557.029 89.543C557.701 89.543 558.201 89.7402 558.529 90.1348C558.857 90.5293 559.025 91.1191 559.033 91.9043V96H557.34V91.9453C557.34 91.5859 557.262 91.3262 557.105 91.166C556.949 91.002 556.689 90.9199 556.326 90.9199C555.85 90.9199 555.492 91.123 555.254 91.5293V96H553.561V89.6602H555.154ZM563.996 96C563.918 95.8477 563.861 95.6582 563.826 95.4316C563.416 95.8887 562.883 96.1172 562.227 96.1172C561.605 96.1172 561.09 95.9375 560.68 95.5781C560.273 95.2188 560.07 94.7656 560.07 94.2188C560.07 93.5469 560.318 93.0312 560.814 92.6719C561.314 92.3125 562.035 92.1309 562.977 92.127H563.756V91.7637C563.756 91.4707 563.68 91.2363 563.527 91.0605C563.379 90.8848 563.143 90.7969 562.818 90.7969C562.533 90.7969 562.309 90.8652 562.145 91.002C561.984 91.1387 561.904 91.3262 561.904 91.5645H560.211C560.211 91.1973 560.324 90.8574 560.551 90.5449C560.777 90.2324 561.098 89.9883 561.512 89.8125C561.926 89.6328 562.391 89.543 562.906 89.543C563.688 89.543 564.307 89.7402 564.764 90.1348C565.225 90.5254 565.455 91.0762 565.455 91.7871V94.5352C565.459 95.1367 565.543 95.5918 565.707 95.9004V96H563.996ZM562.596 94.8223C562.846 94.8223 563.076 94.7676 563.287 94.6582C563.498 94.5449 563.654 94.3945 563.756 94.207V93.1172H563.123C562.275 93.1172 561.824 93.4102 561.77 93.9961L561.764 94.0957C561.764 94.3066 561.838 94.4805 561.986 94.6172C562.135 94.7539 562.338 94.8223 562.596 94.8223ZM566.51 92.7832C566.51 91.8105 566.74 91.0273 567.201 90.4336C567.666 89.8398 568.291 89.543 569.076 89.543C569.771 89.543 570.312 89.7812 570.699 90.2578L570.77 89.6602H572.305V95.7891C572.305 96.3438 572.178 96.8262 571.924 97.2363C571.674 97.6465 571.32 97.959 570.863 98.1738C570.406 98.3887 569.871 98.4961 569.258 98.4961C568.793 98.4961 568.34 98.4023 567.898 98.2148C567.457 98.0312 567.123 97.793 566.896 97.5L567.646 96.4688C568.068 96.9414 568.58 97.1777 569.182 97.1777C569.631 97.1777 569.98 97.0566 570.23 96.8145C570.48 96.5762 570.605 96.2363 570.605 95.7949V95.4551C570.215 95.8965 569.701 96.1172 569.064 96.1172C568.303 96.1172 567.686 95.8203 567.213 95.2266C566.744 94.6289 566.51 93.8379 566.51 92.8535V92.7832ZM568.203 92.9062C568.203 93.4805 568.318 93.9316 568.549 94.2598C568.779 94.584 569.096 94.7461 569.498 94.7461C570.014 94.7461 570.383 94.5527 570.605 94.166V91.5C570.379 91.1133 570.014 90.9199 569.51 90.9199C569.104 90.9199 568.783 91.0859 568.549 91.418C568.318 91.75 568.203 92.2461 568.203 92.9062ZM576.529 96.1172C575.6 96.1172 574.842 95.832 574.256 95.2617C573.674 94.6914 573.383 93.9316 573.383 92.9824V92.8184C573.383 92.1816 573.506 91.6133 573.752 91.1133C573.998 90.6094 574.346 90.2227 574.795 89.9531C575.248 89.6797 575.764 89.543 576.342 89.543C577.209 89.543 577.891 89.8164 578.387 90.3633C578.887 90.9102 579.137 91.6855 579.137 92.6895V93.3809H575.1C575.154 93.7949 575.318 94.127 575.592 94.377C575.869 94.627 576.219 94.752 576.641 94.752C577.293 94.752 577.803 94.5156 578.17 94.043L579.002 94.9746C578.748 95.334 578.404 95.6152 577.971 95.8184C577.537 96.0176 577.057 96.1172 576.529 96.1172ZM576.336 90.9141C576 90.9141 575.727 91.0273 575.516 91.2539C575.309 91.4805 575.176 91.8047 575.117 92.2266H577.473V92.0918C577.465 91.7168 577.363 91.4277 577.168 91.2246C576.973 91.0176 576.695 90.9141 576.336 90.9141ZM583.666 91.248C583.436 91.2168 583.232 91.2012 583.057 91.2012C582.416 91.2012 581.996 91.418 581.797 91.8516V96H580.104V89.6602H581.703L581.75 90.416C582.09 89.834 582.561 89.543 583.162 89.543C583.35 89.543 583.525 89.5684 583.689 89.6191L583.666 91.248Z" fill="black"/>
<path d="M747.705 85H745.947V81.3438H742.52V85H740.762V76.4688H742.52V79.9258H745.947V76.4688H747.705V85ZM752.053 85.1172C751.123 85.1172 750.365 84.832 749.779 84.2617C749.197 83.6914 748.906 82.9316 748.906 81.9824V81.8184C748.906 81.1816 749.029 80.6133 749.275 80.1133C749.521 79.6094 749.869 79.2227 750.318 78.9531C750.771 78.6797 751.287 78.543 751.865 78.543C752.732 78.543 753.414 78.8164 753.91 79.3633C754.41 79.9102 754.66 80.6855 754.66 81.6895V82.3809H750.623C750.678 82.7949 750.842 83.127 751.115 83.377C751.393 83.627 751.742 83.752 752.164 83.752C752.816 83.752 753.326 83.5156 753.693 83.043L754.525 83.9746C754.271 84.334 753.928 84.6152 753.494 84.8184C753.061 85.0176 752.58 85.1172 752.053 85.1172ZM751.859 79.9141C751.523 79.9141 751.25 80.0273 751.039 80.2539C750.832 80.4805 750.699 80.8047 750.641 81.2266H752.996V81.0918C752.988 80.7168 752.887 80.4277 752.691 80.2246C752.496 80.0176 752.219 79.9141 751.859 79.9141ZM759.301 85C759.223 84.8477 759.166 84.6582 759.131 84.4316C758.721 84.8887 758.188 85.1172 757.531 85.1172C756.91 85.1172 756.395 84.9375 755.984 84.5781C755.578 84.2188 755.375 83.7656 755.375 83.2188C755.375 82.5469 755.623 82.0312 756.119 81.6719C756.619 81.3125 757.34 81.1309 758.281 81.127H759.061V80.7637C759.061 80.4707 758.984 80.2363 758.832 80.0605C758.684 79.8848 758.447 79.7969 758.123 79.7969C757.838 79.7969 757.613 79.8652 757.449 80.002C757.289 80.1387 757.209 80.3262 757.209 80.5645H755.516C755.516 80.1973 755.629 79.8574 755.855 79.5449C756.082 79.2324 756.402 78.9883 756.816 78.8125C757.23 78.6328 757.695 78.543 758.211 78.543C758.992 78.543 759.611 78.7402 760.068 79.1348C760.529 79.5254 760.76 80.0762 760.76 80.7871V83.5352C760.764 84.1367 760.848 84.5918 761.012 84.9004V85H759.301ZM757.9 83.8223C758.15 83.8223 758.381 83.7676 758.592 83.6582C758.803 83.5449 758.959 83.3945 759.061 83.207V82.1172H758.428C757.58 82.1172 757.129 82.4102 757.074 82.9961L757.068 83.0957C757.068 83.3066 757.143 83.4805 757.291 83.6172C757.439 83.7539 757.643 83.8223 757.9 83.8223ZM761.797 81.7832C761.797 80.7949 762.018 80.0078 762.459 79.4219C762.904 78.8359 763.512 78.543 764.281 78.543C764.898 78.543 765.408 78.7734 765.811 79.2344V76H767.51V85H765.98L765.898 84.3262C765.477 84.8535 764.934 85.1172 764.27 85.1172C763.523 85.1172 762.924 84.8242 762.471 84.2383C762.021 83.6484 761.797 82.8301 761.797 81.7832ZM763.49 81.9062C763.49 82.5 763.594 82.9551 763.801 83.2715C764.008 83.5879 764.309 83.7461 764.703 83.7461C765.227 83.7461 765.596 83.5254 765.811 83.084V80.582C765.6 80.1406 765.234 79.9199 764.715 79.9199C763.898 79.9199 763.49 80.582 763.49 81.9062ZM771.547 81.7715C771.547 81.1426 771.668 80.582 771.91 80.0898C772.152 79.5977 772.5 79.2168 772.953 78.9473C773.41 78.6777 773.939 78.543 774.541 78.543C775.396 78.543 776.094 78.8047 776.633 79.3281C777.176 79.8516 777.479 80.5625 777.541 81.4609L777.553 81.8945C777.553 82.8672 777.281 83.6484 776.738 84.2383C776.195 84.8242 775.467 85.1172 774.553 85.1172C773.639 85.1172 772.908 84.8242 772.361 84.2383C771.818 83.6523 771.547 82.8555 771.547 81.8477V81.7715ZM773.24 81.8945C773.24 82.4961 773.354 82.957 773.58 83.2773C773.807 83.5938 774.131 83.752 774.553 83.752C774.963 83.752 775.283 83.5957 775.514 83.2832C775.744 82.9668 775.859 82.4629 775.859 81.7715C775.859 81.1816 775.744 80.7246 775.514 80.4004C775.283 80.0762 774.959 79.9141 774.541 79.9141C774.127 79.9141 773.807 80.0762 773.58 80.4004C773.354 80.7207 773.24 81.2188 773.24 81.8945ZM779.059 85V79.9023H778.115V78.6602H779.059V78.1211C779.059 77.4102 779.262 76.8594 779.668 76.4688C780.078 76.0742 780.65 75.877 781.385 75.877C781.619 75.877 781.906 75.916 782.246 75.9941L782.229 77.3066C782.088 77.2715 781.916 77.2539 781.713 77.2539C781.076 77.2539 780.758 77.5527 780.758 78.1504V78.6602H782.018V79.9023H780.758V85H779.059ZM790.742 81.9941V85H788.984V76.4688H792.312C792.953 76.4688 793.516 76.5859 794 76.8203C794.488 77.0547 794.863 77.3887 795.125 77.8223C795.387 78.252 795.518 78.7422 795.518 79.293C795.518 80.1289 795.23 80.7891 794.656 81.2734C794.086 81.7539 793.295 81.9941 792.283 81.9941H790.742ZM790.742 80.5703H792.312C792.777 80.5703 793.131 80.4609 793.373 80.2422C793.619 80.0234 793.742 79.7109 793.742 79.3047C793.742 78.8867 793.619 78.5488 793.373 78.291C793.127 78.0332 792.787 77.9004 792.354 77.8926H790.742V80.5703ZM800.182 80.248C799.951 80.2168 799.748 80.2012 799.572 80.2012C798.932 80.2012 798.512 80.418 798.312 80.8516V85H796.619V78.6602H798.219L798.266 79.416C798.605 78.834 799.076 78.543 799.678 78.543C799.865 78.543 800.041 78.5684 800.205 78.6191L800.182 80.248ZM800.527 81.7715C800.527 81.1426 800.648 80.582 800.891 80.0898C801.133 79.5977 801.48 79.2168 801.934 78.9473C802.391 78.6777 802.92 78.543 803.521 78.543C804.377 78.543 805.074 78.8047 805.613 79.3281C806.156 79.8516 806.459 80.5625 806.521 81.4609L806.533 81.8945C806.533 82.8672 806.262 83.6484 805.719 84.2383C805.176 84.8242 804.447 85.1172 803.533 85.1172C802.619 85.1172 801.889 84.8242 801.342 84.2383C800.799 83.6523 800.527 82.8555 800.527 81.8477V81.7715ZM802.221 81.8945C802.221 82.4961 802.334 82.957 802.561 83.2773C802.787 83.5938 803.111 83.752 803.533 83.752C803.943 83.752 804.264 83.5957 804.494 83.2832C804.725 82.9668 804.84 82.4629 804.84 81.7715C804.84 81.1816 804.725 80.7246 804.494 80.4004C804.264 80.0762 803.939 79.9141 803.521 79.9141C803.107 79.9141 802.787 80.0762 802.561 80.4004C802.334 80.7207 802.221 81.2188 802.221 81.8945ZM809.369 78.6602V85.3457C809.369 86.0449 809.184 86.5879 808.812 86.9746C808.441 87.3652 807.906 87.5605 807.207 87.5605C806.914 87.5605 806.635 87.5273 806.369 87.4609V86.1191C806.572 86.1543 806.75 86.1719 806.902 86.1719C807.414 86.1719 807.67 85.9004 807.67 85.3574V78.6602H809.369ZM807.535 77.0195C807.535 76.7656 807.619 76.5566 807.787 76.3926C807.959 76.2285 808.191 76.1465 808.484 76.1465C808.777 76.1465 809.008 76.2285 809.176 76.3926C809.348 76.5566 809.434 76.7656 809.434 77.0195C809.434 77.2773 809.346 77.4883 809.17 77.6523C808.998 77.8164 808.77 77.8984 808.484 77.8984C808.199 77.8984 807.969 77.8164 807.793 77.6523C807.621 77.4883 807.535 77.2773 807.535 77.0195ZM813.611 85.1172C812.682 85.1172 811.924 84.832 811.338 84.2617C810.756 83.6914 810.465 82.9316 810.465 81.9824V81.8184C810.465 81.1816 810.588 80.6133 810.834 80.1133C811.08 79.6094 811.428 79.2227 811.877 78.9531C812.33 78.6797 812.846 78.543 813.424 78.543C814.291 78.543 814.973 78.8164 815.469 79.3633C815.969 79.9102 816.219 80.6855 816.219 81.6895V82.3809H812.182C812.236 82.7949 812.4 83.127 812.674 83.377C812.951 83.627 813.301 83.752 813.723 83.752C814.375 83.752 814.885 83.5156 815.252 83.043L816.084 83.9746C815.83 84.334 815.486 84.6152 815.053 84.8184C814.619 85.0176 814.139 85.1172 813.611 85.1172ZM813.418 79.9141C813.082 79.9141 812.809 80.0273 812.598 80.2539C812.391 80.4805 812.258 80.8047 812.199 81.2266H814.555V81.0918C814.547 80.7168 814.445 80.4277 814.25 80.2246C814.055 80.0176 813.777 79.9141 813.418 79.9141ZM819.822 83.752C820.135 83.752 820.389 83.666 820.584 83.4941C820.779 83.3223 820.881 83.0938 820.889 82.8086H822.477C822.473 83.2383 822.355 83.6328 822.125 83.9922C821.895 84.3477 821.578 84.625 821.176 84.8242C820.777 85.0195 820.336 85.1172 819.852 85.1172C818.945 85.1172 818.23 84.8301 817.707 84.2559C817.184 83.6777 816.922 82.8809 816.922 81.8652V81.7539C816.922 80.7773 817.182 79.998 817.701 79.416C818.221 78.834 818.934 78.543 819.84 78.543C820.633 78.543 821.268 78.7695 821.744 79.2227C822.225 79.6719 822.469 80.2715 822.477 81.0215H820.889C820.881 80.6934 820.779 80.4277 820.584 80.2246C820.389 80.0176 820.131 79.9141 819.811 79.9141C819.416 79.9141 819.117 80.0586 818.914 80.3477C818.715 80.6328 818.615 81.0977 818.615 81.7422V81.918C818.615 82.5703 818.715 83.0391 818.914 83.3242C819.113 83.6094 819.416 83.752 819.822 83.752ZM825.471 77.1016V78.6602H826.555V79.9023H825.471V83.0664C825.471 83.3008 825.516 83.4688 825.605 83.5703C825.695 83.6719 825.867 83.7227 826.121 83.7227C826.309 83.7227 826.475 83.709 826.619 83.6816V84.9648C826.287 85.0664 825.945 85.1172 825.594 85.1172C824.406 85.1172 823.801 84.5176 823.777 83.3184V79.9023H822.852V78.6602H823.777V77.1016H825.471ZM830.932 83.248C830.932 83.041 830.828 82.8789 830.621 82.7617C830.418 82.6406 830.09 82.5332 829.637 82.4395C828.129 82.123 827.375 81.4824 827.375 80.5176C827.375 79.9551 827.607 79.4863 828.072 79.1113C828.541 78.7324 829.152 78.543 829.906 78.543C830.711 78.543 831.354 78.7324 831.834 79.1113C832.318 79.4902 832.561 79.9824 832.561 80.5879H830.867C830.867 80.3457 830.789 80.1465 830.633 79.9902C830.477 79.8301 830.232 79.75 829.9 79.75C829.615 79.75 829.395 79.8145 829.238 79.9434C829.082 80.0723 829.004 80.2363 829.004 80.4355C829.004 80.623 829.092 80.7754 829.268 80.8926C829.447 81.0059 829.748 81.1055 830.17 81.1914C830.592 81.2734 830.947 81.3672 831.236 81.4727C832.131 81.8008 832.578 82.3691 832.578 83.1777C832.578 83.7559 832.33 84.2246 831.834 84.584C831.338 84.9395 830.697 85.1172 829.912 85.1172C829.381 85.1172 828.908 85.0234 828.494 84.8359C828.084 84.6445 827.762 84.3848 827.527 84.0566C827.293 83.7246 827.176 83.3672 827.176 82.9844H828.781C828.797 83.2852 828.908 83.5156 829.115 83.6758C829.322 83.8359 829.6 83.916 829.947 83.916C830.271 83.916 830.516 83.8555 830.68 83.7344C830.848 83.6094 830.932 83.4473 830.932 83.248Z" fill="black"/>
<defs>
<filter id="filter0_d" x="70" y="47" width="152" height="85" filterUnits="userSpaceOnUse" color-interpolation-filters="sRGB">
<feFlood flood-opacity="0" result="BackgroundImageFix"/>
<feColorMatrix in="SourceAlpha" type="matrix" values="0 0 0 0 0 0 0 0 0 0 0 0 0 0 0 0 0 0 127 0"/>
<feOffset dy="4"/>
<feGaussianBlur stdDeviation="2"/>
<feColorMatrix type="matrix" values="0 0 0 0 0 0 0 0 0 0 0 0 0 0 0 0 0 0 0.25 0"/>
<feBlend mode="normal" in2="BackgroundImageFix" result="effect1_dropShadow"/>
<feBlend mode="normal" in="SourceGraphic" in2="effect1_dropShadow" result="shape"/>
</filter>
<filter id="filter1_d" x="272" y="47" width="152" height="84" filterUnits="userSpaceOnUse" color-interpolation-filters="sRGB">
<feFlood flood-opacity="0" result="BackgroundImageFix"/>
<feColorMatrix in="SourceAlpha" type="matrix" values="0 0 0 0 0 0 0 0 0 0 0 0 0 0 0 0 0 0 127 0"/>
<feOffset dy="4"/>
<feGaussianBlur stdDeviation="2"/>
<feColorMatrix type="matrix" values="0 0 0 0 0 0 0 0 0 0 0 0 0 0 0 0 0 0 0.25 0"/>
<feBlend mode="normal" in2="BackgroundImageFix" result="effect1_dropShadow"/>
<feBlend mode="normal" in="SourceGraphic" in2="effect1_dropShadow" result="shape"/>
</filter>
<filter id="filter2_d" x="701" y="47" width="152" height="84" filterUnits="userSpaceOnUse" color-interpolation-filters="sRGB">
<feFlood flood-opacity="0" result="BackgroundImageFix"/>
<feColorMatrix in="SourceAlpha" type="matrix" values="0 0 0 0 0 0 0 0 0 0 0 0 0 0 0 0 0 0 127 0"/>
<feOffset dy="4"/>
<feGaussianBlur stdDeviation="2"/>
<feColorMatrix type="matrix" values="0 0 0 0 0 0 0 0 0 0 0 0 0 0 0 0 0 0 0.25 0"/>
<feBlend mode="normal" in2="BackgroundImageFix" result="effect1_dropShadow"/>
<feBlend mode="normal" in="SourceGraphic" in2="effect1_dropShadow" result="shape"/>
</filter>
<filter id="filter3_d" x="487" y="47" width="152" height="84" filterUnits="userSpaceOnUse" color-interpolation-filters="sRGB">
<feFlood flood-opacity="0" result="BackgroundImageFix"/>
<feColorMatrix in="SourceAlpha" type="matrix" values="0 0 0 0 0 0 0 0 0 0 0 0 0 0 0 0 0 0 127 0"/>
<feOffset dy="4"/>
<feGaussianBlur stdDeviation="2"/>
<feColorMatrix type="matrix" values="0 0 0 0 0 0 0 0 0 0 0 0 0 0 0 0 0 0 0.25 0"/>
<feBlend mode="normal" in2="BackgroundImageFix" result="effect1_dropShadow"/>
<feBlend mode="normal" in="SourceGraphic" in2="effect1_dropShadow" result="shape"/>
</filter>
</defs>
</svg>
