<svg width="1119" height="171" viewBox="0 0 1119 171" fill="none" xmlns="http://www.w3.org/2000/svg">
<rect width="1119" height="171" fill="white"/>
<rect x="218" y="96" width="22" height="658" transform="rotate(-90 218 96)" fill="#3742FA"/>
<path d="M877.061 87.0607C877.646 86.4749 877.646 85.5251 877.061 84.9393L867.515 75.3934C866.929 74.8076 865.979 74.8076 865.393 75.3934C864.808 75.9792 864.808 76.9289 865.393 77.5147L873.879 86L865.393 94.4853C864.808 95.0711 864.808 96.0208 865.393 96.6066C865.979 97.1924 866.929 97.1924 867.515 96.6066L877.061 87.0607ZM225.037 87.5L876 87.5V84.5L225.037 84.5V87.5Z" fill="white"/>
<g filter="url(#filter0_d)">
<rect x="74" y="47" width="144" height="77" fill="white"/>
<rect x="74.5" y="47.5" width="143" height="76" stroke="#333333"/>
</g>
<g filter="url(#filter1_d)">
<rect x="274" y="47" width="144" height="76" fill="white"/>
<rect x="274.5" y="47.5" width="143" height="75" stroke="#333333"/>
</g>
<g filter="url(#filter2_d)">
<rect x="675" y="50" width="144" height="76" fill="white"/>
<rect x="675.5" y="50.5" width="143" height="75" stroke="#333333"/>
</g>
<g filter="url(#filter3_d)">
<rect x="876" y="50" width="144" height="76" fill="white"/>
<rect x="876.5" y="50.5" width="143" height="75" stroke="#333333"/>
</g>
<g filter="url(#filter4_d)">
<rect x="474" y="48" width="144" height="76" fill="white"/>
<rect x="474.5" y="48.5" width="143" height="75" stroke="#333333"/>
</g>
<path d="M107.059 75.4688L109.25 81.6562L111.43 75.4688H113.738V84H111.975V81.668L112.15 77.6426L109.848 84H108.641L106.344 77.6484L106.52 81.668V84H104.762V75.4688H107.059ZM118.836 84C118.758 83.8477 118.701 83.6582 118.666 83.4316C118.256 83.8887 117.723 84.1172 117.066 84.1172C116.445 84.1172 115.93 83.9375 115.52 83.5781C115.113 83.2188 114.91 82.7656 114.91 82.2188C114.91 81.5469 115.158 81.0312 115.654 80.6719C116.154 80.3125 116.875 80.1309 117.816 80.127H118.596V79.7637C118.596 79.4707 118.52 79.2363 118.367 79.0605C118.219 78.8848 117.982 78.7969 117.658 78.7969C117.373 78.7969 117.148 78.8652 116.984 79.002C116.824 79.1387 116.744 79.3262 116.744 79.5645H115.051C115.051 79.1973 115.164 78.8574 115.391 78.5449C115.617 78.2324 115.938 77.9883 116.352 77.8125C116.766 77.6328 117.23 77.543 117.746 77.543C118.527 77.543 119.146 77.7402 119.604 78.1348C120.064 78.5254 120.295 79.0762 120.295 79.7871V82.5352C120.299 83.1367 120.383 83.5918 120.547 83.9004V84H118.836ZM117.436 82.8223C117.686 82.8223 117.916 82.7676 118.127 82.6582C118.338 82.5449 118.494 82.3945 118.596 82.207V81.1172H117.963C117.115 81.1172 116.664 81.4102 116.609 81.9961L116.604 82.0957C116.604 82.3066 116.678 82.4805 116.826 82.6172C116.975 82.7539 117.178 82.8223 117.436 82.8223ZM123.154 77.6602L123.207 78.3926C123.66 77.8262 124.268 77.543 125.029 77.543C125.701 77.543 126.201 77.7402 126.529 78.1348C126.857 78.5293 127.025 79.1191 127.033 79.9043V84H125.34V79.9453C125.34 79.5859 125.262 79.3262 125.105 79.166C124.949 79.002 124.689 78.9199 124.326 78.9199C123.85 78.9199 123.492 79.123 123.254 79.5293V84H121.561V77.6602H123.154ZM132.119 83.3555C131.701 83.8633 131.123 84.1172 130.385 84.1172C129.705 84.1172 129.186 83.9219 128.826 83.5312C128.471 83.1406 128.289 82.5684 128.281 81.8145V77.6602H129.975V81.7559C129.975 82.416 130.275 82.7461 130.877 82.7461C131.451 82.7461 131.846 82.5469 132.061 82.1484V77.6602H133.76V84H132.166L132.119 83.3555ZM138.711 84C138.633 83.8477 138.576 83.6582 138.541 83.4316C138.131 83.8887 137.598 84.1172 136.941 84.1172C136.32 84.1172 135.805 83.9375 135.395 83.5781C134.988 83.2188 134.785 82.7656 134.785 82.2188C134.785 81.5469 135.033 81.0312 135.529 80.6719C136.029 80.3125 136.75 80.1309 137.691 80.127H138.471V79.7637C138.471 79.4707 138.395 79.2363 138.242 79.0605C138.094 78.8848 137.857 78.7969 137.533 78.7969C137.248 78.7969 137.023 78.8652 136.859 79.002C136.699 79.1387 136.619 79.3262 136.619 79.5645H134.926C134.926 79.1973 135.039 78.8574 135.266 78.5449C135.492 78.2324 135.812 77.9883 136.227 77.8125C136.641 77.6328 137.105 77.543 137.621 77.543C138.402 77.543 139.021 77.7402 139.479 78.1348C139.939 78.5254 140.17 79.0762 140.17 79.7871V82.5352C140.174 83.1367 140.258 83.5918 140.422 83.9004V84H138.711ZM137.311 82.8223C137.561 82.8223 137.791 82.7676 138.002 82.6582C138.213 82.5449 138.369 82.3945 138.471 82.207V81.1172H137.838C136.99 81.1172 136.539 81.4102 136.484 81.9961L136.479 82.0957C136.479 82.3066 136.553 82.4805 136.701 82.6172C136.85 82.7539 137.053 82.8223 137.311 82.8223ZM143.258 84H141.559V75H143.258V84ZM153.828 76.8926H151.215V84H149.457V76.8926H146.879V75.4688H153.828V76.8926ZM157.115 84.1172C156.186 84.1172 155.428 83.832 154.842 83.2617C154.26 82.6914 153.969 81.9316 153.969 80.9824V80.8184C153.969 80.1816 154.092 79.6133 154.338 79.1133C154.584 78.6094 154.932 78.2227 155.381 77.9531C155.834 77.6797 156.35 77.543 156.928 77.543C157.795 77.543 158.477 77.8164 158.973 78.3633C159.473 78.9102 159.723 79.6855 159.723 80.6895V81.3809H155.686C155.74 81.7949 155.904 82.127 156.178 82.377C156.455 82.627 156.805 82.752 157.227 82.752C157.879 82.752 158.389 82.5156 158.756 82.043L159.588 82.9746C159.334 83.334 158.99 83.6152 158.557 83.8184C158.123 84.0176 157.643 84.1172 157.115 84.1172ZM156.922 78.9141C156.586 78.9141 156.312 79.0273 156.102 79.2539C155.895 79.4805 155.762 79.8047 155.703 80.2266H158.059V80.0918C158.051 79.7168 157.949 79.4277 157.754 79.2246C157.559 79.0176 157.281 78.9141 156.922 78.9141ZM164.123 82.248C164.123 82.041 164.02 81.8789 163.812 81.7617C163.609 81.6406 163.281 81.5332 162.828 81.4395C161.32 81.123 160.566 80.4824 160.566 79.5176C160.566 78.9551 160.799 78.4863 161.264 78.1113C161.732 77.7324 162.344 77.543 163.098 77.543C163.902 77.543 164.545 77.7324 165.025 78.1113C165.51 78.4902 165.752 78.9824 165.752 79.5879H164.059C164.059 79.3457 163.98 79.1465 163.824 78.9902C163.668 78.8301 163.424 78.75 163.092 78.75C162.807 78.75 162.586 78.8145 162.43 78.9434C162.273 79.0723 162.195 79.2363 162.195 79.4355C162.195 79.623 162.283 79.7754 162.459 79.8926C162.639 80.0059 162.939 80.1055 163.361 80.1914C163.783 80.2734 164.139 80.3672 164.428 80.4727C165.322 80.8008 165.77 81.3691 165.77 82.1777C165.77 82.7559 165.521 83.2246 165.025 83.584C164.529 83.9395 163.889 84.1172 163.104 84.1172C162.572 84.1172 162.1 84.0234 161.686 83.8359C161.275 83.6445 160.953 83.3848 160.719 83.0566C160.484 82.7246 160.367 82.3672 160.367 81.9844H161.973C161.988 82.2852 162.1 82.5156 162.307 82.6758C162.514 82.8359 162.791 82.916 163.139 82.916C163.463 82.916 163.707 82.8555 163.871 82.7344C164.039 82.6094 164.123 82.4473 164.123 82.248ZM168.893 76.1016V77.6602H169.977V78.9023H168.893V82.0664C168.893 82.3008 168.938 82.4688 169.027 82.5703C169.117 82.6719 169.289 82.7227 169.543 82.7227C169.73 82.7227 169.896 82.709 170.041 82.6816V83.9648C169.709 84.0664 169.367 84.1172 169.016 84.1172C167.828 84.1172 167.223 83.5176 167.199 82.3184V78.9023H166.273V77.6602H167.199V76.1016H168.893ZM173.838 84.1172C172.908 84.1172 172.15 83.832 171.564 83.2617C170.982 82.6914 170.691 81.9316 170.691 80.9824V80.8184C170.691 80.1816 170.814 79.6133 171.061 79.1133C171.307 78.6094 171.654 78.2227 172.104 77.9531C172.557 77.6797 173.072 77.543 173.65 77.543C174.518 77.543 175.199 77.8164 175.695 78.3633C176.195 78.9102 176.445 79.6855 176.445 80.6895V81.3809H172.408C172.463 81.7949 172.627 82.127 172.9 82.377C173.178 82.627 173.527 82.752 173.949 82.752C174.602 82.752 175.111 82.5156 175.479 82.043L176.311 82.9746C176.057 83.334 175.713 83.6152 175.279 83.8184C174.846 84.0176 174.365 84.1172 173.838 84.1172ZM173.645 78.9141C173.309 78.9141 173.035 79.0273 172.824 79.2539C172.617 79.4805 172.484 79.8047 172.426 80.2266H174.781V80.0918C174.773 79.7168 174.672 79.4277 174.477 79.2246C174.281 79.0176 174.004 78.9141 173.645 78.9141ZM180.975 79.248C180.744 79.2168 180.541 79.2012 180.365 79.2012C179.725 79.2012 179.305 79.418 179.105 79.8516V84H177.412V77.6602H179.012L179.059 78.416C179.398 77.834 179.869 77.543 180.471 77.543C180.658 77.543 180.834 77.5684 180.998 77.6191L180.975 79.248Z" fill="black"/>
<path d="M312.602 78.9277C312.602 79.7246 312.473 80.418 312.215 81.0078C311.957 81.5938 311.6 82.0645 311.143 82.4199L312.561 83.5332L311.441 84.5234L309.625 83.0645C309.418 83.0996 309.203 83.1172 308.98 83.1172C308.273 83.1172 307.643 82.9473 307.088 82.6074C306.533 82.2676 306.104 81.7832 305.799 81.1543C305.494 80.5215 305.34 79.7949 305.336 78.9746V78.5527C305.336 77.7129 305.486 76.9746 305.787 76.3379C306.092 75.6973 306.52 75.207 307.07 74.8672C307.625 74.5234 308.258 74.3516 308.969 74.3516C309.68 74.3516 310.311 74.5234 310.861 74.8672C311.416 75.207 311.844 75.6973 312.145 76.3379C312.449 76.9746 312.602 77.7109 312.602 78.5469V78.9277ZM310.82 78.541C310.82 77.6465 310.66 76.9668 310.34 76.502C310.02 76.0371 309.562 75.8047 308.969 75.8047C308.379 75.8047 307.924 76.0352 307.604 76.4961C307.283 76.9531 307.121 77.625 307.117 78.5117V78.9277C307.117 79.7988 307.277 80.4746 307.598 80.9551C307.918 81.4355 308.379 81.6758 308.98 81.6758C309.57 81.6758 310.023 81.4453 310.34 80.9844C310.656 80.5195 310.816 79.8438 310.82 78.957V78.541ZM318.707 81.2422H315.625L315.039 83H313.17L316.346 74.4688H317.975L321.168 83H319.299L318.707 81.2422ZM316.1 79.8184H318.232L317.16 76.625L316.1 79.8184ZM329.77 81.2422H326.688L326.102 83H324.232L327.408 74.4688H329.037L332.23 83H330.361L329.77 81.2422ZM327.162 79.8184H329.295L328.223 76.625L327.162 79.8184ZM336.643 82.3555C336.225 82.8633 335.646 83.1172 334.908 83.1172C334.229 83.1172 333.709 82.9219 333.35 82.5312C332.994 82.1406 332.812 81.5684 332.805 80.8145V76.6602H334.498V80.7559C334.498 81.416 334.799 81.7461 335.4 81.7461C335.975 81.7461 336.369 81.5469 336.584 81.1484V76.6602H338.283V83H336.689L336.643 82.3555ZM341.588 75.1016V76.6602H342.672V77.9023H341.588V81.0664C341.588 81.3008 341.633 81.4688 341.723 81.5703C341.812 81.6719 341.984 81.7227 342.238 81.7227C342.426 81.7227 342.592 81.709 342.736 81.6816V82.9648C342.404 83.0664 342.062 83.1172 341.711 83.1172C340.523 83.1172 339.918 82.5176 339.895 81.3184V77.9023H338.969V76.6602H339.895V75.1016H341.588ZM343.176 79.7715C343.176 79.1426 343.297 78.582 343.539 78.0898C343.781 77.5977 344.129 77.2168 344.582 76.9473C345.039 76.6777 345.568 76.543 346.17 76.543C347.025 76.543 347.723 76.8047 348.262 77.3281C348.805 77.8516 349.107 78.5625 349.17 79.4609L349.182 79.8945C349.182 80.8672 348.91 81.6484 348.367 82.2383C347.824 82.8242 347.096 83.1172 346.182 83.1172C345.268 83.1172 344.537 82.8242 343.99 82.2383C343.447 81.6523 343.176 80.8555 343.176 79.8477V79.7715ZM344.869 79.8945C344.869 80.4961 344.982 80.957 345.209 81.2773C345.436 81.5938 345.76 81.752 346.182 81.752C346.592 81.752 346.912 81.5957 347.143 81.2832C347.373 80.9668 347.488 80.4629 347.488 79.7715C347.488 79.1816 347.373 78.7246 347.143 78.4004C346.912 78.0762 346.588 77.9141 346.17 77.9141C345.756 77.9141 345.436 78.0762 345.209 78.4004C344.982 78.7207 344.869 79.2188 344.869 79.8945ZM351.812 76.6602L351.865 77.3691C352.314 76.8184 352.922 76.543 353.688 76.543C354.504 76.543 355.064 76.8652 355.369 77.5098C355.814 76.8652 356.449 76.543 357.273 76.543C357.961 76.543 358.473 76.7441 358.809 77.1465C359.145 77.5449 359.312 78.1465 359.312 78.9512V83H357.613V78.957C357.613 78.5977 357.543 78.3359 357.402 78.1719C357.262 78.0039 357.014 77.9199 356.658 77.9199C356.15 77.9199 355.799 78.1621 355.604 78.6465L355.609 83H353.916V78.9629C353.916 78.5957 353.844 78.3301 353.699 78.166C353.555 78.002 353.309 77.9199 352.961 77.9199C352.48 77.9199 352.133 78.1191 351.918 78.5176V83H350.225V76.6602H351.812ZM364.293 83C364.215 82.8477 364.158 82.6582 364.123 82.4316C363.713 82.8887 363.18 83.1172 362.523 83.1172C361.902 83.1172 361.387 82.9375 360.977 82.5781C360.57 82.2188 360.367 81.7656 360.367 81.2188C360.367 80.5469 360.615 80.0312 361.111 79.6719C361.611 79.3125 362.332 79.1309 363.273 79.127H364.053V78.7637C364.053 78.4707 363.977 78.2363 363.824 78.0605C363.676 77.8848 363.439 77.7969 363.115 77.7969C362.83 77.7969 362.605 77.8652 362.441 78.002C362.281 78.1387 362.201 78.3262 362.201 78.5645H360.508C360.508 78.1973 360.621 77.8574 360.848 77.5449C361.074 77.2324 361.395 76.9883 361.809 76.8125C362.223 76.6328 362.688 76.543 363.203 76.543C363.984 76.543 364.604 76.7402 365.061 77.1348C365.521 77.5254 365.752 78.0762 365.752 78.7871V81.5352C365.756 82.1367 365.84 82.5918 366.004 82.9004V83H364.293ZM362.893 81.8223C363.143 81.8223 363.373 81.7676 363.584 81.6582C363.795 81.5449 363.951 81.3945 364.053 81.207V80.1172H363.42C362.572 80.1172 362.121 80.4102 362.066 80.9961L362.061 81.0957C362.061 81.3066 362.135 81.4805 362.283 81.6172C362.432 81.7539 362.635 81.8223 362.893 81.8223ZM369.08 75.1016V76.6602H370.164V77.9023H369.08V81.0664C369.08 81.3008 369.125 81.4688 369.215 81.5703C369.305 81.6719 369.477 81.7227 369.73 81.7227C369.918 81.7227 370.084 81.709 370.229 81.6816V82.9648C369.896 83.0664 369.555 83.1172 369.203 83.1172C368.016 83.1172 367.41 82.5176 367.387 81.3184V77.9023H366.461V76.6602H367.387V75.1016H369.08ZM372.895 83H371.195V76.6602H372.895V83ZM371.096 75.0195C371.096 74.7656 371.18 74.5566 371.348 74.3926C371.52 74.2285 371.752 74.1465 372.045 74.1465C372.334 74.1465 372.564 74.2285 372.736 74.3926C372.908 74.5566 372.994 74.7656 372.994 75.0195C372.994 75.2773 372.906 75.4883 372.73 75.6523C372.559 75.8164 372.33 75.8984 372.045 75.8984C371.76 75.8984 371.529 75.8164 371.354 75.6523C371.182 75.4883 371.096 75.2773 371.096 75.0195ZM374.031 79.7715C374.031 79.1426 374.152 78.582 374.395 78.0898C374.637 77.5977 374.984 77.2168 375.438 76.9473C375.895 76.6777 376.424 76.543 377.025 76.543C377.881 76.543 378.578 76.8047 379.117 77.3281C379.66 77.8516 379.963 78.5625 380.025 79.4609L380.037 79.8945C380.037 80.8672 379.766 81.6484 379.223 82.2383C378.68 82.8242 377.951 83.1172 377.037 83.1172C376.123 83.1172 375.393 82.8242 374.846 82.2383C374.303 81.6523 374.031 80.8555 374.031 79.8477V79.7715ZM375.725 79.8945C375.725 80.4961 375.838 80.957 376.064 81.2773C376.291 81.5938 376.615 81.752 377.037 81.752C377.447 81.752 377.768 81.5957 377.998 81.2832C378.229 80.9668 378.344 80.4629 378.344 79.7715C378.344 79.1816 378.229 78.7246 377.998 78.4004C377.768 78.0762 377.443 77.9141 377.025 77.9141C376.611 77.9141 376.291 78.0762 376.064 78.4004C375.838 78.7207 375.725 79.2188 375.725 79.8945ZM382.639 76.6602L382.691 77.3926C383.145 76.8262 383.752 76.543 384.514 76.543C385.186 76.543 385.686 76.7402 386.014 77.1348C386.342 77.5293 386.51 78.1191 386.518 78.9043V83H384.824V78.9453C384.824 78.5859 384.746 78.3262 384.59 78.166C384.434 78.002 384.174 77.9199 383.811 77.9199C383.334 77.9199 382.977 78.123 382.738 78.5293V83H381.045V76.6602H382.639ZM319.609 97V88.4688H322.234C322.984 88.4688 323.654 88.6387 324.244 88.9785C324.838 89.3145 325.301 89.7949 325.633 90.4199C325.965 91.041 326.131 91.748 326.131 92.541V92.9336C326.131 93.7266 325.967 94.4316 325.639 95.0488C325.314 95.666 324.855 96.1445 324.262 96.4844C323.668 96.8242 322.998 96.9961 322.252 97H319.609ZM321.367 89.8926V95.5879H322.217C322.904 95.5879 323.43 95.3633 323.793 94.9141C324.156 94.4648 324.342 93.8223 324.35 92.9863V92.5352C324.35 91.668 324.17 91.0117 323.811 90.5664C323.451 90.1172 322.926 89.8926 322.234 89.8926H321.367ZM330.221 97.1172C329.291 97.1172 328.533 96.832 327.947 96.2617C327.365 95.6914 327.074 94.9316 327.074 93.9824V93.8184C327.074 93.1816 327.197 92.6133 327.443 92.1133C327.689 91.6094 328.037 91.2227 328.486 90.9531C328.939 90.6797 329.455 90.543 330.033 90.543C330.9 90.543 331.582 90.8164 332.078 91.3633C332.578 91.9102 332.828 92.6855 332.828 93.6895V94.3809H328.791C328.846 94.7949 329.01 95.127 329.283 95.377C329.561 95.627 329.91 95.752 330.332 95.752C330.984 95.752 331.494 95.5156 331.861 95.043L332.693 95.9746C332.439 96.334 332.096 96.6152 331.662 96.8184C331.229 97.0176 330.748 97.1172 330.221 97.1172ZM330.027 91.9141C329.691 91.9141 329.418 92.0273 329.207 92.2539C329 92.4805 328.867 92.8047 328.809 93.2266H331.164V93.0918C331.156 92.7168 331.055 92.4277 330.859 92.2246C330.664 92.0176 330.387 91.9141 330.027 91.9141ZM336.086 94.9316L337.264 90.6602H339.033L336.895 97H335.277L333.139 90.6602H334.908L336.086 94.9316ZM342.619 97.1172C341.689 97.1172 340.932 96.832 340.346 96.2617C339.764 95.6914 339.473 94.9316 339.473 93.9824V93.8184C339.473 93.1816 339.596 92.6133 339.842 92.1133C340.088 91.6094 340.436 91.2227 340.885 90.9531C341.338 90.6797 341.854 90.543 342.432 90.543C343.299 90.543 343.98 90.8164 344.477 91.3633C344.977 91.9102 345.227 92.6855 345.227 93.6895V94.3809H341.189C341.244 94.7949 341.408 95.127 341.682 95.377C341.959 95.627 342.309 95.752 342.73 95.752C343.383 95.752 343.893 95.5156 344.26 95.043L345.092 95.9746C344.838 96.334 344.494 96.6152 344.061 96.8184C343.627 97.0176 343.146 97.1172 342.619 97.1172ZM342.426 91.9141C342.09 91.9141 341.816 92.0273 341.605 92.2539C341.398 92.4805 341.266 92.8047 341.207 93.2266H343.562V93.0918C343.555 92.7168 343.453 92.4277 343.258 92.2246C343.062 92.0176 342.785 91.9141 342.426 91.9141ZM347.98 97H346.281V88H347.98V97ZM349.117 93.7715C349.117 93.1426 349.238 92.582 349.48 92.0898C349.723 91.5977 350.07 91.2168 350.523 90.9473C350.98 90.6777 351.51 90.543 352.111 90.543C352.967 90.543 353.664 90.8047 354.203 91.3281C354.746 91.8516 355.049 92.5625 355.111 93.4609L355.123 93.8945C355.123 94.8672 354.852 95.6484 354.309 96.2383C353.766 96.8242 353.037 97.1172 352.123 97.1172C351.209 97.1172 350.479 96.8242 349.932 96.2383C349.389 95.6523 349.117 94.8555 349.117 93.8477V93.7715ZM350.811 93.8945C350.811 94.4961 350.924 94.957 351.15 95.2773C351.377 95.5938 351.701 95.752 352.123 95.752C352.533 95.752 352.854 95.5957 353.084 95.2832C353.314 94.9668 353.43 94.4629 353.43 93.7715C353.43 93.1816 353.314 92.7246 353.084 92.4004C352.854 92.0762 352.529 91.9141 352.111 91.9141C351.697 91.9141 351.377 92.0762 351.15 92.4004C350.924 92.7207 350.811 93.2188 350.811 93.8945ZM361.873 93.8887C361.873 94.8652 361.65 95.6484 361.205 96.2383C360.764 96.8242 360.166 97.1172 359.412 97.1172C358.771 97.1172 358.254 96.8945 357.859 96.4492V99.4375H356.166V90.6602H357.736L357.795 91.2812C358.205 90.7891 358.74 90.543 359.4 90.543C360.182 90.543 360.789 90.832 361.223 91.4102C361.656 91.9883 361.873 92.7852 361.873 93.8008V93.8887ZM360.18 93.7656C360.18 93.1758 360.074 92.7207 359.863 92.4004C359.656 92.0801 359.354 91.9199 358.955 91.9199C358.424 91.9199 358.059 92.123 357.859 92.5293V95.125C358.066 95.543 358.436 95.752 358.967 95.752C359.775 95.752 360.18 95.0898 360.18 93.7656ZM365.846 97.1172C364.916 97.1172 364.158 96.832 363.572 96.2617C362.99 95.6914 362.699 94.9316 362.699 93.9824V93.8184C362.699 93.1816 362.822 92.6133 363.068 92.1133C363.314 91.6094 363.662 91.2227 364.111 90.9531C364.564 90.6797 365.08 90.543 365.658 90.543C366.525 90.543 367.207 90.8164 367.703 91.3633C368.203 91.9102 368.453 92.6855 368.453 93.6895V94.3809H364.416C364.471 94.7949 364.635 95.127 364.908 95.377C365.186 95.627 365.535 95.752 365.957 95.752C366.609 95.752 367.119 95.5156 367.486 95.043L368.318 95.9746C368.064 96.334 367.721 96.6152 367.287 96.8184C366.854 97.0176 366.373 97.1172 365.846 97.1172ZM365.652 91.9141C365.316 91.9141 365.043 92.0273 364.832 92.2539C364.625 92.4805 364.492 92.8047 364.434 93.2266H366.789V93.0918C366.781 92.7168 366.68 92.4277 366.484 92.2246C366.289 92.0176 366.012 91.9141 365.652 91.9141ZM372.982 92.248C372.752 92.2168 372.549 92.2012 372.373 92.2012C371.732 92.2012 371.312 92.418 371.113 92.8516V97H369.42V90.6602H371.02L371.066 91.416C371.406 90.834 371.877 90.543 372.479 90.543C372.666 90.543 372.842 90.5684 373.006 90.6191L372.982 92.248Z" fill="black"/>
<path d="M511.758 83.9277C511.758 84.7246 511.629 85.418 511.371 86.0078C511.113 86.5938 510.756 87.0645 510.299 87.4199L511.717 88.5332L510.598 89.5234L508.781 88.0645C508.574 88.0996 508.359 88.1172 508.137 88.1172C507.43 88.1172 506.799 87.9473 506.244 87.6074C505.689 87.2676 505.26 86.7832 504.955 86.1543C504.65 85.5215 504.496 84.7949 504.492 83.9746V83.5527C504.492 82.7129 504.643 81.9746 504.943 81.3379C505.248 80.6973 505.676 80.207 506.227 79.8672C506.781 79.5234 507.414 79.3516 508.125 79.3516C508.836 79.3516 509.467 79.5234 510.018 79.8672C510.572 80.207 511 80.6973 511.301 81.3379C511.605 81.9746 511.758 82.7109 511.758 83.5469V83.9277ZM509.977 83.541C509.977 82.6465 509.816 81.9668 509.496 81.502C509.176 81.0371 508.719 80.8047 508.125 80.8047C507.535 80.8047 507.08 81.0352 506.76 81.4961C506.439 81.9531 506.277 82.625 506.273 83.5117V83.9277C506.273 84.7988 506.434 85.4746 506.754 85.9551C507.074 86.4355 507.535 86.6758 508.137 86.6758C508.727 86.6758 509.18 86.4453 509.496 85.9844C509.812 85.5195 509.973 84.8438 509.977 83.957V83.541ZM517.863 86.2422H514.781L514.195 88H512.326L515.502 79.4688H517.131L520.324 88H518.455L517.863 86.2422ZM515.256 84.8184H517.389L516.316 81.625L515.256 84.8184ZM530.18 80.8926H527.566V88H525.809V80.8926H523.23V79.4688H530.18V80.8926ZM533.467 88.1172C532.537 88.1172 531.779 87.832 531.193 87.2617C530.611 86.6914 530.32 85.9316 530.32 84.9824V84.8184C530.32 84.1816 530.443 83.6133 530.689 83.1133C530.936 82.6094 531.283 82.2227 531.732 81.9531C532.186 81.6797 532.701 81.543 533.279 81.543C534.146 81.543 534.828 81.8164 535.324 82.3633C535.824 82.9102 536.074 83.6855 536.074 84.6895V85.3809H532.037C532.092 85.7949 532.256 86.127 532.529 86.377C532.807 86.627 533.156 86.752 533.578 86.752C534.23 86.752 534.74 86.5156 535.107 86.043L535.939 86.9746C535.686 87.334 535.342 87.6152 534.908 87.8184C534.475 88.0176 533.994 88.1172 533.467 88.1172ZM533.273 82.9141C532.938 82.9141 532.664 83.0273 532.453 83.2539C532.246 83.4805 532.113 83.8047 532.055 84.2266H534.41V84.0918C534.402 83.7168 534.301 83.4277 534.105 83.2246C533.91 83.0176 533.633 82.9141 533.273 82.9141ZM540.715 88C540.637 87.8477 540.58 87.6582 540.545 87.4316C540.135 87.8887 539.602 88.1172 538.945 88.1172C538.324 88.1172 537.809 87.9375 537.398 87.5781C536.992 87.2188 536.789 86.7656 536.789 86.2188C536.789 85.5469 537.037 85.0312 537.533 84.6719C538.033 84.3125 538.754 84.1309 539.695 84.127H540.475V83.7637C540.475 83.4707 540.398 83.2363 540.246 83.0605C540.098 82.8848 539.861 82.7969 539.537 82.7969C539.252 82.7969 539.027 82.8652 538.863 83.002C538.703 83.1387 538.623 83.3262 538.623 83.5645H536.93C536.93 83.1973 537.043 82.8574 537.27 82.5449C537.496 82.2324 537.816 81.9883 538.23 81.8125C538.645 81.6328 539.109 81.543 539.625 81.543C540.406 81.543 541.025 81.7402 541.482 82.1348C541.943 82.5254 542.174 83.0762 542.174 83.7871V86.5352C542.178 87.1367 542.262 87.5918 542.426 87.9004V88H540.715ZM539.314 86.8223C539.564 86.8223 539.795 86.7676 540.006 86.6582C540.217 86.5449 540.373 86.3945 540.475 86.207V85.1172H539.842C538.994 85.1172 538.543 85.4102 538.488 85.9961L538.482 86.0957C538.482 86.3066 538.557 86.4805 538.705 86.6172C538.854 86.7539 539.057 86.8223 539.314 86.8223ZM545.062 81.6602L545.115 82.3691C545.564 81.8184 546.172 81.543 546.938 81.543C547.754 81.543 548.314 81.8652 548.619 82.5098C549.064 81.8652 549.699 81.543 550.523 81.543C551.211 81.543 551.723 81.7441 552.059 82.1465C552.395 82.5449 552.562 83.1465 552.562 83.9512V88H550.863V83.957C550.863 83.5977 550.793 83.3359 550.652 83.1719C550.512 83.0039 550.264 82.9199 549.908 82.9199C549.4 82.9199 549.049 83.1621 548.854 83.6465L548.859 88H547.166V83.9629C547.166 83.5957 547.094 83.3301 546.949 83.166C546.805 83.002 546.559 82.9199 546.211 82.9199C545.73 82.9199 545.383 83.1191 545.168 83.5176V88H543.475V81.6602H545.062ZM558.727 86.5879H562.459V88H556.969V79.4688H558.727V86.5879ZM566.279 88.1172C565.35 88.1172 564.592 87.832 564.006 87.2617C563.424 86.6914 563.133 85.9316 563.133 84.9824V84.8184C563.133 84.1816 563.256 83.6133 563.502 83.1133C563.748 82.6094 564.096 82.2227 564.545 81.9531C564.998 81.6797 565.514 81.543 566.092 81.543C566.959 81.543 567.641 81.8164 568.137 82.3633C568.637 82.9102 568.887 83.6855 568.887 84.6895V85.3809H564.85C564.904 85.7949 565.068 86.127 565.342 86.377C565.619 86.627 565.969 86.752 566.391 86.752C567.043 86.752 567.553 86.5156 567.92 86.043L568.752 86.9746C568.498 87.334 568.154 87.6152 567.721 87.8184C567.287 88.0176 566.807 88.1172 566.279 88.1172ZM566.086 82.9141C565.75 82.9141 565.477 83.0273 565.266 83.2539C565.059 83.4805 564.926 83.8047 564.867 84.2266H567.223V84.0918C567.215 83.7168 567.113 83.4277 566.918 83.2246C566.723 83.0176 566.445 82.9141 566.086 82.9141ZM573.527 88C573.449 87.8477 573.393 87.6582 573.357 87.4316C572.947 87.8887 572.414 88.1172 571.758 88.1172C571.137 88.1172 570.621 87.9375 570.211 87.5781C569.805 87.2188 569.602 86.7656 569.602 86.2188C569.602 85.5469 569.85 85.0312 570.346 84.6719C570.846 84.3125 571.566 84.1309 572.508 84.127H573.287V83.7637C573.287 83.4707 573.211 83.2363 573.059 83.0605C572.91 82.8848 572.674 82.7969 572.35 82.7969C572.064 82.7969 571.84 82.8652 571.676 83.002C571.516 83.1387 571.436 83.3262 571.436 83.5645H569.742C569.742 83.1973 569.855 82.8574 570.082 82.5449C570.309 82.2324 570.629 81.9883 571.043 81.8125C571.457 81.6328 571.922 81.543 572.438 81.543C573.219 81.543 573.838 81.7402 574.295 82.1348C574.756 82.5254 574.986 83.0762 574.986 83.7871V86.5352C574.99 87.1367 575.074 87.5918 575.238 87.9004V88H573.527ZM572.127 86.8223C572.377 86.8223 572.607 86.7676 572.818 86.6582C573.029 86.5449 573.186 86.3945 573.287 86.207V85.1172H572.654C571.807 85.1172 571.355 85.4102 571.301 85.9961L571.295 86.0957C571.295 86.3066 571.369 86.4805 571.518 86.6172C571.666 86.7539 571.869 86.8223 572.127 86.8223ZM576.023 84.7832C576.023 83.7949 576.244 83.0078 576.686 82.4219C577.131 81.8359 577.738 81.543 578.508 81.543C579.125 81.543 579.635 81.7734 580.037 82.2344V79H581.736V88H580.207L580.125 87.3262C579.703 87.8535 579.16 88.1172 578.496 88.1172C577.75 88.1172 577.15 87.8242 576.697 87.2383C576.248 86.6484 576.023 85.8301 576.023 84.7832ZM577.717 84.9062C577.717 85.5 577.82 85.9551 578.027 86.2715C578.234 86.5879 578.535 86.7461 578.93 86.7461C579.453 86.7461 579.822 86.5254 580.037 86.084V83.582C579.826 83.1406 579.461 82.9199 578.941 82.9199C578.125 82.9199 577.717 83.582 577.717 84.9062Z" fill="black"/>
<path d="M715.758 81.9277C715.758 82.7246 715.629 83.418 715.371 84.0078C715.113 84.5938 714.756 85.0645 714.299 85.4199L715.717 86.5332L714.598 87.5234L712.781 86.0645C712.574 86.0996 712.359 86.1172 712.137 86.1172C711.43 86.1172 710.799 85.9473 710.244 85.6074C709.689 85.2676 709.26 84.7832 708.955 84.1543C708.65 83.5215 708.496 82.7949 708.492 81.9746V81.5527C708.492 80.7129 708.643 79.9746 708.943 79.3379C709.248 78.6973 709.676 78.207 710.227 77.8672C710.781 77.5234 711.414 77.3516 712.125 77.3516C712.836 77.3516 713.467 77.5234 714.018 77.8672C714.572 78.207 715 78.6973 715.301 79.3379C715.605 79.9746 715.758 80.7109 715.758 81.5469V81.9277ZM713.977 81.541C713.977 80.6465 713.816 79.9668 713.496 79.502C713.176 79.0371 712.719 78.8047 712.125 78.8047C711.535 78.8047 711.08 79.0352 710.76 79.4961C710.439 79.9531 710.277 80.625 710.273 81.5117V81.9277C710.273 82.7988 710.434 83.4746 710.754 83.9551C711.074 84.4355 711.535 84.6758 712.137 84.6758C712.727 84.6758 713.18 84.4453 713.496 83.9844C713.812 83.5195 713.973 82.8438 713.977 81.957V81.541ZM721.863 84.2422H718.781L718.195 86H716.326L719.502 77.4688H721.131L724.324 86H722.455L721.863 84.2422ZM719.256 82.8184H721.389L720.316 79.625L719.256 82.8184ZM730.406 77.4688L732.598 83.6562L734.777 77.4688H737.086V86H735.322V83.668L735.498 79.6426L733.195 86H731.988L729.691 79.6484L729.867 83.668V86H728.109V77.4688H730.406ZM742.184 86C742.105 85.8477 742.049 85.6582 742.014 85.4316C741.604 85.8887 741.07 86.1172 740.414 86.1172C739.793 86.1172 739.277 85.9375 738.867 85.5781C738.461 85.2188 738.258 84.7656 738.258 84.2188C738.258 83.5469 738.506 83.0312 739.002 82.6719C739.502 82.3125 740.223 82.1309 741.164 82.127H741.943V81.7637C741.943 81.4707 741.867 81.2363 741.715 81.0605C741.566 80.8848 741.33 80.7969 741.006 80.7969C740.721 80.7969 740.496 80.8652 740.332 81.002C740.172 81.1387 740.092 81.3262 740.092 81.5645H738.398C738.398 81.1973 738.512 80.8574 738.738 80.5449C738.965 80.2324 739.285 79.9883 739.699 79.8125C740.113 79.6328 740.578 79.543 741.094 79.543C741.875 79.543 742.494 79.7402 742.951 80.1348C743.412 80.5254 743.643 81.0762 743.643 81.7871V84.5352C743.646 85.1367 743.73 85.5918 743.895 85.9004V86H742.184ZM740.783 84.8223C741.033 84.8223 741.264 84.7676 741.475 84.6582C741.686 84.5449 741.842 84.3945 741.943 84.207V83.1172H741.311C740.463 83.1172 740.012 83.4102 739.957 83.9961L739.951 84.0957C739.951 84.3066 740.025 84.4805 740.174 84.6172C740.322 84.7539 740.525 84.8223 740.783 84.8223ZM746.502 79.6602L746.555 80.3926C747.008 79.8262 747.615 79.543 748.377 79.543C749.049 79.543 749.549 79.7402 749.877 80.1348C750.205 80.5293 750.373 81.1191 750.381 81.9043V86H748.688V81.9453C748.688 81.5859 748.609 81.3262 748.453 81.166C748.297 81.002 748.037 80.9199 747.674 80.9199C747.197 80.9199 746.84 81.123 746.602 81.5293V86H744.908V79.6602H746.502ZM755.344 86C755.266 85.8477 755.209 85.6582 755.174 85.4316C754.764 85.8887 754.23 86.1172 753.574 86.1172C752.953 86.1172 752.438 85.9375 752.027 85.5781C751.621 85.2188 751.418 84.7656 751.418 84.2188C751.418 83.5469 751.666 83.0312 752.162 82.6719C752.662 82.3125 753.383 82.1309 754.324 82.127H755.104V81.7637C755.104 81.4707 755.027 81.2363 754.875 81.0605C754.727 80.8848 754.49 80.7969 754.166 80.7969C753.881 80.7969 753.656 80.8652 753.492 81.002C753.332 81.1387 753.252 81.3262 753.252 81.5645H751.559C751.559 81.1973 751.672 80.8574 751.898 80.5449C752.125 80.2324 752.445 79.9883 752.859 79.8125C753.273 79.6328 753.738 79.543 754.254 79.543C755.035 79.543 755.654 79.7402 756.111 80.1348C756.572 80.5254 756.803 81.0762 756.803 81.7871V84.5352C756.807 85.1367 756.891 85.5918 757.055 85.9004V86H755.344ZM753.943 84.8223C754.193 84.8223 754.424 84.7676 754.635 84.6582C754.846 84.5449 755.002 84.3945 755.104 84.207V83.1172H754.471C753.623 83.1172 753.172 83.4102 753.117 83.9961L753.111 84.0957C753.111 84.3066 753.186 84.4805 753.334 84.6172C753.482 84.7539 753.686 84.8223 753.943 84.8223ZM757.857 82.7832C757.857 81.8105 758.088 81.0273 758.549 80.4336C759.014 79.8398 759.639 79.543 760.424 79.543C761.119 79.543 761.66 79.7812 762.047 80.2578L762.117 79.6602H763.652V85.7891C763.652 86.3438 763.525 86.8262 763.271 87.2363C763.021 87.6465 762.668 87.959 762.211 88.1738C761.754 88.3887 761.219 88.4961 760.605 88.4961C760.141 88.4961 759.688 88.4023 759.246 88.2148C758.805 88.0312 758.471 87.793 758.244 87.5L758.994 86.4688C759.416 86.9414 759.928 87.1777 760.529 87.1777C760.979 87.1777 761.328 87.0566 761.578 86.8145C761.828 86.5762 761.953 86.2363 761.953 85.7949V85.4551C761.562 85.8965 761.049 86.1172 760.412 86.1172C759.65 86.1172 759.033 85.8203 758.561 85.2266C758.092 84.6289 757.857 83.8379 757.857 82.8535V82.7832ZM759.551 82.9062C759.551 83.4805 759.666 83.9316 759.896 84.2598C760.127 84.584 760.443 84.7461 760.846 84.7461C761.361 84.7461 761.73 84.5527 761.953 84.166V81.5C761.727 81.1133 761.361 80.9199 760.857 80.9199C760.451 80.9199 760.131 81.0859 759.896 81.418C759.666 81.75 759.551 82.2461 759.551 82.9062ZM767.877 86.1172C766.947 86.1172 766.189 85.832 765.604 85.2617C765.021 84.6914 764.73 83.9316 764.73 82.9824V82.8184C764.73 82.1816 764.854 81.6133 765.1 81.1133C765.346 80.6094 765.693 80.2227 766.143 79.9531C766.596 79.6797 767.111 79.543 767.689 79.543C768.557 79.543 769.238 79.8164 769.734 80.3633C770.234 80.9102 770.484 81.6855 770.484 82.6895V83.3809H766.447C766.502 83.7949 766.666 84.127 766.939 84.377C767.217 84.627 767.566 84.752 767.988 84.752C768.641 84.752 769.15 84.5156 769.518 84.043L770.35 84.9746C770.096 85.334 769.752 85.6152 769.318 85.8184C768.885 86.0176 768.404 86.1172 767.877 86.1172ZM767.684 80.9141C767.348 80.9141 767.074 81.0273 766.863 81.2539C766.656 81.4805 766.523 81.8047 766.465 82.2266H768.82V82.0918C768.812 81.7168 768.711 81.4277 768.516 81.2246C768.32 81.0176 768.043 80.9141 767.684 80.9141ZM775.014 81.248C774.783 81.2168 774.58 81.2012 774.404 81.2012C773.764 81.2012 773.344 81.418 773.145 81.8516V86H771.451V79.6602H773.051L773.098 80.416C773.438 79.834 773.908 79.543 774.51 79.543C774.697 79.543 774.873 79.5684 775.037 79.6191L775.014 81.248Z" fill="black"/>
<path d="M892.762 85V76.4688H895.387C896.137 76.4688 896.807 76.6387 897.396 76.9785C897.99 77.3145 898.453 77.7949 898.785 78.4199C899.117 79.041 899.283 79.748 899.283 80.541V80.9336C899.283 81.7266 899.119 82.4316 898.791 83.0488C898.467 83.666 898.008 84.1445 897.414 84.4844C896.82 84.8242 896.15 84.9961 895.404 85H892.762ZM894.52 77.8926V83.5879H895.369C896.057 83.5879 896.582 83.3633 896.945 82.9141C897.309 82.4648 897.494 81.8223 897.502 80.9863V80.5352C897.502 79.668 897.322 79.0117 896.963 78.5664C896.604 78.1172 896.078 77.8926 895.387 77.8926H894.52ZM902.242 85H900.543V78.6602H902.242V85ZM900.443 77.0195C900.443 76.7656 900.527 76.5566 900.695 76.3926C900.867 76.2285 901.1 76.1465 901.393 76.1465C901.682 76.1465 901.912 76.2285 902.084 76.3926C902.256 76.5566 902.342 76.7656 902.342 77.0195C902.342 77.2773 902.254 77.4883 902.078 77.6523C901.906 77.8164 901.678 77.8984 901.393 77.8984C901.107 77.8984 900.877 77.8164 900.701 77.6523C900.529 77.4883 900.443 77.2773 900.443 77.0195ZM907.205 80.248C906.975 80.2168 906.771 80.2012 906.596 80.2012C905.955 80.2012 905.535 80.418 905.336 80.8516V85H903.643V78.6602H905.242L905.289 79.416C905.629 78.834 906.1 78.543 906.701 78.543C906.889 78.543 907.064 78.5684 907.229 78.6191L907.205 80.248ZM910.826 85.1172C909.896 85.1172 909.139 84.832 908.553 84.2617C907.971 83.6914 907.68 82.9316 907.68 81.9824V81.8184C907.68 81.1816 907.803 80.6133 908.049 80.1133C908.295 79.6094 908.643 79.2227 909.092 78.9531C909.545 78.6797 910.061 78.543 910.639 78.543C911.506 78.543 912.188 78.8164 912.684 79.3633C913.184 79.9102 913.434 80.6855 913.434 81.6895V82.3809H909.396C909.451 82.7949 909.615 83.127 909.889 83.377C910.166 83.627 910.516 83.752 910.938 83.752C911.59 83.752 912.1 83.5156 912.467 83.043L913.299 83.9746C913.045 84.334 912.701 84.6152 912.268 84.8184C911.834 85.0176 911.354 85.1172 910.826 85.1172ZM910.633 79.9141C910.297 79.9141 910.023 80.0273 909.812 80.2539C909.605 80.4805 909.473 80.8047 909.414 81.2266H911.77V81.0918C911.762 80.7168 911.66 80.4277 911.465 80.2246C911.27 80.0176 910.992 79.9141 910.633 79.9141ZM917.037 83.752C917.35 83.752 917.604 83.666 917.799 83.4941C917.994 83.3223 918.096 83.0938 918.104 82.8086H919.691C919.688 83.2383 919.57 83.6328 919.34 83.9922C919.109 84.3477 918.793 84.625 918.391 84.8242C917.992 85.0195 917.551 85.1172 917.066 85.1172C916.16 85.1172 915.445 84.8301 914.922 84.2559C914.398 83.6777 914.137 82.8809 914.137 81.8652V81.7539C914.137 80.7773 914.396 79.998 914.916 79.416C915.436 78.834 916.148 78.543 917.055 78.543C917.848 78.543 918.482 78.7695 918.959 79.2227C919.439 79.6719 919.684 80.2715 919.691 81.0215H918.104C918.096 80.6934 917.994 80.4277 917.799 80.2246C917.604 80.0176 917.346 79.9141 917.025 79.9141C916.631 79.9141 916.332 80.0586 916.129 80.3477C915.93 80.6328 915.83 81.0977 915.83 81.7422V81.918C915.83 82.5703 915.93 83.0391 916.129 83.3242C916.328 83.6094 916.631 83.752 917.037 83.752ZM922.686 77.1016V78.6602H923.77V79.9023H922.686V83.0664C922.686 83.3008 922.73 83.4688 922.82 83.5703C922.91 83.6719 923.082 83.7227 923.336 83.7227C923.523 83.7227 923.689 83.709 923.834 83.6816V84.9648C923.502 85.0664 923.16 85.1172 922.809 85.1172C921.621 85.1172 921.016 84.5176 920.992 83.3184V79.9023H920.066V78.6602H920.992V77.1016H922.686ZM924.273 81.7715C924.273 81.1426 924.395 80.582 924.637 80.0898C924.879 79.5977 925.227 79.2168 925.68 78.9473C926.137 78.6777 926.666 78.543 927.268 78.543C928.123 78.543 928.82 78.8047 929.359 79.3281C929.902 79.8516 930.205 80.5625 930.268 81.4609L930.279 81.8945C930.279 82.8672 930.008 83.6484 929.465 84.2383C928.922 84.8242 928.193 85.1172 927.279 85.1172C926.365 85.1172 925.635 84.8242 925.088 84.2383C924.545 83.6523 924.273 82.8555 924.273 81.8477V81.7715ZM925.967 81.8945C925.967 82.4961 926.08 82.957 926.307 83.2773C926.533 83.5938 926.857 83.752 927.279 83.752C927.689 83.752 928.01 83.5957 928.24 83.2832C928.471 82.9668 928.586 82.4629 928.586 81.7715C928.586 81.1816 928.471 80.7246 928.24 80.4004C928.01 80.0762 927.686 79.9141 927.268 79.9141C926.854 79.9141 926.533 80.0762 926.307 80.4004C926.08 80.7207 925.967 81.2188 925.967 81.8945ZM934.885 80.248C934.654 80.2168 934.451 80.2012 934.275 80.2012C933.635 80.2012 933.215 80.418 933.016 80.8516V85H931.322V78.6602H932.922L932.969 79.416C933.309 78.834 933.779 78.543 934.381 78.543C934.568 78.543 934.744 78.5684 934.908 78.6191L934.885 80.248ZM936.238 85.7324H934.979L938.119 76.4688H939.379L936.238 85.7324ZM950.236 85H948.479V81.3438H945.051V85H943.293V76.4688H945.051V79.9258H948.479V76.4688H950.236V85ZM954.584 85.1172C953.654 85.1172 952.896 84.832 952.311 84.2617C951.729 83.6914 951.438 82.9316 951.438 81.9824V81.8184C951.438 81.1816 951.561 80.6133 951.807 80.1133C952.053 79.6094 952.4 79.2227 952.85 78.9531C953.303 78.6797 953.818 78.543 954.396 78.543C955.264 78.543 955.945 78.8164 956.441 79.3633C956.941 79.9102 957.191 80.6855 957.191 81.6895V82.3809H953.154C953.209 82.7949 953.373 83.127 953.646 83.377C953.924 83.627 954.273 83.752 954.695 83.752C955.348 83.752 955.857 83.5156 956.225 83.043L957.057 83.9746C956.803 84.334 956.459 84.6152 956.025 84.8184C955.592 85.0176 955.111 85.1172 954.584 85.1172ZM954.391 79.9141C954.055 79.9141 953.781 80.0273 953.57 80.2539C953.363 80.4805 953.23 80.8047 953.172 81.2266H955.527V81.0918C955.52 80.7168 955.418 80.4277 955.223 80.2246C955.027 80.0176 954.75 79.9141 954.391 79.9141ZM961.832 85C961.754 84.8477 961.697 84.6582 961.662 84.4316C961.252 84.8887 960.719 85.1172 960.062 85.1172C959.441 85.1172 958.926 84.9375 958.516 84.5781C958.109 84.2188 957.906 83.7656 957.906 83.2188C957.906 82.5469 958.154 82.0312 958.65 81.6719C959.15 81.3125 959.871 81.1309 960.812 81.127H961.592V80.7637C961.592 80.4707 961.516 80.2363 961.363 80.0605C961.215 79.8848 960.979 79.7969 960.654 79.7969C960.369 79.7969 960.145 79.8652 959.98 80.002C959.82 80.1387 959.74 80.3262 959.74 80.5645H958.047C958.047 80.1973 958.16 79.8574 958.387 79.5449C958.613 79.2324 958.934 78.9883 959.348 78.8125C959.762 78.6328 960.227 78.543 960.742 78.543C961.523 78.543 962.143 78.7402 962.6 79.1348C963.061 79.5254 963.291 80.0762 963.291 80.7871V83.5352C963.295 84.1367 963.379 84.5918 963.543 84.9004V85H961.832ZM960.432 83.8223C960.682 83.8223 960.912 83.7676 961.123 83.6582C961.334 83.5449 961.49 83.3945 961.592 83.207V82.1172H960.959C960.111 82.1172 959.66 82.4102 959.605 82.9961L959.6 83.0957C959.6 83.3066 959.674 83.4805 959.822 83.6172C959.971 83.7539 960.174 83.8223 960.432 83.8223ZM964.328 81.7832C964.328 80.7949 964.549 80.0078 964.99 79.4219C965.436 78.8359 966.043 78.543 966.812 78.543C967.43 78.543 967.939 78.7734 968.342 79.2344V76H970.041V85H968.512L968.43 84.3262C968.008 84.8535 967.465 85.1172 966.801 85.1172C966.055 85.1172 965.455 84.8242 965.002 84.2383C964.553 83.6484 964.328 82.8301 964.328 81.7832ZM966.021 81.9062C966.021 82.5 966.125 82.9551 966.332 83.2715C966.539 83.5879 966.84 83.7461 967.234 83.7461C967.758 83.7461 968.127 83.5254 968.342 83.084V80.582C968.131 80.1406 967.766 79.9199 967.246 79.9199C966.43 79.9199 966.021 80.582 966.021 81.9062ZM974.078 81.7715C974.078 81.1426 974.199 80.582 974.441 80.0898C974.684 79.5977 975.031 79.2168 975.484 78.9473C975.941 78.6777 976.471 78.543 977.072 78.543C977.928 78.543 978.625 78.8047 979.164 79.3281C979.707 79.8516 980.01 80.5625 980.072 81.4609L980.084 81.8945C980.084 82.8672 979.812 83.6484 979.27 84.2383C978.727 84.8242 977.998 85.1172 977.084 85.1172C976.17 85.1172 975.439 84.8242 974.893 84.2383C974.35 83.6523 974.078 82.8555 974.078 81.8477V81.7715ZM975.771 81.8945C975.771 82.4961 975.885 82.957 976.111 83.2773C976.338 83.5938 976.662 83.752 977.084 83.752C977.494 83.752 977.814 83.5957 978.045 83.2832C978.275 82.9668 978.391 82.4629 978.391 81.7715C978.391 81.1816 978.275 80.7246 978.045 80.4004C977.814 80.0762 977.49 79.9141 977.072 79.9141C976.658 79.9141 976.338 80.0762 976.111 80.4004C975.885 80.7207 975.771 81.2188 975.771 81.8945ZM981.59 85V79.9023H980.646V78.6602H981.59V78.1211C981.59 77.4102 981.793 76.8594 982.199 76.4688C982.609 76.0742 983.182 75.877 983.916 75.877C984.15 75.877 984.438 75.916 984.777 75.9941L984.76 77.3066C984.619 77.2715 984.447 77.2539 984.244 77.2539C983.607 77.2539 983.289 77.5527 983.289 78.1504V78.6602H984.549V79.9023H983.289V85H981.59ZM994.984 76.4688V82.0879C994.984 83.0215 994.691 83.7598 994.105 84.3027C993.523 84.8457 992.727 85.1172 991.715 85.1172C990.719 85.1172 989.928 84.8535 989.342 84.3262C988.756 83.7988 988.457 83.0742 988.445 82.1523V76.4688H990.203V82.0996C990.203 82.6582 990.336 83.0664 990.602 83.3242C990.871 83.5781 991.242 83.7051 991.715 83.7051C992.703 83.7051 993.205 83.1855 993.221 82.1465V76.4688H994.984ZM997.873 78.6602L997.926 79.3926C998.379 78.8262 998.986 78.543 999.748 78.543C1000.42 78.543 1000.92 78.7402 1001.25 79.1348C1001.58 79.5293 1001.74 80.1191 1001.75 80.9043V85H1000.06V80.9453C1000.06 80.5859 999.98 80.3262 999.824 80.166C999.668 80.002 999.408 79.9199 999.045 79.9199C998.568 79.9199 998.211 80.123 997.973 80.5293V85H996.279V78.6602H997.873ZM1004.83 85H1003.13V78.6602H1004.83V85ZM1003.03 77.0195C1003.03 76.7656 1003.11 76.5566 1003.28 76.3926C1003.45 76.2285 1003.69 76.1465 1003.98 76.1465C1004.27 76.1465 1004.5 76.2285 1004.67 76.3926C1004.84 76.5566 1004.93 76.7656 1004.93 77.0195C1004.93 77.2773 1004.84 77.4883 1004.66 77.6523C1004.49 77.8164 1004.26 77.8984 1003.98 77.8984C1003.69 77.8984 1003.46 77.8164 1003.29 77.6523C1003.12 77.4883 1003.03 77.2773 1003.03 77.0195ZM1008.26 77.1016V78.6602H1009.34V79.9023H1008.26V83.0664C1008.26 83.3008 1008.3 83.4688 1008.39 83.5703C1008.48 83.6719 1008.65 83.7227 1008.91 83.7227C1009.09 83.7227 1009.26 83.709 1009.4 83.6816V84.9648C1009.07 85.0664 1008.73 85.1172 1008.38 85.1172C1007.19 85.1172 1006.59 84.5176 1006.56 83.3184V79.9023H1005.64V78.6602H1006.56V77.1016H1008.26Z" fill="black"/>
<defs>
<filter id="filter0_d" x="70" y="47" width="152" height="85" filterUnits="userSpaceOnUse" color-interpolation-filters="sRGB">
<feFlood flood-opacity="0" result="BackgroundImageFix"/>
<feColorMatrix in="SourceAlpha" type="matrix" values="0 0 0 0 0 0 0 0 0 0 0 0 0 0 0 0 0 0 127 0"/>
<feOffset dy="4"/>
<feGaussianBlur stdDeviation="2"/>
<feColorMatrix type="matrix" values="0 0 0 0 0 0 0 0 0 0 0 0 0 0 0 0 0 0 0.25 0"/>
<feBlend mode="normal" in2="BackgroundImageFix" result="effect1_dropShadow"/>
<feBlend mode="normal" in="SourceGraphic" in2="effect1_dropShadow" result="shape"/>
</filter>
<filter id="filter1_d" x="270" y="47" width="152" height="84" filterUnits="userSpaceOnUse" color-interpolation-filters="sRGB">
<feFlood flood-opacity="0" result="BackgroundImageFix"/>
<feColorMatrix in="SourceAlpha" type="matrix" values="0 0 0 0 0 0 0 0 0 0 0 0 0 0 0 0 0 0 127 0"/>
<feOffset dy="4"/>
<feGaussianBlur stdDeviation="2"/>
<feColorMatrix type="matrix" values="0 0 0 0 0 0 0 0 0 0 0 0 0 0 0 0 0 0 0.25 0"/>
<feBlend mode="normal" in2="BackgroundImageFix" result="effect1_dropShadow"/>
<feBlend mode="normal" in="SourceGraphic" in2="effect1_dropShadow" result="shape"/>
</filter>
<filter id="filter2_d" x="671" y="50" width="152" height="84" filterUnits="userSpaceOnUse" color-interpolation-filters="sRGB">
<feFlood flood-opacity="0" result="BackgroundImageFix"/>
<feColorMatrix in="SourceAlpha" type="matrix" values="0 0 0 0 0 0 0 0 0 0 0 0 0 0 0 0 0 0 127 0"/>
<feOffset dy="4"/>
<feGaussianBlur stdDeviation="2"/>
<feColorMatrix type="matrix" values="0 0 0 0 0 0 0 0 0 0 0 0 0 0 0 0 0 0 0.25 0"/>
<feBlend mode="normal" in2="BackgroundImageFix" result="effect1_dropShadow"/>
<feBlend mode="normal" in="SourceGraphic" in2="effect1_dropShadow" result="shape"/>
</filter>
<filter id="filter3_d" x="872" y="50" width="152" height="84" filterUnits="userSpaceOnUse" color-interpolation-filters="sRGB">
<feFlood flood-opacity="0" result="BackgroundImageFix"/>
<feColorMatrix in="SourceAlpha" type="matrix" values="0 0 0 0 0 0 0 0 0 0 0 0 0 0 0 0 0 0 127 0"/>
<feOffset dy="4"/>
<feGaussianBlur stdDeviation="2"/>
<feColorMatrix type="matrix" values="0 0 0 0 0 0 0 0 0 0 0 0 0 0 0 0 0 0 0.25 0"/>
<feBlend mode="normal" in2="BackgroundImageFix" result="effect1_dropShadow"/>
<feBlend mode="normal" in="SourceGraphic" in2="effect1_dropShadow" result="shape"/>
</filter>
<filter id="filter4_d" x="470" y="48" width="152" height="84" filterUnits="userSpaceOnUse" color-interpolation-filters="sRGB">
<feFlood flood-opacity="0" result="BackgroundImageFix"/>
<feColorMatrix in="SourceAlpha" type="matrix" values="0 0 0 0 0 0 0 0 0 0 0 0 0 0 0 0 0 0 127 0"/>
<feOffset dy="4"/>
<feGaussianBlur stdDeviation="2"/>
<feColorMatrix type="matrix" values="0 0 0 0 0 0 0 0 0 0 0 0 0 0 0 0 0 0 0.25 0"/>
<feBlend mode="normal" in2="BackgroundImageFix" result="effect1_dropShadow"/>
<feBlend mode="normal" in="SourceGraphic" in2="effect1_dropShadow" result="shape"/>
</filter>
</defs>
</svg>
