<svg xmlns="http://www.w3.org/2000/svg" xmlns:xlink="http://www.w3.org/1999/xlink" viewBox="0 0 574.46 343.2"><defs><style>.cls-1{fill:#f9f9f9;}.cls-1,.cls-5,.cls-6{mix-blend-mode:multiply;}.cls-2{isolation:isolate;}.cls-3{clip-path:url(#clip-path);}.cls-4{fill:#dcdcdc;}.cls-5{fill:#f4f4f4;}.cls-6{fill:#6a6a69;opacity:0.2;}.cls-7{fill:#f6bf66;}.cls-8{fill:#3c3c3b;}.cls-9{fill:#c5c5c5;}.cls-10{fill:#545454;}.cls-11{fill:#818180;}.cls-12{fill:#2b6cb0;}.cls-13{fill:#f5ca8f;}.cls-14{fill:none;}.cls-15{fill:#42af6f;}.cls-16{fill:#f3f3f3;}</style><clipPath id="clip-path"><path id="SVGID" class="cls-1" d="M29,172.62c.74-43.69,28-75.49,62.18-84.83s54.9-29.91,60.68-55.36c7.34-32.33,74.48-37,115.72-9.88s46.39,45.91,76.9,45S447.14,17.76,501.64,28.61s72.29,92.94,45.75,123.76-28.91,58.39-27.48,72-24,61.55-76.59,64.23S352,255.77,312.88,261.37,187,291.43,140.52,291.05,27.83,240.66,29,172.62Z"/></clipPath></defs><title>startpage-focus-application_1</title><g class="cls-2"><g id="Ebene_2" data-name="Ebene 2"><g id="Ebene_2-2" data-name="Ebene 2"><path id="SVGID-2" data-name="SVGID" class="cls-1" d="M29,172.62c.74-43.69,28-75.49,62.18-84.83s54.9-29.91,60.68-55.36c7.34-32.33,74.48-37,115.72-9.88s46.39,45.91,76.9,45S447.14,17.76,501.64,28.61s72.29,92.94,45.75,123.76-28.91,58.39-27.48,72-24,61.55-76.59,64.23S352,255.77,312.88,261.37,187,291.43,140.52,291.05,27.83,240.66,29,172.62Z"/><g class="cls-3"><path class="cls-4" d="M85.91,48.76c-.84.6-1.66,1.23-2.45,1.88L72.35,48.18a56.36,56.36,0,0,0-5.07,6.12l4.47,10.44a46.37,46.37,0,0,0-2.59,5.65L58.34,73.81A57.82,57.82,0,0,0,57,81.65l9.08,6.8a46.11,46.11,0,0,0,.58,6.19L59,103a55.57,55.57,0,0,0,2.76,7.44l11.29,1.36c.54.87,1.1,1.74,1.7,2.59s1.24,1.66,1.89,2.46L74.18,128A55.42,55.42,0,0,0,80.3,133l10.44-4.47a45.69,45.69,0,0,0,5.65,2.59L99.8,142a56.44,56.44,0,0,0,7.85,1.33l6.8-9.08a46,46,0,0,0,6.18-.58l8.38,7.67a55.7,55.7,0,0,0,7.45-2.76l1.35-11.29c.88-.54,1.74-1.1,2.59-1.7s1.67-1.24,2.46-1.88L154,126.14A55.42,55.42,0,0,0,159,120l-4.47-10.44a47.79,47.79,0,0,0,2.59-5.64L168,100.52a56.47,56.47,0,0,0,1.34-7.85l-9.08-6.8a46,46,0,0,0-.58-6.18l7.67-8.38a57.65,57.65,0,0,0-2.76-7.45l-11.3-1.35c-.53-.88-1.09-1.74-1.7-2.59s-1.23-1.66-1.88-2.46l2.46-11.11A56.36,56.36,0,0,0,146,41.28l-10.44,4.47a47.93,47.93,0,0,0-5.65-2.59l-3.41-10.81A56.72,56.72,0,0,0,118.67,31l-6.8,9.08a47.5,47.5,0,0,0-6.18.58L97.31,33a55.25,55.25,0,0,0-7.45,2.77L88.5,47.06C87.63,47.6,86.76,48.15,85.91,48.76Zm57,65.23a40.06,40.06,0,0,1-37.95,12.36l6.49-15.83a23.29,23.29,0,0,0,15.28-4.26,24.37,24.37,0,0,0,1.93-1.52Zm5.67-8.12L135.34,94.66a23.45,23.45,0,0,0-.53-16.43l13.24-10.72A40,40,0,0,1,148.56,105.87Zm-54.5-5.16a23.32,23.32,0,0,0,6,5.9l-4.44,16.58A40.08,40.08,0,0,1,73.25,90.41l16.93,1.27A23.18,23.18,0,0,0,94.06,100.71Zm48-41.3L127.32,68.5A23.46,23.46,0,0,0,113,63.74l-6.19-16.11A40.08,40.08,0,0,1,142,59.41Zm-45-8.93,4,16.61c-.51.3-1,.62-1.5,1A23.22,23.22,0,0,0,91,79.57l-17.33.91A39.88,39.88,0,0,1,90,54.5,40.85,40.85,0,0,1,97.06,50.48Z"/><path class="cls-4" d="M546.78,70.06c-.42,0-.83,0-1.24.09l-3.17-3.24a21.88,21.88,0,0,0-3,.94l-.78,4.47a17.61,17.61,0,0,0-2.1,1.32l-4.36-1.22a22.58,22.58,0,0,0-2.16,2.33L531.48,79a19.18,19.18,0,0,0-1.16,2.2l-4.39,1.12a21.43,21.43,0,0,0-.7,3.1l3.48,2.92c0,.41,0,.82,0,1.24s0,.82.09,1.23L525.56,94a22.17,22.17,0,0,0,.94,3l4.47.78a16.84,16.84,0,0,0,1.32,2.1l-1.22,4.37a24,24,0,0,0,2.34,2.16l4.25-1.56a17.73,17.73,0,0,0,2.2,1.16l1.13,4.39a21,21,0,0,0,3.09.71l2.92-3.49c.41,0,.82,0,1.24,0s.82-.05,1.23-.09l3.18,3.24a20.86,20.86,0,0,0,3-.94l.79-4.46a18,18,0,0,0,2.09-1.33l4.37,1.22a25,25,0,0,0,2.16-2.33l-1.56-4.26a18.34,18.34,0,0,0,1.16-2.19l4.4-1.13a22.84,22.84,0,0,0,.7-3.1l-3.48-2.92c0-.41,0-.82,0-1.23s0-.83-.09-1.24l3.25-3.18a23.66,23.66,0,0,0-.94-3l-4.47-.78a19.07,19.07,0,0,0-1.33-2.1l1.22-4.36a20.7,20.7,0,0,0-2.33-2.16l-4.26,1.55a19,19,0,0,0-2.19-1.16L554,67.28a21.43,21.43,0,0,0-3.1-.7L548,70.06C547.61,70.05,547.19,70,546.78,70.06Zm4.82,34.26a16.61,16.61,0,0,1-3.47.52,15.94,15.94,0,0,1-11.93-4.67l5.63-3.88a9.29,9.29,0,0,0,6,1.91c.33,0,.66,0,1-.08Zm3.66-1.48-2-6.63a9.39,9.39,0,0,0,3.41-5.61l6.77-.7A16,16,0,0,1,555.26,102.84Zm-17.1-13.62a9.19,9.19,0,0,0,.73,3.29l-5.1,4.58a16,16,0,0,1-.34-15.86l5.38,4.12A9.4,9.4,0,0,0,538.16,89.22Zm25.06-3.34-6.9-.18A9.42,9.42,0,0,0,552.55,81L554,74.23A16,16,0,0,1,563.22,85.88ZM550.13,73.07l-2.27,6.44q-.36,0-.72,0a9.27,9.27,0,0,0-5.38,2l-6-3.48a15.94,15.94,0,0,1,11.13-5.13A16.55,16.55,0,0,1,550.13,73.07Z"/><path class="cls-4" d="M19,121.4c-.56.4-1.09.82-1.62,1.24L10.09,121a36.32,36.32,0,0,0-3.34,4l2.94,6.87A30.25,30.25,0,0,0,8,135.63L.88,137.88A36.12,36.12,0,0,0,0,143l6,4.47a32.76,32.76,0,0,0,.38,4.07l-5,5.51A35.73,35.73,0,0,0,3.13,162l7.42.89c.36.57.72,1.14,1.12,1.7s.81,1.1,1.24,1.62l-1.62,7.3a37.37,37.37,0,0,0,4,3.34l6.87-2.94a30.25,30.25,0,0,0,3.71,1.7l2.25,7.12a37.31,37.31,0,0,0,5.16.87l4.47-6a29.33,29.33,0,0,0,4.07-.38l5.51,5a37.62,37.62,0,0,0,4.9-1.82l.89-7.43c.57-.35,1.14-.72,1.7-1.12s1.09-.81,1.62-1.24l7.3,1.62a36,36,0,0,0,3.33-4l-2.93-6.87a31,31,0,0,0,1.7-3.71L73,155.45a36.12,36.12,0,0,0,.88-5.16l-6-4.48a32.78,32.78,0,0,0-.38-4.06l5-5.51a35.73,35.73,0,0,0-1.82-4.9l-7.42-.89c-.36-.58-.72-1.15-1.12-1.71s-.81-1.09-1.24-1.61l1.62-7.31a38.49,38.49,0,0,0-4-3.33l-6.87,2.94A31.89,31.89,0,0,0,48,117.72l-2.25-7.11a37.33,37.33,0,0,0-5.16-.88l-4.47,6a31,31,0,0,0-4.07.39l-5.51-5a37.62,37.62,0,0,0-4.9,1.82l-.89,7.43C20.14,120.64,19.57,121,19,121.4Zm37.47,42.91a27,27,0,0,1-4.31,3.84,26.31,26.31,0,0,1-20.65,4.29L35.79,162a15.37,15.37,0,0,0,10.05-2.8,14.07,14.07,0,0,0,1.27-1ZM60.21,159l-8.69-7.37a15.44,15.44,0,0,0-.35-10.81l8.71-7A26.32,26.32,0,0,1,60.21,159Zm-35.84-3.39a15.19,15.19,0,0,0,4,3.87l-2.92,10.91A26.38,26.38,0,0,1,10.68,148.8l11.14.84A15.2,15.2,0,0,0,24.37,155.58Zm31.55-27.17-9.68,6a15.42,15.42,0,0,0-9.45-3.13l-4.07-10.6A26.37,26.37,0,0,1,55.92,128.41Zm-29.58-5.87L29,133.46c-.33.2-.66.41-1,.64a15.33,15.33,0,0,0-5.66,7.57l-11.4.6a26.25,26.25,0,0,1,10.73-17.09A27.29,27.29,0,0,1,26.34,122.54Z"/><path class="cls-4" d="M489.68,18.42c-.56.4-1.1.82-1.62,1.24l-7.3-1.61a36.32,36.32,0,0,0-3.34,4l2.94,6.87a30.25,30.25,0,0,0-1.7,3.71l-7.12,2.25a37.56,37.56,0,0,0-.87,5.16l6,4.47A29.33,29.33,0,0,0,477,48.6l-5,5.51a37.09,37.09,0,0,0,1.82,4.9l7.43.89c.35.57.72,1.14,1.12,1.7s.81,1.09,1.23,1.62L482,70.52a37.27,37.27,0,0,0,4,3.34l6.87-2.94a30.25,30.25,0,0,0,3.71,1.7l2.25,7.12a37.56,37.56,0,0,0,5.16.87l4.47-6a29.33,29.33,0,0,0,4.07-.38l5.51,5a35.67,35.67,0,0,0,4.9-1.81l.89-7.43c.58-.35,1.15-.72,1.7-1.12s1.1-.81,1.62-1.24l7.31,1.62a38.38,38.38,0,0,0,3.33-4l-2.94-6.87a31.69,31.69,0,0,0,1.7-3.71l7.12-2.25a39.17,39.17,0,0,0,.88-5.16l-6-4.48a29.33,29.33,0,0,0-.38-4.06l5.05-5.51a37.09,37.09,0,0,0-1.82-4.9L534,27.47c-.35-.58-.72-1.15-1.12-1.71s-.81-1.09-1.23-1.61l1.61-7.31a37.17,37.17,0,0,0-4-3.33l-6.87,2.94a31.89,31.89,0,0,0-3.71-1.71l-2.25-7.11a37.58,37.58,0,0,0-5.16-.88l-4.47,6a32.76,32.76,0,0,0-4.07.38l-5.51-5a37.09,37.09,0,0,0-4.9,1.82l-.89,7.43C490.8,17.66,490.23,18,489.68,18.42Zm37.47,42.9a26.63,26.63,0,0,1-4.32,3.85,26.28,26.28,0,0,1-20.64,4.29l4.27-10.41a15.37,15.37,0,0,0,10.05-2.8c.44-.32.87-.66,1.27-1ZM530.88,56l-8.69-7.38a15.41,15.41,0,0,0-.35-10.8l8.7-7A26.32,26.32,0,0,1,530.88,56ZM495,52.6a15.22,15.22,0,0,0,4,3.87l-2.92,10.91a26.36,26.36,0,0,1-14.75-21.56l11.14.84A15.5,15.5,0,0,0,495,52.6Zm31.56-27.17-9.68,6a15.42,15.42,0,0,0-9.45-3.13l-4.08-10.6A26.39,26.39,0,0,1,526.59,25.43ZM497,19.56l2.66,10.92c-.33.2-.66.41-1,.64A15.31,15.31,0,0,0,493,38.69l-11.4.6A26.21,26.21,0,0,1,492.36,22.2,26.55,26.55,0,0,1,497,19.56Z"/><path class="cls-4" d="M551,117.81c-.3-.11-.61-.21-.91-.3l-1.32-3.28a17,17,0,0,0-2.46-.22l-1.89,3a13.6,13.6,0,0,0-1.91.32l-2.77-2.17a17,17,0,0,0-2.25,1l-.15,3.52a15.82,15.82,0,0,0-1.48,1.23l-3.5-.49a18.25,18.25,0,0,0-1.42,2l1.64,3.13c-.13.29-.26.59-.37.89s-.21.61-.3.92l-3.28,1.32a17,17,0,0,0-.22,2.46l3,1.89a13.46,13.46,0,0,0,.32,1.9l-2.17,2.78a16.85,16.85,0,0,0,1,2.24l3.52.15a16,16,0,0,0,1.23,1.49l-.49,3.49a17.08,17.08,0,0,0,2,1.43l3.13-1.64c.29.13.59.25.89.36s.61.21.92.3l1.32,3.28a17.05,17.05,0,0,0,2.46.23l1.89-3a15.09,15.09,0,0,0,1.9-.33l2.78,2.17a16.79,16.79,0,0,0,2.24-1l.15-3.53a13.32,13.32,0,0,0,1.49-1.23l3.49.49a17,17,0,0,0,1.43-2l-1.64-3.14c.13-.29.25-.58.36-.89s.21-.6.3-.91l3.28-1.32a17.05,17.05,0,0,0,.23-2.46l-3-1.89a15.24,15.24,0,0,0-.33-1.91l2.17-2.77a19,19,0,0,0-1-2.25l-3.53-.15a13.22,13.22,0,0,0-1.23-1.48L557,118a18.13,18.13,0,0,0-2-1.42l-3.14,1.64C551.56,118.05,551.27,117.92,551,117.81Zm-6.71,26.07a12.47,12.47,0,0,1-9.84-7.56l5.2-1.12a7.22,7.22,0,0,0,3.77,3.17,7,7,0,0,0,.74.23Zm3.07,0,.56-5.36a7.28,7.28,0,0,0,4.11-3l5.08,1.51A12.46,12.46,0,0,1,547.32,143.91ZM539.07,129a7.27,7.27,0,0,0-.45,2.58l-5,1.78a12.43,12.43,0,0,1,4.47-11.51l2.65,4.56A7.39,7.39,0,0,0,539.07,129Zm19,5-4.92-2.18a7.3,7.3,0,0,0-1.3-4.52l3-4.41A12.43,12.43,0,0,1,558.09,134.07ZM552.48,121l-3.55,4c-.16-.08-.33-.15-.51-.22a7.19,7.19,0,0,0-4.46-.18l-3.28-4.29a12.45,12.45,0,0,1,9.53-.38A13.27,13.27,0,0,1,552.48,121Z"/><path class="cls-4" d="M513.11,86.35c-.31-.11-.61-.21-.92-.3l-1.32-3.28a18.58,18.58,0,0,0-2.46-.22l-1.89,3a15.09,15.09,0,0,0-1.9.33l-2.78-2.18a19.06,19.06,0,0,0-2.25,1l-.15,3.52A14.5,14.5,0,0,0,498,89.48l-3.49-.5A17.08,17.08,0,0,0,493,91l1.64,3.13c-.13.29-.26.59-.37.89s-.21.61-.3.92l-3.28,1.32a18.58,18.58,0,0,0-.22,2.46l3,1.89a15.09,15.09,0,0,0,.33,1.9l-2.18,2.78a19.06,19.06,0,0,0,1,2.25l3.52.14a14.62,14.62,0,0,0,1.24,1.49l-.5,3.49a17.08,17.08,0,0,0,2,1.43l3.13-1.64.89.37c.31.11.61.21.92.3l1.32,3.27a17.05,17.05,0,0,0,2.46.23l1.89-3a15.09,15.09,0,0,0,1.9-.33l2.78,2.18a19.06,19.06,0,0,0,2.25-1l.14-3.52a14.62,14.62,0,0,0,1.49-1.24l3.49.5a18,18,0,0,0,1.43-2L521.41,106c.13-.3.25-.59.37-.89s.21-.61.3-.92l3.28-1.32a18.58,18.58,0,0,0,.22-2.46l-3-1.89a15.09,15.09,0,0,0-.33-1.9l2.18-2.78a19.06,19.06,0,0,0-1-2.25l-3.52-.15A14.5,14.5,0,0,0,518.65,90l.5-3.49a18,18,0,0,0-2-1.43L514,86.72C513.7,86.59,513.41,86.46,513.11,86.35Zm-6.72,26.07a12,12,0,0,1-2.65-.66,12.42,12.42,0,0,1-7.19-6.9l5.2-1.12a7.16,7.16,0,0,0,3.78,3.17,6.18,6.18,0,0,0,.73.23Zm3.08,0,.55-5.36a7.33,7.33,0,0,0,4.12-3l5.07,1.51A12.46,12.46,0,0,1,509.47,112.45Zm-8.26-14.88a7.5,7.5,0,0,0-.45,2.58l-5,1.78a12.5,12.5,0,0,1,4.47-11.51L502.85,95A7.26,7.26,0,0,0,501.21,97.57Zm19,5-4.91-2.17A7.27,7.27,0,0,0,514,95.92l3-4.42A12.45,12.45,0,0,1,520.23,102.61Zm-5.61-13.1-3.55,4c-.16-.08-.33-.15-.51-.22a7.34,7.34,0,0,0-4.46-.18l-3.28-4.28a12.41,12.41,0,0,1,9.53-.38A12.22,12.22,0,0,1,514.62,89.51Z"/><path class="cls-4" d="M185.16,62.93c-.41.29-.8.6-1.18.91l-5.34-1.18a26.06,26.06,0,0,0-2.44,2.94l2.15,5a21.51,21.51,0,0,0-1.25,2.72L171.9,75a26.88,26.88,0,0,0-.64,3.78L175.62,82a22.94,22.94,0,0,0,.28,3l-3.69,4a28.22,28.22,0,0,0,1.33,3.59l5.43.65c.26.42.53.83.82,1.24s.6.8.91,1.19L179.52,101a27.17,27.17,0,0,0,2.94,2.44l5-2.15a23,23,0,0,0,2.72,1.24l1.64,5.21a28.14,28.14,0,0,0,3.78.64l3.27-4.37a22.94,22.94,0,0,0,3-.28l4,3.69a26.78,26.78,0,0,0,3.59-1.33l.65-5.43c.42-.26.83-.53,1.24-.82s.8-.59,1.18-.9l5.35,1.18a27.28,27.28,0,0,0,2.44-3l-2.15-5a23.56,23.56,0,0,0,1.24-2.71l5.2-1.65a26.77,26.77,0,0,0,.65-3.77l-4.37-3.27a22.93,22.93,0,0,0-.28-3l3.69-4A28.09,28.09,0,0,0,223,70.2l-5.43-.65c-.26-.42-.53-.84-.82-1.25s-.59-.8-.9-1.18L217,61.78a26.16,26.16,0,0,0-3-2.44l-5,2.15a22,22,0,0,0-2.71-1.25L204.69,55a26.74,26.74,0,0,0-3.77-.64l-3.27,4.36a22.93,22.93,0,0,0-3,.28l-4-3.69a28.09,28.09,0,0,0-3.58,1.33l-.65,5.44C186,62.37,185.57,62.64,185.16,62.93Zm27.41,31.38a19.26,19.26,0,0,1-18.26,6l3.13-7.62a11.27,11.27,0,0,0,7.35-2,11,11,0,0,0,.92-.74Zm2.73-3.9L208.94,85a11.27,11.27,0,0,0-.26-7.9L215.05,72A19.3,19.3,0,0,1,215.3,90.41Zm-26.22-2.48A11.17,11.17,0,0,0,192,90.76l-2.14,8a19.29,19.29,0,0,1-7.3-6.19A19.05,19.05,0,0,1,179.07,83l8.14.61A11.22,11.22,0,0,0,189.08,87.93Zm23.08-19.87-7.08,4.37a11.32,11.32,0,0,0-6.92-2.29l-3-7.75A19.28,19.28,0,0,1,212.16,68.06Zm-21.64-4.3,1.95,8c-.24.15-.49.3-.72.47a11.22,11.22,0,0,0-4.14,5.53l-8.34.44a19.4,19.4,0,0,1,11.25-14.43Z"/></g><path class="cls-1" d="M6.9,199C2,152.71,26.65,116.43,61.59,103.2s53.79-37,56.94-64.46S192.45-7.72,239.6,17s55,44,87.16,40S428.85-5.69,487.88.45s88.54,91.19,64.49,126.37S532.77,191,532.69,205.6c-.17,35.57-17.34,67.41-72.61,75.4s-100.82-25.73-141.45-16-129.18,44.1-178.37,48.25S14.55,271,6.9,199Z"/><path class="cls-5" d="M14.7,207.38c-1.81-46.49,25.22-81,61-91.9S131.82,82.11,136.8,55s76.86-41.41,122.25-13.63,52,47.57,84.29,45.77S449.39,31.4,507.88,41.47s82.24,96.92,55.89,130.41-23.85,62.73-24.9,77.28c-2.56,35.48-21.81,66.11-77.5,70.38s-98.87-32.42-140.06-25.41-131.84,35.36-181.2,36.21S17.51,279.78,14.7,207.38Z"/><ellipse class="cls-6" cx="125.17" cy="302.88" rx="6.47" ry="1.68"/><ellipse class="cls-6" cx="206.54" cy="302.88" rx="6.07" ry="1.68"/><path class="cls-7" d="M133.66,204.9c-2,3-10,70.49-11.27,95.42a2.94,2.94,0,0,0,3,3.09h0a3,3,0,0,0,2.92-2.5l14.64-93.86Z"/><path class="cls-7" d="M198.05,204.9c2,3,10,70.49,11.27,95.42a2.94,2.94,0,0,1-2.95,3.09h0a3,3,0,0,1-2.92-2.5L188.8,207.05Z"/><path class="cls-7" d="M210.1,201.39l0,.68c-.28,5.2-5,9.27-10.58,9.18h0l-10-.17-47-.8-10-.17h-.65c-5.71-.1-10.28-4.44-10.23-9.73v-.74a9,9,0,0,1,1.42-4.77,10.57,10.57,0,0,1,9.2-4.8l67.73,1.21a10.73,10.73,0,0,1,7.91,3.59A9.2,9.2,0,0,1,210.1,201.39Z"/><path class="cls-8" d="M222.6,191.53h-.15l-68.73-.08a3.08,3.08,0,1,1,0-6.15l68.72.07a3.08,3.08,0,0,1,.15,6.15Z"/><path class="cls-8" d="M102,129.14h57.23a10.89,10.89,0,0,1,9.86,6.25L195.5,191.5H124.38a6.64,6.64,0,0,1-6.17-4.2L97.7,135.39A4.57,4.57,0,0,1,102,129.14Z"/><path class="cls-9" d="M103.71,133.16h56.91a5,5,0,0,1,4.52,2.87l21.7,46a1.4,1.4,0,0,1-1.27,2h-61a3.69,3.69,0,0,1-3.44-2.34L102.6,134.8A1.2,1.2,0,0,1,103.71,133.16Z"/><path class="cls-6" d="M413.39,170.64s22.27,11.93,24.11,32.13.16,104-44.49,124.64c-44.18,20.42-101.57,16.1-126.38,13.62-22.63-2.25-35.17-17.12-38-27.36s-7.33-48.39,16.47-60.7,48.79-31.15,73.77-49.51S386.69,155.14,413.39,170.64Z"/><path class="cls-8" d="M418.23,152.69s23,12.77,24.95,34.37.16,111.28-46.05,133.36S289.75,337.4,266.34,335s-36.4-18.33-39.3-29.28-7.58-51.77,17.05-64.94,50.5-33.33,76.35-53S390.59,136.11,418.23,152.69Z"/><path class="cls-10" d="M251.35,248.22s6.22.33,7,13.13c0,0-14.43,12.93-33.91,16-1.46.23,2-10,2.57-11.36C229.51,259.4,237.41,255.16,251.35,248.22Z"/><path class="cls-11" d="M321.4,233.18h-6.24a16,16,0,0,1-11.46-4.84c-10.31-10.65-36.09-35.71-56.51-42.68a7,7,0,0,0-8.54,3.61c-4.26,9.09-10.25,30.27,3.92,62.32a6.36,6.36,0,0,0,9.18,2.95,5.2,5.2,0,0,0,2.06-2.48L256,221.69a1.55,1.55,0,0,1,2.56-1.07c7.23,6.22,29,25,34,29.84C298.56,256.26,328.92,252.73,321.4,233.18Z"/><path class="cls-10" d="M194.51,326.59a49.32,49.32,0,0,1,26.91-11.78l4.28,2.61A46.62,46.62,0,0,1,218,325.7c-4.58,2.66-11.65,6.26-17.52,7C194.77,333.5,193.93,330.06,194.51,326.59Z"/><path class="cls-10" d="M227,266c3.39,1.09,4.88,5.89,13.48,2.72a75.7,75.7,0,0,0,17.68-9.32c.07.62.13,1.27.18,2,0,0-15.21,14.46-34.69,17.54a1.94,1.94,0,0,1-2.1-2.61A48.85,48.85,0,0,1,227,266Z"/><path class="cls-10" d="M190.37,330.7a43.52,43.52,0,0,1,4.14-4.11c-.58,3.47.26,6.91,6,6.15,5.87-.78,12.94-4.38,17.52-7-5.74,4.9-14.48,10.09-25.5,9.79A2.89,2.89,0,0,1,190.37,330.7Z"/><path class="cls-11" d="M320.92,242.67l-58,4.64a6.62,6.62,0,0,0-4.39,1.73c-7.42,6.81-35.07,29.6-40.54,67.62,0,0-1.06,3.26,5.29,3.81a121.89,121.89,0,0,0,35.06-38.36c17-30.05,50.57-16.52,50.57-16.52,11-8,26.65-9.58,38.41-12.24Z"/><path class="cls-12" d="M312.13,232.89s11.32-11.21,12.93-31.08c0,0,7.91-35.82,9.06-36.1,4.88-1.22,21.64-9,37.31-.38,2.14,1.17,5.41,2.27,8.95,0,2.37-1.53,1.54,8.59,3.5,11.27,7.72,10.57-6.42,34.22-36.56,76.74l-7.22,1.38-5.7-2.12a39.52,39.52,0,0,1-18.91-14.79Z"/><path class="cls-13" d="M360.76,131.62s27,7.29,25.25,24.41a11.92,11.92,0,0,1-3.5,7.78A64,64,0,0,0,393,183.5c4.51-4.17,8.05-10,9.62-18.06,6.84-35.13-40.28-41.78-40.28-41.78Z"/><path class="cls-12" d="M366.52,168.16l-5.59,31.11s14.38,10.93,16.95,2.23c4.16-14.09,14.49-14.5,20.73-24.16a56.11,56.11,0,0,1-14.37-16C375.39,172.54,366.52,168.16,366.52,168.16Z"/><path class="cls-13" d="M342.85,134.19S319.2,140.4,320.72,155a9.94,9.94,0,0,0,3.06,6.62,53.76,53.76,0,0,1-9.21,16.76A27.21,27.21,0,0,1,306.13,163c-6-29.9,35.32-35.56,35.32-35.56Z"/><path class="cls-12" d="M337.92,165.08l4.85,26.24s-22.55-3.18-32.73-18.49a48,48,0,0,0,12.48-13.48C330.21,168.77,337.92,165.08,337.92,165.08Z"/><path class="cls-13" d="M357.11,148.35l4.57,15.25a1.68,1.68,0,0,1-.65,1.87,17,17,0,0,1-15.85,1.59,2.49,2.49,0,0,1-1.6-2.13l-1.09-13.29Z"/><path class="cls-13" d="M330.33,136s2.25,15.81,8.32,20.68,17.91,1.2,21.91-10.72l-8-20.39Z"/><path class="cls-8" d="M353.49,138.75a.78.78,0,0,1-1-.62,20.42,20.42,0,0,0-1.87-6.32s.58-2.07-5.25,1.06-14.57,7.74-19.71,5-10.11-16.13,3.16-13.64a.78.78,0,0,0,.93-.82c-.16-2.21.06-7.29,5.21-8.93,4.82-1.52,7.46.65,8.54,2a.79.79,0,0,0,1.22,0c1.45-1.89,5.37-5.9,11.14-3.36,4.75,2.1,5.49,5,5.42,6.85a.78.78,0,0,0,1.11.75c1.45-.67,3.8-1,6,1.79,3.1,3.88-1.33,7.25-2.66,8.14a.79.79,0,0,0-.36.64c0,2-.32,10.84-4.74,15.82a.79.79,0,0,1-1.31-.23l-3.41-8.11a.77.77,0,0,0-1-.44Z"/><path class="cls-13" d="M353.42,140.4s2.08-8.46,5.23-5.71-.82,8.79-4.44,9.94Z"/><path class="cls-6" d="M340.1,254.73S352.19,241.6,356.61,232s18.05-31.4,28.05-40.7c-4.89,15.6-26.27,48.35-37.34,62Z"/><rect class="cls-14" x="263.6" y="171.62" width="180.07" height="158.22"/><path class="cls-6" d="M258.59,220.62s3-1.84,7.18.29c8.19,4.16,15,12.81,21.17,17.5,3.22,2.43,0,7,0,7S263.72,224.41,258.59,220.62Z"/><path class="cls-15" d="M161.85,158.16c2.9,8.18-1.5,16.53-10,16.53s-17.95-4-20.8-13.14c-3.58-11.39,5.46-17.66,11-17.66C150.56,143.89,158.35,148.27,161.85,158.16Z"/><polygon class="cls-16" points="142.83 167.79 136.51 161.48 138.92 159.08 142.83 162.99 153.98 151.84 156.38 154.24 142.83 167.79"/><ellipse class="cls-6" cx="490.79" cy="331.5" rx="28.28" ry="3.49"/><path class="cls-7" d="M524.68,259.72v12.12H520l-5.74,58.78-11,1.93a69.84,69.84,0,0,1-23.48.1l-12.27-2-5.74-58.78h-4.65V259.72H482.9l0-.26h6l.08.26h.14v-.26h3.71v.26h.12l.09-.26h6l0,.26Z"/><path class="cls-15" d="M488.83,259.47h-6l-2.72-15.3q-7.69-.72-14.23-1.88l-.5-.1q-4-.74-7.67-1.62l-.2,0V232.6l-3,7-.05.13a84.6,84.6,0,0,1-17.16-6.56l.12-.41,2.32-7.18-4.68,5.84-.27.35a43.88,43.88,0,0,1-13.35-11.59l.31-.38,6.33-7.76-8.6,4.31-.4.19c-5.83-10.41-3.56-19.67-3.56-19.67,46-7.58,64.24,28.17,69,47.67l-.26,0Z"/><path class="cls-15" d="M508.22,207.31l-5.51,3.26h4.44A78.73,78.73,0,0,1,492.31,235l.46,24.43h-3.72L489.5,235l-.62-.72c-.11-.12-.22-.25-.32-.38a77.48,77.48,0,0,1-13.89-23.37h4.43l-5-2.92-.57-.34a49.74,49.74,0,0,1-2.15-14.16c0-1.83.05-3.6.17-5.31h5.56l-5.08-3-.22-.13A60.41,60.41,0,0,1,475,170.43h7.37l-5.59-3.33-.37-.21c4.49-10.15,10.8-14.88,13.36-16.46l.78-.47.15-.08.2-.11h0s8.76,4.11,14.51,17.13l-6,3.54h7.37A60.89,60.89,0,0,1,510,184.69l-5.33,3.15h5.58c.11,1.71.18,3.48.18,5.31A49.39,49.39,0,0,1,508.22,207.31Z"/><path class="cls-15" d="M562.66,216.55l-.36-.17-8.63-4.33,6.37,7.82.27.32A44.12,44.12,0,0,1,547,231.78l-.08-.09-4.88-6.1,2.4,7.54,0,.05c-1.08.57-2.21,1.13-3.41,1.67a1,1,0,0,1-.29.14,90.41,90.41,0,0,1-13.45,4.75l-3-7.14v7.94l-.18,0a156.07,156.07,0,0,1-22.42,3.6L499,259.47h-6l4.5-14.94-.26,0c4.77-19.5,23-55.25,69-47.67C566.22,196.88,568.49,206.14,562.66,216.55Z"/><path class="cls-6" d="M461.55,271.71l58.48.13-.86,3.85s-10.44-2.07-31.2-2c-14.66.06-25.89,1.2-25.89,1.2Z"/><path class="cls-6" d="M562.3,216.38l-8.63-4.33,6.37,7.82a45.42,45.42,0,0,1-13.16,11.82l-4.88-6.1,2.4,7.54c-1.08.59-2.21,1.17-3.38,1.72a1,1,0,0,1-.29.14,90.41,90.41,0,0,1-13.45,4.75l-3-7.14v7.94l-.18,0a156.07,156.07,0,0,1-22.42,3.6s18.37-41.52,64.56-47.29A31.33,31.33,0,0,1,562.3,216.38Z"/><path class="cls-6" d="M480.14,244.17a131.55,131.55,0,0,1-14.23-1.88l-.5-.1c-2.56-.49-5.21-1.08-7.87-1.78V232.6l-3,7a87.64,87.64,0,0,1-17.09-6.84l2.32-7.18-4.68,5.84a44.86,44.86,0,0,1-13.31-11.62l6.33-7.76-8.6,4.31a32.86,32.86,0,0,1-4-19.48S452,210.08,480.14,244.17Z"/><path class="cls-6" d="M489.5,235l-.62-.72c-.11-.12-.22-.25-.32-.38a72.58,72.58,0,0,1-13.5-23.37h4l-5-2.92a60,60,0,0,1-2.3-19.81l.23-3a59,59,0,0,1,3.32-14.39h7l-5.59-3.33c3.49-7.81,8.33-13.71,13-16.67l.78-.47.15-.08.2-.11h0c-6.35,25.58,1.43,34.18,2.06,49.18S489.5,235,489.5,235Z"/><polygon class="cls-6" points="189.46 211.26 199.47 211.26 202.53 232.67 192.24 229.06 189.46 211.26"/><polygon class="cls-6" points="142.05 209.26 132.04 209.26 128.98 230.67 139.27 227.06 142.05 209.26"/><path class="cls-6" d="M207.81,194.86H123a10.57,10.57,0,0,1,9.2-4.8l67.73,1.21A10.73,10.73,0,0,1,207.81,194.86Z"/></g></g></g></svg>